{
	"asset":{
		"generator":"Khronos glTF Blender I/O v4.2.70",
		"version":"2.0"
	},
	"scene":0,
	"scenes":[
		{
			"name":"Scene",
			"nodes":[
				0
			]
		}
	],
	"nodes":[
		{
			"mesh":0,
			"name":"pantryShelf"
		}
	],
	"materials":[
		{
			"doubleSided":true,
			"name":"oakwood",
			"pbrMetallicRoughness":{
				"baseColorFactor":[
					0.3199999928474426,
					0.2199999988079071,
					0.12999999523162842,
					1
				],
				"metallicFactor":0,
				"roughnessFactor":0.800000011920929
			}
		},
		{
			"doubleSided":true,
			"name":"wornleather",
			"pbrMetallicRoughness":{
				"baseColorFactor":[
					0.2800000011920929,
					0.18000000715255737,
					0.10999999940395355,
					1
				],
				"metallicFactor":0,
				"roughnessFactor":0.8500000238418579
			}
		},
		{
			"doubleSided":true,
			"name":"stone",
			"pbrMetallicRoughness":{
				"baseColorFactor":[
					0.41999998688697815,
					0.3799999952316284,
					0.33000001311302185,
					1
				],
				"metallicFactor":0,
				"roughnessFactor":0.8500000238418579
			}
		},
		{
			"doubleSided":true,
			"name":"brass",
			"pbrMetallicRoughness":{
				"baseColorFactor":[
					0.41999998688697815,
					0.30000001192092896,
					0.11999999731779099,
					1
				],
				"metallicFactor":0.8999999761581421,
				"roughnessFactor":0.3499999940395355
			}
		},
		{
			"doubleSided":true,
			"name":"bookcloth",
			"pbrMetallicRoughness":{
				"baseColorFactor":[
					0.20000000298023224,
					0.23999999463558197,
					0.20000000298023224,
					1
				],
				"metallicFactor":0,
				"roughnessFactor":0.8999999761581421
			}
		}
	],
	"meshes":[
		{
			"name":"Cube",
			"primitives":[
				{
					"attributes":{
						"POSITION":0,
						"NORMAL":1,
						"TEXCOORD_0":2
					},
					"indices":3,
					"material":0
				},
				{
					"attributes":{
						"POSITION":4,
						"NORMAL":5,
						"TEXCOORD_0":6
					},
					"indices":7,
					"material":1
				},
				{
					"attributes":{
						"POSITION":8,
						"NORMAL":9,
						"TEXCOORD_0":10
					},
					"indices":11,
					"material":2
				},
				{
					"attributes":{
						"POSITION":12,
						"NORMAL":13,
						"TEXCOORD_0":14
					},
					"indices":11,
					"material":3
				},
				{
					"attributes":{
						"POSITION":15,
						"NORMAL":16,
						"TEXCOORD_0":17
					},
					"indices":18,
					"material":4
				}
			]
		}
	],
	"accessors":[
		{
			"bufferView":0,
			"componentType":5126,
			"count":1728,
			"max":[
				0.6499999761581421,
				1.899999976158142,
				0.22499999403953552
			],
			"min":[
				-0.6499999761581421,
				0,
				-0.22499999403953552
			],
			"type":"VEC3"
		},
		{
			"bufferView":1,
			"componentType":5126,
			"count":1728,
			"type":"VEC3"
		},
		{
			"bufferView":2,
			"componentType":5126,
			"count":1728,
			"type":"VEC2"
		},
		{
			"bufferView":3,
			"componentType":5123,
			"count":2592,
			"type":"SCALAR"
		},
		{
			"bufferView":4,
			"componentType":5126,
			"count":2808,
			"max":[
				0.6200000047683716,
				1.8499999046325684,
				0.0818634182214737
			],
			"min":[
				-0.6200000047683716,
				0.050000011920928955,
				-0.2199999988079071
			],
			"type":"VEC3"
		},
		{
			"bufferView":5,
			"componentType":5126,
			"count":2808,
			"type":"VEC3"
		},
		{
			"bufferView":6,
			"componentType":5126,
			"count":2808,
			"type":"VEC2"
		},
		{
			"bufferView":7,
			"componentType":5123,
			"count":4212,
			"type":"SCALAR"
		},
		{
			"bufferView":8,
			"componentType":5126,
			"count":1020,
			"max":[
				0.49610239267349243,
				1.8060060739517212,
				0.11000828444957733
			],
			"min":[
				-0.5891265869140625,
				0.07999999821186066,
				-0.1182013526558876
			],
			"type":"VEC3"
		},
		{
			"bufferView":9,
			"componentType":5126,
			"count":1020,
			"type":"VEC3"
		},
		{
			"bufferView":10,
			"componentType":5126,
			"count":1020,
			"type":"VEC2"
		},
		{
			"bufferView":11,
			"componentType":5123,
			"count":1836,
			"type":"SCALAR"
		},
		{
			"bufferView":12,
			"componentType":5126,
			"count":1020,
			"max":[
				0.5018087029457092,
				1.822006106376648,
				0.06816937029361725
			],
			"min":[
				-0.5948328971862793,
				0.18449947237968445,
				-0.06816937029361725
			],
			"type":"VEC3"
		},
		{
			"bufferView":13,
			"componentType":5126,
			"count":1020,
			"type":"VEC3"
		},
		{
			"bufferView":14,
			"componentType":5126,
			"count":1020,
			"type":"VEC2"
		},
		{
			"bufferView":15,
			"componentType":5126,
			"count":1296,
			"max":[
				0.5258715152740479,
				1.7599999904632568,
				0.13500000536441803
			],
			"min":[
				-0.4699999690055847,
				0.07999999821186066,
				-0.13500000536441803
			],
			"type":"VEC3"
		},
		{
			"bufferView":16,
			"componentType":5126,
			"count":1296,
			"type":"VEC3"
		},
		{
			"bufferView":17,
			"componentType":5126,
			"count":1296,
			"type":"VEC2"
		},
		{
			"bufferView":18,
			"componentType":5123,
			"count":1944,
			"type":"SCALAR"
		}
	],
	"bufferViews":[
		{
			"buffer":0,
			"byteLength":20736,
			"byteOffset":0,
			"target":34962
		},
		{
			"buffer":0,
			"byteLength":20736,
			"byteOffset":20736,
			"target":34962
		},
		{
			"buffer":0,
			"byteLength":13824,
			"byteOffset":41472,
			"target":34962
		},
		{
			"buffer":0,
			"byteLength":5184,
			"byteOffset":55296,
			"target":34963
		},
		{
			"buffer":0,
			"byteLength":33696,
			"byteOffset":60480,
			"target":34962
		},
		{
			"buffer":0,
			"byteLength":33696,
			"byteOffset":94176,
			"target":34962
		},
		{
			"buffer":0,
			"byteLength":22464,
			"byteOffset":127872,
			"target":34962
		},
		{
			"buffer":0,
			"byteLength":8424,
			"byteOffset":150336,
			"target":34963
		},
		{
			"buffer":0,
			"byteLength":12240,
			"byteOffset":158760,
			"target":34962
		},
		{
			"buffer":0,
			"byteLength":12240,
			"byteOffset":171000,
			"target":34962
		},
		{
			"buffer":0,
			"byteLength":8160,
			"byteOffset":183240,
			"target":34962
		},
		{
			"buffer":0,
			"byteLength":3672,
			"byteOffset":191400,
			"target":34963
		},
		{
			"buffer":0,
			"byteLength":12240,
			"byteOffset":195072,
			"target":34962
		},
		{
			"buffer":0,
			"byteLength":12240,
			"byteOffset":207312,
			"target":34962
		},
		{
			"buffer":0,
			"byteLength":8160,
			"byteOffset":219552,
			"target":34962
		},
		{
			"buffer":0,
			"byteLength":15552,
			"byteOffset":227712,
			"target":34962
		},
		{
			"buffer":0,
			"byteLength":15552,
			"byteOffset":243264,
			"target":34962
		},
		{
			"buffer":0,
			"byteLength":10368,
			"byteOffset":258816,
			"target":34962
		},
		{
			"buffer":0,
			"byteLength":3888,
			"byteOffset":269184,
			"target":34963
		}
	],
	"buffers":[
		{
			"byteLength":273072,
			"uri":"model.bin"
		}
	]
}
