{
	"asset":{
		"generator":"Khronos glTF Blender I/O v4.0.44",
		"version":"2.0"
	},
	"scene":0,
	"scenes":[
		{
			"name":"Scene",
			"nodes":[
				0
			]
		}
	],
	"nodes":[
		{
			"mesh":0,
			"name":"fluoroTube"
		}
	],
	"materials":[
		{
			"doubleSided":true,
			"name":"iron",
			"pbrMetallicRoughness":{
				"baseColorFactor":[
					0.10999999940395355,
					0.10999999940395355,
					0.11999999731779099,
					1
				],
				"metallicFactor":0.8500000238418579,
				"roughnessFactor":0.44999998807907104
			}
		},
		{
			"doubleSided":true,
			"name":"darkwood",
			"pbrMetallicRoughness":{
				"baseColorFactor":[
					0.1599999964237213,
					0.10000000149011612,
					0.07000000029802322,
					1
				],
				"metallicFactor":0,
				"roughnessFactor":0.699999988079071
			}
		},
		{
			"doubleSided":true,
			"name":"wax",
			"pbrMetallicRoughness":{
				"baseColorFactor":[
					0.8299999833106995,
					0.7900000214576721,
					0.6600000262260437,
					1
				],
				"metallicFactor":0,
				"roughnessFactor":0.550000011920929
			}
		}
	],
	"meshes":[
		{
			"name":"Cube",
			"primitives":[
				{
					"attributes":{
						"POSITION":0,
						"NORMAL":1,
						"TEXCOORD_0":2
					},
					"indices":3,
					"material":0
				},
				{
					"attributes":{
						"POSITION":4,
						"NORMAL":5,
						"TEXCOORD_0":6
					},
					"indices":7,
					"material":1
				},
				{
					"attributes":{
						"POSITION":8,
						"NORMAL":9,
						"TEXCOORD_0":10
					},
					"indices":11,
					"material":2
				}
			]
		}
	],
	"accessors":[
		{
			"bufferView":0,
			"componentType":5126,
			"count":528,
			"max":[
				0.6000000238418579,
				0.375,
				0.09000000357627869
			],
			"min":[
				-0.6000000238418579,
				0,
				-0.09000000357627869
			],
			"type":"VEC3"
		},
		{
			"bufferView":1,
			"componentType":5126,
			"count":528,
			"type":"VEC3"
		},
		{
			"bufferView":2,
			"componentType":5126,
			"count":528,
			"type":"VEC2"
		},
		{
			"bufferView":3,
			"componentType":5123,
			"count":816,
			"type":"SCALAR"
		},
		{
			"bufferView":4,
			"componentType":5126,
			"count":1080,
			"max":[
				0.574999988079071,
				0,
				0.07000000029802322
			],
			"min":[
				-0.574999988079071,
				-0.06499999761581421,
				-0.07000000029802322
			],
			"type":"VEC3"
		},
		{
			"bufferView":5,
			"componentType":5126,
			"count":1080,
			"type":"VEC3"
		},
		{
			"bufferView":6,
			"componentType":5126,
			"count":1080,
			"type":"VEC2"
		},
		{
			"bufferView":7,
			"componentType":5123,
			"count":1620,
			"type":"SCALAR"
		},
		{
			"bufferView":8,
			"componentType":5126,
			"count":120,
			"max":[
				0.5400000214576721,
				-0.02978307381272316,
				0.0560000017285347
			],
			"min":[
				-0.5400000214576721,
				-0.06021692976355553,
				-0.0560000017285347
			],
			"type":"VEC3"
		},
		{
			"bufferView":9,
			"componentType":5126,
			"count":120,
			"type":"VEC3"
		},
		{
			"bufferView":10,
			"componentType":5126,
			"count":120,
			"type":"VEC2"
		},
		{
			"bufferView":11,
			"componentType":5123,
			"count":216,
			"type":"SCALAR"
		}
	],
	"bufferViews":[
		{
			"buffer":0,
			"byteLength":6336,
			"byteOffset":0,
			"target":34962
		},
		{
			"buffer":0,
			"byteLength":6336,
			"byteOffset":6336,
			"target":34962
		},
		{
			"buffer":0,
			"byteLength":4224,
			"byteOffset":12672,
			"target":34962
		},
		{
			"buffer":0,
			"byteLength":1632,
			"byteOffset":16896,
			"target":34963
		},
		{
			"buffer":0,
			"byteLength":12960,
			"byteOffset":18528,
			"target":34962
		},
		{
			"buffer":0,
			"byteLength":12960,
			"byteOffset":31488,
			"target":34962
		},
		{
			"buffer":0,
			"byteLength":8640,
			"byteOffset":44448,
			"target":34962
		},
		{
			"buffer":0,
			"byteLength":3240,
			"byteOffset":53088,
			"target":34963
		},
		{
			"buffer":0,
			"byteLength":1440,
			"byteOffset":56328,
			"target":34962
		},
		{
			"buffer":0,
			"byteLength":1440,
			"byteOffset":57768,
			"target":34962
		},
		{
			"buffer":0,
			"byteLength":960,
			"byteOffset":59208,
			"target":34962
		},
		{
			"buffer":0,
			"byteLength":432,
			"byteOffset":60168,
			"target":34963
		}
	],
	"buffers":[
		{
			"byteLength":60600,
			"uri":"model.bin"
		}
	]
}
