{"asset": {"generator": "Khronos glTF Blender I/O v3.3.32", "version": "2.0"}, "scene": 0, "scenes": [{"name": "blend_export", "nodes": [0]}], "nodes": [{"mesh": 0, "name": "leather_cleaner_can"}], "materials": [{"doubleSided": true, "name": "leather_cleaner_can", "normalTexture": {"index": 0}, "pbrMetallicRoughness": {"baseColorTexture": {"index": 1}, "metallicRoughnessTexture": {"index": 2}}}], "meshes": [{"name": "Cylinder.011", "primitives": [{"attributes": {"POSITION": 0, "NORMAL": 1, "TEXCOORD_0": 2}, "indices": 3, "material": 0}]}], "textures": [{"sampler": 0, "source": 0}, {"sampler": 0, "source": 1}, {"sampler": 0, "source": 2}], "images": [{"mimeType": "image/jpeg", "name": "leather_cleaner_can_nor_gl", "uri": "textures/leather_cleaner_can_nor_gl_1k.jpg"}, {"mimeType": "image/jpeg", "name": "leather_cleaner_can_diff", "uri": "textures/leather_cleaner_can_diff_1k.jpg"}, {"mimeType": "image/jpeg", "name": "leather_cleaner_can_metal-leather_cleaner_can_rough", "uri": "textures/leather_cleaner_can_arm_1k.jpg"}], "accessors": [{"bufferView": 0, "componentType": 5126, "count": 1472, "max": [0.035213012248277664, 0.16968917846679688, 0.03521285578608513], "min": [-0.03521269932389259, 0, -0.03521285578608513], "type": "VEC3"}, {"bufferView": 1, "componentType": 5126, "count": 1472, "type": "VEC3"}, {"bufferView": 2, "componentType": 5126, "count": 1472, "type": "VEC2"}, {"bufferView": 3, "componentType": 5123, "count": 6888, "type": "SCALAR"}], "bufferViews": [{"buffer": 0, "byteLength": 17664, "byteOffset": 0, "target": 34962}, {"buffer": 0, "byteLength": 17664, "byteOffset": 17664, "target": 34962}, {"buffer": 0, "byteLength": 11776, "byteOffset": 35328, "target": 34962}, {"buffer": 0, "byteLength": 13776, "byteOffset": 47104, "target": 34963}], "samplers": [{"magFilter": 9729, "minFilter": 9987}], "buffers": [{"byteLength": 60880, "uri": "leather_cleaner_can.bin"}]}