{
	"asset":{
		"generator":"Khronos glTF Blender I/O v4.2.70",
		"version":"2.0"
	},
	"scene":0,
	"scenes":[
		{
			"name":"Scene",
			"nodes":[
				0
			]
		}
	],
	"nodes":[
		{
			"mesh":0,
			"name":"potRack"
		}
	],
	"materials":[
		{
			"doubleSided":true,
			"name":"iron",
			"pbrMetallicRoughness":{
				"baseColorFactor":[
					0.10999999940395355,
					0.10999999940395355,
					0.11999999731779099,
					1
				],
				"metallicFactor":0.8500000238418579,
				"roughnessFactor":0.44999998807907104
			}
		},
		{
			"doubleSided":true,
			"name":"brass",
			"pbrMetallicRoughness":{
				"baseColorFactor":[
					0.41999998688697815,
					0.30000001192092896,
					0.11999999731779099,
					1
				],
				"metallicFactor":0.8999999761581421,
				"roughnessFactor":0.3499999940395355
			}
		}
	],
	"meshes":[
		{
			"name":"Cube",
			"primitives":[
				{
					"attributes":{
						"POSITION":0,
						"NORMAL":1,
						"TEXCOORD_0":2
					},
					"indices":3,
					"material":0
				},
				{
					"attributes":{
						"POSITION":4,
						"NORMAL":5,
						"TEXCOORD_0":6
					},
					"indices":7,
					"material":1
				}
			]
		}
	],
	"accessors":[
		{
			"bufferView":0,
			"componentType":5126,
			"count":4420,
			"max":[
				0.4560000002384186,
				0.07000000029802322,
				0.37599998712539673
			],
			"min":[
				-0.4399999976158142,
				-0.19500000774860382,
				-0.014999999664723873
			],
			"type":"VEC3"
		},
		{
			"bufferView":1,
			"componentType":5126,
			"count":4420,
			"type":"VEC3"
		},
		{
			"bufferView":2,
			"componentType":5126,
			"count":4420,
			"type":"VEC2"
		},
		{
			"bufferView":3,
			"componentType":5123,
			"count":6828,
			"type":"SCALAR"
		},
		{
			"bufferView":4,
			"componentType":5126,
			"count":624,
			"max":[
				0.45499998331069946,
				0.030000001192092896,
				0.3700000047683716
			],
			"min":[
				-0.4083288609981537,
				-0.2409999966621399,
				0.14999999105930328
			],
			"type":"VEC3"
		},
		{
			"bufferView":5,
			"componentType":5126,
			"count":624,
			"type":"VEC3"
		},
		{
			"bufferView":6,
			"componentType":5126,
			"count":624,
			"type":"VEC2"
		},
		{
			"bufferView":7,
			"componentType":5123,
			"count":996,
			"type":"SCALAR"
		}
	],
	"bufferViews":[
		{
			"buffer":0,
			"byteLength":53040,
			"byteOffset":0,
			"target":34962
		},
		{
			"buffer":0,
			"byteLength":53040,
			"byteOffset":53040,
			"target":34962
		},
		{
			"buffer":0,
			"byteLength":35360,
			"byteOffset":106080,
			"target":34962
		},
		{
			"buffer":0,
			"byteLength":13656,
			"byteOffset":141440,
			"target":34963
		},
		{
			"buffer":0,
			"byteLength":7488,
			"byteOffset":155096,
			"target":34962
		},
		{
			"buffer":0,
			"byteLength":7488,
			"byteOffset":162584,
			"target":34962
		},
		{
			"buffer":0,
			"byteLength":4992,
			"byteOffset":170072,
			"target":34962
		},
		{
			"buffer":0,
			"byteLength":1992,
			"byteOffset":175064,
			"target":34963
		}
	],
	"buffers":[
		{
			"byteLength":177056,
			"uri":"model.bin"
		}
	]
}
