{
	"asset":{
		"generator":"Khronos glTF Blender I/O v4.0.44",
		"version":"2.0"
	},
	"scene":0,
	"scenes":[
		{
			"name":"Scene",
			"nodes":[
				0
			]
		}
	],
	"nodes":[
		{
			"mesh":0,
			"name":"machineBox"
		}
	],
	"materials":[
		{
			"doubleSided":true,
			"name":"iron",
			"pbrMetallicRoughness":{
				"baseColorFactor":[
					0.10999999940395355,
					0.10999999940395355,
					0.11999999731779099,
					1
				],
				"metallicFactor":0.8500000238418579,
				"roughnessFactor":0.44999998807907104
			}
		},
		{
			"doubleSided":true,
			"name":"darkwood",
			"pbrMetallicRoughness":{
				"baseColorFactor":[
					0.1599999964237213,
					0.10000000149011612,
					0.07000000029802322,
					1
				],
				"metallicFactor":0,
				"roughnessFactor":0.699999988079071
			}
		},
		{
			"doubleSided":true,
			"name":"brass",
			"pbrMetallicRoughness":{
				"baseColorFactor":[
					0.41999998688697815,
					0.30000001192092896,
					0.11999999731779099,
					1
				],
				"metallicFactor":0.8999999761581421,
				"roughnessFactor":0.3499999940395355
			}
		}
	],
	"meshes":[
		{
			"name":"Cube",
			"primitives":[
				{
					"attributes":{
						"POSITION":0,
						"NORMAL":1,
						"TEXCOORD_0":2
					},
					"indices":3,
					"material":0
				},
				{
					"attributes":{
						"POSITION":4,
						"NORMAL":5,
						"TEXCOORD_0":6
					},
					"indices":7,
					"material":1
				},
				{
					"attributes":{
						"POSITION":8,
						"NORMAL":9,
						"TEXCOORD_0":10
					},
					"indices":11,
					"material":2
				}
			]
		}
	],
	"accessors":[
		{
			"bufferView":0,
			"componentType":5126,
			"count":216,
			"max":[
				0.4000000059604645,
				1.899999976158142,
				0.375
			],
			"min":[
				-0.4000000059604645,
				0,
				-0.375
			],
			"type":"VEC3"
		},
		{
			"bufferView":1,
			"componentType":5126,
			"count":216,
			"type":"VEC3"
		},
		{
			"bufferView":2,
			"componentType":5126,
			"count":216,
			"type":"VEC2"
		},
		{
			"bufferView":3,
			"componentType":5123,
			"count":324,
			"type":"SCALAR"
		},
		{
			"bufferView":4,
			"componentType":5126,
			"count":1944,
			"max":[
				0.4371190071105957,
				1.7899999618530273,
				0.4050000011920929
			],
			"min":[
				-0.35999998450279236,
				0.02499999850988388,
				-0.3349999785423279
			],
			"type":"VEC3"
		},
		{
			"bufferView":5,
			"componentType":5126,
			"count":1944,
			"type":"VEC3"
		},
		{
			"bufferView":6,
			"componentType":5126,
			"count":1944,
			"type":"VEC2"
		},
		{
			"bufferView":7,
			"componentType":5123,
			"count":3036,
			"type":"SCALAR"
		},
		{
			"bufferView":8,
			"componentType":5126,
			"count":880,
			"max":[
				-0.06799999624490738,
				1.6719999313354492,
				0.4169999957084656
			],
			"min":[
				-0.2919999957084656,
				1.6480000019073486,
				0.3930000066757202
			],
			"type":"VEC3"
		},
		{
			"bufferView":9,
			"componentType":5126,
			"count":880,
			"type":"VEC3"
		},
		{
			"bufferView":10,
			"componentType":5126,
			"count":880,
			"type":"VEC2"
		},
		{
			"bufferView":11,
			"componentType":5123,
			"count":1200,
			"type":"SCALAR"
		}
	],
	"bufferViews":[
		{
			"buffer":0,
			"byteLength":2592,
			"byteOffset":0,
			"target":34962
		},
		{
			"buffer":0,
			"byteLength":2592,
			"byteOffset":2592,
			"target":34962
		},
		{
			"buffer":0,
			"byteLength":1728,
			"byteOffset":5184,
			"target":34962
		},
		{
			"buffer":0,
			"byteLength":648,
			"byteOffset":6912,
			"target":34963
		},
		{
			"buffer":0,
			"byteLength":23328,
			"byteOffset":7560,
			"target":34962
		},
		{
			"buffer":0,
			"byteLength":23328,
			"byteOffset":30888,
			"target":34962
		},
		{
			"buffer":0,
			"byteLength":15552,
			"byteOffset":54216,
			"target":34962
		},
		{
			"buffer":0,
			"byteLength":6072,
			"byteOffset":69768,
			"target":34963
		},
		{
			"buffer":0,
			"byteLength":10560,
			"byteOffset":75840,
			"target":34962
		},
		{
			"buffer":0,
			"byteLength":10560,
			"byteOffset":86400,
			"target":34962
		},
		{
			"buffer":0,
			"byteLength":7040,
			"byteOffset":96960,
			"target":34962
		},
		{
			"buffer":0,
			"byteLength":2400,
			"byteOffset":104000,
			"target":34963
		}
	],
	"buffers":[
		{
			"byteLength":106400,
			"uri":"model.bin"
		}
	]
}
