{
	"asset":{
		"generator":"Khronos glTF Blender I/O v4.2.70",
		"version":"2.0"
	},
	"scene":0,
	"scenes":[
		{
			"name":"Scene",
			"nodes":[
				0
			]
		}
	],
	"nodes":[
		{
			"mesh":0,
			"name":"toppledColumn",
			"translation":[
				0,
				0.5,
				0
			]
		}
	],
	"materials":[
		{
			"doubleSided":true,
			"name":"stone",
			"pbrMetallicRoughness":{
				"baseColorFactor":[
					0.41999998688697815,
					0.3799999952316284,
					0.33000001311302185,
					1
				],
				"metallicFactor":0,
				"roughnessFactor":0.8500000238418579
			}
		}
	],
	"meshes":[
		{
			"name":"Cylinder",
			"primitives":[
				{
					"attributes":{
						"POSITION":0,
						"NORMAL":1,
						"TEXCOORD_0":2
					},
					"indices":3,
					"material":0
				}
			]
		}
	],
	"accessors":[
		{
			"bufferView":0,
			"componentType":5126,
			"count":2544,
			"max":[
				1.4523687362670898,
				0.690000057220459,
				0.30000001192092896
			],
			"min":[
				-0.30000001192092896,
				-0.5,
				-1.30928373336792
			],
			"type":"VEC3"
		},
		{
			"bufferView":1,
			"componentType":5126,
			"count":2544,
			"type":"VEC3"
		},
		{
			"bufferView":2,
			"componentType":5126,
			"count":2544,
			"type":"VEC2"
		},
		{
			"bufferView":3,
			"componentType":5123,
			"count":3876,
			"type":"SCALAR"
		}
	],
	"bufferViews":[
		{
			"buffer":0,
			"byteLength":30528,
			"byteOffset":0,
			"target":34962
		},
		{
			"buffer":0,
			"byteLength":30528,
			"byteOffset":30528,
			"target":34962
		},
		{
			"buffer":0,
			"byteLength":20352,
			"byteOffset":61056,
			"target":34962
		},
		{
			"buffer":0,
			"byteLength":7752,
			"byteOffset":81408,
			"target":34963
		}
	],
	"buffers":[
		{
			"byteLength":89160,
			"uri":"model.bin"
		}
	]
}
