{
	"asset":{
		"generator":"Khronos glTF Blender I/O v4.0.44",
		"version":"2.0"
	},
	"scene":0,
	"scenes":[
		{
			"name":"Scene",
			"nodes":[
				0
			]
		}
	],
	"nodes":[
		{
			"mesh":0,
			"name":"cubicle"
		}
	],
	"materials":[
		{
			"doubleSided":true,
			"name":"linen",
			"pbrMetallicRoughness":{
				"baseColorFactor":[
					0.7200000286102295,
					0.6600000262260437,
					0.550000011920929,
					1
				],
				"metallicFactor":0,
				"roughnessFactor":0.8999999761581421
			}
		},
		{
			"doubleSided":true,
			"name":"darkwood",
			"pbrMetallicRoughness":{
				"baseColorFactor":[
					0.1599999964237213,
					0.10000000149011612,
					0.07000000029802322,
					1
				],
				"metallicFactor":0,
				"roughnessFactor":0.699999988079071
			}
		},
		{
			"doubleSided":true,
			"name":"oakwood",
			"pbrMetallicRoughness":{
				"baseColorFactor":[
					0.3199999928474426,
					0.2199999988079071,
					0.12999999523162842,
					1
				],
				"metallicFactor":0,
				"roughnessFactor":0.800000011920929
			}
		},
		{
			"doubleSided":true,
			"name":"wornleather",
			"pbrMetallicRoughness":{
				"baseColorFactor":[
					0.2800000011920929,
					0.18000000715255737,
					0.10999999940395355,
					1
				],
				"metallicFactor":0,
				"roughnessFactor":0.8500000238418579
			}
		}
	],
	"meshes":[
		{
			"name":"Cube",
			"primitives":[
				{
					"attributes":{
						"POSITION":0,
						"NORMAL":1,
						"TEXCOORD_0":2
					},
					"indices":3,
					"material":0
				},
				{
					"attributes":{
						"POSITION":4,
						"NORMAL":5,
						"TEXCOORD_0":6
					},
					"indices":7,
					"material":1
				},
				{
					"attributes":{
						"POSITION":8,
						"NORMAL":9,
						"TEXCOORD_0":10
					},
					"indices":11,
					"material":2
				},
				{
					"attributes":{
						"POSITION":12,
						"NORMAL":13,
						"TEXCOORD_0":14
					},
					"indices":15,
					"material":3
				}
			]
		}
	],
	"accessors":[
		{
			"bufferView":0,
			"componentType":5126,
			"count":648,
			"max":[
				0.8199999928474426,
				1.4199999570846558,
				0.40000003576278687
			],
			"min":[
				-0.8199999928474426,
				0,
				-0.800000011920929
			],
			"type":"VEC3"
		},
		{
			"bufferView":1,
			"componentType":5126,
			"count":648,
			"type":"VEC3"
		},
		{
			"bufferView":2,
			"componentType":5126,
			"count":648,
			"type":"VEC2"
		},
		{
			"bufferView":3,
			"componentType":5123,
			"count":972,
			"type":"SCALAR"
		},
		{
			"bufferView":4,
			"componentType":5126,
			"count":648,
			"max":[
				0.8299999833106995,
				1.4149999618530273,
				0.4100000262260437
			],
			"min":[
				-0.8299999833106995,
				1.3650000095367432,
				-0.8100000023841858
			],
			"type":"VEC3"
		},
		{
			"bufferView":5,
			"componentType":5126,
			"count":648,
			"type":"VEC3"
		},
		{
			"bufferView":6,
			"componentType":5126,
			"count":648,
			"type":"VEC2"
		},
		{
			"bufferView":7,
			"componentType":5123,
			"count":972,
			"type":"SCALAR"
		},
		{
			"bufferView":8,
			"componentType":5126,
			"count":432,
			"max":[
				0.75,
				1.2200000286102295,
				0.1599999964237213
			],
			"min":[
				-0.75,
				0.7050000429153442,
				-0.75
			],
			"type":"VEC3"
		},
		{
			"bufferView":9,
			"componentType":5126,
			"count":432,
			"type":"VEC3"
		},
		{
			"bufferView":10,
			"componentType":5126,
			"count":432,
			"type":"VEC2"
		},
		{
			"bufferView":11,
			"componentType":5123,
			"count":648,
			"type":"SCALAR"
		},
		{
			"bufferView":12,
			"componentType":5126,
			"count":432,
			"max":[
				0.7250000238418579,
				1.149999976158142,
				-0.3999999761581421
			],
			"min":[
				-0.7250000238418579,
				0.4100000262260437,
				-0.7199999690055847
			],
			"type":"VEC3"
		},
		{
			"bufferView":13,
			"componentType":5126,
			"count":432,
			"type":"VEC3"
		},
		{
			"bufferView":14,
			"componentType":5126,
			"count":432,
			"type":"VEC2"
		},
		{
			"bufferView":15,
			"componentType":5123,
			"count":648,
			"type":"SCALAR"
		}
	],
	"bufferViews":[
		{
			"buffer":0,
			"byteLength":7776,
			"byteOffset":0,
			"target":34962
		},
		{
			"buffer":0,
			"byteLength":7776,
			"byteOffset":7776,
			"target":34962
		},
		{
			"buffer":0,
			"byteLength":5184,
			"byteOffset":15552,
			"target":34962
		},
		{
			"buffer":0,
			"byteLength":1944,
			"byteOffset":20736,
			"target":34963
		},
		{
			"buffer":0,
			"byteLength":7776,
			"byteOffset":22680,
			"target":34962
		},
		{
			"buffer":0,
			"byteLength":7776,
			"byteOffset":30456,
			"target":34962
		},
		{
			"buffer":0,
			"byteLength":5184,
			"byteOffset":38232,
			"target":34962
		},
		{
			"buffer":0,
			"byteLength":1944,
			"byteOffset":43416,
			"target":34963
		},
		{
			"buffer":0,
			"byteLength":5184,
			"byteOffset":45360,
			"target":34962
		},
		{
			"buffer":0,
			"byteLength":5184,
			"byteOffset":50544,
			"target":34962
		},
		{
			"buffer":0,
			"byteLength":3456,
			"byteOffset":55728,
			"target":34962
		},
		{
			"buffer":0,
			"byteLength":1296,
			"byteOffset":59184,
			"target":34963
		},
		{
			"buffer":0,
			"byteLength":5184,
			"byteOffset":60480,
			"target":34962
		},
		{
			"buffer":0,
			"byteLength":5184,
			"byteOffset":65664,
			"target":34962
		},
		{
			"buffer":0,
			"byteLength":3456,
			"byteOffset":70848,
			"target":34962
		},
		{
			"buffer":0,
			"byteLength":1296,
			"byteOffset":74304,
			"target":34963
		}
	],
	"buffers":[
		{
			"byteLength":75600,
			"uri":"model.bin"
		}
	]
}
