{
	"asset":{
		"generator":"Khronos glTF Blender I/O v4.0.44",
		"version":"2.0"
	},
	"scene":0,
	"scenes":[
		{
			"name":"Scene",
			"nodes":[
				0
			]
		}
	],
	"nodes":[
		{
			"mesh":0,
			"name":"wainscotRun"
		}
	],
	"materials":[
		{
			"doubleSided":true,
			"name":"darkwood",
			"pbrMetallicRoughness":{
				"baseColorFactor":[
					0.1599999964237213,
					0.10000000149011612,
					0.07000000029802322,
					1
				],
				"metallicFactor":0,
				"roughnessFactor":0.699999988079071
			}
		},
		{
			"doubleSided":true,
			"name":"oakwood",
			"pbrMetallicRoughness":{
				"baseColorFactor":[
					0.3199999928474426,
					0.2199999988079071,
					0.12999999523162842,
					1
				],
				"metallicFactor":0,
				"roughnessFactor":0.800000011920929
			}
		}
	],
	"meshes":[
		{
			"name":"Cube",
			"primitives":[
				{
					"attributes":{
						"POSITION":0,
						"NORMAL":1,
						"TEXCOORD_0":2
					},
					"indices":3,
					"material":0
				},
				{
					"attributes":{
						"POSITION":4,
						"NORMAL":5,
						"TEXCOORD_0":6
					},
					"indices":7,
					"material":1
				}
			]
		}
	],
	"accessors":[
		{
			"bufferView":0,
			"componentType":5126,
			"count":1296,
			"max":[
				0.9100000262260437,
				0.4700000286102295,
				0.10000000149011612
			],
			"min":[
				-1.1549999713897705,
				-0.4749999940395355,
				-0.015000000596046448
			],
			"type":"VEC3"
		},
		{
			"bufferView":1,
			"componentType":5126,
			"count":1296,
			"type":"VEC3"
		},
		{
			"bufferView":2,
			"componentType":5126,
			"count":1296,
			"type":"VEC2"
		},
		{
			"bufferView":3,
			"componentType":5123,
			"count":1944,
			"type":"SCALAR"
		},
		{
			"bufferView":4,
			"componentType":5126,
			"count":864,
			"max":[
				0.8700000047683716,
				0.32500001788139343,
				0.08749999850988388
			],
			"min":[
				-0.8700000047683716,
				-0.2849999964237213,
				0
			],
			"type":"VEC3"
		},
		{
			"bufferView":5,
			"componentType":5126,
			"count":864,
			"type":"VEC3"
		},
		{
			"bufferView":6,
			"componentType":5126,
			"count":864,
			"type":"VEC2"
		},
		{
			"bufferView":7,
			"componentType":5123,
			"count":1296,
			"type":"SCALAR"
		}
	],
	"bufferViews":[
		{
			"buffer":0,
			"byteLength":15552,
			"byteOffset":0,
			"target":34962
		},
		{
			"buffer":0,
			"byteLength":15552,
			"byteOffset":15552,
			"target":34962
		},
		{
			"buffer":0,
			"byteLength":10368,
			"byteOffset":31104,
			"target":34962
		},
		{
			"buffer":0,
			"byteLength":3888,
			"byteOffset":41472,
			"target":34963
		},
		{
			"buffer":0,
			"byteLength":10368,
			"byteOffset":45360,
			"target":34962
		},
		{
			"buffer":0,
			"byteLength":10368,
			"byteOffset":55728,
			"target":34962
		},
		{
			"buffer":0,
			"byteLength":6912,
			"byteOffset":66096,
			"target":34962
		},
		{
			"buffer":0,
			"byteLength":2592,
			"byteOffset":73008,
			"target":34963
		}
	],
	"buffers":[
		{
			"byteLength":75600,
			"uri":"model.bin"
		}
	]
}
