{
	"asset":{
		"generator":"Khronos glTF Blender I/O v4.2.70",
		"version":"2.0"
	},
	"scene":0,
	"scenes":[
		{
			"name":"Scene",
			"nodes":[
				0
			]
		}
	],
	"nodes":[
		{
			"mesh":0,
			"name":"meatHook",
			"rotation":[
				0.7071068286895752,
				0,
				0,
				0.7071068286895752
			],
			"translation":[
				0,
				1.100000023841858,
				0
			]
		}
	],
	"materials":[
		{
			"doubleSided":true,
			"name":"iron",
			"pbrMetallicRoughness":{
				"baseColorFactor":[
					0.10999999940395355,
					0.10999999940395355,
					0.11999999731779099,
					1
				],
				"metallicFactor":0.8500000238418579,
				"roughnessFactor":0.44999998807907104
			}
		},
		{
			"doubleSided":true,
			"name":"wornleather",
			"pbrMetallicRoughness":{
				"baseColorFactor":[
					0.2800000011920929,
					0.18000000715255737,
					0.10999999940395355,
					1
				],
				"metallicFactor":0,
				"roughnessFactor":0.8500000238418579
			}
		},
		{
			"doubleSided":true,
			"name":"stone",
			"pbrMetallicRoughness":{
				"baseColorFactor":[
					0.41999998688697815,
					0.3799999952316284,
					0.33000001311302185,
					1
				],
				"metallicFactor":0,
				"roughnessFactor":0.8500000238418579
			}
		}
	],
	"meshes":[
		{
			"name":"Torus",
			"primitives":[
				{
					"attributes":{
						"POSITION":0,
						"NORMAL":1,
						"TEXCOORD_0":2
					},
					"indices":3,
					"material":0
				},
				{
					"attributes":{
						"POSITION":4,
						"NORMAL":5,
						"TEXCOORD_0":6
					},
					"indices":7,
					"material":1
				},
				{
					"attributes":{
						"POSITION":8,
						"NORMAL":9,
						"TEXCOORD_0":10
					},
					"indices":11,
					"material":2
				}
			]
		}
	],
	"accessors":[
		{
			"bufferView":0,
			"componentType":5126,
			"count":2096,
			"max":[
				0.03500000014901161,
				0.10731077939271927,
				0.643000066280365
			],
			"min":[
				-0.03500000014901161,
				-0.041420504450798035,
				-0.03328697755932808
			],
			"type":"VEC3"
		},
		{
			"bufferView":1,
			"componentType":5126,
			"count":2096,
			"type":"VEC3"
		},
		{
			"bufferView":2,
			"componentType":5126,
			"count":2096,
			"type":"VEC2"
		},
		{
			"bufferView":3,
			"componentType":5123,
			"count":3156,
			"type":"SCALAR"
		},
		{
			"bufferView":4,
			"componentType":5126,
			"count":240,
			"max":[
				0.1293438971042633,
				0.0679999440908432,
				1.0399999618530273
			],
			"min":[
				-0.1293438971042633,
				-0.10800005495548248,
				0.5600000023841858
			],
			"type":"VEC3"
		},
		{
			"bufferView":5,
			"componentType":5126,
			"count":240,
			"type":"VEC3"
		},
		{
			"bufferView":6,
			"componentType":5126,
			"count":240,
			"type":"VEC2"
		},
		{
			"bufferView":7,
			"componentType":5123,
			"count":240,
			"type":"SCALAR"
		},
		{
			"bufferView":8,
			"componentType":5126,
			"count":856,
			"max":[
				0.11083216220140457,
				0.1606665998697281,
				1.027999997138977
			],
			"min":[
				-0.10186587274074554,
				-0.05150594562292099,
				0.6500000357627869
			],
			"type":"VEC3"
		},
		{
			"bufferView":9,
			"componentType":5126,
			"count":856,
			"type":"VEC3"
		},
		{
			"bufferView":10,
			"componentType":5126,
			"count":856,
			"type":"VEC2"
		},
		{
			"bufferView":11,
			"componentType":5123,
			"count":1284,
			"type":"SCALAR"
		}
	],
	"bufferViews":[
		{
			"buffer":0,
			"byteLength":25152,
			"byteOffset":0,
			"target":34962
		},
		{
			"buffer":0,
			"byteLength":25152,
			"byteOffset":25152,
			"target":34962
		},
		{
			"buffer":0,
			"byteLength":16768,
			"byteOffset":50304,
			"target":34962
		},
		{
			"buffer":0,
			"byteLength":6312,
			"byteOffset":67072,
			"target":34963
		},
		{
			"buffer":0,
			"byteLength":2880,
			"byteOffset":73384,
			"target":34962
		},
		{
			"buffer":0,
			"byteLength":2880,
			"byteOffset":76264,
			"target":34962
		},
		{
			"buffer":0,
			"byteLength":1920,
			"byteOffset":79144,
			"target":34962
		},
		{
			"buffer":0,
			"byteLength":480,
			"byteOffset":81064,
			"target":34963
		},
		{
			"buffer":0,
			"byteLength":10272,
			"byteOffset":81544,
			"target":34962
		},
		{
			"buffer":0,
			"byteLength":10272,
			"byteOffset":91816,
			"target":34962
		},
		{
			"buffer":0,
			"byteLength":6848,
			"byteOffset":102088,
			"target":34962
		},
		{
			"buffer":0,
			"byteLength":2568,
			"byteOffset":108936,
			"target":34963
		}
	],
	"buffers":[
		{
			"byteLength":111504,
			"uri":"model.bin"
		}
	]
}
