{
	"asset":{
		"generator":"Khronos glTF Blender I/O v4.2.70",
		"version":"2.0"
	},
	"scene":0,
	"scenes":[
		{
			"name":"Scene",
			"nodes":[
				0
			]
		}
	],
	"nodes":[
		{
			"mesh":0,
			"name":"grateDrain",
			"translation":[
				0,
				0.012000000104308128,
				0
			]
		}
	],
	"materials":[
		{
			"doubleSided":true,
			"name":"iron",
			"pbrMetallicRoughness":{
				"baseColorFactor":[
					0.10999999940395355,
					0.10999999940395355,
					0.11999999731779099,
					1
				],
				"metallicFactor":0.8500000238418579,
				"roughnessFactor":0.44999998807907104
			}
		},
		{
			"doubleSided":true,
			"name":"darkwood",
			"pbrMetallicRoughness":{
				"baseColorFactor":[
					0.1599999964237213,
					0.10000000149011612,
					0.07000000029802322,
					1
				],
				"metallicFactor":0,
				"roughnessFactor":0.699999988079071
			}
		}
	],
	"meshes":[
		{
			"name":"Torus",
			"primitives":[
				{
					"attributes":{
						"POSITION":0,
						"NORMAL":1,
						"TEXCOORD_0":2
					},
					"indices":3,
					"material":0
				},
				{
					"attributes":{
						"POSITION":4,
						"NORMAL":5,
						"TEXCOORD_0":6
					},
					"indices":7,
					"material":1
				}
			]
		}
	],
	"accessors":[
		{
			"bufferView":0,
			"componentType":5126,
			"count":2920,
			"max":[
				0.2800000011920929,
				0.02199999988079071,
				0.2800000011920929
			],
			"min":[
				-0.2800000011920929,
				-0.019999999552965164,
				-0.2800000011920929
			],
			"type":"VEC3"
		},
		{
			"bufferView":1,
			"componentType":5126,
			"count":2920,
			"type":"VEC3"
		},
		{
			"bufferView":2,
			"componentType":5126,
			"count":2920,
			"type":"VEC2"
		},
		{
			"bufferView":3,
			"componentType":5123,
			"count":4380,
			"type":"SCALAR"
		},
		{
			"bufferView":4,
			"componentType":5126,
			"count":120,
			"max":[
				0.25,
				-0.012000000104308128,
				0.25
			],
			"min":[
				-0.25,
				-0.03199999779462814,
				-0.25
			],
			"type":"VEC3"
		},
		{
			"bufferView":5,
			"componentType":5126,
			"count":120,
			"type":"VEC3"
		},
		{
			"bufferView":6,
			"componentType":5126,
			"count":120,
			"type":"VEC2"
		},
		{
			"bufferView":7,
			"componentType":5123,
			"count":228,
			"type":"SCALAR"
		}
	],
	"bufferViews":[
		{
			"buffer":0,
			"byteLength":35040,
			"byteOffset":0,
			"target":34962
		},
		{
			"buffer":0,
			"byteLength":35040,
			"byteOffset":35040,
			"target":34962
		},
		{
			"buffer":0,
			"byteLength":23360,
			"byteOffset":70080,
			"target":34962
		},
		{
			"buffer":0,
			"byteLength":8760,
			"byteOffset":93440,
			"target":34963
		},
		{
			"buffer":0,
			"byteLength":1440,
			"byteOffset":102200,
			"target":34962
		},
		{
			"buffer":0,
			"byteLength":1440,
			"byteOffset":103640,
			"target":34962
		},
		{
			"buffer":0,
			"byteLength":960,
			"byteOffset":105080,
			"target":34962
		},
		{
			"buffer":0,
			"byteLength":456,
			"byteOffset":106040,
			"target":34963
		}
	],
	"buffers":[
		{
			"byteLength":106496,
			"uri":"model.bin"
		}
	]
}
