{
	"asset":{
		"generator":"Khronos glTF Blender I/O v4.2.83",
		"version":"2.0"
	},
	"scene":0,
	"scenes":[
		{
			"name":"Scene",
			"nodes":[
				0
			]
		}
	],
	"nodes":[
		{
			"mesh":0,
			"name":"nightstand",
			"translation":[
				-0.20499999821186066,
				0.1599999964237213,
				0.16500000655651093
			]
		}
	],
	"materials":[
		{
			"doubleSided":true,
			"name":"oakwood",
			"pbrMetallicRoughness":{
				"baseColorFactor":[
					0.3199999928474426,
					0.2199999988079071,
					0.12999999523162842,
					1
				],
				"metallicFactor":0,
				"roughnessFactor":0.800000011920929
			}
		},
		{
			"doubleSided":true,
			"name":"darkwood",
			"pbrMetallicRoughness":{
				"baseColorFactor":[
					0.1599999964237213,
					0.10000000149011612,
					0.07000000029802322,
					1
				],
				"metallicFactor":0,
				"roughnessFactor":0.699999988079071
			}
		},
		{
			"doubleSided":true,
			"name":"iron",
			"pbrMetallicRoughness":{
				"baseColorFactor":[
					0.10999999940395355,
					0.10999999940395355,
					0.11999999731779099,
					1
				],
				"metallicFactor":0.8500000238418579,
				"roughnessFactor":0.44999998807907104
			}
		}
	],
	"meshes":[
		{
			"name":"Cylinder",
			"primitives":[
				{
					"attributes":{
						"POSITION":0,
						"NORMAL":1,
						"TEXCOORD_0":2
					},
					"indices":3,
					"material":0
				},
				{
					"attributes":{
						"POSITION":4,
						"NORMAL":5,
						"TEXCOORD_0":6
					},
					"indices":7,
					"material":1
				},
				{
					"attributes":{
						"POSITION":8,
						"NORMAL":9,
						"TEXCOORD_0":10
					},
					"indices":11,
					"material":2
				}
			]
		}
	],
	"accessors":[
		{
			"bufferView":0,
			"componentType":5126,
			"count":624,
			"max":[
				0.4699999690055847,
				0.5625,
				0.05499999225139618
			],
			"min":[
				-0.0599999874830246,
				-0.1599999964237213,
				-0.38499999046325684
			],
			"type":"VEC3"
		},
		{
			"bufferView":1,
			"componentType":5126,
			"count":624,
			"type":"VEC3"
		},
		{
			"bufferView":2,
			"componentType":5126,
			"count":624,
			"type":"VEC2"
		},
		{
			"bufferView":3,
			"componentType":5123,
			"count":984,
			"type":"SCALAR"
		},
		{
			"bufferView":4,
			"componentType":5126,
			"count":432,
			"max":[
				0.39499998092651367,
				0.4899999797344208,
				0.05749998986721039
			],
			"min":[
				0.015000000596046448,
				0.21000000834465027,
				0.03249998390674591
			],
			"type":"VEC3"
		},
		{
			"bufferView":5,
			"componentType":5126,
			"count":432,
			"type":"VEC3"
		},
		{
			"bufferView":6,
			"componentType":5126,
			"count":432,
			"type":"VEC2"
		},
		{
			"bufferView":7,
			"componentType":5123,
			"count":648,
			"type":"SCALAR"
		},
		{
			"bufferView":8,
			"componentType":5126,
			"count":48,
			"max":[
				0.2199999988079071,
				0.4350000023841858,
				0.07750000059604645
			],
			"min":[
				0.1899999976158142,
				0.4049999713897705,
				0.05249999463558197
			],
			"type":"VEC3"
		},
		{
			"bufferView":9,
			"componentType":5126,
			"count":48,
			"type":"VEC3"
		},
		{
			"bufferView":10,
			"componentType":5126,
			"count":48,
			"type":"VEC2"
		},
		{
			"bufferView":11,
			"componentType":5123,
			"count":84,
			"type":"SCALAR"
		}
	],
	"bufferViews":[
		{
			"buffer":0,
			"byteLength":7488,
			"byteOffset":0,
			"target":34962
		},
		{
			"buffer":0,
			"byteLength":7488,
			"byteOffset":7488,
			"target":34962
		},
		{
			"buffer":0,
			"byteLength":4992,
			"byteOffset":14976,
			"target":34962
		},
		{
			"buffer":0,
			"byteLength":1968,
			"byteOffset":19968,
			"target":34963
		},
		{
			"buffer":0,
			"byteLength":5184,
			"byteOffset":21936,
			"target":34962
		},
		{
			"buffer":0,
			"byteLength":5184,
			"byteOffset":27120,
			"target":34962
		},
		{
			"buffer":0,
			"byteLength":3456,
			"byteOffset":32304,
			"target":34962
		},
		{
			"buffer":0,
			"byteLength":1296,
			"byteOffset":35760,
			"target":34963
		},
		{
			"buffer":0,
			"byteLength":576,
			"byteOffset":37056,
			"target":34962
		},
		{
			"buffer":0,
			"byteLength":576,
			"byteOffset":37632,
			"target":34962
		},
		{
			"buffer":0,
			"byteLength":384,
			"byteOffset":38208,
			"target":34962
		},
		{
			"buffer":0,
			"byteLength":168,
			"byteOffset":38592,
			"target":34963
		}
	],
	"buffers":[
		{
			"byteLength":38760,
			"uri":"model.bin"
		}
	]
}
