{
	"asset":{
		"generator":"Khronos glTF Blender I/O v4.2.70",
		"version":"2.0"
	},
	"scene":0,
	"scenes":[
		{
			"name":"Scene",
			"nodes":[
				0
			]
		}
	],
	"nodes":[
		{
			"mesh":0,
			"name":"stairGate"
		}
	],
	"materials":[
		{
			"doubleSided":true,
			"name":"stone",
			"pbrMetallicRoughness":{
				"baseColorFactor":[
					0.41999998688697815,
					0.3799999952316284,
					0.33000001311302185,
					1
				],
				"metallicFactor":0,
				"roughnessFactor":0.8500000238418579
			}
		},
		{
			"doubleSided":true,
			"name":"iron",
			"pbrMetallicRoughness":{
				"baseColorFactor":[
					0.10999999940395355,
					0.10999999940395355,
					0.11999999731779099,
					1
				],
				"metallicFactor":0.8500000238418579,
				"roughnessFactor":0.44999998807907104
			}
		}
	],
	"meshes":[
		{
			"name":"Cube",
			"primitives":[
				{
					"attributes":{
						"POSITION":0,
						"NORMAL":1,
						"TEXCOORD_0":2
					},
					"indices":3,
					"material":0
				},
				{
					"attributes":{
						"POSITION":4,
						"NORMAL":5,
						"TEXCOORD_0":6
					},
					"indices":7,
					"material":1
				}
			]
		}
	],
	"accessors":[
		{
			"bufferView":0,
			"componentType":5126,
			"count":1728,
			"max":[
				0.800000011920929,
				1.7000000476837158,
				1.1999999284744263
			],
			"min":[
				-0.800000011920929,
				0,
				-1.9000000953674316
			],
			"type":"VEC3"
		},
		{
			"bufferView":1,
			"componentType":5126,
			"count":1728,
			"type":"VEC3"
		},
		{
			"bufferView":2,
			"componentType":5126,
			"count":1728,
			"type":"VEC2"
		},
		{
			"bufferView":3,
			"componentType":5123,
			"count":2592,
			"type":"SCALAR"
		},
		{
			"bufferView":4,
			"componentType":5126,
			"count":2016,
			"max":[
				0.7999999523162842,
				3.190000057220459,
				1.2000000476837158
			],
			"min":[
				-0.7999999523162842,
				0.29999998211860657,
				-1.8700000047683716
			],
			"type":"VEC3"
		},
		{
			"bufferView":5,
			"componentType":5126,
			"count":2016,
			"type":"VEC3"
		},
		{
			"bufferView":6,
			"componentType":5126,
			"count":2016,
			"type":"VEC2"
		},
		{
			"bufferView":7,
			"componentType":5123,
			"count":3204,
			"type":"SCALAR"
		}
	],
	"bufferViews":[
		{
			"buffer":0,
			"byteLength":20736,
			"byteOffset":0,
			"target":34962
		},
		{
			"buffer":0,
			"byteLength":20736,
			"byteOffset":20736,
			"target":34962
		},
		{
			"buffer":0,
			"byteLength":13824,
			"byteOffset":41472,
			"target":34962
		},
		{
			"buffer":0,
			"byteLength":5184,
			"byteOffset":55296,
			"target":34963
		},
		{
			"buffer":0,
			"byteLength":24192,
			"byteOffset":60480,
			"target":34962
		},
		{
			"buffer":0,
			"byteLength":24192,
			"byteOffset":84672,
			"target":34962
		},
		{
			"buffer":0,
			"byteLength":16128,
			"byteOffset":108864,
			"target":34962
		},
		{
			"buffer":0,
			"byteLength":6408,
			"byteOffset":124992,
			"target":34963
		}
	],
	"buffers":[
		{
			"byteLength":131400,
			"uri":"model.bin"
		}
	]
}
