{
	"asset":{
		"generator":"Khronos glTF Blender I/O v4.0.44",
		"version":"2.0"
	},
	"scene":0,
	"scenes":[
		{
			"name":"Scene",
			"nodes":[
				0
			]
		}
	],
	"nodes":[
		{
			"mesh":0,
			"name":"prayerKneeler"
		}
	],
	"materials":[
		{
			"doubleSided":true,
			"name":"darkwood",
			"pbrMetallicRoughness":{
				"baseColorFactor":[
					0.1599999964237213,
					0.10000000149011612,
					0.07000000029802322,
					1
				],
				"metallicFactor":0,
				"roughnessFactor":0.699999988079071
			}
		},
		{
			"doubleSided":true,
			"name":"oakwood",
			"pbrMetallicRoughness":{
				"baseColorFactor":[
					0.3199999928474426,
					0.2199999988079071,
					0.12999999523162842,
					1
				],
				"metallicFactor":0,
				"roughnessFactor":0.800000011920929
			}
		},
		{
			"doubleSided":true,
			"name":"velvet",
			"pbrMetallicRoughness":{
				"baseColorFactor":[
					0.30000001192092896,
					0.07000000029802322,
					0.07999999821186066,
					1
				],
				"metallicFactor":0,
				"roughnessFactor":0.949999988079071
			}
		}
	],
	"meshes":[
		{
			"name":"Cube",
			"primitives":[
				{
					"attributes":{
						"POSITION":0,
						"NORMAL":1,
						"TEXCOORD_0":2
					},
					"indices":3,
					"material":0
				},
				{
					"attributes":{
						"POSITION":4,
						"NORMAL":5,
						"TEXCOORD_0":6
					},
					"indices":7,
					"material":1
				},
				{
					"attributes":{
						"POSITION":8,
						"NORMAL":9,
						"TEXCOORD_0":10
					},
					"indices":3,
					"material":2
				}
			]
		}
	],
	"accessors":[
		{
			"bufferView":0,
			"componentType":5126,
			"count":432,
			"max":[
				0.3075000047683716,
				0.8999999761581421,
				0.2199999988079071
			],
			"min":[
				-0.3075000047683716,
				0,
				-0.2199999988079071
			],
			"type":"VEC3"
		},
		{
			"bufferView":1,
			"componentType":5126,
			"count":432,
			"type":"VEC3"
		},
		{
			"bufferView":2,
			"componentType":5126,
			"count":432,
			"type":"VEC2"
		},
		{
			"bufferView":3,
			"componentType":5123,
			"count":648,
			"type":"SCALAR"
		},
		{
			"bufferView":4,
			"componentType":5126,
			"count":432,
			"max":[
				0.27000001072883606,
				0.8366609215736389,
				0.6015819907188416
			],
			"min":[
				-0.27000001072883606,
				0.004999998956918716,
				-0.20999999344348907
			],
			"type":"VEC3"
		},
		{
			"bufferView":5,
			"componentType":5126,
			"count":432,
			"type":"VEC3"
		},
		{
			"bufferView":6,
			"componentType":5126,
			"count":432,
			"type":"VEC2"
		},
		{
			"bufferView":7,
			"componentType":5123,
			"count":648,
			"type":"SCALAR"
		},
		{
			"bufferView":8,
			"componentType":5126,
			"count":432,
			"max":[
				0.25,
				0.7899999618530273,
				0.22749999165534973
			],
			"min":[
				-0.25,
				0.19499999284744263,
				-0.11000000685453415
			],
			"type":"VEC3"
		},
		{
			"bufferView":9,
			"componentType":5126,
			"count":432,
			"type":"VEC3"
		},
		{
			"bufferView":10,
			"componentType":5126,
			"count":432,
			"type":"VEC2"
		}
	],
	"bufferViews":[
		{
			"buffer":0,
			"byteLength":5184,
			"byteOffset":0,
			"target":34962
		},
		{
			"buffer":0,
			"byteLength":5184,
			"byteOffset":5184,
			"target":34962
		},
		{
			"buffer":0,
			"byteLength":3456,
			"byteOffset":10368,
			"target":34962
		},
		{
			"buffer":0,
			"byteLength":1296,
			"byteOffset":13824,
			"target":34963
		},
		{
			"buffer":0,
			"byteLength":5184,
			"byteOffset":15120,
			"target":34962
		},
		{
			"buffer":0,
			"byteLength":5184,
			"byteOffset":20304,
			"target":34962
		},
		{
			"buffer":0,
			"byteLength":3456,
			"byteOffset":25488,
			"target":34962
		},
		{
			"buffer":0,
			"byteLength":1296,
			"byteOffset":28944,
			"target":34963
		},
		{
			"buffer":0,
			"byteLength":5184,
			"byteOffset":30240,
			"target":34962
		},
		{
			"buffer":0,
			"byteLength":5184,
			"byteOffset":35424,
			"target":34962
		},
		{
			"buffer":0,
			"byteLength":3456,
			"byteOffset":40608,
			"target":34962
		}
	],
	"buffers":[
		{
			"byteLength":44064,
			"uri":"model.bin"
		}
	]
}
