{
	"asset":{
		"generator":"Khronos glTF Blender I/O v4.2.70",
		"version":"2.0"
	},
	"scene":0,
	"scenes":[
		{
			"name":"Scene",
			"nodes":[
				0
			]
		}
	],
	"nodes":[
		{
			"mesh":0,
			"name":"linenPress"
		}
	],
	"materials":[
		{
			"doubleSided":true,
			"name":"darkwood",
			"pbrMetallicRoughness":{
				"baseColorFactor":[
					0.1599999964237213,
					0.10000000149011612,
					0.07000000029802322,
					1
				],
				"metallicFactor":0,
				"roughnessFactor":0.699999988079071
			}
		},
		{
			"doubleSided":true,
			"name":"oakwood",
			"pbrMetallicRoughness":{
				"baseColorFactor":[
					0.3199999928474426,
					0.2199999988079071,
					0.12999999523162842,
					1
				],
				"metallicFactor":0,
				"roughnessFactor":0.800000011920929
			}
		},
		{
			"doubleSided":true,
			"name":"bookcloth",
			"pbrMetallicRoughness":{
				"baseColorFactor":[
					0.20000000298023224,
					0.23999999463558197,
					0.20000000298023224,
					1
				],
				"metallicFactor":0,
				"roughnessFactor":0.8999999761581421
			}
		},
		{
			"doubleSided":true,
			"name":"stone",
			"pbrMetallicRoughness":{
				"baseColorFactor":[
					0.41999998688697815,
					0.3799999952316284,
					0.33000001311302185,
					1
				],
				"metallicFactor":0,
				"roughnessFactor":0.8500000238418579
			}
		},
		{
			"doubleSided":true,
			"name":"brass",
			"pbrMetallicRoughness":{
				"baseColorFactor":[
					0.41999998688697815,
					0.30000001192092896,
					0.11999999731779099,
					1
				],
				"metallicFactor":0.8999999761581421,
				"roughnessFactor":0.3499999940395355
			}
		}
	],
	"meshes":[
		{
			"name":"Cube",
			"primitives":[
				{
					"attributes":{
						"POSITION":0,
						"NORMAL":1,
						"TEXCOORD_0":2
					},
					"indices":3,
					"material":0
				},
				{
					"attributes":{
						"POSITION":4,
						"NORMAL":5,
						"TEXCOORD_0":6
					},
					"indices":7,
					"material":1
				},
				{
					"attributes":{
						"POSITION":8,
						"NORMAL":9,
						"TEXCOORD_0":10
					},
					"indices":11,
					"material":2
				},
				{
					"attributes":{
						"POSITION":12,
						"NORMAL":13,
						"TEXCOORD_0":14
					},
					"indices":15,
					"material":3
				},
				{
					"attributes":{
						"POSITION":16,
						"NORMAL":17,
						"TEXCOORD_0":18
					},
					"indices":19,
					"material":4
				}
			]
		}
	],
	"accessors":[
		{
			"bufferView":0,
			"componentType":5126,
			"count":1512,
			"max":[
				0.6800000071525574,
				2.009999990463257,
				0.3050000071525574
			],
			"min":[
				-0.6800000071525574,
				0,
				-0.3050000071525574
			],
			"type":"VEC3"
		},
		{
			"bufferView":1,
			"componentType":5126,
			"count":1512,
			"type":"VEC3"
		},
		{
			"bufferView":2,
			"componentType":5126,
			"count":1512,
			"type":"VEC2"
		},
		{
			"bufferView":3,
			"componentType":5123,
			"count":2268,
			"type":"SCALAR"
		},
		{
			"bufferView":4,
			"componentType":5126,
			"count":648,
			"max":[
				0.6000000238418579,
				1.9500000476837158,
				0.28999999165534973
			],
			"min":[
				-0.6000000238418579,
				0.050000011920928955,
				-0.2750000059604645
			],
			"type":"VEC3"
		},
		{
			"bufferView":5,
			"componentType":5126,
			"count":648,
			"type":"VEC3"
		},
		{
			"bufferView":6,
			"componentType":5126,
			"count":648,
			"type":"VEC2"
		},
		{
			"bufferView":7,
			"componentType":5123,
			"count":972,
			"type":"SCALAR"
		},
		{
			"bufferView":8,
			"componentType":5126,
			"count":3888,
			"max":[
				0.5699024200439453,
				1.8725000619888306,
				0.223637193441391
			],
			"min":[
				-0.46626949310302734,
				0.9474999904632568,
				-0.2237507551908493
			],
			"type":"VEC3"
		},
		{
			"bufferView":9,
			"componentType":5126,
			"count":3888,
			"type":"VEC3"
		},
		{
			"bufferView":10,
			"componentType":5126,
			"count":3888,
			"type":"VEC2"
		},
		{
			"bufferView":11,
			"componentType":5123,
			"count":5832,
			"type":"SCALAR"
		},
		{
			"bufferView":12,
			"componentType":5126,
			"count":1728,
			"max":[
				0.21175004541873932,
				1.9424999952316284,
				0.21777290105819702
			],
			"min":[
				-0.46380749344825745,
				0.9474999904632568,
				-0.21770037710666656
			],
			"type":"VEC3"
		},
		{
			"bufferView":13,
			"componentType":5126,
			"count":1728,
			"type":"VEC3"
		},
		{
			"bufferView":14,
			"componentType":5126,
			"count":1728,
			"type":"VEC2"
		},
		{
			"bufferView":15,
			"componentType":5123,
			"count":2592,
			"type":"SCALAR"
		},
		{
			"bufferView":16,
			"componentType":5126,
			"count":704,
			"max":[
				0.421999990940094,
				0.6420000195503235,
				0.3269999921321869
			],
			"min":[
				-0.421999990940094,
				0.27799999713897705,
				0.28300002217292786
			],
			"type":"VEC3"
		},
		{
			"bufferView":17,
			"componentType":5126,
			"count":704,
			"type":"VEC3"
		},
		{
			"bufferView":18,
			"componentType":5126,
			"count":704,
			"type":"VEC2"
		},
		{
			"bufferView":19,
			"componentType":5123,
			"count":960,
			"type":"SCALAR"
		}
	],
	"bufferViews":[
		{
			"buffer":0,
			"byteLength":18144,
			"byteOffset":0,
			"target":34962
		},
		{
			"buffer":0,
			"byteLength":18144,
			"byteOffset":18144,
			"target":34962
		},
		{
			"buffer":0,
			"byteLength":12096,
			"byteOffset":36288,
			"target":34962
		},
		{
			"buffer":0,
			"byteLength":4536,
			"byteOffset":48384,
			"target":34963
		},
		{
			"buffer":0,
			"byteLength":7776,
			"byteOffset":52920,
			"target":34962
		},
		{
			"buffer":0,
			"byteLength":7776,
			"byteOffset":60696,
			"target":34962
		},
		{
			"buffer":0,
			"byteLength":5184,
			"byteOffset":68472,
			"target":34962
		},
		{
			"buffer":0,
			"byteLength":1944,
			"byteOffset":73656,
			"target":34963
		},
		{
			"buffer":0,
			"byteLength":46656,
			"byteOffset":75600,
			"target":34962
		},
		{
			"buffer":0,
			"byteLength":46656,
			"byteOffset":122256,
			"target":34962
		},
		{
			"buffer":0,
			"byteLength":31104,
			"byteOffset":168912,
			"target":34962
		},
		{
			"buffer":0,
			"byteLength":11664,
			"byteOffset":200016,
			"target":34963
		},
		{
			"buffer":0,
			"byteLength":20736,
			"byteOffset":211680,
			"target":34962
		},
		{
			"buffer":0,
			"byteLength":20736,
			"byteOffset":232416,
			"target":34962
		},
		{
			"buffer":0,
			"byteLength":13824,
			"byteOffset":253152,
			"target":34962
		},
		{
			"buffer":0,
			"byteLength":5184,
			"byteOffset":266976,
			"target":34963
		},
		{
			"buffer":0,
			"byteLength":8448,
			"byteOffset":272160,
			"target":34962
		},
		{
			"buffer":0,
			"byteLength":8448,
			"byteOffset":280608,
			"target":34962
		},
		{
			"buffer":0,
			"byteLength":5632,
			"byteOffset":289056,
			"target":34962
		},
		{
			"buffer":0,
			"byteLength":1920,
			"byteOffset":294688,
			"target":34963
		}
	],
	"buffers":[
		{
			"byteLength":296608,
			"uri":"model.bin"
		}
	]
}
