{
	"asset":{
		"generator":"Khronos glTF Blender I/O v4.2.70",
		"version":"2.0"
	},
	"scene":0,
	"scenes":[
		{
			"name":"Scene",
			"nodes":[
				0
			]
		}
	],
	"nodes":[
		{
			"mesh":0,
			"name":"upholsteredHeadboard"
		}
	],
	"materials":[
		{
			"doubleSided":true,
			"name":"darkwood",
			"pbrMetallicRoughness":{
				"baseColorFactor":[
					0.1599999964237213,
					0.10000000149011612,
					0.07000000029802322,
					1
				],
				"metallicFactor":0,
				"roughnessFactor":0.699999988079071
			}
		},
		{
			"doubleSided":true,
			"name":"wornleather",
			"pbrMetallicRoughness":{
				"baseColorFactor":[
					0.2800000011920929,
					0.18000000715255737,
					0.10999999940395355,
					1
				],
				"metallicFactor":0,
				"roughnessFactor":0.8500000238418579
			}
		},
		{
			"doubleSided":true,
			"name":"brass",
			"pbrMetallicRoughness":{
				"baseColorFactor":[
					0.41999998688697815,
					0.30000001192092896,
					0.11999999731779099,
					1
				],
				"metallicFactor":0.8999999761581421,
				"roughnessFactor":0.3499999940395355
			}
		}
	],
	"meshes":[
		{
			"name":"Cube",
			"primitives":[
				{
					"attributes":{
						"POSITION":0,
						"NORMAL":1,
						"TEXCOORD_0":2
					},
					"indices":3,
					"material":0
				},
				{
					"attributes":{
						"POSITION":4,
						"NORMAL":5,
						"TEXCOORD_0":6
					},
					"indices":7,
					"material":1
				},
				{
					"attributes":{
						"POSITION":8,
						"NORMAL":9,
						"TEXCOORD_0":10
					},
					"indices":11,
					"material":2
				}
			]
		}
	],
	"accessors":[
		{
			"bufferView":0,
			"componentType":5126,
			"count":1920,
			"max":[
				0.8500000238418579,
				1.2450000047683716,
				0.11800000071525574
			],
			"min":[
				-0.8500000238418579,
				0,
				-0.04500000178813934
			],
			"type":"VEC3"
		},
		{
			"bufferView":1,
			"componentType":5126,
			"count":1920,
			"type":"VEC3"
		},
		{
			"bufferView":2,
			"componentType":5126,
			"count":1920,
			"type":"VEC2"
		},
		{
			"bufferView":3,
			"componentType":5123,
			"count":2736,
			"type":"SCALAR"
		},
		{
			"bufferView":4,
			"componentType":5126,
			"count":1296,
			"max":[
				0.9800000190734863,
				0.9800000190734863,
				0.10000000149011612
			],
			"min":[
				-0.9800000190734863,
				0.3499999940395355,
				0.009999997913837433
			],
			"type":"VEC3"
		},
		{
			"bufferView":5,
			"componentType":5126,
			"count":1296,
			"type":"VEC3"
		},
		{
			"bufferView":6,
			"componentType":5126,
			"count":1296,
			"type":"VEC2"
		},
		{
			"bufferView":7,
			"componentType":5123,
			"count":1944,
			"type":"SCALAR"
		},
		{
			"bufferView":8,
			"componentType":5126,
			"count":1008,
			"max":[
				0.7369282245635986,
				1.1679999828338623,
				0.05400000140070915
			],
			"min":[
				-0.7369282245635986,
				1.1519999504089355,
				0.03799999877810478
			],
			"type":"VEC3"
		},
		{
			"bufferView":9,
			"componentType":5126,
			"count":1008,
			"type":"VEC3"
		},
		{
			"bufferView":10,
			"componentType":5126,
			"count":1008,
			"type":"VEC2"
		},
		{
			"bufferView":11,
			"componentType":5123,
			"count":1296,
			"type":"SCALAR"
		}
	],
	"bufferViews":[
		{
			"buffer":0,
			"byteLength":23040,
			"byteOffset":0,
			"target":34962
		},
		{
			"buffer":0,
			"byteLength":23040,
			"byteOffset":23040,
			"target":34962
		},
		{
			"buffer":0,
			"byteLength":15360,
			"byteOffset":46080,
			"target":34962
		},
		{
			"buffer":0,
			"byteLength":5472,
			"byteOffset":61440,
			"target":34963
		},
		{
			"buffer":0,
			"byteLength":15552,
			"byteOffset":66912,
			"target":34962
		},
		{
			"buffer":0,
			"byteLength":15552,
			"byteOffset":82464,
			"target":34962
		},
		{
			"buffer":0,
			"byteLength":10368,
			"byteOffset":98016,
			"target":34962
		},
		{
			"buffer":0,
			"byteLength":3888,
			"byteOffset":108384,
			"target":34963
		},
		{
			"buffer":0,
			"byteLength":12096,
			"byteOffset":112272,
			"target":34962
		},
		{
			"buffer":0,
			"byteLength":12096,
			"byteOffset":124368,
			"target":34962
		},
		{
			"buffer":0,
			"byteLength":8064,
			"byteOffset":136464,
			"target":34962
		},
		{
			"buffer":0,
			"byteLength":2592,
			"byteOffset":144528,
			"target":34963
		}
	],
	"buffers":[
		{
			"byteLength":147120,
			"uri":"model.bin"
		}
	]
}
