{
	"asset":{
		"generator":"Khronos glTF Blender I/O v4.0.44",
		"version":"2.0"
	},
	"scene":0,
	"scenes":[
		{
			"name":"Scene",
			"nodes":[
				0
			]
		}
	],
	"nodes":[
		{
			"mesh":0,
			"name":"chapelAltar"
		}
	],
	"materials":[
		{
			"doubleSided":true,
			"name":"stone",
			"pbrMetallicRoughness":{
				"baseColorFactor":[
					0.41999998688697815,
					0.3799999952316284,
					0.33000001311302185,
					1
				],
				"metallicFactor":0,
				"roughnessFactor":0.8500000238418579
			}
		},
		{
			"doubleSided":true,
			"name":"darkwood",
			"pbrMetallicRoughness":{
				"baseColorFactor":[
					0.1599999964237213,
					0.10000000149011612,
					0.07000000029802322,
					1
				],
				"metallicFactor":0,
				"roughnessFactor":0.699999988079071
			}
		},
		{
			"doubleSided":true,
			"name":"velvet",
			"pbrMetallicRoughness":{
				"baseColorFactor":[
					0.30000001192092896,
					0.07000000029802322,
					0.07999999821186066,
					1
				],
				"metallicFactor":0,
				"roughnessFactor":0.949999988079071
			}
		},
		{
			"doubleSided":true,
			"name":"brass",
			"pbrMetallicRoughness":{
				"baseColorFactor":[
					0.41999998688697815,
					0.30000001192092896,
					0.11999999731779099,
					1
				],
				"metallicFactor":0.8999999761581421,
				"roughnessFactor":0.3499999940395355
			}
		},
		{
			"doubleSided":true,
			"name":"wax",
			"pbrMetallicRoughness":{
				"baseColorFactor":[
					0.8299999833106995,
					0.7900000214576721,
					0.6600000262260437,
					1
				],
				"metallicFactor":0,
				"roughnessFactor":0.550000011920929
			}
		}
	],
	"meshes":[
		{
			"name":"Cube",
			"primitives":[
				{
					"attributes":{
						"POSITION":0,
						"NORMAL":1,
						"TEXCOORD_0":2
					},
					"indices":3,
					"material":0
				},
				{
					"attributes":{
						"POSITION":4,
						"NORMAL":5,
						"TEXCOORD_0":6
					},
					"indices":7,
					"material":1
				},
				{
					"attributes":{
						"POSITION":8,
						"NORMAL":9,
						"TEXCOORD_0":10
					},
					"indices":11,
					"material":2
				},
				{
					"attributes":{
						"POSITION":12,
						"NORMAL":13,
						"TEXCOORD_0":14
					},
					"indices":15,
					"material":3
				},
				{
					"attributes":{
						"POSITION":16,
						"NORMAL":17,
						"TEXCOORD_0":18
					},
					"indices":19,
					"material":4
				}
			]
		}
	],
	"accessors":[
		{
			"bufferView":0,
			"componentType":5126,
			"count":864,
			"max":[
				0.9100000262260437,
				1.0499999523162842,
				0.4099999964237213
			],
			"min":[
				-0.9100000262260437,
				0,
				-0.4099999964237213
			],
			"type":"VEC3"
		},
		{
			"bufferView":1,
			"componentType":5126,
			"count":864,
			"type":"VEC3"
		},
		{
			"bufferView":2,
			"componentType":5126,
			"count":864,
			"type":"VEC2"
		},
		{
			"bufferView":3,
			"componentType":5123,
			"count":1296,
			"type":"SCALAR"
		},
		{
			"bufferView":4,
			"componentType":5126,
			"count":628,
			"max":[
				0.6499999761581421,
				1.190000057220459,
				0.5968740582466125
			],
			"min":[
				-0.6499999761581421,
				0.19999998807907104,
				-0.12999999523162842
			],
			"type":"VEC3"
		},
		{
			"bufferView":5,
			"componentType":5126,
			"count":628,
			"type":"VEC3"
		},
		{
			"bufferView":6,
			"componentType":5126,
			"count":628,
			"type":"VEC2"
		},
		{
			"bufferView":7,
			"componentType":5123,
			"count":972,
			"type":"SCALAR"
		},
		{
			"bufferView":8,
			"componentType":5126,
			"count":432,
			"max":[
				0.6800000071525574,
				1.0549999475479126,
				0.3799999952316284
			],
			"min":[
				-0.6800000071525574,
				0.3999999761581421,
				0.10999999940395355
			],
			"type":"VEC3"
		},
		{
			"bufferView":9,
			"componentType":5126,
			"count":432,
			"type":"VEC3"
		},
		{
			"bufferView":10,
			"componentType":5126,
			"count":432,
			"type":"VEC2"
		},
		{
			"bufferView":11,
			"componentType":5123,
			"count":648,
			"type":"SCALAR"
		},
		{
			"bufferView":12,
			"componentType":5126,
			"count":144,
			"max":[
				0.6500000357627869,
				1.100000023841858,
				0.03999999910593033
			],
			"min":[
				-0.6500000357627869,
				1.0500000715255737,
				-0.03999999910593033
			],
			"type":"VEC3"
		},
		{
			"bufferView":13,
			"componentType":5126,
			"count":144,
			"type":"VEC3"
		},
		{
			"bufferView":14,
			"componentType":5126,
			"count":144,
			"type":"VEC2"
		},
		{
			"bufferView":15,
			"componentType":5123,
			"count":264,
			"type":"SCALAR"
		},
		{
			"bufferView":16,
			"componentType":5126,
			"count":120,
			"max":[
				0.6309232711791992,
				1.340000033378601,
				0.02199999988079071
			],
			"min":[
				-0.6309232711791992,
				1.100000023841858,
				-0.02199999988079071
			],
			"type":"VEC3"
		},
		{
			"bufferView":17,
			"componentType":5126,
			"count":120,
			"type":"VEC3"
		},
		{
			"bufferView":18,
			"componentType":5126,
			"count":120,
			"type":"VEC2"
		},
		{
			"bufferView":19,
			"componentType":5123,
			"count":216,
			"type":"SCALAR"
		}
	],
	"bufferViews":[
		{
			"buffer":0,
			"byteLength":10368,
			"byteOffset":0,
			"target":34962
		},
		{
			"buffer":0,
			"byteLength":10368,
			"byteOffset":10368,
			"target":34962
		},
		{
			"buffer":0,
			"byteLength":6912,
			"byteOffset":20736,
			"target":34962
		},
		{
			"buffer":0,
			"byteLength":2592,
			"byteOffset":27648,
			"target":34963
		},
		{
			"buffer":0,
			"byteLength":7536,
			"byteOffset":30240,
			"target":34962
		},
		{
			"buffer":0,
			"byteLength":7536,
			"byteOffset":37776,
			"target":34962
		},
		{
			"buffer":0,
			"byteLength":5024,
			"byteOffset":45312,
			"target":34962
		},
		{
			"buffer":0,
			"byteLength":1944,
			"byteOffset":50336,
			"target":34963
		},
		{
			"buffer":0,
			"byteLength":5184,
			"byteOffset":52280,
			"target":34962
		},
		{
			"buffer":0,
			"byteLength":5184,
			"byteOffset":57464,
			"target":34962
		},
		{
			"buffer":0,
			"byteLength":3456,
			"byteOffset":62648,
			"target":34962
		},
		{
			"buffer":0,
			"byteLength":1296,
			"byteOffset":66104,
			"target":34963
		},
		{
			"buffer":0,
			"byteLength":1728,
			"byteOffset":67400,
			"target":34962
		},
		{
			"buffer":0,
			"byteLength":1728,
			"byteOffset":69128,
			"target":34962
		},
		{
			"buffer":0,
			"byteLength":1152,
			"byteOffset":70856,
			"target":34962
		},
		{
			"buffer":0,
			"byteLength":528,
			"byteOffset":72008,
			"target":34963
		},
		{
			"buffer":0,
			"byteLength":1440,
			"byteOffset":72536,
			"target":34962
		},
		{
			"buffer":0,
			"byteLength":1440,
			"byteOffset":73976,
			"target":34962
		},
		{
			"buffer":0,
			"byteLength":960,
			"byteOffset":75416,
			"target":34962
		},
		{
			"buffer":0,
			"byteLength":432,
			"byteOffset":76376,
			"target":34963
		}
	],
	"buffers":[
		{
			"byteLength":76808,
			"uri":"model.bin"
		}
	]
}
