{
	"asset":{
		"generator":"Khronos glTF Blender I/O v4.2.70",
		"version":"2.0"
	},
	"scene":0,
	"scenes":[
		{
			"name":"Scene",
			"nodes":[
				0
			]
		}
	],
	"nodes":[
		{
			"mesh":0,
			"name":"drapePanel"
		}
	],
	"materials":[
		{
			"doubleSided":true,
			"name":"bookcloth",
			"pbrMetallicRoughness":{
				"baseColorFactor":[
					0.20000000298023224,
					0.23999999463558197,
					0.20000000298023224,
					1
				],
				"metallicFactor":0,
				"roughnessFactor":0.8999999761581421
			}
		},
		{
			"doubleSided":true,
			"name":"darkwood",
			"pbrMetallicRoughness":{
				"baseColorFactor":[
					0.1599999964237213,
					0.10000000149011612,
					0.07000000029802322,
					1
				],
				"metallicFactor":0,
				"roughnessFactor":0.699999988079071
			}
		},
		{
			"doubleSided":true,
			"name":"brass",
			"pbrMetallicRoughness":{
				"baseColorFactor":[
					0.41999998688697815,
					0.30000001192092896,
					0.11999999731779099,
					1
				],
				"metallicFactor":0.8999999761581421,
				"roughnessFactor":0.3499999940395355
			}
		}
	],
	"meshes":[
		{
			"name":"Cube",
			"primitives":[
				{
					"attributes":{
						"POSITION":0,
						"NORMAL":1,
						"TEXCOORD_0":2
					},
					"indices":3,
					"material":0
				},
				{
					"attributes":{
						"POSITION":4,
						"NORMAL":5,
						"TEXCOORD_0":6
					},
					"indices":7,
					"material":1
				},
				{
					"attributes":{
						"POSITION":8,
						"NORMAL":9,
						"TEXCOORD_0":10
					},
					"indices":11,
					"material":2
				}
			]
		}
	],
	"accessors":[
		{
			"bufferView":0,
			"componentType":5126,
			"count":1080,
			"max":[
				0.27000001072883606,
				1.149999976158142,
				0.05000000074505806
			],
			"min":[
				-0.27000001072883606,
				-1.149999976158142,
				-0.03500000014901161
			],
			"type":"VEC3"
		},
		{
			"bufferView":1,
			"componentType":5126,
			"count":1080,
			"type":"VEC3"
		},
		{
			"bufferView":2,
			"componentType":5126,
			"count":1080,
			"type":"VEC2"
		},
		{
			"bufferView":3,
			"componentType":5123,
			"count":1620,
			"type":"SCALAR"
		},
		{
			"bufferView":4,
			"componentType":5126,
			"count":1140,
			"max":[
				0.2750000059604645,
				1.189021110534668,
				0.05000000074505806
			],
			"min":[
				-0.2750000059604645,
				-1.1449999809265137,
				-0.03500000014901161
			],
			"type":"VEC3"
		},
		{
			"bufferView":5,
			"componentType":5126,
			"count":1140,
			"type":"VEC3"
		},
		{
			"bufferView":6,
			"componentType":5126,
			"count":1140,
			"type":"VEC2"
		},
		{
			"bufferView":7,
			"componentType":5123,
			"count":1728,
			"type":"SCALAR"
		},
		{
			"bufferView":8,
			"componentType":5126,
			"count":496,
			"max":[
				0.15285077691078186,
				-0.0860000029206276,
				0.07370294630527496
			],
			"min":[
				-0.05285077914595604,
				-0.3199999928474426,
				-0.13370294868946075
			],
			"type":"VEC3"
		},
		{
			"bufferView":9,
			"componentType":5126,
			"count":496,
			"type":"VEC3"
		},
		{
			"bufferView":10,
			"componentType":5126,
			"count":496,
			"type":"VEC2"
		},
		{
			"bufferView":11,
			"componentType":5123,
			"count":756,
			"type":"SCALAR"
		}
	],
	"bufferViews":[
		{
			"buffer":0,
			"byteLength":12960,
			"byteOffset":0,
			"target":34962
		},
		{
			"buffer":0,
			"byteLength":12960,
			"byteOffset":12960,
			"target":34962
		},
		{
			"buffer":0,
			"byteLength":8640,
			"byteOffset":25920,
			"target":34962
		},
		{
			"buffer":0,
			"byteLength":3240,
			"byteOffset":34560,
			"target":34963
		},
		{
			"buffer":0,
			"byteLength":13680,
			"byteOffset":37800,
			"target":34962
		},
		{
			"buffer":0,
			"byteLength":13680,
			"byteOffset":51480,
			"target":34962
		},
		{
			"buffer":0,
			"byteLength":9120,
			"byteOffset":65160,
			"target":34962
		},
		{
			"buffer":0,
			"byteLength":3456,
			"byteOffset":74280,
			"target":34963
		},
		{
			"buffer":0,
			"byteLength":5952,
			"byteOffset":77736,
			"target":34962
		},
		{
			"buffer":0,
			"byteLength":5952,
			"byteOffset":83688,
			"target":34962
		},
		{
			"buffer":0,
			"byteLength":3968,
			"byteOffset":89640,
			"target":34962
		},
		{
			"buffer":0,
			"byteLength":1512,
			"byteOffset":93608,
			"target":34963
		}
	],
	"buffers":[
		{
			"byteLength":95120,
			"uri":"model.bin"
		}
	]
}
