{
	"asset":{
		"generator":"Khronos glTF Blender I/O v4.2.70",
		"version":"2.0"
	},
	"scene":0,
	"scenes":[
		{
			"name":"Scene",
			"nodes":[
				0
			]
		}
	],
	"nodes":[
		{
			"mesh":0,
			"name":"ironGrate"
		}
	],
	"materials":[
		{
			"doubleSided":true,
			"name":"iron",
			"pbrMetallicRoughness":{
				"baseColorFactor":[
					0.10999999940395355,
					0.10999999940395355,
					0.11999999731779099,
					1
				],
				"metallicFactor":0.8500000238418579,
				"roughnessFactor":0.44999998807907104
			}
		}
	],
	"meshes":[
		{
			"name":"Cube",
			"primitives":[
				{
					"attributes":{
						"POSITION":0,
						"NORMAL":1,
						"TEXCOORD_0":2
					},
					"indices":3,
					"material":0
				}
			]
		}
	],
	"accessors":[
		{
			"bufferView":0,
			"componentType":5126,
			"count":2376,
			"max":[
				0.44999998807907104,
				0.12301508337259293,
				0.44999998807907104
			],
			"min":[
				-0.44999998807907104,
				-0.08397918194532394,
				-0.44999998807907104
			],
			"type":"VEC3"
		},
		{
			"bufferView":1,
			"componentType":5126,
			"count":2376,
			"type":"VEC3"
		},
		{
			"bufferView":2,
			"componentType":5126,
			"count":2376,
			"type":"VEC2"
		},
		{
			"bufferView":3,
			"componentType":5123,
			"count":3564,
			"type":"SCALAR"
		}
	],
	"bufferViews":[
		{
			"buffer":0,
			"byteLength":28512,
			"byteOffset":0,
			"target":34962
		},
		{
			"buffer":0,
			"byteLength":28512,
			"byteOffset":28512,
			"target":34962
		},
		{
			"buffer":0,
			"byteLength":19008,
			"byteOffset":57024,
			"target":34962
		},
		{
			"buffer":0,
			"byteLength":7128,
			"byteOffset":76032,
			"target":34963
		}
	],
	"buffers":[
		{
			"byteLength":83160,
			"uri":"model.bin"
		}
	]
}
