{
	"asset":{
		"generator":"Khronos glTF Blender I/O v4.0.44",
		"version":"2.0"
	},
	"scene":0,
	"scenes":[
		{
			"name":"Scene",
			"nodes":[
				0
			]
		}
	],
	"nodes":[
		{
			"mesh":0,
			"name":"globeStand",
			"rotation":[
				0,
				0,
				-0.20364174246788025,
				0.9790455102920532
			],
			"translation":[
				0,
				1.0199999809265137,
				0
			]
		}
	],
	"materials":[
		{
			"doubleSided":true,
			"name":"bookcloth",
			"pbrMetallicRoughness":{
				"baseColorFactor":[
					0.20000000298023224,
					0.23999999463558197,
					0.20000000298023224,
					1
				],
				"metallicFactor":0,
				"roughnessFactor":0.8999999761581421
			}
		},
		{
			"doubleSided":true,
			"name":"brass",
			"pbrMetallicRoughness":{
				"baseColorFactor":[
					0.41999998688697815,
					0.30000001192092896,
					0.11999999731779099,
					1
				],
				"metallicFactor":0.8999999761581421,
				"roughnessFactor":0.3499999940395355
			}
		},
		{
			"doubleSided":true,
			"name":"darkwood",
			"pbrMetallicRoughness":{
				"baseColorFactor":[
					0.1599999964237213,
					0.10000000149011612,
					0.07000000029802322,
					1
				],
				"metallicFactor":0,
				"roughnessFactor":0.699999988079071
			}
		}
	],
	"meshes":[
		{
			"name":"Sphere",
			"primitives":[
				{
					"attributes":{
						"POSITION":0,
						"NORMAL":1,
						"TEXCOORD_0":2
					},
					"indices":3,
					"material":0
				},
				{
					"attributes":{
						"POSITION":4,
						"NORMAL":5,
						"TEXCOORD_0":6
					},
					"indices":7,
					"material":1
				},
				{
					"attributes":{
						"POSITION":8,
						"NORMAL":9,
						"TEXCOORD_0":10
					},
					"indices":11,
					"material":2
				}
			]
		}
	],
	"accessors":[
		{
			"bufferView":0,
			"componentType":5126,
			"count":1960,
			"max":[
				0.2199999839067459,
				0.2199999988079071,
				0.2199999839067459
			],
			"min":[
				-0.2199999839067459,
				-0.2199999988079071,
				-0.2199999839067459
			],
			"type":"VEC3"
		},
		{
			"bufferView":1,
			"componentType":5126,
			"count":1960,
			"type":"VEC3"
		},
		{
			"bufferView":2,
			"componentType":5126,
			"count":1960,
			"type":"VEC2"
		},
		{
			"bufferView":3,
			"componentType":5123,
			"count":2856,
			"type":"SCALAR"
		},
		{
			"bufferView":4,
			"componentType":5126,
			"count":1432,
			"max":[
				0.27699998021125793,
				0.30000001192092896,
				0.03999999910593033
			],
			"min":[
				-0.27699998021125793,
				-0.31511190533638,
				-0.03999999910593033
			],
			"type":"VEC3"
		},
		{
			"bufferView":5,
			"componentType":5126,
			"count":1432,
			"type":"VEC3"
		},
		{
			"bufferView":6,
			"componentType":5126,
			"count":1432,
			"type":"VEC2"
		},
		{
			"bufferView":7,
			"componentType":5123,
			"count":2124,
			"type":"SCALAR"
		},
		{
			"bufferView":8,
			"componentType":5126,
			"count":1112,
			"max":[
				0.4603422284126282,
				-0.10701820254325867,
				0.24755080044269562
			],
			"min":[
				-0.10030622780323029,
				-0.9558862447738647,
				-0.13439862430095673
			],
			"type":"VEC3"
		},
		{
			"bufferView":9,
			"componentType":5126,
			"count":1112,
			"type":"VEC3"
		},
		{
			"bufferView":10,
			"componentType":5126,
			"count":1112,
			"type":"VEC2"
		},
		{
			"bufferView":11,
			"componentType":5123,
			"count":1728,
			"type":"SCALAR"
		}
	],
	"bufferViews":[
		{
			"buffer":0,
			"byteLength":23520,
			"byteOffset":0,
			"target":34962
		},
		{
			"buffer":0,
			"byteLength":23520,
			"byteOffset":23520,
			"target":34962
		},
		{
			"buffer":0,
			"byteLength":15680,
			"byteOffset":47040,
			"target":34962
		},
		{
			"buffer":0,
			"byteLength":5712,
			"byteOffset":62720,
			"target":34963
		},
		{
			"buffer":0,
			"byteLength":17184,
			"byteOffset":68432,
			"target":34962
		},
		{
			"buffer":0,
			"byteLength":17184,
			"byteOffset":85616,
			"target":34962
		},
		{
			"buffer":0,
			"byteLength":11456,
			"byteOffset":102800,
			"target":34962
		},
		{
			"buffer":0,
			"byteLength":4248,
			"byteOffset":114256,
			"target":34963
		},
		{
			"buffer":0,
			"byteLength":13344,
			"byteOffset":118504,
			"target":34962
		},
		{
			"buffer":0,
			"byteLength":13344,
			"byteOffset":131848,
			"target":34962
		},
		{
			"buffer":0,
			"byteLength":8896,
			"byteOffset":145192,
			"target":34962
		},
		{
			"buffer":0,
			"byteLength":3456,
			"byteOffset":154088,
			"target":34963
		}
	],
	"buffers":[
		{
			"byteLength":157544,
			"uri":"model.bin"
		}
	]
}
