{
	"asset":{
		"generator":"Khronos glTF Blender I/O v4.0.44",
		"version":"2.0"
	},
	"scene":0,
	"scenes":[
		{
			"name":"Scene",
			"nodes":[
				0
			]
		}
	],
	"nodes":[
		{
			"mesh":0,
			"name":"ceilingHook",
			"translation":[
				0,
				0.9399999976158142,
				0
			]
		}
	],
	"materials":[
		{
			"doubleSided":true,
			"name":"iron",
			"pbrMetallicRoughness":{
				"baseColorFactor":[
					0.10999999940395355,
					0.10999999940395355,
					0.11999999731779099,
					1
				],
				"metallicFactor":0.8500000238418579,
				"roughnessFactor":0.44999998807907104
			}
		}
	],
	"meshes":[
		{
			"name":"Cylinder",
			"primitives":[
				{
					"attributes":{
						"POSITION":0,
						"NORMAL":1,
						"TEXCOORD_0":2
					},
					"indices":3,
					"material":0
				}
			]
		}
	],
	"accessors":[
		{
			"bufferView":0,
			"componentType":5126,
			"count":2596,
			"max":[
				0.06824495643377304,
				0.014999999664723873,
				0.0901741087436676
			],
			"min":[
				-0.06824495643377304,
				-0.7139999866485596,
				-0.07214466482400894
			],
			"type":"VEC3"
		},
		{
			"bufferView":1,
			"componentType":5126,
			"count":2596,
			"type":"VEC3"
		},
		{
			"bufferView":2,
			"componentType":5126,
			"count":2596,
			"type":"VEC2"
		},
		{
			"bufferView":3,
			"componentType":5123,
			"count":3960,
			"type":"SCALAR"
		}
	],
	"bufferViews":[
		{
			"buffer":0,
			"byteLength":31152,
			"byteOffset":0,
			"target":34962
		},
		{
			"buffer":0,
			"byteLength":31152,
			"byteOffset":31152,
			"target":34962
		},
		{
			"buffer":0,
			"byteLength":20768,
			"byteOffset":62304,
			"target":34962
		},
		{
			"buffer":0,
			"byteLength":7920,
			"byteOffset":83072,
			"target":34963
		}
	],
	"buffers":[
		{
			"byteLength":90992,
			"uri":"model.bin"
		}
	]
}
