{
	"asset":{
		"generator":"Khronos glTF Blender I/O v4.0.44",
		"version":"2.0"
	},
	"scene":0,
	"scenes":[
		{
			"name":"Scene",
			"nodes":[
				0
			]
		}
	],
	"nodes":[
		{
			"mesh":0,
			"name":"wallPanel"
		}
	],
	"materials":[
		{
			"doubleSided":true,
			"name":"stone",
			"pbrMetallicRoughness":{
				"baseColorFactor":[
					0.41999998688697815,
					0.3799999952316284,
					0.33000001311302185,
					1
				],
				"metallicFactor":0,
				"roughnessFactor":0.8500000238418579
			}
		}
	],
	"meshes":[
		{
			"name":"Cube",
			"primitives":[
				{
					"attributes":{
						"POSITION":0,
						"NORMAL":1,
						"TEXCOORD_0":2
					},
					"indices":3,
					"material":0
				}
			]
		}
	],
	"accessors":[
		{
			"bufferView":0,
			"componentType":5126,
			"count":1944,
			"max":[
				0.6949999928474426,
				0.6000000238418579,
				0.06800000369548798
			],
			"min":[
				-0.6949999928474426,
				-0.6000000238418579,
				0
			],
			"type":"VEC3"
		},
		{
			"bufferView":1,
			"componentType":5126,
			"count":1944,
			"type":"VEC3"
		},
		{
			"bufferView":2,
			"componentType":5126,
			"count":1944,
			"type":"VEC2"
		},
		{
			"bufferView":3,
			"componentType":5123,
			"count":2916,
			"type":"SCALAR"
		}
	],
	"bufferViews":[
		{
			"buffer":0,
			"byteLength":23328,
			"byteOffset":0,
			"target":34962
		},
		{
			"buffer":0,
			"byteLength":23328,
			"byteOffset":23328,
			"target":34962
		},
		{
			"buffer":0,
			"byteLength":15552,
			"byteOffset":46656,
			"target":34962
		},
		{
			"buffer":0,
			"byteLength":5832,
			"byteOffset":62208,
			"target":34963
		}
	],
	"buffers":[
		{
			"byteLength":68040,
			"uri":"model.bin"
		}
	]
}
