{
	"asset":{
		"generator":"Khronos glTF Blender I/O v4.2.83",
		"version":"2.0"
	},
	"scene":0,
	"scenes":[
		{
			"name":"Scene",
			"nodes":[
				0
			]
		}
	],
	"nodes":[
		{
			"mesh":0,
			"name":"portcullis"
		}
	],
	"materials":[
		{
			"doubleSided":true,
			"name":"iron",
			"pbrMetallicRoughness":{
				"baseColorFactor":[
					0.10999999940395355,
					0.10999999940395355,
					0.11999999731779099,
					1
				],
				"metallicFactor":0.8500000238418579,
				"roughnessFactor":0.44999998807907104
			}
		}
	],
	"meshes":[
		{
			"name":"Cube",
			"primitives":[
				{
					"attributes":{
						"POSITION":0,
						"NORMAL":1,
						"TEXCOORD_0":2
					},
					"indices":3,
					"material":0
				}
			]
		}
	],
	"accessors":[
		{
			"bufferView":0,
			"componentType":5126,
			"count":2016,
			"max":[
				1.2000000476837158,
				2.5999999046325684,
				0.07999999821186066
			],
			"min":[
				-1.2000000476837158,
				0,
				-0.07999999821186066
			],
			"type":"VEC3"
		},
		{
			"bufferView":1,
			"componentType":5126,
			"count":2016,
			"type":"VEC3"
		},
		{
			"bufferView":2,
			"componentType":5126,
			"count":2016,
			"type":"VEC2"
		},
		{
			"bufferView":3,
			"componentType":5123,
			"count":3078,
			"type":"SCALAR"
		}
	],
	"bufferViews":[
		{
			"buffer":0,
			"byteLength":24192,
			"byteOffset":0,
			"target":34962
		},
		{
			"buffer":0,
			"byteLength":24192,
			"byteOffset":24192,
			"target":34962
		},
		{
			"buffer":0,
			"byteLength":16128,
			"byteOffset":48384,
			"target":34962
		},
		{
			"buffer":0,
			"byteLength":6156,
			"byteOffset":64512,
			"target":34963
		}
	],
	"buffers":[
		{
			"byteLength":70668,
			"uri":"model.bin"
		}
	]
}
