{
	"asset":{
		"generator":"Khronos glTF Blender I/O v4.2.83",
		"version":"2.0"
	},
	"scene":0,
	"scenes":[
		{
			"name":"Scene",
			"nodes":[
				0
			]
		}
	],
	"nodes":[
		{
			"mesh":0,
			"name":"vault"
		}
	],
	"materials":[
		{
			"doubleSided":true,
			"name":"stone",
			"pbrMetallicRoughness":{
				"baseColorFactor":[
					0.41999998688697815,
					0.3799999952316284,
					0.33000001311302185,
					1
				],
				"metallicFactor":0,
				"roughnessFactor":0.8500000238418579
			}
		},
		{
			"doubleSided":true,
			"name":"darkwood",
			"pbrMetallicRoughness":{
				"baseColorFactor":[
					0.1599999964237213,
					0.10000000149011612,
					0.07000000029802322,
					1
				],
				"metallicFactor":0,
				"roughnessFactor":0.699999988079071
			}
		}
	],
	"meshes":[
		{
			"name":"Cube",
			"primitives":[
				{
					"attributes":{
						"POSITION":0,
						"NORMAL":1,
						"TEXCOORD_0":2
					},
					"indices":3,
					"material":0
				},
				{
					"attributes":{
						"POSITION":4,
						"NORMAL":5,
						"TEXCOORD_0":6
					},
					"indices":7,
					"material":1
				}
			]
		}
	],
	"accessors":[
		{
			"bufferView":0,
			"componentType":5126,
			"count":3456,
			"max":[
				2,
				0.10999999940395355,
				2
			],
			"min":[
				-2,
				-0.5750000476837158,
				-2
			],
			"type":"VEC3"
		},
		{
			"bufferView":1,
			"componentType":5126,
			"count":3456,
			"type":"VEC3"
		},
		{
			"bufferView":2,
			"componentType":5126,
			"count":3456,
			"type":"VEC2"
		},
		{
			"bufferView":3,
			"componentType":5123,
			"count":5184,
			"type":"SCALAR"
		},
		{
			"bufferView":4,
			"componentType":5126,
			"count":1944,
			"max":[
				1.590000033378601,
				0.08500000089406967,
				1.590000033378601
			],
			"min":[
				-1.590000033378601,
				0.034999996423721313,
				-1.590000033378601
			],
			"type":"VEC3"
		},
		{
			"bufferView":5,
			"componentType":5126,
			"count":1944,
			"type":"VEC3"
		},
		{
			"bufferView":6,
			"componentType":5126,
			"count":1944,
			"type":"VEC2"
		},
		{
			"bufferView":7,
			"componentType":5123,
			"count":2916,
			"type":"SCALAR"
		}
	],
	"bufferViews":[
		{
			"buffer":0,
			"byteLength":41472,
			"byteOffset":0,
			"target":34962
		},
		{
			"buffer":0,
			"byteLength":41472,
			"byteOffset":41472,
			"target":34962
		},
		{
			"buffer":0,
			"byteLength":27648,
			"byteOffset":82944,
			"target":34962
		},
		{
			"buffer":0,
			"byteLength":10368,
			"byteOffset":110592,
			"target":34963
		},
		{
			"buffer":0,
			"byteLength":23328,
			"byteOffset":120960,
			"target":34962
		},
		{
			"buffer":0,
			"byteLength":23328,
			"byteOffset":144288,
			"target":34962
		},
		{
			"buffer":0,
			"byteLength":15552,
			"byteOffset":167616,
			"target":34962
		},
		{
			"buffer":0,
			"byteLength":5832,
			"byteOffset":183168,
			"target":34963
		}
	],
	"buffers":[
		{
			"byteLength":189000,
			"uri":"model.bin"
		}
	]
}
