{
	"asset":{
		"generator":"Khronos glTF Blender I/O v4.2.83",
		"version":"2.0"
	},
	"scene":0,
	"scenes":[
		{
			"name":"Scene",
			"nodes":[
				0
			]
		}
	],
	"nodes":[
		{
			"mesh":0,
			"name":"windowArch"
		}
	],
	"materials":[
		{
			"doubleSided":true,
			"name":"stone",
			"pbrMetallicRoughness":{
				"baseColorFactor":[
					0.41999998688697815,
					0.3799999952316284,
					0.33000001311302185,
					1
				],
				"metallicFactor":0,
				"roughnessFactor":0.8500000238418579
			}
		},
		{
			"doubleSided":true,
			"name":"iron",
			"pbrMetallicRoughness":{
				"baseColorFactor":[
					0.10999999940395355,
					0.10999999940395355,
					0.11999999731779099,
					1
				],
				"metallicFactor":0.8500000238418579,
				"roughnessFactor":0.44999998807907104
			}
		},
		{
			"doubleSided":true,
			"name":"darkwood",
			"pbrMetallicRoughness":{
				"baseColorFactor":[
					0.1599999964237213,
					0.10000000149011612,
					0.07000000029802322,
					1
				],
				"metallicFactor":0,
				"roughnessFactor":0.699999988079071
			}
		}
	],
	"meshes":[
		{
			"name":"Cube",
			"primitives":[
				{
					"attributes":{
						"POSITION":0,
						"NORMAL":1,
						"TEXCOORD_0":2
					},
					"indices":3,
					"material":0
				},
				{
					"attributes":{
						"POSITION":4,
						"NORMAL":5,
						"TEXCOORD_0":6
					},
					"indices":7,
					"material":1
				},
				{
					"attributes":{
						"POSITION":8,
						"NORMAL":9,
						"TEXCOORD_0":10
					},
					"indices":11,
					"material":2
				}
			]
		}
	],
	"accessors":[
		{
			"bufferView":0,
			"componentType":5126,
			"count":852,
			"max":[
				0.7200000286102295,
				2.509999990463257,
				0.12000000476837158
			],
			"min":[
				-0.7200000286102295,
				0,
				-0.07999999821186066
			],
			"type":"VEC3"
		},
		{
			"bufferView":1,
			"componentType":5126,
			"count":852,
			"type":"VEC3"
		},
		{
			"bufferView":2,
			"componentType":5126,
			"count":852,
			"type":"VEC2"
		},
		{
			"bufferView":3,
			"componentType":5123,
			"count":1368,
			"type":"SCALAR"
		},
		{
			"bufferView":4,
			"componentType":5126,
			"count":1512,
			"max":[
				0.9396191835403442,
				2.2680001258850098,
				0.041999999433755875
			],
			"min":[
				-0.9396191835403442,
				0.1499999761581421,
				-0.041999999433755875
			],
			"type":"VEC3"
		},
		{
			"bufferView":5,
			"componentType":5126,
			"count":1512,
			"type":"VEC3"
		},
		{
			"bufferView":6,
			"componentType":5126,
			"count":1512,
			"type":"VEC2"
		},
		{
			"bufferView":7,
			"componentType":5123,
			"count":2268,
			"type":"SCALAR"
		},
		{
			"bufferView":8,
			"componentType":5126,
			"count":24,
			"max":[
				0.5600000023841858,
				2.2319998741149902,
				-0.019999999552965164
			],
			"min":[
				-0.5600000023841858,
				0.07199990749359131,
				-0.030000001192092896
			],
			"type":"VEC3"
		},
		{
			"bufferView":9,
			"componentType":5126,
			"count":24,
			"type":"VEC3"
		},
		{
			"bufferView":10,
			"componentType":5126,
			"count":24,
			"type":"VEC2"
		},
		{
			"bufferView":11,
			"componentType":5123,
			"count":36,
			"type":"SCALAR"
		}
	],
	"bufferViews":[
		{
			"buffer":0,
			"byteLength":10224,
			"byteOffset":0,
			"target":34962
		},
		{
			"buffer":0,
			"byteLength":10224,
			"byteOffset":10224,
			"target":34962
		},
		{
			"buffer":0,
			"byteLength":6816,
			"byteOffset":20448,
			"target":34962
		},
		{
			"buffer":0,
			"byteLength":2736,
			"byteOffset":27264,
			"target":34963
		},
		{
			"buffer":0,
			"byteLength":18144,
			"byteOffset":30000,
			"target":34962
		},
		{
			"buffer":0,
			"byteLength":18144,
			"byteOffset":48144,
			"target":34962
		},
		{
			"buffer":0,
			"byteLength":12096,
			"byteOffset":66288,
			"target":34962
		},
		{
			"buffer":0,
			"byteLength":4536,
			"byteOffset":78384,
			"target":34963
		},
		{
			"buffer":0,
			"byteLength":288,
			"byteOffset":82920,
			"target":34962
		},
		{
			"buffer":0,
			"byteLength":288,
			"byteOffset":83208,
			"target":34962
		},
		{
			"buffer":0,
			"byteLength":192,
			"byteOffset":83496,
			"target":34962
		},
		{
			"buffer":0,
			"byteLength":72,
			"byteOffset":83688,
			"target":34963
		}
	],
	"buffers":[
		{
			"byteLength":83760,
			"uri":"model.bin"
		}
	]
}
