{
	"asset":{
		"generator":"Khronos glTF Blender I/O v4.2.83",
		"version":"2.0"
	},
	"scene":0,
	"scenes":[
		{
			"name":"Scene",
			"nodes":[
				0
			]
		}
	],
	"nodes":[
		{
			"mesh":0,
			"name":"wallVent"
		}
	],
	"materials":[
		{
			"doubleSided":true,
			"name":"darkwood",
			"pbrMetallicRoughness":{
				"baseColorFactor":[
					0.1599999964237213,
					0.10000000149011612,
					0.07000000029802322,
					1
				],
				"metallicFactor":0,
				"roughnessFactor":0.699999988079071
			}
		},
		{
			"doubleSided":true,
			"name":"iron",
			"pbrMetallicRoughness":{
				"baseColorFactor":[
					0.10999999940395355,
					0.10999999940395355,
					0.11999999731779099,
					1
				],
				"metallicFactor":0.8500000238418579,
				"roughnessFactor":0.44999998807907104
			}
		}
	],
	"meshes":[
		{
			"name":"Cube",
			"primitives":[
				{
					"attributes":{
						"POSITION":0,
						"NORMAL":1,
						"TEXCOORD_0":2
					},
					"indices":3,
					"material":0
				},
				{
					"attributes":{
						"POSITION":4,
						"NORMAL":5,
						"TEXCOORD_0":6
					},
					"indices":7,
					"material":1
				}
			]
		}
	],
	"accessors":[
		{
			"bufferView":0,
			"componentType":5126,
			"count":2512,
			"max":[
				0.44999998807907104,
				0.44999998807907104,
				0.19991335272789001
			],
			"min":[
				-0.44999998807907104,
				-0.44999998807907104,
				-0.16643545031547546
			],
			"type":"VEC3"
		},
		{
			"bufferView":1,
			"componentType":5126,
			"count":2512,
			"type":"VEC3"
		},
		{
			"bufferView":2,
			"componentType":5126,
			"count":2512,
			"type":"VEC2"
		},
		{
			"bufferView":3,
			"componentType":5123,
			"count":3888,
			"type":"SCALAR"
		},
		{
			"bufferView":4,
			"componentType":5126,
			"count":24,
			"max":[
				0.38999998569488525,
				0.38999998569488525,
				-0.004999999888241291
			],
			"min":[
				-0.38999998569488525,
				-0.38999998569488525,
				-0.03500000014901161
			],
			"type":"VEC3"
		},
		{
			"bufferView":5,
			"componentType":5126,
			"count":24,
			"type":"VEC3"
		},
		{
			"bufferView":6,
			"componentType":5126,
			"count":24,
			"type":"VEC2"
		},
		{
			"bufferView":7,
			"componentType":5123,
			"count":36,
			"type":"SCALAR"
		}
	],
	"bufferViews":[
		{
			"buffer":0,
			"byteLength":30144,
			"byteOffset":0,
			"target":34962
		},
		{
			"buffer":0,
			"byteLength":30144,
			"byteOffset":30144,
			"target":34962
		},
		{
			"buffer":0,
			"byteLength":20096,
			"byteOffset":60288,
			"target":34962
		},
		{
			"buffer":0,
			"byteLength":7776,
			"byteOffset":80384,
			"target":34963
		},
		{
			"buffer":0,
			"byteLength":288,
			"byteOffset":88160,
			"target":34962
		},
		{
			"buffer":0,
			"byteLength":288,
			"byteOffset":88448,
			"target":34962
		},
		{
			"buffer":0,
			"byteLength":192,
			"byteOffset":88736,
			"target":34962
		},
		{
			"buffer":0,
			"byteLength":72,
			"byteOffset":88928,
			"target":34963
		}
	],
	"buffers":[
		{
			"byteLength":89000,
			"uri":"model.bin"
		}
	]
}
