{
	"asset":{
		"generator":"Khronos glTF Blender I/O v4.0.44",
		"version":"2.0"
	},
	"scene":0,
	"scenes":[
		{
			"name":"Scene",
			"nodes":[
				0
			]
		}
	],
	"nodes":[
		{
			"mesh":0,
			"name":"vendingUnit"
		}
	],
	"materials":[
		{
			"doubleSided":true,
			"name":"iron",
			"pbrMetallicRoughness":{
				"baseColorFactor":[
					0.10999999940395355,
					0.10999999940395355,
					0.11999999731779099,
					1
				],
				"metallicFactor":0.8500000238418579,
				"roughnessFactor":0.44999998807907104
			}
		},
		{
			"doubleSided":true,
			"name":"darkwood",
			"pbrMetallicRoughness":{
				"baseColorFactor":[
					0.1599999964237213,
					0.10000000149011612,
					0.07000000029802322,
					1
				],
				"metallicFactor":0,
				"roughnessFactor":0.699999988079071
			}
		},
		{
			"doubleSided":true,
			"name":"mirror",
			"pbrMetallicRoughness":{
				"baseColorFactor":[
					0.6000000238418579,
					0.6499999761581421,
					0.699999988079071,
					1
				],
				"roughnessFactor":0.10000000149011612
			}
		},
		{
			"doubleSided":true,
			"name":"brass",
			"pbrMetallicRoughness":{
				"baseColorFactor":[
					0.41999998688697815,
					0.30000001192092896,
					0.11999999731779099,
					1
				],
				"metallicFactor":0.8999999761581421,
				"roughnessFactor":0.3499999940395355
			}
		},
		{
			"doubleSided":true,
			"name":"linen",
			"pbrMetallicRoughness":{
				"baseColorFactor":[
					0.7200000286102295,
					0.6600000262260437,
					0.550000011920929,
					1
				],
				"metallicFactor":0,
				"roughnessFactor":0.8999999761581421
			}
		}
	],
	"meshes":[
		{
			"name":"Cube",
			"primitives":[
				{
					"attributes":{
						"POSITION":0,
						"NORMAL":1,
						"TEXCOORD_0":2
					},
					"indices":3,
					"material":0
				},
				{
					"attributes":{
						"POSITION":4,
						"NORMAL":5,
						"TEXCOORD_0":6
					},
					"indices":7,
					"material":1
				},
				{
					"attributes":{
						"POSITION":8,
						"NORMAL":9,
						"TEXCOORD_0":10
					},
					"indices":11,
					"material":2
				},
				{
					"attributes":{
						"POSITION":12,
						"NORMAL":13,
						"TEXCOORD_0":14
					},
					"indices":15,
					"material":3
				},
				{
					"attributes":{
						"POSITION":16,
						"NORMAL":17,
						"TEXCOORD_0":18
					},
					"indices":19,
					"material":4
				}
			]
		}
	],
	"accessors":[
		{
			"bufferView":0,
			"componentType":5126,
			"count":216,
			"max":[
				0.44999998807907104,
				1.899999976158142,
				0.28999999165534973
			],
			"min":[
				-0.44999998807907104,
				0,
				-0.3499999940395355
			],
			"type":"VEC3"
		},
		{
			"bufferView":1,
			"componentType":5126,
			"count":216,
			"type":"VEC3"
		},
		{
			"bufferView":2,
			"componentType":5126,
			"count":216,
			"type":"VEC2"
		},
		{
			"bufferView":3,
			"componentType":5123,
			"count":324,
			"type":"SCALAR"
		},
		{
			"bufferView":4,
			"componentType":5126,
			"count":1512,
			"max":[
				0.42000001668930054,
				1.7669999599456787,
				0.39000001549720764
			],
			"min":[
				-0.4000000059604645,
				0.019999999552965164,
				0.12999999523162842
			],
			"type":"VEC3"
		},
		{
			"bufferView":5,
			"componentType":5126,
			"count":1512,
			"type":"VEC3"
		},
		{
			"bufferView":6,
			"componentType":5126,
			"count":1512,
			"type":"VEC2"
		},
		{
			"bufferView":7,
			"componentType":5123,
			"count":2268,
			"type":"SCALAR"
		},
		{
			"bufferView":8,
			"componentType":5126,
			"count":216,
			"max":[
				0.17999999225139618,
				1.7100000381469727,
				0.37199997901916504
			],
			"min":[
				-0.3399999737739563,
				0.6459999680519104,
				0.35199999809265137
			],
			"type":"VEC3"
		},
		{
			"bufferView":9,
			"componentType":5126,
			"count":216,
			"type":"VEC3"
		},
		{
			"bufferView":10,
			"componentType":5126,
			"count":216,
			"type":"VEC2"
		},
		{
			"bufferView":11,
			"componentType":5123,
			"count":324,
			"type":"SCALAR"
		},
		{
			"bufferView":12,
			"componentType":5126,
			"count":5016,
			"max":[
				0.36500000953674316,
				1.5021400451660156,
				0.4025000035762787
			],
			"min":[
				-0.2979999780654907,
				0.6698598265647888,
				0.24199999868869781
			],
			"type":"VEC3"
		},
		{
			"bufferView":13,
			"componentType":5126,
			"count":5016,
			"type":"VEC3"
		},
		{
			"bufferView":14,
			"componentType":5126,
			"count":5016,
			"type":"VEC2"
		},
		{
			"bufferView":15,
			"componentType":5123,
			"count":7524,
			"type":"SCALAR"
		},
		{
			"bufferView":16,
			"componentType":5126,
			"count":1944,
			"max":[
				0.7475000023841858,
				1.4449999332427979,
				0.4025000035762787
			],
			"min":[
				0.6225000023841858,
				1.284999966621399,
				0.38750001788139343
			],
			"type":"VEC3"
		},
		{
			"bufferView":17,
			"componentType":5126,
			"count":1944,
			"type":"VEC3"
		},
		{
			"bufferView":18,
			"componentType":5126,
			"count":1944,
			"type":"VEC2"
		},
		{
			"bufferView":19,
			"componentType":5123,
			"count":2916,
			"type":"SCALAR"
		}
	],
	"bufferViews":[
		{
			"buffer":0,
			"byteLength":2592,
			"byteOffset":0,
			"target":34962
		},
		{
			"buffer":0,
			"byteLength":2592,
			"byteOffset":2592,
			"target":34962
		},
		{
			"buffer":0,
			"byteLength":1728,
			"byteOffset":5184,
			"target":34962
		},
		{
			"buffer":0,
			"byteLength":648,
			"byteOffset":6912,
			"target":34963
		},
		{
			"buffer":0,
			"byteLength":18144,
			"byteOffset":7560,
			"target":34962
		},
		{
			"buffer":0,
			"byteLength":18144,
			"byteOffset":25704,
			"target":34962
		},
		{
			"buffer":0,
			"byteLength":12096,
			"byteOffset":43848,
			"target":34962
		},
		{
			"buffer":0,
			"byteLength":4536,
			"byteOffset":55944,
			"target":34963
		},
		{
			"buffer":0,
			"byteLength":2592,
			"byteOffset":60480,
			"target":34962
		},
		{
			"buffer":0,
			"byteLength":2592,
			"byteOffset":63072,
			"target":34962
		},
		{
			"buffer":0,
			"byteLength":1728,
			"byteOffset":65664,
			"target":34962
		},
		{
			"buffer":0,
			"byteLength":648,
			"byteOffset":67392,
			"target":34963
		},
		{
			"buffer":0,
			"byteLength":60192,
			"byteOffset":68040,
			"target":34962
		},
		{
			"buffer":0,
			"byteLength":60192,
			"byteOffset":128232,
			"target":34962
		},
		{
			"buffer":0,
			"byteLength":40128,
			"byteOffset":188424,
			"target":34962
		},
		{
			"buffer":0,
			"byteLength":15048,
			"byteOffset":228552,
			"target":34963
		},
		{
			"buffer":0,
			"byteLength":23328,
			"byteOffset":243600,
			"target":34962
		},
		{
			"buffer":0,
			"byteLength":23328,
			"byteOffset":266928,
			"target":34962
		},
		{
			"buffer":0,
			"byteLength":15552,
			"byteOffset":290256,
			"target":34962
		},
		{
			"buffer":0,
			"byteLength":5832,
			"byteOffset":305808,
			"target":34963
		}
	],
	"buffers":[
		{
			"byteLength":311640,
			"uri":"model.bin"
		}
	]
}
