{
	"asset":{
		"generator":"Khronos glTF Blender I/O v4.0.44",
		"version":"2.0"
	},
	"scene":0,
	"scenes":[
		{
			"name":"Scene",
			"nodes":[
				0
			]
		}
	],
	"nodes":[
		{
			"mesh":0,
			"name":"sideboard"
		}
	],
	"materials":[
		{
			"doubleSided":true,
			"name":"oakwood",
			"pbrMetallicRoughness":{
				"baseColorFactor":[
					0.3199999928474426,
					0.2199999988079071,
					0.12999999523162842,
					1
				],
				"metallicFactor":0,
				"roughnessFactor":0.800000011920929
			}
		},
		{
			"doubleSided":true,
			"name":"darkwood",
			"pbrMetallicRoughness":{
				"baseColorFactor":[
					0.1599999964237213,
					0.10000000149011612,
					0.07000000029802322,
					1
				],
				"metallicFactor":0,
				"roughnessFactor":0.699999988079071
			}
		},
		{
			"doubleSided":true,
			"name":"brass",
			"pbrMetallicRoughness":{
				"baseColorFactor":[
					0.41999998688697815,
					0.30000001192092896,
					0.11999999731779099,
					1
				],
				"metallicFactor":0.8999999761581421,
				"roughnessFactor":0.3499999940395355
			}
		}
	],
	"meshes":[
		{
			"name":"Cube",
			"primitives":[
				{
					"attributes":{
						"POSITION":0,
						"NORMAL":1,
						"TEXCOORD_0":2
					},
					"indices":3,
					"material":0
				},
				{
					"attributes":{
						"POSITION":4,
						"NORMAL":5,
						"TEXCOORD_0":6
					},
					"indices":7,
					"material":1
				},
				{
					"attributes":{
						"POSITION":8,
						"NORMAL":9,
						"TEXCOORD_0":10
					},
					"indices":11,
					"material":2
				}
			]
		}
	],
	"accessors":[
		{
			"bufferView":0,
			"componentType":5126,
			"count":824,
			"max":[
				0.8999999761581421,
				0.9599999785423279,
				0.2800000011920929
			],
			"min":[
				-0.8999999761581421,
				0,
				-0.25999999046325684
			],
			"type":"VEC3"
		},
		{
			"bufferView":1,
			"componentType":5126,
			"count":824,
			"type":"VEC3"
		},
		{
			"bufferView":2,
			"componentType":5126,
			"count":824,
			"type":"VEC2"
		},
		{
			"bufferView":3,
			"componentType":5123,
			"count":1296,
			"type":"SCALAR"
		},
		{
			"bufferView":4,
			"componentType":5126,
			"count":2160,
			"max":[
				0.8999999761581421,
				1.149999976158142,
				0.25999999046325684
			],
			"min":[
				-0.8999999761581421,
				0,
				-0.25
			],
			"type":"VEC3"
		},
		{
			"bufferView":5,
			"componentType":5126,
			"count":2160,
			"type":"VEC3"
		},
		{
			"bufferView":6,
			"componentType":5126,
			"count":2160,
			"type":"VEC2"
		},
		{
			"bufferView":7,
			"componentType":5123,
			"count":3240,
			"type":"SCALAR"
		},
		{
			"bufferView":8,
			"componentType":5126,
			"count":264,
			"max":[
				0.6140000224113464,
				0.793999969959259,
				0.3100000023841858
			],
			"min":[
				-0.6140000224113464,
				0.3400000035762787,
				0.25999999046325684
			],
			"type":"VEC3"
		},
		{
			"bufferView":9,
			"componentType":5126,
			"count":264,
			"type":"VEC3"
		},
		{
			"bufferView":10,
			"componentType":5126,
			"count":264,
			"type":"VEC2"
		},
		{
			"bufferView":11,
			"componentType":5123,
			"count":468,
			"type":"SCALAR"
		}
	],
	"bufferViews":[
		{
			"buffer":0,
			"byteLength":9888,
			"byteOffset":0,
			"target":34962
		},
		{
			"buffer":0,
			"byteLength":9888,
			"byteOffset":9888,
			"target":34962
		},
		{
			"buffer":0,
			"byteLength":6592,
			"byteOffset":19776,
			"target":34962
		},
		{
			"buffer":0,
			"byteLength":2592,
			"byteOffset":26368,
			"target":34963
		},
		{
			"buffer":0,
			"byteLength":25920,
			"byteOffset":28960,
			"target":34962
		},
		{
			"buffer":0,
			"byteLength":25920,
			"byteOffset":54880,
			"target":34962
		},
		{
			"buffer":0,
			"byteLength":17280,
			"byteOffset":80800,
			"target":34962
		},
		{
			"buffer":0,
			"byteLength":6480,
			"byteOffset":98080,
			"target":34963
		},
		{
			"buffer":0,
			"byteLength":3168,
			"byteOffset":104560,
			"target":34962
		},
		{
			"buffer":0,
			"byteLength":3168,
			"byteOffset":107728,
			"target":34962
		},
		{
			"buffer":0,
			"byteLength":2112,
			"byteOffset":110896,
			"target":34962
		},
		{
			"buffer":0,
			"byteLength":936,
			"byteOffset":113008,
			"target":34963
		}
	],
	"buffers":[
		{
			"byteLength":113944,
			"uri":"model.bin"
		}
	]
}
