{
	"asset":{
		"generator":"Khronos glTF Blender I/O v4.2.83",
		"version":"2.0"
	},
	"scene":0,
	"scenes":[
		{
			"name":"Scene",
			"nodes":[
				0
			]
		}
	],
	"nodes":[
		{
			"mesh":0,
			"name":"colonnade"
		}
	],
	"materials":[
		{
			"doubleSided":true,
			"name":"stone",
			"pbrMetallicRoughness":{
				"baseColorFactor":[
					0.41999998688697815,
					0.3799999952316284,
					0.33000001311302185,
					1
				],
				"metallicFactor":0,
				"roughnessFactor":0.8500000238418579
			}
		}
	],
	"meshes":[
		{
			"name":"Cube",
			"primitives":[
				{
					"attributes":{
						"POSITION":0,
						"NORMAL":1,
						"TEXCOORD_0":2
					},
					"indices":3,
					"material":0
				}
			]
		}
	],
	"accessors":[
		{
			"bufferView":0,
			"componentType":5126,
			"count":2868,
			"max":[
				2.9000000953674316,
				2.859999895095825,
				0.18000000715255737
			],
			"min":[
				-2.9000000953674316,
				0,
				-0.18000000715255737
			],
			"type":"VEC3"
		},
		{
			"bufferView":1,
			"componentType":5126,
			"count":2868,
			"type":"VEC3"
		},
		{
			"bufferView":2,
			"componentType":5126,
			"count":2868,
			"type":"VEC2"
		},
		{
			"bufferView":3,
			"componentType":5123,
			"count":4680,
			"type":"SCALAR"
		}
	],
	"bufferViews":[
		{
			"buffer":0,
			"byteLength":34416,
			"byteOffset":0,
			"target":34962
		},
		{
			"buffer":0,
			"byteLength":34416,
			"byteOffset":34416,
			"target":34962
		},
		{
			"buffer":0,
			"byteLength":22944,
			"byteOffset":68832,
			"target":34962
		},
		{
			"buffer":0,
			"byteLength":9360,
			"byteOffset":91776,
			"target":34963
		}
	],
	"buffers":[
		{
			"byteLength":101136,
			"uri":"model.bin"
		}
	]
}
