{
	"asset":{
		"generator":"Khronos glTF Blender I/O v4.2.70",
		"version":"2.0"
	},
	"scene":0,
	"scenes":[
		{
			"name":"Scene",
			"nodes":[
				0
			]
		}
	],
	"nodes":[
		{
			"mesh":0,
			"name":"sumpPump",
			"translation":[
				0,
				0.029999999329447746,
				0
			]
		}
	],
	"materials":[
		{
			"doubleSided":true,
			"name":"iron",
			"pbrMetallicRoughness":{
				"baseColorFactor":[
					0.10999999940395355,
					0.10999999940395355,
					0.11999999731779099,
					1
				],
				"metallicFactor":0.8500000238418579,
				"roughnessFactor":0.44999998807907104
			}
		},
		{
			"doubleSided":true,
			"name":"darkwood",
			"pbrMetallicRoughness":{
				"baseColorFactor":[
					0.1599999964237213,
					0.10000000149011612,
					0.07000000029802322,
					1
				],
				"metallicFactor":0,
				"roughnessFactor":0.699999988079071
			}
		}
	],
	"meshes":[
		{
			"name":"Cylinder",
			"primitives":[
				{
					"attributes":{
						"POSITION":0,
						"NORMAL":1,
						"TEXCOORD_0":2
					},
					"indices":3,
					"material":0
				},
				{
					"attributes":{
						"POSITION":4,
						"NORMAL":5,
						"TEXCOORD_0":6
					},
					"indices":7,
					"material":1
				}
			]
		}
	],
	"accessors":[
		{
			"bufferView":0,
			"componentType":5126,
			"count":2756,
			"max":[
				0.2954423427581787,
				1.0550000667572021,
				0.30000001192092896
			],
			"min":[
				-0.2954423427581787,
				-0.029999999329447746,
				-0.30000001192092896
			],
			"type":"VEC3"
		},
		{
			"bufferView":1,
			"componentType":5126,
			"count":2756,
			"type":"VEC3"
		},
		{
			"bufferView":2,
			"componentType":5126,
			"count":2756,
			"type":"VEC2"
		},
		{
			"bufferView":3,
			"componentType":5123,
			"count":4248,
			"type":"SCALAR"
		},
		{
			"bufferView":4,
			"componentType":5126,
			"count":84,
			"max":[
				0.15598845481872559,
				0.7000000476837158,
				0.1599999964237213
			],
			"min":[
				-0.15598845481872559,
				0.48000001907348633,
				-0.1599999964237213
			],
			"type":"VEC3"
		},
		{
			"bufferView":5,
			"componentType":5126,
			"count":84,
			"type":"VEC3"
		},
		{
			"bufferView":6,
			"componentType":5126,
			"count":84,
			"type":"VEC2"
		},
		{
			"bufferView":7,
			"componentType":5123,
			"count":156,
			"type":"SCALAR"
		}
	],
	"bufferViews":[
		{
			"buffer":0,
			"byteLength":33072,
			"byteOffset":0,
			"target":34962
		},
		{
			"buffer":0,
			"byteLength":33072,
			"byteOffset":33072,
			"target":34962
		},
		{
			"buffer":0,
			"byteLength":22048,
			"byteOffset":66144,
			"target":34962
		},
		{
			"buffer":0,
			"byteLength":8496,
			"byteOffset":88192,
			"target":34963
		},
		{
			"buffer":0,
			"byteLength":1008,
			"byteOffset":96688,
			"target":34962
		},
		{
			"buffer":0,
			"byteLength":1008,
			"byteOffset":97696,
			"target":34962
		},
		{
			"buffer":0,
			"byteLength":672,
			"byteOffset":98704,
			"target":34962
		},
		{
			"buffer":0,
			"byteLength":312,
			"byteOffset":99376,
			"target":34963
		}
	],
	"buffers":[
		{
			"byteLength":99688,
			"uri":"model.bin"
		}
	]
}
