{
	"asset":{
		"generator":"Khronos glTF Blender I/O v4.0.44",
		"version":"2.0"
	},
	"scene":0,
	"scenes":[
		{
			"name":"Scene",
			"nodes":[
				0
			]
		}
	],
	"nodes":[
		{
			"mesh":0,
			"name":"runnerRug"
		}
	],
	"materials":[
		{
			"doubleSided":true,
			"name":"velvet",
			"pbrMetallicRoughness":{
				"baseColorFactor":[
					0.30000001192092896,
					0.07000000029802322,
					0.07999999821186066,
					1
				],
				"metallicFactor":0,
				"roughnessFactor":0.949999988079071
			}
		},
		{
			"doubleSided":true,
			"name":"darkwood",
			"pbrMetallicRoughness":{
				"baseColorFactor":[
					0.1599999964237213,
					0.10000000149011612,
					0.07000000029802322,
					1
				],
				"metallicFactor":0,
				"roughnessFactor":0.699999988079071
			}
		},
		{
			"doubleSided":true,
			"name":"wornleather",
			"pbrMetallicRoughness":{
				"baseColorFactor":[
					0.2800000011920929,
					0.18000000715255737,
					0.10999999940395355,
					1
				],
				"metallicFactor":0,
				"roughnessFactor":0.8500000238418579
			}
		},
		{
			"doubleSided":true,
			"name":"linen",
			"pbrMetallicRoughness":{
				"baseColorFactor":[
					0.7200000286102295,
					0.6600000262260437,
					0.550000011920929,
					1
				],
				"metallicFactor":0,
				"roughnessFactor":0.8999999761581421
			}
		}
	],
	"meshes":[
		{
			"name":"Cube",
			"primitives":[
				{
					"attributes":{
						"POSITION":0,
						"NORMAL":1,
						"TEXCOORD_0":2
					},
					"indices":3,
					"material":0
				},
				{
					"attributes":{
						"POSITION":4,
						"NORMAL":5,
						"TEXCOORD_0":6
					},
					"indices":7,
					"material":1
				},
				{
					"attributes":{
						"POSITION":8,
						"NORMAL":9,
						"TEXCOORD_0":10
					},
					"indices":11,
					"material":2
				},
				{
					"attributes":{
						"POSITION":12,
						"NORMAL":13,
						"TEXCOORD_0":14
					},
					"indices":15,
					"material":3
				}
			]
		}
	],
	"accessors":[
		{
			"bufferView":0,
			"componentType":5126,
			"count":216,
			"max":[
				1.3200000524520874,
				0.01600000075995922,
				0.41999998688697815
			],
			"min":[
				-1.3200000524520874,
				0,
				-0.41999998688697815
			],
			"type":"VEC3"
		},
		{
			"bufferView":1,
			"componentType":5126,
			"count":216,
			"type":"VEC3"
		},
		{
			"bufferView":2,
			"componentType":5126,
			"count":216,
			"type":"VEC2"
		},
		{
			"bufferView":3,
			"componentType":5123,
			"count":324,
			"type":"SCALAR"
		},
		{
			"bufferView":4,
			"componentType":5126,
			"count":864,
			"max":[
				1.399999976158142,
				0.017999999225139618,
				0.5
			],
			"min":[
				-1.399999976158142,
				0,
				-0.5
			],
			"type":"VEC3"
		},
		{
			"bufferView":5,
			"componentType":5126,
			"count":864,
			"type":"VEC3"
		},
		{
			"bufferView":6,
			"componentType":5126,
			"count":864,
			"type":"VEC2"
		},
		{
			"bufferView":7,
			"componentType":5123,
			"count":1296,
			"type":"SCALAR"
		},
		{
			"bufferView":8,
			"componentType":5126,
			"count":1020,
			"max":[
				1.0159558057785034,
				0.017999999225139618,
				1.0159556865692139
			],
			"min":[
				-1.0159558057785034,
				0.005499999970197678,
				-1.0159558057785034
			],
			"type":"VEC3"
		},
		{
			"bufferView":9,
			"componentType":5126,
			"count":1020,
			"type":"VEC3"
		},
		{
			"bufferView":10,
			"componentType":5126,
			"count":1020,
			"type":"VEC2"
		},
		{
			"bufferView":11,
			"componentType":5123,
			"count":1620,
			"type":"SCALAR"
		},
		{
			"bufferView":12,
			"componentType":5126,
			"count":6048,
			"max":[
				1.4900000095367432,
				0.009999999776482582,
				0.48249998688697815
			],
			"min":[
				-1.4900000095367432,
				0.001999999862164259,
				-0.48249998688697815
			],
			"type":"VEC3"
		},
		{
			"bufferView":13,
			"componentType":5126,
			"count":6048,
			"type":"VEC3"
		},
		{
			"bufferView":14,
			"componentType":5126,
			"count":6048,
			"type":"VEC2"
		},
		{
			"bufferView":15,
			"componentType":5123,
			"count":9072,
			"type":"SCALAR"
		}
	],
	"bufferViews":[
		{
			"buffer":0,
			"byteLength":2592,
			"byteOffset":0,
			"target":34962
		},
		{
			"buffer":0,
			"byteLength":2592,
			"byteOffset":2592,
			"target":34962
		},
		{
			"buffer":0,
			"byteLength":1728,
			"byteOffset":5184,
			"target":34962
		},
		{
			"buffer":0,
			"byteLength":648,
			"byteOffset":6912,
			"target":34963
		},
		{
			"buffer":0,
			"byteLength":10368,
			"byteOffset":7560,
			"target":34962
		},
		{
			"buffer":0,
			"byteLength":10368,
			"byteOffset":17928,
			"target":34962
		},
		{
			"buffer":0,
			"byteLength":6912,
			"byteOffset":28296,
			"target":34962
		},
		{
			"buffer":0,
			"byteLength":2592,
			"byteOffset":35208,
			"target":34963
		},
		{
			"buffer":0,
			"byteLength":12240,
			"byteOffset":37800,
			"target":34962
		},
		{
			"buffer":0,
			"byteLength":12240,
			"byteOffset":50040,
			"target":34962
		},
		{
			"buffer":0,
			"byteLength":8160,
			"byteOffset":62280,
			"target":34962
		},
		{
			"buffer":0,
			"byteLength":3240,
			"byteOffset":70440,
			"target":34963
		},
		{
			"buffer":0,
			"byteLength":72576,
			"byteOffset":73680,
			"target":34962
		},
		{
			"buffer":0,
			"byteLength":72576,
			"byteOffset":146256,
			"target":34962
		},
		{
			"buffer":0,
			"byteLength":48384,
			"byteOffset":218832,
			"target":34962
		},
		{
			"buffer":0,
			"byteLength":18144,
			"byteOffset":267216,
			"target":34963
		}
	],
	"buffers":[
		{
			"byteLength":285360,
			"uri":"model.bin"
		}
	]
}
