{
	"asset":{
		"generator":"Khronos glTF Blender I/O v4.0.44",
		"version":"2.0"
	},
	"scene":0,
	"scenes":[
		{
			"name":"Scene",
			"nodes":[
				0
			]
		}
	],
	"nodes":[
		{
			"mesh":0,
			"name":"ovalMirror"
		}
	],
	"materials":[
		{
			"doubleSided":true,
			"name":"iron",
			"pbrMetallicRoughness":{
				"baseColorFactor":[
					0.10999999940395355,
					0.10999999940395355,
					0.11999999731779099,
					1
				],
				"metallicFactor":0.8500000238418579,
				"roughnessFactor":0.44999998807907104
			}
		},
		{
			"doubleSided":true,
			"name":"brass",
			"pbrMetallicRoughness":{
				"baseColorFactor":[
					0.41999998688697815,
					0.30000001192092896,
					0.11999999731779099,
					1
				],
				"metallicFactor":0.8999999761581421,
				"roughnessFactor":0.3499999940395355
			}
		}
	],
	"meshes":[
		{
			"name":"Sphere",
			"primitives":[
				{
					"attributes":{
						"POSITION":0,
						"NORMAL":1,
						"TEXCOORD_0":2
					},
					"indices":3,
					"material":0
				},
				{
					"attributes":{
						"POSITION":4,
						"NORMAL":5,
						"TEXCOORD_0":6
					},
					"indices":7,
					"material":1
				}
			]
		}
	],
	"accessors":[
		{
			"bufferView":0,
			"componentType":5126,
			"count":1488,
			"max":[
				0.22500000894069672,
				0.3240000307559967,
				0.01900000125169754
			],
			"min":[
				-0.22500000894069672,
				-0.3240000307559967,
				-0.028999999165534973
			],
			"type":"VEC3"
		},
		{
			"bufferView":1,
			"componentType":5126,
			"count":1488,
			"type":"VEC3"
		},
		{
			"bufferView":2,
			"componentType":5126,
			"count":1488,
			"type":"VEC2"
		},
		{
			"bufferView":3,
			"componentType":5123,
			"count":2160,
			"type":"SCALAR"
		},
		{
			"bufferView":4,
			"componentType":5126,
			"count":1520,
			"max":[
				0.25578001141548157,
				0.41611236333847046,
				0.040360018610954285
			],
			"min":[
				-0.25578001141548157,
				-0.26100000739097595,
				-0.030360020697116852
			],
			"type":"VEC3"
		},
		{
			"bufferView":5,
			"componentType":5126,
			"count":1520,
			"type":"VEC3"
		},
		{
			"bufferView":6,
			"componentType":5126,
			"count":1520,
			"type":"VEC2"
		},
		{
			"bufferView":7,
			"componentType":5123,
			"count":2280,
			"type":"SCALAR"
		}
	],
	"bufferViews":[
		{
			"buffer":0,
			"byteLength":17856,
			"byteOffset":0,
			"target":34962
		},
		{
			"buffer":0,
			"byteLength":17856,
			"byteOffset":17856,
			"target":34962
		},
		{
			"buffer":0,
			"byteLength":11904,
			"byteOffset":35712,
			"target":34962
		},
		{
			"buffer":0,
			"byteLength":4320,
			"byteOffset":47616,
			"target":34963
		},
		{
			"buffer":0,
			"byteLength":18240,
			"byteOffset":51936,
			"target":34962
		},
		{
			"buffer":0,
			"byteLength":18240,
			"byteOffset":70176,
			"target":34962
		},
		{
			"buffer":0,
			"byteLength":12160,
			"byteOffset":88416,
			"target":34962
		},
		{
			"buffer":0,
			"byteLength":4560,
			"byteOffset":100576,
			"target":34963
		}
	],
	"buffers":[
		{
			"byteLength":105136,
			"uri":"model.bin"
		}
	]
}
