{
	"asset":{
		"generator":"Khronos glTF Blender I/O v4.0.44",
		"version":"2.0"
	},
	"scene":0,
	"scenes":[
		{
			"name":"Scene",
			"nodes":[
				0
			]
		}
	],
	"nodes":[
		{
			"mesh":0,
			"name":"linenShelf"
		}
	],
	"materials":[
		{
			"doubleSided":true,
			"name":"oakwood",
			"pbrMetallicRoughness":{
				"baseColorFactor":[
					0.3199999928474426,
					0.2199999988079071,
					0.12999999523162842,
					1
				],
				"metallicFactor":0,
				"roughnessFactor":0.800000011920929
			}
		},
		{
			"doubleSided":true,
			"name":"bookcloth",
			"pbrMetallicRoughness":{
				"baseColorFactor":[
					0.20000000298023224,
					0.23999999463558197,
					0.20000000298023224,
					1
				],
				"metallicFactor":0,
				"roughnessFactor":0.8999999761581421
			}
		},
		{
			"doubleSided":true,
			"name":"darkwood",
			"pbrMetallicRoughness":{
				"baseColorFactor":[
					0.1599999964237213,
					0.10000000149011612,
					0.07000000029802322,
					1
				],
				"metallicFactor":0,
				"roughnessFactor":0.699999988079071
			}
		}
	],
	"meshes":[
		{
			"name":"Cube",
			"primitives":[
				{
					"attributes":{
						"POSITION":0,
						"NORMAL":1,
						"TEXCOORD_0":2
					},
					"indices":3,
					"material":0
				},
				{
					"attributes":{
						"POSITION":4,
						"NORMAL":5,
						"TEXCOORD_0":6
					},
					"indices":7,
					"material":1
				},
				{
					"attributes":{
						"POSITION":8,
						"NORMAL":9,
						"TEXCOORD_0":10
					},
					"indices":11,
					"material":2
				}
			]
		}
	],
	"accessors":[
		{
			"bufferView":0,
			"componentType":5126,
			"count":1728,
			"max":[
				0.625,
				2.049999952316284,
				0.25
			],
			"min":[
				-0.625,
				0,
				-0.25
			],
			"type":"VEC3"
		},
		{
			"bufferView":1,
			"componentType":5126,
			"count":1728,
			"type":"VEC3"
		},
		{
			"bufferView":2,
			"componentType":5126,
			"count":1728,
			"type":"VEC2"
		},
		{
			"bufferView":3,
			"componentType":5123,
			"count":2592,
			"type":"SCALAR"
		},
		{
			"bufferView":4,
			"componentType":5126,
			"count":7740,
			"max":[
				0.5,
				2.125,
				0.2199999988079071
			],
			"min":[
				-0.5,
				0.12999999523162842,
				-0.17000000178813934
			],
			"type":"VEC3"
		},
		{
			"bufferView":5,
			"componentType":5126,
			"count":7740,
			"type":"VEC3"
		},
		{
			"bufferView":6,
			"componentType":5126,
			"count":7740,
			"type":"VEC2"
		},
		{
			"bufferView":7,
			"componentType":5123,
			"count":11664,
			"type":"SCALAR"
		},
		{
			"bufferView":8,
			"componentType":5126,
			"count":216,
			"max":[
				0.5849999785423279,
				2.049999952316284,
				-0.20499999821186066
			],
			"min":[
				-0.5849999785423279,
				0,
				-0.23499999940395355
			],
			"type":"VEC3"
		},
		{
			"bufferView":9,
			"componentType":5126,
			"count":216,
			"type":"VEC3"
		},
		{
			"bufferView":10,
			"componentType":5126,
			"count":216,
			"type":"VEC2"
		},
		{
			"bufferView":11,
			"componentType":5123,
			"count":324,
			"type":"SCALAR"
		}
	],
	"bufferViews":[
		{
			"buffer":0,
			"byteLength":20736,
			"byteOffset":0,
			"target":34962
		},
		{
			"buffer":0,
			"byteLength":20736,
			"byteOffset":20736,
			"target":34962
		},
		{
			"buffer":0,
			"byteLength":13824,
			"byteOffset":41472,
			"target":34962
		},
		{
			"buffer":0,
			"byteLength":5184,
			"byteOffset":55296,
			"target":34963
		},
		{
			"buffer":0,
			"byteLength":92880,
			"byteOffset":60480,
			"target":34962
		},
		{
			"buffer":0,
			"byteLength":92880,
			"byteOffset":153360,
			"target":34962
		},
		{
			"buffer":0,
			"byteLength":61920,
			"byteOffset":246240,
			"target":34962
		},
		{
			"buffer":0,
			"byteLength":23328,
			"byteOffset":308160,
			"target":34963
		},
		{
			"buffer":0,
			"byteLength":2592,
			"byteOffset":331488,
			"target":34962
		},
		{
			"buffer":0,
			"byteLength":2592,
			"byteOffset":334080,
			"target":34962
		},
		{
			"buffer":0,
			"byteLength":1728,
			"byteOffset":336672,
			"target":34962
		},
		{
			"buffer":0,
			"byteLength":648,
			"byteOffset":338400,
			"target":34963
		}
	],
	"buffers":[
		{
			"byteLength":339048,
			"uri":"model.bin"
		}
	]
}
