{
	"asset":{
		"generator":"Khronos glTF Blender I/O v4.0.44",
		"version":"2.0"
	},
	"scene":0,
	"scenes":[
		{
			"name":"Scene",
			"nodes":[
				0
			]
		}
	],
	"nodes":[
		{
			"mesh":0,
			"name":"recordsCage",
			"translation":[
				-1.100000023841858,
				1.2000000476837158,
				0.8999999761581421
			]
		}
	],
	"materials":[
		{
			"doubleSided":true,
			"name":"iron",
			"pbrMetallicRoughness":{
				"baseColorFactor":[
					0.10999999940395355,
					0.10999999940395355,
					0.11999999731779099,
					1
				],
				"metallicFactor":0.8500000238418579,
				"roughnessFactor":0.44999998807907104
			}
		},
		{
			"doubleSided":true,
			"name":"brass",
			"pbrMetallicRoughness":{
				"baseColorFactor":[
					0.41999998688697815,
					0.30000001192092896,
					0.11999999731779099,
					1
				],
				"metallicFactor":0.8999999761581421,
				"roughnessFactor":0.3499999940395355
			}
		},
		{
			"doubleSided":true,
			"name":"wornleather",
			"pbrMetallicRoughness":{
				"baseColorFactor":[
					0.2800000011920929,
					0.18000000715255737,
					0.10999999940395355,
					1
				],
				"metallicFactor":0,
				"roughnessFactor":0.8500000238418579
			}
		}
	],
	"meshes":[
		{
			"name":"Cylinder",
			"primitives":[
				{
					"attributes":{
						"POSITION":0,
						"NORMAL":1,
						"TEXCOORD_0":2
					},
					"indices":3,
					"material":0
				},
				{
					"attributes":{
						"POSITION":4,
						"NORMAL":5,
						"TEXCOORD_0":6
					},
					"indices":7,
					"material":1
				},
				{
					"attributes":{
						"POSITION":8,
						"NORMAL":9,
						"TEXCOORD_0":10
					},
					"indices":7,
					"material":2
				}
			]
		}
	],
	"accessors":[
		{
			"bufferView":0,
			"componentType":5126,
			"count":3984,
			"max":[
				2.2332870960235596,
				1.2000000476837158,
				0.03500000014901161
			],
			"min":[
				-0.09707653522491455,
				-1.2000000476837158,
				-1.834999918937683
			],
			"type":"VEC3"
		},
		{
			"bufferView":1,
			"componentType":5126,
			"count":3984,
			"type":"VEC3"
		},
		{
			"bufferView":2,
			"componentType":5126,
			"count":3984,
			"type":"VEC2"
		},
		{
			"bufferView":3,
			"componentType":5123,
			"count":6204,
			"type":"SCALAR"
		},
		{
			"bufferView":4,
			"componentType":5126,
			"count":216,
			"max":[
				0.9050000309944153,
				-0.14500010013580322,
				0.07499998807907104
			],
			"min":[
				0.815000057220459,
				-0.2550000548362732,
				0.025000035762786865
			],
			"type":"VEC3"
		},
		{
			"bufferView":5,
			"componentType":5126,
			"count":216,
			"type":"VEC3"
		},
		{
			"bufferView":6,
			"componentType":5126,
			"count":216,
			"type":"VEC2"
		},
		{
			"bufferView":7,
			"componentType":5123,
			"count":324,
			"type":"SCALAR"
		},
		{
			"bufferView":8,
			"componentType":5126,
			"count":216,
			"max":[
				2.125,
				-0.28000009059906006,
				-0.07499998807907104
			],
			"min":[
				0.07500004768371582,
				-0.3200000524520874,
				-1.7249999046325684
			],
			"type":"VEC3"
		},
		{
			"bufferView":9,
			"componentType":5126,
			"count":216,
			"type":"VEC3"
		},
		{
			"bufferView":10,
			"componentType":5126,
			"count":216,
			"type":"VEC2"
		}
	],
	"bufferViews":[
		{
			"buffer":0,
			"byteLength":47808,
			"byteOffset":0,
			"target":34962
		},
		{
			"buffer":0,
			"byteLength":47808,
			"byteOffset":47808,
			"target":34962
		},
		{
			"buffer":0,
			"byteLength":31872,
			"byteOffset":95616,
			"target":34962
		},
		{
			"buffer":0,
			"byteLength":12408,
			"byteOffset":127488,
			"target":34963
		},
		{
			"buffer":0,
			"byteLength":2592,
			"byteOffset":139896,
			"target":34962
		},
		{
			"buffer":0,
			"byteLength":2592,
			"byteOffset":142488,
			"target":34962
		},
		{
			"buffer":0,
			"byteLength":1728,
			"byteOffset":145080,
			"target":34962
		},
		{
			"buffer":0,
			"byteLength":648,
			"byteOffset":146808,
			"target":34963
		},
		{
			"buffer":0,
			"byteLength":2592,
			"byteOffset":147456,
			"target":34962
		},
		{
			"buffer":0,
			"byteLength":2592,
			"byteOffset":150048,
			"target":34962
		},
		{
			"buffer":0,
			"byteLength":1728,
			"byteOffset":152640,
			"target":34962
		}
	],
	"buffers":[
		{
			"byteLength":154368,
			"uri":"model.bin"
		}
	]
}
