{
	"asset":{
		"generator":"Khronos glTF Blender I/O v4.0.44",
		"version":"2.0"
	},
	"scene":0,
	"scenes":[
		{
			"name":"Scene",
			"nodes":[
				0
			]
		}
	],
	"nodes":[
		{
			"mesh":0,
			"name":"cageLocker"
		}
	],
	"materials":[
		{
			"doubleSided":true,
			"name":"iron",
			"pbrMetallicRoughness":{
				"baseColorFactor":[
					0.10999999940395355,
					0.10999999940395355,
					0.11999999731779099,
					1
				],
				"metallicFactor":0.8500000238418579,
				"roughnessFactor":0.44999998807907104
			}
		},
		{
			"doubleSided":true,
			"name":"brass",
			"pbrMetallicRoughness":{
				"baseColorFactor":[
					0.41999998688697815,
					0.30000001192092896,
					0.11999999731779099,
					1
				],
				"metallicFactor":0.8999999761581421,
				"roughnessFactor":0.3499999940395355
			}
		}
	],
	"meshes":[
		{
			"name":"Cube",
			"primitives":[
				{
					"attributes":{
						"POSITION":0,
						"NORMAL":1,
						"TEXCOORD_0":2
					},
					"indices":3,
					"material":0
				},
				{
					"attributes":{
						"POSITION":4,
						"NORMAL":5,
						"TEXCOORD_0":6
					},
					"indices":7,
					"material":1
				}
			]
		}
	],
	"accessors":[
		{
			"bufferView":0,
			"componentType":5126,
			"count":6768,
			"max":[
				0.44999998807907104,
				1.899999976158142,
				0.29249998927116394
			],
			"min":[
				-0.44999998807907104,
				0,
				-0.2750000059604645
			],
			"type":"VEC3"
		},
		{
			"bufferView":1,
			"componentType":5126,
			"count":6768,
			"type":"VEC3"
		},
		{
			"bufferView":2,
			"componentType":5126,
			"count":6768,
			"type":"VEC2"
		},
		{
			"bufferView":3,
			"componentType":5123,
			"count":10344,
			"type":"SCALAR"
		},
		{
			"bufferView":4,
			"componentType":5126,
			"count":600,
			"max":[
				0.3460000157356262,
				0.9670000076293945,
				0.3174999952316284
			],
			"min":[
				0.27399998903274536,
				0.8060000538825989,
				0.29250001907348633
			],
			"type":"VEC3"
		},
		{
			"bufferView":5,
			"componentType":5126,
			"count":600,
			"type":"VEC3"
		},
		{
			"bufferView":6,
			"componentType":5126,
			"count":600,
			"type":"VEC2"
		},
		{
			"bufferView":7,
			"componentType":5123,
			"count":900,
			"type":"SCALAR"
		}
	],
	"bufferViews":[
		{
			"buffer":0,
			"byteLength":81216,
			"byteOffset":0,
			"target":34962
		},
		{
			"buffer":0,
			"byteLength":81216,
			"byteOffset":81216,
			"target":34962
		},
		{
			"buffer":0,
			"byteLength":54144,
			"byteOffset":162432,
			"target":34962
		},
		{
			"buffer":0,
			"byteLength":20688,
			"byteOffset":216576,
			"target":34963
		},
		{
			"buffer":0,
			"byteLength":7200,
			"byteOffset":237264,
			"target":34962
		},
		{
			"buffer":0,
			"byteLength":7200,
			"byteOffset":244464,
			"target":34962
		},
		{
			"buffer":0,
			"byteLength":4800,
			"byteOffset":251664,
			"target":34962
		},
		{
			"buffer":0,
			"byteLength":1800,
			"byteOffset":256464,
			"target":34963
		}
	],
	"buffers":[
		{
			"byteLength":258264,
			"uri":"model.bin"
		}
	]
}
