{
	"asset":{
		"generator":"Khronos glTF Blender I/O v4.2.70",
		"version":"2.0"
	},
	"scene":0,
	"scenes":[
		{
			"name":"Scene",
			"nodes":[
				0
			]
		}
	],
	"nodes":[
		{
			"mesh":0,
			"name":"valveWheel",
			"rotation":[
				0.7071068286895752,
				0,
				0,
				0.7071068286895752
			],
			"translation":[
				0,
				0,
				-0.019999999552965164
			]
		}
	],
	"materials":[
		{
			"doubleSided":true,
			"name":"iron",
			"pbrMetallicRoughness":{
				"baseColorFactor":[
					0.10999999940395355,
					0.10999999940395355,
					0.11999999731779099,
					1
				],
				"metallicFactor":0.8500000238418579,
				"roughnessFactor":0.44999998807907104
			}
		},
		{
			"doubleSided":true,
			"name":"brass",
			"pbrMetallicRoughness":{
				"baseColorFactor":[
					0.41999998688697815,
					0.30000001192092896,
					0.11999999731779099,
					1
				],
				"metallicFactor":0.8999999761581421,
				"roughnessFactor":0.3499999940395355
			}
		}
	],
	"meshes":[
		{
			"name":"Cylinder",
			"primitives":[
				{
					"attributes":{
						"POSITION":0,
						"NORMAL":1,
						"TEXCOORD_0":2
					},
					"indices":3,
					"material":0
				},
				{
					"attributes":{
						"POSITION":4,
						"NORMAL":5,
						"TEXCOORD_0":6
					},
					"indices":7,
					"material":1
				}
			]
		}
	],
	"accessors":[
		{
			"bufferView":0,
			"componentType":5126,
			"count":1092,
			"max":[
				0.1860000044107437,
				0.23600001633167267,
				0.18599998950958252
			],
			"min":[
				-0.1860000044107437,
				-0.014999999664723873,
				-0.1860000193119049
			],
			"type":"VEC3"
		},
		{
			"bufferView":1,
			"componentType":5126,
			"count":1092,
			"type":"VEC3"
		},
		{
			"bufferView":2,
			"componentType":5126,
			"count":1092,
			"type":"VEC2"
		},
		{
			"bufferView":3,
			"componentType":5123,
			"count":1716,
			"type":"SCALAR"
		},
		{
			"bufferView":4,
			"componentType":5126,
			"count":120,
			"max":[
				0.03328697755932808,
				0.26499998569488525,
				0.03499998897314072
			],
			"min":[
				-0.03328697755932808,
				0.19499999284744263,
				-0.03500001132488251
			],
			"type":"VEC3"
		},
		{
			"bufferView":5,
			"componentType":5126,
			"count":120,
			"type":"VEC3"
		},
		{
			"bufferView":6,
			"componentType":5126,
			"count":120,
			"type":"VEC2"
		},
		{
			"bufferView":7,
			"componentType":5123,
			"count":216,
			"type":"SCALAR"
		}
	],
	"bufferViews":[
		{
			"buffer":0,
			"byteLength":13104,
			"byteOffset":0,
			"target":34962
		},
		{
			"buffer":0,
			"byteLength":13104,
			"byteOffset":13104,
			"target":34962
		},
		{
			"buffer":0,
			"byteLength":8736,
			"byteOffset":26208,
			"target":34962
		},
		{
			"buffer":0,
			"byteLength":3432,
			"byteOffset":34944,
			"target":34963
		},
		{
			"buffer":0,
			"byteLength":1440,
			"byteOffset":38376,
			"target":34962
		},
		{
			"buffer":0,
			"byteLength":1440,
			"byteOffset":39816,
			"target":34962
		},
		{
			"buffer":0,
			"byteLength":960,
			"byteOffset":41256,
			"target":34962
		},
		{
			"buffer":0,
			"byteLength":432,
			"byteOffset":42216,
			"target":34963
		}
	],
	"buffers":[
		{
			"byteLength":42648,
			"uri":"model.bin"
		}
	]
}
