{
	"asset":{
		"generator":"Khronos glTF Blender I/O v4.2.83",
		"version":"2.0"
	},
	"scene":0,
	"scenes":[
		{
			"name":"Scene",
			"nodes":[
				0
			]
		}
	],
	"nodes":[
		{
			"mesh":0,
			"name":"doorLeaf"
		}
	],
	"materials":[
		{
			"doubleSided":true,
			"name":"oakwood",
			"pbrMetallicRoughness":{
				"baseColorFactor":[
					0.3199999928474426,
					0.2199999988079071,
					0.12999999523162842,
					1
				],
				"metallicFactor":0,
				"roughnessFactor":0.800000011920929
			}
		},
		{
			"doubleSided":true,
			"name":"darkwood",
			"pbrMetallicRoughness":{
				"baseColorFactor":[
					0.1599999964237213,
					0.10000000149011612,
					0.07000000029802322,
					1
				],
				"metallicFactor":0,
				"roughnessFactor":0.699999988079071
			}
		},
		{
			"doubleSided":true,
			"name":"iron",
			"pbrMetallicRoughness":{
				"baseColorFactor":[
					0.10999999940395355,
					0.10999999940395355,
					0.11999999731779099,
					1
				],
				"metallicFactor":0.8500000238418579,
				"roughnessFactor":0.44999998807907104
			}
		}
	],
	"meshes":[
		{
			"name":"Cube",
			"primitives":[
				{
					"attributes":{
						"POSITION":0,
						"NORMAL":1,
						"TEXCOORD_0":2
					},
					"indices":3,
					"material":0
				},
				{
					"attributes":{
						"POSITION":4,
						"NORMAL":5,
						"TEXCOORD_0":6
					},
					"indices":7,
					"material":1
				},
				{
					"attributes":{
						"POSITION":8,
						"NORMAL":9,
						"TEXCOORD_0":10
					},
					"indices":11,
					"material":2
				}
			]
		}
	],
	"accessors":[
		{
			"bufferView":0,
			"componentType":5126,
			"count":3648,
			"max":[
				0.5,
				2.200000047683716,
				0.04500000178813934
			],
			"min":[
				-0.5,
				0,
				-0.04500000178813934
			],
			"type":"VEC3"
		},
		{
			"bufferView":1,
			"componentType":5126,
			"count":3648,
			"type":"VEC3"
		},
		{
			"bufferView":2,
			"componentType":5126,
			"count":3648,
			"type":"VEC2"
		},
		{
			"bufferView":3,
			"componentType":5123,
			"count":5832,
			"type":"SCALAR"
		},
		{
			"bufferView":4,
			"componentType":5126,
			"count":3024,
			"max":[
				0.42000001668930054,
				2.0250000953674316,
				0.03500000014901161
			],
			"min":[
				-0.42000001668930054,
				0.16499999165534973,
				-0.03500000014901161
			],
			"type":"VEC3"
		},
		{
			"bufferView":5,
			"componentType":5126,
			"count":3024,
			"type":"VEC3"
		},
		{
			"bufferView":6,
			"componentType":5126,
			"count":3024,
			"type":"VEC2"
		},
		{
			"bufferView":7,
			"componentType":5123,
			"count":4536,
			"type":"SCALAR"
		},
		{
			"bufferView":8,
			"componentType":5126,
			"count":1896,
			"max":[
				0.4341224730014801,
				1.9250000715255737,
				0.08750000596046448
			],
			"min":[
				-0.4699999988079071,
				0.2749999761581421,
				-0.08750000596046448
			],
			"type":"VEC3"
		},
		{
			"bufferView":9,
			"componentType":5126,
			"count":1896,
			"type":"VEC3"
		},
		{
			"bufferView":10,
			"componentType":5126,
			"count":1896,
			"type":"VEC2"
		},
		{
			"bufferView":11,
			"componentType":5123,
			"count":2904,
			"type":"SCALAR"
		}
	],
	"bufferViews":[
		{
			"buffer":0,
			"byteLength":43776,
			"byteOffset":0,
			"target":34962
		},
		{
			"buffer":0,
			"byteLength":43776,
			"byteOffset":43776,
			"target":34962
		},
		{
			"buffer":0,
			"byteLength":29184,
			"byteOffset":87552,
			"target":34962
		},
		{
			"buffer":0,
			"byteLength":11664,
			"byteOffset":116736,
			"target":34963
		},
		{
			"buffer":0,
			"byteLength":36288,
			"byteOffset":128400,
			"target":34962
		},
		{
			"buffer":0,
			"byteLength":36288,
			"byteOffset":164688,
			"target":34962
		},
		{
			"buffer":0,
			"byteLength":24192,
			"byteOffset":200976,
			"target":34962
		},
		{
			"buffer":0,
			"byteLength":9072,
			"byteOffset":225168,
			"target":34963
		},
		{
			"buffer":0,
			"byteLength":22752,
			"byteOffset":234240,
			"target":34962
		},
		{
			"buffer":0,
			"byteLength":22752,
			"byteOffset":256992,
			"target":34962
		},
		{
			"buffer":0,
			"byteLength":15168,
			"byteOffset":279744,
			"target":34962
		},
		{
			"buffer":0,
			"byteLength":5808,
			"byteOffset":294912,
			"target":34963
		}
	],
	"buffers":[
		{
			"byteLength":300720,
			"uri":"model.bin"
		}
	]
}
