{
	"asset":{
		"generator":"Khronos glTF Blender I/O v4.2.70",
		"version":"2.0"
	},
	"scene":0,
	"scenes":[
		{
			"name":"Scene",
			"nodes":[
				0
			]
		}
	],
	"nodes":[
		{
			"mesh":0,
			"name":"counterBell",
			"translation":[
				0,
				0.014999999664723873,
				0
			]
		}
	],
	"materials":[
		{
			"doubleSided":true,
			"name":"iron",
			"pbrMetallicRoughness":{
				"baseColorFactor":[
					0.10999999940395355,
					0.10999999940395355,
					0.11999999731779099,
					1
				],
				"metallicFactor":0.8500000238418579,
				"roughnessFactor":0.44999998807907104
			}
		},
		{
			"doubleSided":true,
			"name":"wornleather",
			"pbrMetallicRoughness":{
				"baseColorFactor":[
					0.2800000011920929,
					0.18000000715255737,
					0.10999999940395355,
					1
				],
				"metallicFactor":0,
				"roughnessFactor":0.8500000238418579
			}
		}
	],
	"meshes":[
		{
			"name":"Cylinder",
			"primitives":[
				{
					"attributes":{
						"POSITION":0,
						"NORMAL":1,
						"TEXCOORD_0":2
					},
					"indices":3,
					"material":0
				},
				{
					"attributes":{
						"POSITION":4,
						"NORMAL":5,
						"TEXCOORD_0":6
					},
					"indices":7,
					"material":1
				}
			]
		}
	],
	"accessors":[
		{
			"bufferView":0,
			"componentType":5126,
			"count":1216,
			"max":[
				0.04500000178813934,
				0.09399999678134918,
				0.04500000178813934
			],
			"min":[
				-0.04500000178813934,
				-0.014999999664723873,
				-0.04500000178813934
			],
			"type":"VEC3"
		},
		{
			"bufferView":1,
			"componentType":5126,
			"count":1216,
			"type":"VEC3"
		},
		{
			"bufferView":2,
			"componentType":5126,
			"count":1216,
			"type":"VEC2"
		},
		{
			"bufferView":3,
			"componentType":5123,
			"count":1764,
			"type":"SCALAR"
		},
		{
			"bufferView":4,
			"componentType":5126,
			"count":48,
			"max":[
				0.006000000052154064,
				0.07999999821186066,
				0.006000000052154064
			],
			"min":[
				-0.006000000052154064,
				0.06000000238418579,
				-0.006000000052154064
			],
			"type":"VEC3"
		},
		{
			"bufferView":5,
			"componentType":5126,
			"count":48,
			"type":"VEC3"
		},
		{
			"bufferView":6,
			"componentType":5126,
			"count":48,
			"type":"VEC2"
		},
		{
			"bufferView":7,
			"componentType":5123,
			"count":84,
			"type":"SCALAR"
		}
	],
	"bufferViews":[
		{
			"buffer":0,
			"byteLength":14592,
			"byteOffset":0,
			"target":34962
		},
		{
			"buffer":0,
			"byteLength":14592,
			"byteOffset":14592,
			"target":34962
		},
		{
			"buffer":0,
			"byteLength":9728,
			"byteOffset":29184,
			"target":34962
		},
		{
			"buffer":0,
			"byteLength":3528,
			"byteOffset":38912,
			"target":34963
		},
		{
			"buffer":0,
			"byteLength":576,
			"byteOffset":42440,
			"target":34962
		},
		{
			"buffer":0,
			"byteLength":576,
			"byteOffset":43016,
			"target":34962
		},
		{
			"buffer":0,
			"byteLength":384,
			"byteOffset":43592,
			"target":34962
		},
		{
			"buffer":0,
			"byteLength":168,
			"byteOffset":43976,
			"target":34963
		}
	],
	"buffers":[
		{
			"byteLength":44144,
			"uri":"model.bin"
		}
	]
}
