{
	"asset":{
		"generator":"Khronos glTF Blender I/O v4.2.70",
		"version":"2.0"
	},
	"scene":0,
	"scenes":[
		{
			"name":"Scene",
			"nodes":[
				0
			]
		}
	],
	"nodes":[
		{
			"mesh":0,
			"name":"hallTree",
			"translation":[
				0,
				0.949999988079071,
				0
			]
		}
	],
	"materials":[
		{
			"doubleSided":true,
			"name":"oakwood",
			"pbrMetallicRoughness":{
				"baseColorFactor":[
					0.3199999928474426,
					0.2199999988079071,
					0.12999999523162842,
					1
				],
				"metallicFactor":0,
				"roughnessFactor":0.800000011920929
			}
		},
		{
			"doubleSided":true,
			"name":"wornleather",
			"pbrMetallicRoughness":{
				"baseColorFactor":[
					0.2800000011920929,
					0.18000000715255737,
					0.10999999940395355,
					1
				],
				"metallicFactor":0,
				"roughnessFactor":0.8500000238418579
			}
		},
		{
			"doubleSided":true,
			"name":"iron",
			"pbrMetallicRoughness":{
				"baseColorFactor":[
					0.10999999940395355,
					0.10999999940395355,
					0.11999999731779099,
					1
				],
				"metallicFactor":0.8500000238418579,
				"roughnessFactor":0.44999998807907104
			}
		}
	],
	"meshes":[
		{
			"name":"Cylinder",
			"primitives":[
				{
					"attributes":{
						"POSITION":0,
						"NORMAL":1,
						"TEXCOORD_0":2
					},
					"indices":3,
					"material":0
				},
				{
					"attributes":{
						"POSITION":4,
						"NORMAL":5,
						"TEXCOORD_0":6
					},
					"indices":7,
					"material":1
				},
				{
					"attributes":{
						"POSITION":8,
						"NORMAL":9,
						"TEXCOORD_0":10
					},
					"indices":11,
					"material":2
				}
			]
		}
	],
	"accessors":[
		{
			"bufferView":0,
			"componentType":5126,
			"count":948,
			"max":[
				0.09120640158653259,
				0.949999988079071,
				0.20120638608932495
			],
			"min":[
				-0.0912063717842102,
				-0.949999988079071,
				-0.20120638608932495
			],
			"type":"VEC3"
		},
		{
			"bufferView":1,
			"componentType":5126,
			"count":948,
			"type":"VEC3"
		},
		{
			"bufferView":2,
			"componentType":5126,
			"count":948,
			"type":"VEC2"
		},
		{
			"bufferView":3,
			"componentType":5123,
			"count":1452,
			"type":"SCALAR"
		},
		{
			"bufferView":4,
			"componentType":5126,
			"count":528,
			"max":[
				0.2068096101284027,
				1.0700000524520874,
				0.20999999344348907
			],
			"min":[
				-0.2068096101284027,
				-0.8849999904632568,
				-0.20999999344348907
			],
			"type":"VEC3"
		},
		{
			"bufferView":5,
			"componentType":5126,
			"count":528,
			"type":"VEC3"
		},
		{
			"bufferView":6,
			"componentType":5126,
			"count":528,
			"type":"VEC2"
		},
		{
			"bufferView":7,
			"componentType":5123,
			"count":792,
			"type":"SCALAR"
		},
		{
			"bufferView":8,
			"componentType":5126,
			"count":768,
			"max":[
				0.12099999934434891,
				0.8400000333786011,
				0.12099999934434891
			],
			"min":[
				-0.12099999934434891,
				0.5590000152587891,
				-0.12099999934434891
			],
			"type":"VEC3"
		},
		{
			"bufferView":9,
			"componentType":5126,
			"count":768,
			"type":"VEC3"
		},
		{
			"bufferView":10,
			"componentType":5126,
			"count":768,
			"type":"VEC2"
		},
		{
			"bufferView":11,
			"componentType":5123,
			"count":1344,
			"type":"SCALAR"
		}
	],
	"bufferViews":[
		{
			"buffer":0,
			"byteLength":11376,
			"byteOffset":0,
			"target":34962
		},
		{
			"buffer":0,
			"byteLength":11376,
			"byteOffset":11376,
			"target":34962
		},
		{
			"buffer":0,
			"byteLength":7584,
			"byteOffset":22752,
			"target":34962
		},
		{
			"buffer":0,
			"byteLength":2904,
			"byteOffset":30336,
			"target":34963
		},
		{
			"buffer":0,
			"byteLength":6336,
			"byteOffset":33240,
			"target":34962
		},
		{
			"buffer":0,
			"byteLength":6336,
			"byteOffset":39576,
			"target":34962
		},
		{
			"buffer":0,
			"byteLength":4224,
			"byteOffset":45912,
			"target":34962
		},
		{
			"buffer":0,
			"byteLength":1584,
			"byteOffset":50136,
			"target":34963
		},
		{
			"buffer":0,
			"byteLength":9216,
			"byteOffset":51720,
			"target":34962
		},
		{
			"buffer":0,
			"byteLength":9216,
			"byteOffset":60936,
			"target":34962
		},
		{
			"buffer":0,
			"byteLength":6144,
			"byteOffset":70152,
			"target":34962
		},
		{
			"buffer":0,
			"byteLength":2688,
			"byteOffset":76296,
			"target":34963
		}
	],
	"buffers":[
		{
			"byteLength":78984,
			"uri":"model.bin"
		}
	]
}
