{"asset": {"generator": "Khronos glTF Blender I/O v3.3.32", "version": "2.0"}, "extensionsUsed": ["KHR_materials_specular", "KHR_materials_ior"], "scene": 0, "scenes": [{"name": "Scene", "nodes": [0]}], "nodes": [{"mesh": 0, "name": "cleaner_tin_01"}], "materials": [{"doubleSided": true, "extensions": {"KHR_materials_specular": {"specularColorFactor": [2.371357614441398, 2.371357614441398, 2.371357614441398]}, "KHR_materials_ior": {"ior": 1.4500000476837158}}, "name": "cleaner_tin_01", "normalTexture": {"index": 0}, "pbrMetallicRoughness": {"baseColorTexture": {"index": 1}, "metallicRoughnessTexture": {"index": 2}}}], "meshes": [{"name": "Mesh", "primitives": [{"attributes": {"POSITION": 0, "NORMAL": 1, "TEXCOORD_0": 2}, "indices": 3, "material": 0}]}], "textures": [{"sampler": 0, "source": 0}, {"sampler": 0, "source": 1}, {"sampler": 0, "source": 2}], "images": [{"mimeType": "image/jpeg", "name": "cleaner_tin_01_nor_gl", "uri": "textures/cleaner_tin_01_nor_gl_1k.jpg"}, {"mimeType": "image/jpeg", "name": "cleaner_tin_01_diff", "uri": "textures/cleaner_tin_01_diff_1k.jpg"}, {"mimeType": "image/jpeg", "name": "cleaner_tin_01_metal-cleaner_tin_01_rough", "uri": "textures/cleaner_tin_01_arm_1k.jpg"}], "accessors": [{"bufferView": 0, "componentType": 5126, "count": 1894, "max": [0.0437781997025013, 0.1304621398448944, 0.043773069977760315], "min": [-0.043778195977211, 4.5991226215846837e-05, -0.043773069977760315], "type": "VEC3"}, {"bufferView": 1, "componentType": 5126, "count": 1894, "type": "VEC3"}, {"bufferView": 2, "componentType": 5126, "count": 1894, "type": "VEC2"}, {"bufferView": 3, "componentType": 5123, "count": 10680, "type": "SCALAR"}], "bufferViews": [{"buffer": 0, "byteLength": 22728, "byteOffset": 0, "target": 34962}, {"buffer": 0, "byteLength": 22728, "byteOffset": 22728, "target": 34962}, {"buffer": 0, "byteLength": 15152, "byteOffset": 45456, "target": 34962}, {"buffer": 0, "byteLength": 21360, "byteOffset": 60608, "target": 34963}], "samplers": [{"magFilter": 9729, "minFilter": 9987}], "buffers": [{"byteLength": 81968, "uri": "cleaner_tin_01.bin"}]}