{
	"asset":{
		"generator":"Khronos glTF Blender I/O v4.2.70",
		"version":"2.0"
	},
	"scene":0,
	"scenes":[
		{
			"name":"Scene",
			"nodes":[
				0
			]
		}
	],
	"nodes":[
		{
			"mesh":0,
			"name":"doorChain"
		}
	],
	"materials":[
		{
			"doubleSided":true,
			"name":"iron",
			"pbrMetallicRoughness":{
				"baseColorFactor":[
					0.10999999940395355,
					0.10999999940395355,
					0.11999999731779099,
					1
				],
				"metallicFactor":0.8500000238418579,
				"roughnessFactor":0.44999998807907104
			}
		},
		{
			"doubleSided":true,
			"name":"wornleather",
			"pbrMetallicRoughness":{
				"baseColorFactor":[
					0.2800000011920929,
					0.18000000715255737,
					0.10999999940395355,
					1
				],
				"metallicFactor":0,
				"roughnessFactor":0.8500000238418579
			}
		},
		{
			"doubleSided":true,
			"name":"brass",
			"pbrMetallicRoughness":{
				"baseColorFactor":[
					0.41999998688697815,
					0.30000001192092896,
					0.11999999731779099,
					1
				],
				"metallicFactor":0.8999999761581421,
				"roughnessFactor":0.3499999940395355
			}
		},
		{
			"doubleSided":true,
			"name":"darkwood",
			"pbrMetallicRoughness":{
				"baseColorFactor":[
					0.1599999964237213,
					0.10000000149011612,
					0.07000000029802322,
					1
				],
				"metallicFactor":0,
				"roughnessFactor":0.699999988079071
			}
		}
	],
	"meshes":[
		{
			"name":"Cube",
			"primitives":[
				{
					"attributes":{
						"POSITION":0,
						"NORMAL":1,
						"TEXCOORD_0":2
					},
					"indices":3,
					"material":0
				},
				{
					"attributes":{
						"POSITION":4,
						"NORMAL":5,
						"TEXCOORD_0":6
					},
					"indices":7,
					"material":1
				},
				{
					"attributes":{
						"POSITION":8,
						"NORMAL":9,
						"TEXCOORD_0":10
					},
					"indices":11,
					"material":2
				},
				{
					"attributes":{
						"POSITION":12,
						"NORMAL":13,
						"TEXCOORD_0":14
					},
					"indices":15,
					"material":3
				}
			]
		}
	],
	"accessors":[
		{
			"bufferView":0,
			"componentType":5126,
			"count":1072,
			"max":[
				0.3100000023841858,
				0.15000000596046448,
				0.06700000166893005
			],
			"min":[
				-0.25999999046325684,
				-0.23557090759277344,
				-0.05999999865889549
			],
			"type":"VEC3"
		},
		{
			"bufferView":1,
			"componentType":5126,
			"count":1072,
			"type":"VEC3"
		},
		{
			"bufferView":2,
			"componentType":5126,
			"count":1072,
			"type":"VEC2"
		},
		{
			"bufferView":3,
			"componentType":5123,
			"count":1656,
			"type":"SCALAR"
		},
		{
			"bufferView":4,
			"componentType":5126,
			"count":360,
			"max":[
				0.2329345941543579,
				0.009417878463864326,
				0.0738564133644104
			],
			"min":[
				-0.15293459594249725,
				-0.17563438415527344,
				0.046143583953380585
			],
			"type":"VEC3"
		},
		{
			"bufferView":5,
			"componentType":5126,
			"count":360,
			"type":"VEC3"
		},
		{
			"bufferView":6,
			"componentType":5126,
			"count":360,
			"type":"VEC2"
		},
		{
			"bufferView":7,
			"componentType":5123,
			"count":600,
			"type":"SCALAR"
		},
		{
			"bufferView":8,
			"componentType":5126,
			"count":216,
			"max":[
				0.08500000089406967,
				-0.1899999976158142,
				0.0949999988079071
			],
			"min":[
				-0.02500000037252903,
				-0.32999998331069946,
				0.02499999850988388
			],
			"type":"VEC3"
		},
		{
			"bufferView":9,
			"componentType":5126,
			"count":216,
			"type":"VEC3"
		},
		{
			"bufferView":10,
			"componentType":5126,
			"count":216,
			"type":"VEC2"
		},
		{
			"bufferView":11,
			"componentType":5123,
			"count":324,
			"type":"SCALAR"
		},
		{
			"bufferView":12,
			"componentType":5126,
			"count":48,
			"max":[
				0.041999999433755875,
				-0.24799999594688416,
				0.10799999535083771
			],
			"min":[
				0.017999999225139618,
				-0.2719999849796295,
				0.08799999952316284
			],
			"type":"VEC3"
		},
		{
			"bufferView":13,
			"componentType":5126,
			"count":48,
			"type":"VEC3"
		},
		{
			"bufferView":14,
			"componentType":5126,
			"count":48,
			"type":"VEC2"
		},
		{
			"bufferView":15,
			"componentType":5123,
			"count":84,
			"type":"SCALAR"
		}
	],
	"bufferViews":[
		{
			"buffer":0,
			"byteLength":12864,
			"byteOffset":0,
			"target":34962
		},
		{
			"buffer":0,
			"byteLength":12864,
			"byteOffset":12864,
			"target":34962
		},
		{
			"buffer":0,
			"byteLength":8576,
			"byteOffset":25728,
			"target":34962
		},
		{
			"buffer":0,
			"byteLength":3312,
			"byteOffset":34304,
			"target":34963
		},
		{
			"buffer":0,
			"byteLength":4320,
			"byteOffset":37616,
			"target":34962
		},
		{
			"buffer":0,
			"byteLength":4320,
			"byteOffset":41936,
			"target":34962
		},
		{
			"buffer":0,
			"byteLength":2880,
			"byteOffset":46256,
			"target":34962
		},
		{
			"buffer":0,
			"byteLength":1200,
			"byteOffset":49136,
			"target":34963
		},
		{
			"buffer":0,
			"byteLength":2592,
			"byteOffset":50336,
			"target":34962
		},
		{
			"buffer":0,
			"byteLength":2592,
			"byteOffset":52928,
			"target":34962
		},
		{
			"buffer":0,
			"byteLength":1728,
			"byteOffset":55520,
			"target":34962
		},
		{
			"buffer":0,
			"byteLength":648,
			"byteOffset":57248,
			"target":34963
		},
		{
			"buffer":0,
			"byteLength":576,
			"byteOffset":57896,
			"target":34962
		},
		{
			"buffer":0,
			"byteLength":576,
			"byteOffset":58472,
			"target":34962
		},
		{
			"buffer":0,
			"byteLength":384,
			"byteOffset":59048,
			"target":34962
		},
		{
			"buffer":0,
			"byteLength":168,
			"byteOffset":59432,
			"target":34963
		}
	],
	"buffers":[
		{
			"byteLength":59600,
			"uri":"model.bin"
		}
	]
}
