{
	"asset":{
		"generator":"Khronos glTF Blender I/O v4.0.44",
		"version":"2.0"
	},
	"scene":0,
	"scenes":[
		{
			"name":"Scene",
			"nodes":[
				0
			]
		}
	],
	"nodes":[
		{
			"mesh":0,
			"name":"typewriter"
		}
	],
	"materials":[
		{
			"doubleSided":true,
			"name":"darkwood",
			"pbrMetallicRoughness":{
				"baseColorFactor":[
					0.1599999964237213,
					0.10000000149011612,
					0.07000000029802322,
					1
				],
				"metallicFactor":0,
				"roughnessFactor":0.699999988079071
			}
		},
		{
			"doubleSided":true,
			"name":"iron",
			"pbrMetallicRoughness":{
				"baseColorFactor":[
					0.10999999940395355,
					0.10999999940395355,
					0.11999999731779099,
					1
				],
				"metallicFactor":0.8500000238418579,
				"roughnessFactor":0.44999998807907104
			}
		},
		{
			"doubleSided":true,
			"name":"brass",
			"pbrMetallicRoughness":{
				"baseColorFactor":[
					0.41999998688697815,
					0.30000001192092896,
					0.11999999731779099,
					1
				],
				"metallicFactor":0.8999999761581421,
				"roughnessFactor":0.3499999940395355
			}
		},
		{
			"doubleSided":true,
			"name":"linen",
			"pbrMetallicRoughness":{
				"baseColorFactor":[
					0.7200000286102295,
					0.6600000262260437,
					0.550000011920929,
					1
				],
				"metallicFactor":0,
				"roughnessFactor":0.8999999761581421
			}
		}
	],
	"meshes":[
		{
			"name":"Cube",
			"primitives":[
				{
					"attributes":{
						"POSITION":0,
						"NORMAL":1,
						"TEXCOORD_0":2
					},
					"indices":3,
					"material":0
				},
				{
					"attributes":{
						"POSITION":4,
						"NORMAL":5,
						"TEXCOORD_0":6
					},
					"indices":7,
					"material":1
				},
				{
					"attributes":{
						"POSITION":8,
						"NORMAL":9,
						"TEXCOORD_0":10
					},
					"indices":11,
					"material":2
				},
				{
					"attributes":{
						"POSITION":12,
						"NORMAL":13,
						"TEXCOORD_0":14
					},
					"indices":15,
					"material":3
				}
			]
		}
	],
	"accessors":[
		{
			"bufferView":0,
			"componentType":5126,
			"count":288,
			"max":[
				0.18000000715255737,
				0.2750000059604645,
				0.1599999964237213
			],
			"min":[
				-0.18000000715255737,
				0,
				-0.1599999964237213
			],
			"type":"VEC3"
		},
		{
			"bufferView":1,
			"componentType":5126,
			"count":288,
			"type":"VEC3"
		},
		{
			"bufferView":2,
			"componentType":5126,
			"count":288,
			"type":"VEC2"
		},
		{
			"bufferView":3,
			"componentType":5123,
			"count":456,
			"type":"SCALAR"
		},
		{
			"bufferView":4,
			"componentType":5126,
			"count":264,
			"max":[
				0.20800000429153442,
				0.34404200315475464,
				0.14000000059604645
			],
			"min":[
				-0.1599999964237213,
				0.1550000011920929,
				-0.1253747045993805
			],
			"type":"VEC3"
		},
		{
			"bufferView":5,
			"componentType":5126,
			"count":264,
			"type":"VEC3"
		},
		{
			"bufferView":6,
			"componentType":5126,
			"count":264,
			"type":"VEC2"
		},
		{
			"bufferView":7,
			"componentType":5123,
			"count":408,
			"type":"SCALAR"
		},
		{
			"bufferView":8,
			"componentType":5126,
			"count":5832,
			"max":[
				0.16200000047683716,
				0.24300000071525574,
				0.13199999928474426
			],
			"min":[
				-0.1419999897480011,
				0.1809999942779541,
				-0.0020000003278255463
			],
			"type":"VEC3"
		},
		{
			"bufferView":9,
			"componentType":5126,
			"count":5832,
			"type":"VEC3"
		},
		{
			"bufferView":10,
			"componentType":5126,
			"count":5832,
			"type":"VEC2"
		},
		{
			"bufferView":11,
			"componentType":5123,
			"count":8748,
			"type":"SCALAR"
		},
		{
			"bufferView":12,
			"componentType":5126,
			"count":216,
			"max":[
				0.12999999523162842,
				0.43302106857299805,
				-0.07306856662034988
			],
			"min":[
				-0.12999999523162842,
				0.2732139527797699,
				-0.10365737229585648
			],
			"type":"VEC3"
		},
		{
			"bufferView":13,
			"componentType":5126,
			"count":216,
			"type":"VEC3"
		},
		{
			"bufferView":14,
			"componentType":5126,
			"count":216,
			"type":"VEC2"
		},
		{
			"bufferView":15,
			"componentType":5123,
			"count":324,
			"type":"SCALAR"
		}
	],
	"bufferViews":[
		{
			"buffer":0,
			"byteLength":3456,
			"byteOffset":0,
			"target":34962
		},
		{
			"buffer":0,
			"byteLength":3456,
			"byteOffset":3456,
			"target":34962
		},
		{
			"buffer":0,
			"byteLength":2304,
			"byteOffset":6912,
			"target":34962
		},
		{
			"buffer":0,
			"byteLength":912,
			"byteOffset":9216,
			"target":34963
		},
		{
			"buffer":0,
			"byteLength":3168,
			"byteOffset":10128,
			"target":34962
		},
		{
			"buffer":0,
			"byteLength":3168,
			"byteOffset":13296,
			"target":34962
		},
		{
			"buffer":0,
			"byteLength":2112,
			"byteOffset":16464,
			"target":34962
		},
		{
			"buffer":0,
			"byteLength":816,
			"byteOffset":18576,
			"target":34963
		},
		{
			"buffer":0,
			"byteLength":69984,
			"byteOffset":19392,
			"target":34962
		},
		{
			"buffer":0,
			"byteLength":69984,
			"byteOffset":89376,
			"target":34962
		},
		{
			"buffer":0,
			"byteLength":46656,
			"byteOffset":159360,
			"target":34962
		},
		{
			"buffer":0,
			"byteLength":17496,
			"byteOffset":206016,
			"target":34963
		},
		{
			"buffer":0,
			"byteLength":2592,
			"byteOffset":223512,
			"target":34962
		},
		{
			"buffer":0,
			"byteLength":2592,
			"byteOffset":226104,
			"target":34962
		},
		{
			"buffer":0,
			"byteLength":1728,
			"byteOffset":228696,
			"target":34962
		},
		{
			"buffer":0,
			"byteLength":648,
			"byteOffset":230424,
			"target":34963
		}
	],
	"buffers":[
		{
			"byteLength":231072,
			"uri":"model.bin"
		}
	]
}
