{
	"asset":{
		"generator":"Khronos glTF Blender I/O v4.0.44",
		"version":"2.0"
	},
	"scene":0,
	"scenes":[
		{
			"name":"Scene",
			"nodes":[
				0
			]
		}
	],
	"nodes":[
		{
			"mesh":0,
			"name":"consoleTable"
		}
	],
	"materials":[
		{
			"doubleSided":true,
			"name":"oakwood",
			"pbrMetallicRoughness":{
				"baseColorFactor":[
					0.3199999928474426,
					0.2199999988079071,
					0.12999999523162842,
					1
				],
				"metallicFactor":0,
				"roughnessFactor":0.800000011920929
			}
		},
		{
			"doubleSided":true,
			"name":"darkwood",
			"pbrMetallicRoughness":{
				"baseColorFactor":[
					0.1599999964237213,
					0.10000000149011612,
					0.07000000029802322,
					1
				],
				"metallicFactor":0,
				"roughnessFactor":0.699999988079071
			}
		},
		{
			"doubleSided":true,
			"name":"brass",
			"pbrMetallicRoughness":{
				"baseColorFactor":[
					0.41999998688697815,
					0.30000001192092896,
					0.11999999731779099,
					1
				],
				"metallicFactor":0.8999999761581421,
				"roughnessFactor":0.3499999940395355
			}
		}
	],
	"meshes":[
		{
			"name":"Cube",
			"primitives":[
				{
					"attributes":{
						"POSITION":0,
						"NORMAL":1,
						"TEXCOORD_0":2
					},
					"indices":3,
					"material":0
				},
				{
					"attributes":{
						"POSITION":4,
						"NORMAL":5,
						"TEXCOORD_0":6
					},
					"indices":7,
					"material":1
				},
				{
					"attributes":{
						"POSITION":8,
						"NORMAL":9,
						"TEXCOORD_0":10
					},
					"indices":11,
					"material":2
				}
			]
		}
	],
	"accessors":[
		{
			"bufferView":0,
			"componentType":5126,
			"count":1752,
			"max":[
				0.5249999761581421,
				0.8399999737739563,
				0.20000000298023224
			],
			"min":[
				-0.5249999761581421,
				0.03999999165534973,
				-0.20000000298023224
			],
			"type":"VEC3"
		},
		{
			"bufferView":1,
			"componentType":5126,
			"count":1752,
			"type":"VEC3"
		},
		{
			"bufferView":2,
			"componentType":5126,
			"count":1752,
			"type":"VEC2"
		},
		{
			"bufferView":3,
			"componentType":5123,
			"count":2700,
			"type":"SCALAR"
		},
		{
			"bufferView":4,
			"componentType":5126,
			"count":1080,
			"max":[
				0.5099999904632568,
				0.7950000166893005,
				0.1899999976158142
			],
			"min":[
				-0.5099999904632568,
				0,
				-0.1899999976158142
			],
			"type":"VEC3"
		},
		{
			"bufferView":5,
			"componentType":5126,
			"count":1080,
			"type":"VEC3"
		},
		{
			"bufferView":6,
			"componentType":5126,
			"count":1080,
			"type":"VEC2"
		},
		{
			"bufferView":7,
			"componentType":5123,
			"count":1620,
			"type":"SCALAR"
		},
		{
			"bufferView":8,
			"componentType":5126,
			"count":176,
			"max":[
				0.014999998733401299,
				0.7649999856948853,
				0.1899999976158142
			],
			"min":[
				-0.014999998733401299,
				0.7350000143051147,
				0.1599999964237213
			],
			"type":"VEC3"
		},
		{
			"bufferView":9,
			"componentType":5126,
			"count":176,
			"type":"VEC3"
		},
		{
			"bufferView":10,
			"componentType":5126,
			"count":176,
			"type":"VEC2"
		},
		{
			"bufferView":11,
			"componentType":5123,
			"count":240,
			"type":"SCALAR"
		}
	],
	"bufferViews":[
		{
			"buffer":0,
			"byteLength":21024,
			"byteOffset":0,
			"target":34962
		},
		{
			"buffer":0,
			"byteLength":21024,
			"byteOffset":21024,
			"target":34962
		},
		{
			"buffer":0,
			"byteLength":14016,
			"byteOffset":42048,
			"target":34962
		},
		{
			"buffer":0,
			"byteLength":5400,
			"byteOffset":56064,
			"target":34963
		},
		{
			"buffer":0,
			"byteLength":12960,
			"byteOffset":61464,
			"target":34962
		},
		{
			"buffer":0,
			"byteLength":12960,
			"byteOffset":74424,
			"target":34962
		},
		{
			"buffer":0,
			"byteLength":8640,
			"byteOffset":87384,
			"target":34962
		},
		{
			"buffer":0,
			"byteLength":3240,
			"byteOffset":96024,
			"target":34963
		},
		{
			"buffer":0,
			"byteLength":2112,
			"byteOffset":99264,
			"target":34962
		},
		{
			"buffer":0,
			"byteLength":2112,
			"byteOffset":101376,
			"target":34962
		},
		{
			"buffer":0,
			"byteLength":1408,
			"byteOffset":103488,
			"target":34962
		},
		{
			"buffer":0,
			"byteLength":480,
			"byteOffset":104896,
			"target":34963
		}
	],
	"buffers":[
		{
			"byteLength":105376,
			"uri":"model.bin"
		}
	]
}
