{"asset": {"generator": "Khronos glTF Blender I/O v4.1.63", "version": "2.0"}, "scene": 0, "scenes": [{"name": "Scene", "nodes": [0]}], "nodes": [{"mesh": 0, "name": "chinese_chandelier"}], "materials": [{"doubleSided": true, "name": "chinese_chandelier", "normalTexture": {"index": 0}, "pbrMetallicRoughness": {"baseColorTexture": {"index": 1}, "metallicRoughnessTexture": {"index": 2}}}], "meshes": [{"name": "Mesh.001", "primitives": [{"attributes": {"POSITION": 0, "NORMAL": 1, "TEXCOORD_0": 2}, "indices": 3, "material": 0}]}], "textures": [{"sampler": 0, "source": 0}, {"sampler": 0, "source": 1}, {"sampler": 0, "source": 2}], "images": [{"mimeType": "image/jpeg", "name": "chinese_chandelier_nor_gl", "uri": "textures/chinese_chandelier_nor_gl_1k.jpg"}, {"mimeType": "image/jpeg", "name": "chinese_chandelier_diff", "uri": "textures/chinese_chandelier_diff_1k.jpg"}, {"mimeType": "image/jpeg", "name": "chinese_chandelier_metal-chinese_chandelier_rough", "uri": "textures/chinese_chandelier_arm_1k.jpg"}], "accessors": [{"bufferView": 0, "componentType": 5126, "count": 7700, "max": [0.4390125572681427, 0.00013703492004424334, 0.43901383876800537], "min": [-0.4393801689147949, -0.7480729818344116, -0.4396956264972687], "type": "VEC3"}, {"bufferView": 1, "componentType": 5126, "count": 7700, "type": "VEC3"}, {"bufferView": 2, "componentType": 5126, "count": 7700, "type": "VEC2"}, {"bufferView": 3, "componentType": 5123, "count": 23484, "type": "SCALAR"}], "bufferViews": [{"buffer": 0, "byteLength": 92400, "byteOffset": 0, "target": 34962}, {"buffer": 0, "byteLength": 92400, "byteOffset": 92400, "target": 34962}, {"buffer": 0, "byteLength": 61600, "byteOffset": 184800, "target": 34962}, {"buffer": 0, "byteLength": 46968, "byteOffset": 246400, "target": 34963}], "samplers": [{"magFilter": 9729, "minFilter": 9987}], "buffers": [{"byteLength": 293368, "uri": "chinese_chandelier.bin"}]}