{
	"asset":{
		"generator":"Khronos glTF Blender I/O v4.0.44",
		"version":"2.0"
	},
	"scene":0,
	"scenes":[
		{
			"name":"Scene",
			"nodes":[
				0
			]
		}
	],
	"nodes":[
		{
			"mesh":0,
			"name":"vanityTable"
		}
	],
	"materials":[
		{
			"doubleSided":true,
			"name":"oakwood",
			"pbrMetallicRoughness":{
				"baseColorFactor":[
					0.3199999928474426,
					0.2199999988079071,
					0.12999999523162842,
					1
				],
				"metallicFactor":0,
				"roughnessFactor":0.800000011920929
			}
		},
		{
			"doubleSided":true,
			"name":"darkwood",
			"pbrMetallicRoughness":{
				"baseColorFactor":[
					0.1599999964237213,
					0.10000000149011612,
					0.07000000029802322,
					1
				],
				"metallicFactor":0,
				"roughnessFactor":0.699999988079071
			}
		},
		{
			"doubleSided":true,
			"name":"brass",
			"pbrMetallicRoughness":{
				"baseColorFactor":[
					0.41999998688697815,
					0.30000001192092896,
					0.11999999731779099,
					1
				],
				"metallicFactor":0.8999999761581421,
				"roughnessFactor":0.3499999940395355
			}
		},
		{
			"doubleSided":true,
			"name":"mirror",
			"pbrMetallicRoughness":{
				"baseColorFactor":[
					0.6000000238418579,
					0.6499999761581421,
					0.699999988079071,
					1
				],
				"roughnessFactor":0.10000000149011612
			}
		},
		{
			"doubleSided":true,
			"name":"velvet",
			"pbrMetallicRoughness":{
				"baseColorFactor":[
					0.30000001192092896,
					0.07000000029802322,
					0.07999999821186066,
					1
				],
				"metallicFactor":0,
				"roughnessFactor":0.949999988079071
			}
		}
	],
	"meshes":[
		{
			"name":"Cube",
			"primitives":[
				{
					"attributes":{
						"POSITION":0,
						"NORMAL":1,
						"TEXCOORD_0":2
					},
					"indices":3,
					"material":0
				},
				{
					"attributes":{
						"POSITION":4,
						"NORMAL":5,
						"TEXCOORD_0":6
					},
					"indices":7,
					"material":1
				},
				{
					"attributes":{
						"POSITION":8,
						"NORMAL":9,
						"TEXCOORD_0":10
					},
					"indices":11,
					"material":2
				},
				{
					"attributes":{
						"POSITION":12,
						"NORMAL":13,
						"TEXCOORD_0":14
					},
					"indices":15,
					"material":3
				},
				{
					"attributes":{
						"POSITION":16,
						"NORMAL":17,
						"TEXCOORD_0":18
					},
					"indices":19,
					"material":4
				}
			]
		}
	],
	"accessors":[
		{
			"bufferView":0,
			"componentType":5126,
			"count":1272,
			"max":[
				0.5827865600585938,
				0.7849999666213989,
				0.30000001192092896
			],
			"min":[
				-0.5827865600585938,
				-0.014649730175733566,
				-0.23834441602230072
			],
			"type":"VEC3"
		},
		{
			"bufferView":1,
			"componentType":5126,
			"count":1272,
			"type":"VEC3"
		},
		{
			"bufferView":2,
			"componentType":5126,
			"count":1272,
			"type":"VEC2"
		},
		{
			"bufferView":3,
			"componentType":5123,
			"count":1956,
			"type":"SCALAR"
		},
		{
			"bufferView":4,
			"componentType":5126,
			"count":768,
			"max":[
				0.5302168726921082,
				1.6050000190734863,
				0.25
			],
			"min":[
				-0.5302168726921082,
				0.5799999833106995,
				-0.25672972202301025
			],
			"type":"VEC3"
		},
		{
			"bufferView":5,
			"componentType":5126,
			"count":768,
			"type":"VEC3"
		},
		{
			"bufferView":6,
			"componentType":5126,
			"count":768,
			"type":"VEC2"
		},
		{
			"bufferView":7,
			"componentType":5123,
			"count":1188,
			"type":"SCALAR"
		},
		{
			"bufferView":8,
			"componentType":5126,
			"count":696,
			"max":[
				0.5435316562652588,
				1.649999976158142,
				0.2799999713897705
			],
			"min":[
				-0.5435316562652588,
				0.6349999904632568,
				-0.10999999940395355
			],
			"type":"VEC3"
		},
		{
			"bufferView":9,
			"componentType":5126,
			"count":696,
			"type":"VEC3"
		},
		{
			"bufferView":10,
			"componentType":5126,
			"count":696,
			"type":"VEC2"
		},
		{
			"bufferView":11,
			"componentType":5123,
			"count":1008,
			"type":"SCALAR"
		},
		{
			"bufferView":12,
			"componentType":5126,
			"count":196,
			"max":[
				0.25999999046325684,
				1.50691556930542,
				-0.13762027025222778
			],
			"min":[
				-0.25999999046325684,
				0.9099130034446716,
				-0.21542373299598694
			],
			"type":"VEC3"
		},
		{
			"bufferView":13,
			"componentType":5126,
			"count":196,
			"type":"VEC3"
		},
		{
			"bufferView":14,
			"componentType":5126,
			"count":196,
			"type":"VEC2"
		},
		{
			"bufferView":15,
			"componentType":5123,
			"count":324,
			"type":"SCALAR"
		},
		{
			"bufferView":16,
			"componentType":5126,
			"count":216,
			"max":[
				0.20999999344348907,
				0.3400000035762787,
				0.32999998331069946
			],
			"min":[
				-0.20999999344348907,
				0.2600000202655792,
				-0.01000000536441803
			],
			"type":"VEC3"
		},
		{
			"bufferView":17,
			"componentType":5126,
			"count":216,
			"type":"VEC3"
		},
		{
			"bufferView":18,
			"componentType":5126,
			"count":216,
			"type":"VEC2"
		},
		{
			"bufferView":19,
			"componentType":5123,
			"count":324,
			"type":"SCALAR"
		}
	],
	"bufferViews":[
		{
			"buffer":0,
			"byteLength":15264,
			"byteOffset":0,
			"target":34962
		},
		{
			"buffer":0,
			"byteLength":15264,
			"byteOffset":15264,
			"target":34962
		},
		{
			"buffer":0,
			"byteLength":10176,
			"byteOffset":30528,
			"target":34962
		},
		{
			"buffer":0,
			"byteLength":3912,
			"byteOffset":40704,
			"target":34963
		},
		{
			"buffer":0,
			"byteLength":9216,
			"byteOffset":44616,
			"target":34962
		},
		{
			"buffer":0,
			"byteLength":9216,
			"byteOffset":53832,
			"target":34962
		},
		{
			"buffer":0,
			"byteLength":6144,
			"byteOffset":63048,
			"target":34962
		},
		{
			"buffer":0,
			"byteLength":2376,
			"byteOffset":69192,
			"target":34963
		},
		{
			"buffer":0,
			"byteLength":8352,
			"byteOffset":71568,
			"target":34962
		},
		{
			"buffer":0,
			"byteLength":8352,
			"byteOffset":79920,
			"target":34962
		},
		{
			"buffer":0,
			"byteLength":5568,
			"byteOffset":88272,
			"target":34962
		},
		{
			"buffer":0,
			"byteLength":2016,
			"byteOffset":93840,
			"target":34963
		},
		{
			"buffer":0,
			"byteLength":2352,
			"byteOffset":95856,
			"target":34962
		},
		{
			"buffer":0,
			"byteLength":2352,
			"byteOffset":98208,
			"target":34962
		},
		{
			"buffer":0,
			"byteLength":1568,
			"byteOffset":100560,
			"target":34962
		},
		{
			"buffer":0,
			"byteLength":648,
			"byteOffset":102128,
			"target":34963
		},
		{
			"buffer":0,
			"byteLength":2592,
			"byteOffset":102776,
			"target":34962
		},
		{
			"buffer":0,
			"byteLength":2592,
			"byteOffset":105368,
			"target":34962
		},
		{
			"buffer":0,
			"byteLength":1728,
			"byteOffset":107960,
			"target":34962
		},
		{
			"buffer":0,
			"byteLength":648,
			"byteOffset":109688,
			"target":34963
		}
	],
	"buffers":[
		{
			"byteLength":110336,
			"uri":"model.bin"
		}
	]
}
