{
	"asset":{
		"generator":"Khronos glTF Blender I/O v4.2.70",
		"version":"2.0"
	},
	"scene":0,
	"scenes":[
		{
			"name":"Scene",
			"nodes":[
				0
			]
		}
	],
	"nodes":[
		{
			"mesh":0,
			"name":"podiumLectern",
			"translation":[
				0,
				0.03999999910593033,
				0
			]
		}
	],
	"materials":[
		{
			"doubleSided":true,
			"name":"oakwood",
			"pbrMetallicRoughness":{
				"baseColorFactor":[
					0.3199999928474426,
					0.2199999988079071,
					0.12999999523162842,
					1
				],
				"metallicFactor":0,
				"roughnessFactor":0.800000011920929
			}
		},
		{
			"doubleSided":true,
			"name":"wornleather",
			"pbrMetallicRoughness":{
				"baseColorFactor":[
					0.2800000011920929,
					0.18000000715255737,
					0.10999999940395355,
					1
				],
				"metallicFactor":0,
				"roughnessFactor":0.8500000238418579
			}
		},
		{
			"doubleSided":true,
			"name":"bookcloth",
			"pbrMetallicRoughness":{
				"baseColorFactor":[
					0.20000000298023224,
					0.23999999463558197,
					0.20000000298023224,
					1
				],
				"metallicFactor":0,
				"roughnessFactor":0.8999999761581421
			}
		}
	],
	"meshes":[
		{
			"name":"Cylinder",
			"primitives":[
				{
					"attributes":{
						"POSITION":0,
						"NORMAL":1,
						"TEXCOORD_0":2
					},
					"indices":3,
					"material":0
				},
				{
					"attributes":{
						"POSITION":4,
						"NORMAL":5,
						"TEXCOORD_0":6
					},
					"indices":7,
					"material":1
				},
				{
					"attributes":{
						"POSITION":8,
						"NORMAL":9,
						"TEXCOORD_0":10
					},
					"indices":11,
					"material":2
				}
			]
		}
	],
	"accessors":[
		{
			"bufferView":0,
			"componentType":5126,
			"count":396,
			"max":[
				0.2750000059604645,
				1.0455156564712524,
				0.23999999463558197
			],
			"min":[
				-0.2750000059604645,
				-0.029999999329447746,
				-0.5144243836402893
			],
			"type":"VEC3"
		},
		{
			"bufferView":1,
			"componentType":5126,
			"count":396,
			"type":"VEC3"
		},
		{
			"bufferView":2,
			"componentType":5126,
			"count":396,
			"type":"VEC2"
		},
		{
			"bufferView":3,
			"componentType":5123,
			"count":660,
			"type":"SCALAR"
		},
		{
			"bufferView":4,
			"componentType":5126,
			"count":432,
			"max":[
				0.2750000059604645,
				0.9650432467460632,
				0.07000000029802322
			],
			"min":[
				-0.2750000059604645,
				0.7549999952316284,
				-0.1571701169013977
			],
			"type":"VEC3"
		},
		{
			"bufferView":5,
			"componentType":5126,
			"count":432,
			"type":"VEC3"
		},
		{
			"bufferView":6,
			"componentType":5126,
			"count":432,
			"type":"VEC2"
		},
		{
			"bufferView":7,
			"componentType":5123,
			"count":648,
			"type":"SCALAR"
		},
		{
			"bufferView":8,
			"componentType":5126,
			"count":216,
			"max":[
				0.17000000178813934,
				1.0486286878585815,
				-0.17631718516349792
			],
			"min":[
				-0.17000000178813934,
				0.9468852877616882,
				-0.4272077679634094
			],
			"type":"VEC3"
		},
		{
			"bufferView":9,
			"componentType":5126,
			"count":216,
			"type":"VEC3"
		},
		{
			"bufferView":10,
			"componentType":5126,
			"count":216,
			"type":"VEC2"
		},
		{
			"bufferView":11,
			"componentType":5123,
			"count":324,
			"type":"SCALAR"
		}
	],
	"bufferViews":[
		{
			"buffer":0,
			"byteLength":4752,
			"byteOffset":0,
			"target":34962
		},
		{
			"buffer":0,
			"byteLength":4752,
			"byteOffset":4752,
			"target":34962
		},
		{
			"buffer":0,
			"byteLength":3168,
			"byteOffset":9504,
			"target":34962
		},
		{
			"buffer":0,
			"byteLength":1320,
			"byteOffset":12672,
			"target":34963
		},
		{
			"buffer":0,
			"byteLength":5184,
			"byteOffset":13992,
			"target":34962
		},
		{
			"buffer":0,
			"byteLength":5184,
			"byteOffset":19176,
			"target":34962
		},
		{
			"buffer":0,
			"byteLength":3456,
			"byteOffset":24360,
			"target":34962
		},
		{
			"buffer":0,
			"byteLength":1296,
			"byteOffset":27816,
			"target":34963
		},
		{
			"buffer":0,
			"byteLength":2592,
			"byteOffset":29112,
			"target":34962
		},
		{
			"buffer":0,
			"byteLength":2592,
			"byteOffset":31704,
			"target":34962
		},
		{
			"buffer":0,
			"byteLength":1728,
			"byteOffset":34296,
			"target":34962
		},
		{
			"buffer":0,
			"byteLength":648,
			"byteOffset":36024,
			"target":34963
		}
	],
	"buffers":[
		{
			"byteLength":36672,
			"uri":"model.bin"
		}
	]
}
