{
	"asset":{
		"generator":"Khronos glTF Blender I/O v4.2.83",
		"version":"2.0"
	},
	"scene":0,
	"scenes":[
		{
			"name":"Scene",
			"nodes":[
				0
			]
		}
	],
	"nodes":[
		{
			"mesh":0,
			"name":"dresser"
		}
	],
	"materials":[
		{
			"doubleSided":true,
			"name":"oakwood",
			"pbrMetallicRoughness":{
				"baseColorFactor":[
					0.3199999928474426,
					0.2199999988079071,
					0.12999999523162842,
					1
				],
				"metallicFactor":0,
				"roughnessFactor":0.800000011920929
			}
		},
		{
			"doubleSided":true,
			"name":"darkwood",
			"pbrMetallicRoughness":{
				"baseColorFactor":[
					0.1599999964237213,
					0.10000000149011612,
					0.07000000029802322,
					1
				],
				"metallicFactor":0,
				"roughnessFactor":0.699999988079071
			}
		},
		{
			"doubleSided":true,
			"name":"iron",
			"pbrMetallicRoughness":{
				"baseColorFactor":[
					0.10999999940395355,
					0.10999999940395355,
					0.11999999731779099,
					1
				],
				"metallicFactor":0.8500000238418579,
				"roughnessFactor":0.44999998807907104
			}
		}
	],
	"meshes":[
		{
			"name":"Cube",
			"primitives":[
				{
					"attributes":{
						"POSITION":0,
						"NORMAL":1,
						"TEXCOORD_0":2
					},
					"indices":3,
					"material":0
				},
				{
					"attributes":{
						"POSITION":4,
						"NORMAL":5,
						"TEXCOORD_0":6
					},
					"indices":7,
					"material":1
				},
				{
					"attributes":{
						"POSITION":8,
						"NORMAL":9,
						"TEXCOORD_0":10
					},
					"indices":11,
					"material":2
				}
			]
		}
	],
	"accessors":[
		{
			"bufferView":0,
			"componentType":5126,
			"count":1296,
			"max":[
				0.5400000214576721,
				0.9549999833106995,
				0.2800000011920929
			],
			"min":[
				-0.5400000214576721,
				0,
				-0.2800000011920929
			],
			"type":"VEC3"
		},
		{
			"bufferView":1,
			"componentType":5126,
			"count":1296,
			"type":"VEC3"
		},
		{
			"bufferView":2,
			"componentType":5126,
			"count":1296,
			"type":"VEC2"
		},
		{
			"bufferView":3,
			"componentType":5123,
			"count":1944,
			"type":"SCALAR"
		},
		{
			"bufferView":4,
			"componentType":5126,
			"count":648,
			"max":[
				0.4300000071525574,
				0.8600000143051147,
				0.27699998021125793
			],
			"min":[
				-0.4300000071525574,
				0.18000000715255737,
				0.24699999392032623
			],
			"type":"VEC3"
		},
		{
			"bufferView":5,
			"componentType":5126,
			"count":648,
			"type":"VEC3"
		},
		{
			"bufferView":6,
			"componentType":5126,
			"count":648,
			"type":"VEC2"
		},
		{
			"bufferView":7,
			"componentType":5123,
			"count":972,
			"type":"SCALAR"
		},
		{
			"bufferView":8,
			"componentType":5126,
			"count":288,
			"max":[
				0.15799999237060547,
				0.777999997138977,
				0.3050000071525574
			],
			"min":[
				-0.15799999237060547,
				0.2619999945163727,
				0.2749999761581421
			],
			"type":"VEC3"
		},
		{
			"bufferView":9,
			"componentType":5126,
			"count":288,
			"type":"VEC3"
		},
		{
			"bufferView":10,
			"componentType":5126,
			"count":288,
			"type":"VEC2"
		},
		{
			"bufferView":11,
			"componentType":5123,
			"count":504,
			"type":"SCALAR"
		}
	],
	"bufferViews":[
		{
			"buffer":0,
			"byteLength":15552,
			"byteOffset":0,
			"target":34962
		},
		{
			"buffer":0,
			"byteLength":15552,
			"byteOffset":15552,
			"target":34962
		},
		{
			"buffer":0,
			"byteLength":10368,
			"byteOffset":31104,
			"target":34962
		},
		{
			"buffer":0,
			"byteLength":3888,
			"byteOffset":41472,
			"target":34963
		},
		{
			"buffer":0,
			"byteLength":7776,
			"byteOffset":45360,
			"target":34962
		},
		{
			"buffer":0,
			"byteLength":7776,
			"byteOffset":53136,
			"target":34962
		},
		{
			"buffer":0,
			"byteLength":5184,
			"byteOffset":60912,
			"target":34962
		},
		{
			"buffer":0,
			"byteLength":1944,
			"byteOffset":66096,
			"target":34963
		},
		{
			"buffer":0,
			"byteLength":3456,
			"byteOffset":68040,
			"target":34962
		},
		{
			"buffer":0,
			"byteLength":3456,
			"byteOffset":71496,
			"target":34962
		},
		{
			"buffer":0,
			"byteLength":2304,
			"byteOffset":74952,
			"target":34962
		},
		{
			"buffer":0,
			"byteLength":1008,
			"byteOffset":77256,
			"target":34963
		}
	],
	"buffers":[
		{
			"byteLength":78264,
			"uri":"model.bin"
		}
	]
}
