{
	"asset":{
		"generator":"Khronos glTF Blender I/O v4.2.70",
		"version":"2.0"
	},
	"scene":0,
	"scenes":[
		{
			"name":"Scene",
			"nodes":[
				0
			]
		}
	],
	"nodes":[
		{
			"mesh":0,
			"name":"tollPlate"
		}
	],
	"materials":[
		{
			"doubleSided":true,
			"name":"brass",
			"pbrMetallicRoughness":{
				"baseColorFactor":[
					0.41999998688697815,
					0.30000001192092896,
					0.11999999731779099,
					1
				],
				"metallicFactor":0.8999999761581421,
				"roughnessFactor":0.3499999940395355
			}
		},
		{
			"doubleSided":true,
			"name":"darkwood",
			"pbrMetallicRoughness":{
				"baseColorFactor":[
					0.1599999964237213,
					0.10000000149011612,
					0.07000000029802322,
					1
				],
				"metallicFactor":0,
				"roughnessFactor":0.699999988079071
			}
		}
	],
	"meshes":[
		{
			"name":"Cube",
			"primitives":[
				{
					"attributes":{
						"POSITION":0,
						"NORMAL":1,
						"TEXCOORD_0":2
					},
					"indices":3,
					"material":0
				},
				{
					"attributes":{
						"POSITION":4,
						"NORMAL":5,
						"TEXCOORD_0":6
					},
					"indices":7,
					"material":1
				}
			]
		}
	],
	"accessors":[
		{
			"bufferView":0,
			"componentType":5126,
			"count":1232,
			"max":[
				0.15000000596046448,
				0.20999999344348907,
				0.021000003442168236
			],
			"min":[
				-0.15000000596046448,
				-0.21599999070167542,
				-0.03999999910593033
			],
			"type":"VEC3"
		},
		{
			"bufferView":1,
			"componentType":5126,
			"count":1232,
			"type":"VEC3"
		},
		{
			"bufferView":2,
			"componentType":5126,
			"count":1232,
			"type":"VEC2"
		},
		{
			"bufferView":3,
			"componentType":5123,
			"count":1920,
			"type":"SCALAR"
		},
		{
			"bufferView":4,
			"componentType":5126,
			"count":216,
			"max":[
				0.07000000029802322,
				0.07499999552965164,
				0.014999999664723873
			],
			"min":[
				-0.07000000029802322,
				0.044999998062849045,
				-0.004999999888241291
			],
			"type":"VEC3"
		},
		{
			"bufferView":5,
			"componentType":5126,
			"count":216,
			"type":"VEC3"
		},
		{
			"bufferView":6,
			"componentType":5126,
			"count":216,
			"type":"VEC2"
		},
		{
			"bufferView":7,
			"componentType":5123,
			"count":324,
			"type":"SCALAR"
		}
	],
	"bufferViews":[
		{
			"buffer":0,
			"byteLength":14784,
			"byteOffset":0,
			"target":34962
		},
		{
			"buffer":0,
			"byteLength":14784,
			"byteOffset":14784,
			"target":34962
		},
		{
			"buffer":0,
			"byteLength":9856,
			"byteOffset":29568,
			"target":34962
		},
		{
			"buffer":0,
			"byteLength":3840,
			"byteOffset":39424,
			"target":34963
		},
		{
			"buffer":0,
			"byteLength":2592,
			"byteOffset":43264,
			"target":34962
		},
		{
			"buffer":0,
			"byteLength":2592,
			"byteOffset":45856,
			"target":34962
		},
		{
			"buffer":0,
			"byteLength":1728,
			"byteOffset":48448,
			"target":34962
		},
		{
			"buffer":0,
			"byteLength":648,
			"byteOffset":50176,
			"target":34963
		}
	],
	"buffers":[
		{
			"byteLength":50824,
			"uri":"model.bin"
		}
	]
}
