{
	"asset":{
		"generator":"Khronos glTF Blender I/O v4.2.83",
		"version":"2.0"
	},
	"scene":0,
	"scenes":[
		{
			"name":"Scene",
			"nodes":[
				0
			]
		}
	],
	"nodes":[
		{
			"mesh":0,
			"name":"medallion",
			"translation":[
				0,
				0.019999999552965164,
				0
			]
		}
	],
	"materials":[
		{
			"doubleSided":true,
			"name":"stone",
			"pbrMetallicRoughness":{
				"baseColorFactor":[
					0.41999998688697815,
					0.3799999952316284,
					0.33000001311302185,
					1
				],
				"metallicFactor":0,
				"roughnessFactor":0.8500000238418579
			}
		},
		{
			"doubleSided":true,
			"name":"darkwood",
			"pbrMetallicRoughness":{
				"baseColorFactor":[
					0.1599999964237213,
					0.10000000149011612,
					0.07000000029802322,
					1
				],
				"metallicFactor":0,
				"roughnessFactor":0.699999988079071
			}
		}
	],
	"meshes":[
		{
			"name":"Torus",
			"primitives":[
				{
					"attributes":{
						"POSITION":0,
						"NORMAL":1,
						"TEXCOORD_0":2
					},
					"indices":3,
					"material":0
				},
				{
					"attributes":{
						"POSITION":4,
						"NORMAL":5,
						"TEXCOORD_0":6
					},
					"indices":7,
					"material":1
				}
			]
		}
	],
	"accessors":[
		{
			"bufferView":0,
			"componentType":5126,
			"count":5520,
			"max":[
				0.4699999988079071,
				0.05000000074505806,
				0.4699999988079071
			],
			"min":[
				-0.4699999988079071,
				-0.05000000074505806,
				-0.4699999988079071
			],
			"type":"VEC3"
		},
		{
			"bufferView":1,
			"componentType":5126,
			"count":5520,
			"type":"VEC3"
		},
		{
			"bufferView":2,
			"componentType":5126,
			"count":5520,
			"type":"VEC2"
		},
		{
			"bufferView":3,
			"componentType":5123,
			"count":7920,
			"type":"SCALAR"
		},
		{
			"bufferView":4,
			"componentType":5126,
			"count":96,
			"max":[
				0.10000000149011612,
				0.015000000596046448,
				0.10000000149011612
			],
			"min":[
				-0.10000000149011612,
				-0.054999999701976776,
				-0.10000000149011612
			],
			"type":"VEC3"
		},
		{
			"bufferView":5,
			"componentType":5126,
			"count":96,
			"type":"VEC3"
		},
		{
			"bufferView":6,
			"componentType":5126,
			"count":96,
			"type":"VEC2"
		},
		{
			"bufferView":7,
			"componentType":5123,
			"count":180,
			"type":"SCALAR"
		}
	],
	"bufferViews":[
		{
			"buffer":0,
			"byteLength":66240,
			"byteOffset":0,
			"target":34962
		},
		{
			"buffer":0,
			"byteLength":66240,
			"byteOffset":66240,
			"target":34962
		},
		{
			"buffer":0,
			"byteLength":44160,
			"byteOffset":132480,
			"target":34962
		},
		{
			"buffer":0,
			"byteLength":15840,
			"byteOffset":176640,
			"target":34963
		},
		{
			"buffer":0,
			"byteLength":1152,
			"byteOffset":192480,
			"target":34962
		},
		{
			"buffer":0,
			"byteLength":1152,
			"byteOffset":193632,
			"target":34962
		},
		{
			"buffer":0,
			"byteLength":768,
			"byteOffset":194784,
			"target":34962
		},
		{
			"buffer":0,
			"byteLength":360,
			"byteOffset":195552,
			"target":34963
		}
	],
	"buffers":[
		{
			"byteLength":195912,
			"uri":"model.bin"
		}
	]
}
