{
	"asset":{
		"generator":"Khronos glTF Blender I/O v4.2.70",
		"version":"2.0"
	},
	"scene":0,
	"scenes":[
		{
			"name":"Scene",
			"nodes":[
				0
			]
		}
	],
	"nodes":[
		{
			"mesh":0,
			"name":"coalScuttle"
		}
	],
	"materials":[
		{
			"doubleSided":true,
			"name":"iron",
			"pbrMetallicRoughness":{
				"baseColorFactor":[
					0.10999999940395355,
					0.10999999940395355,
					0.11999999731779099,
					1
				],
				"metallicFactor":0.8500000238418579,
				"roughnessFactor":0.44999998807907104
			}
		},
		{
			"doubleSided":true,
			"name":"brass",
			"pbrMetallicRoughness":{
				"baseColorFactor":[
					0.41999998688697815,
					0.30000001192092896,
					0.11999999731779099,
					1
				],
				"metallicFactor":0.8999999761581421,
				"roughnessFactor":0.3499999940395355
			}
		},
		{
			"doubleSided":true,
			"name":"wornleather",
			"pbrMetallicRoughness":{
				"baseColorFactor":[
					0.2800000011920929,
					0.18000000715255737,
					0.10999999940395355,
					1
				],
				"metallicFactor":0,
				"roughnessFactor":0.8500000238418579
			}
		},
		{
			"doubleSided":true,
			"name":"darkwood",
			"pbrMetallicRoughness":{
				"baseColorFactor":[
					0.1599999964237213,
					0.10000000149011612,
					0.07000000029802322,
					1
				],
				"metallicFactor":0,
				"roughnessFactor":0.699999988079071
			}
		}
	],
	"meshes":[
		{
			"name":"Cylinder",
			"primitives":[
				{
					"attributes":{
						"POSITION":0,
						"NORMAL":1,
						"TEXCOORD_0":2
					},
					"indices":3,
					"material":0
				},
				{
					"attributes":{
						"POSITION":4,
						"NORMAL":5,
						"TEXCOORD_0":6
					},
					"indices":7,
					"material":1
				},
				{
					"attributes":{
						"POSITION":8,
						"NORMAL":9,
						"TEXCOORD_0":10
					},
					"indices":11,
					"material":2
				},
				{
					"attributes":{
						"POSITION":12,
						"NORMAL":13,
						"TEXCOORD_0":14
					},
					"indices":15,
					"material":3
				}
			]
		}
	],
	"accessors":[
		{
			"bufferView":0,
			"componentType":5126,
			"count":396,
			"max":[
				0.28999999165534973,
				0.4962839186191559,
				0.2031433880329132
			],
			"min":[
				-0.1899999976158142,
				0.03500000014901161,
				-0.2031433880329132
			],
			"type":"VEC3"
		},
		{
			"bufferView":1,
			"componentType":5126,
			"count":396,
			"type":"VEC3"
		},
		{
			"bufferView":2,
			"componentType":5126,
			"count":396,
			"type":"VEC2"
		},
		{
			"bufferView":3,
			"componentType":5123,
			"count":660,
			"type":"SCALAR"
		},
		{
			"bufferView":4,
			"componentType":5126,
			"count":672,
			"max":[
				0.19900000095367432,
				0.588425874710083,
				0.2990952134132385
			],
			"min":[
				-0.19900000095367432,
				0.364376425743103,
				-0.13037699460983276
			],
			"type":"VEC3"
		},
		{
			"bufferView":5,
			"componentType":5126,
			"count":672,
			"type":"VEC3"
		},
		{
			"bufferView":6,
			"componentType":5126,
			"count":672,
			"type":"VEC2"
		},
		{
			"bufferView":7,
			"componentType":5123,
			"count":1032,
			"type":"SCALAR"
		},
		{
			"bufferView":8,
			"componentType":5126,
			"count":96,
			"max":[
				0.35061779618263245,
				0.6399999856948853,
				-0.0692136138677597
			],
			"min":[
				-0.014999999664723873,
				0.04806274175643921,
				-0.13499999046325684
			],
			"type":"VEC3"
		},
		{
			"bufferView":9,
			"componentType":5126,
			"count":96,
			"type":"VEC3"
		},
		{
			"bufferView":10,
			"componentType":5126,
			"count":96,
			"type":"VEC2"
		},
		{
			"bufferView":11,
			"componentType":5123,
			"count":168,
			"type":"SCALAR"
		},
		{
			"bufferView":12,
			"componentType":5126,
			"count":420,
			"max":[
				0.2091933786869049,
				0.5273944735527039,
				0.27827879786491394
			],
			"min":[
				-0.16024911403656006,
				-0.005000002682209015,
				0.011110801249742508
			],
			"type":"VEC3"
		},
		{
			"bufferView":13,
			"componentType":5126,
			"count":420,
			"type":"VEC3"
		},
		{
			"bufferView":14,
			"componentType":5126,
			"count":420,
			"type":"VEC2"
		},
		{
			"bufferView":15,
			"componentType":5123,
			"count":420,
			"type":"SCALAR"
		}
	],
	"bufferViews":[
		{
			"buffer":0,
			"byteLength":4752,
			"byteOffset":0,
			"target":34962
		},
		{
			"buffer":0,
			"byteLength":4752,
			"byteOffset":4752,
			"target":34962
		},
		{
			"buffer":0,
			"byteLength":3168,
			"byteOffset":9504,
			"target":34962
		},
		{
			"buffer":0,
			"byteLength":1320,
			"byteOffset":12672,
			"target":34963
		},
		{
			"buffer":0,
			"byteLength":8064,
			"byteOffset":13992,
			"target":34962
		},
		{
			"buffer":0,
			"byteLength":8064,
			"byteOffset":22056,
			"target":34962
		},
		{
			"buffer":0,
			"byteLength":5376,
			"byteOffset":30120,
			"target":34962
		},
		{
			"buffer":0,
			"byteLength":2064,
			"byteOffset":35496,
			"target":34963
		},
		{
			"buffer":0,
			"byteLength":1152,
			"byteOffset":37560,
			"target":34962
		},
		{
			"buffer":0,
			"byteLength":1152,
			"byteOffset":38712,
			"target":34962
		},
		{
			"buffer":0,
			"byteLength":768,
			"byteOffset":39864,
			"target":34962
		},
		{
			"buffer":0,
			"byteLength":336,
			"byteOffset":40632,
			"target":34963
		},
		{
			"buffer":0,
			"byteLength":5040,
			"byteOffset":40968,
			"target":34962
		},
		{
			"buffer":0,
			"byteLength":5040,
			"byteOffset":46008,
			"target":34962
		},
		{
			"buffer":0,
			"byteLength":3360,
			"byteOffset":51048,
			"target":34962
		},
		{
			"buffer":0,
			"byteLength":840,
			"byteOffset":54408,
			"target":34963
		}
	],
	"buffers":[
		{
			"byteLength":55248,
			"uri":"model.bin"
		}
	]
}
