{"asset": {"generator": "Khronos glTF Blender I/O v5.1.20", "version": "2.0"}, "scene": 0, "scenes": [{"name": "Scene", "nodes": [0]}], "nodes": [{"mesh": 0, "name": "pastic_torch_6v"}], "materials": [{"doubleSided": true, "name": "pastic_torch_6v", "normalTexture": {"index": 0}, "pbrMetallicRoughness": {"baseColorTexture": {"index": 1}, "metallicRoughnessTexture": {"index": 2}}}, {"alphaMode": "BLEND", "doubleSided": true, "name": "pastic_torch_6v_glass", "normalTexture": {"index": 3}, "pbrMetallicRoughness": {"baseColorTexture": {"index": 4}, "metallicRoughnessTexture": {"index": 5}}}], "meshes": [{"name": "Plane.020", "primitives": [{"attributes": {"POSITION": 0, "NORMAL": 1, "TEXCOORD_0": 2}, "indices": 3, "material": 0}, {"attributes": {"POSITION": 4, "NORMAL": 5, "TEXCOORD_0": 6}, "indices": 7, "material": 1}]}], "textures": [{"sampler": 0, "source": 0}, {"sampler": 0, "source": 1}, {"sampler": 0, "source": 2}, {"sampler": 0, "source": 0}, {"sampler": 0, "source": 3}, {"sampler": 0, "source": 2}], "images": [{"mimeType": "image/jpeg", "name": "pastic_torch_6v_nor_gl", "uri": "textures/pastic_torch_6v_nor_gl_1k.jpg"}, {"mimeType": "image/jpeg", "name": "pastic_torch_6v_diff", "uri": "textures/pastic_torch_6v_diff_1k.jpg"}, {"mimeType": "image/jpeg", "name": "pastic_torch_6v_metal-pastic_torch_6v_rough", "uri": "textures/pastic_torch_6v_arm_1k.jpg"}, {"mimeType": "image/jpeg", "name": "pastic_torch_6v_diff-pastic_torch_6v_alpha", "uri": "textures/pastic_torch_6v_diff_1k.jpg"}], "accessors": [{"bufferView": 0, "componentType": 5126, "count": 3153, "max": [0.06866718828678131, 0.07132820785045624, 0.12877249717712402], "min": [-0.06825254112482071, -0.07038158178329468, -0.09544558078050613], "type": "VEC3"}, {"bufferView": 1, "componentType": 5126, "count": 3153, "type": "VEC3"}, {"bufferView": 2, "componentType": 5126, "count": 3153, "type": "VEC2"}, {"bufferView": 3, "componentType": 5123, "count": 12393, "type": "SCALAR"}, {"bufferView": 4, "componentType": 5126, "count": 158, "max": [0.06015191599726677, 0.0596882626414299, 0.12768606841564178], "min": [-0.06054410710930824, -0.06163744628429413, 0.09189540892839432], "type": "VEC3"}, {"bufferView": 5, "componentType": 5126, "count": 158, "type": "VEC3"}, {"bufferView": 6, "componentType": 5126, "count": 158, "type": "VEC2"}, {"bufferView": 7, "componentType": 5123, "count": 663, "type": "SCALAR"}], "bufferViews": [{"buffer": 0, "byteLength": 37836, "byteOffset": 0, "target": 34962}, {"buffer": 0, "byteLength": 37836, "byteOffset": 37836, "target": 34962}, {"buffer": 0, "byteLength": 25224, "byteOffset": 75672, "target": 34962}, {"buffer": 0, "byteLength": 24786, "byteOffset": 100896, "target": 34963}, {"buffer": 0, "byteLength": 1896, "byteOffset": 125684, "target": 34962}, {"buffer": 0, "byteLength": 1896, "byteOffset": 127580, "target": 34962}, {"buffer": 0, "byteLength": 1264, "byteOffset": 129476, "target": 34962}, {"buffer": 0, "byteLength": 1326, "byteOffset": 130740, "target": 34963}], "samplers": [{"magFilter": 9729, "minFilter": 9987}], "buffers": [{"byteLength": 132068, "uri": "pastic_torch_6v.bin"}]}