{
	"asset":{
		"generator":"Khronos glTF Blender I/O v4.0.44",
		"version":"2.0"
	},
	"scene":0,
	"scenes":[
		{
			"name":"Scene",
			"nodes":[
				0
			]
		}
	],
	"nodes":[
		{
			"mesh":0,
			"name":"teaTrolley"
		}
	],
	"materials":[
		{
			"doubleSided":true,
			"name":"oakwood",
			"pbrMetallicRoughness":{
				"baseColorFactor":[
					0.3199999928474426,
					0.2199999988079071,
					0.12999999523162842,
					1
				],
				"metallicFactor":0,
				"roughnessFactor":0.800000011920929
			}
		},
		{
			"doubleSided":true,
			"name":"wornleather",
			"pbrMetallicRoughness":{
				"baseColorFactor":[
					0.2800000011920929,
					0.18000000715255737,
					0.10999999940395355,
					1
				],
				"metallicFactor":0,
				"roughnessFactor":0.8500000238418579
			}
		},
		{
			"doubleSided":true,
			"name":"brass",
			"pbrMetallicRoughness":{
				"baseColorFactor":[
					0.41999998688697815,
					0.30000001192092896,
					0.11999999731779099,
					1
				],
				"metallicFactor":0.8999999761581421,
				"roughnessFactor":0.3499999940395355
			}
		},
		{
			"doubleSided":true,
			"name":"iron",
			"pbrMetallicRoughness":{
				"baseColorFactor":[
					0.10999999940395355,
					0.10999999940395355,
					0.11999999731779099,
					1
				],
				"metallicFactor":0.8500000238418579,
				"roughnessFactor":0.44999998807907104
			}
		}
	],
	"meshes":[
		{
			"name":"Cube",
			"primitives":[
				{
					"attributes":{
						"POSITION":0,
						"NORMAL":1,
						"TEXCOORD_0":2
					},
					"indices":3,
					"material":0
				},
				{
					"attributes":{
						"POSITION":4,
						"NORMAL":5,
						"TEXCOORD_0":6
					},
					"indices":7,
					"material":1
				},
				{
					"attributes":{
						"POSITION":8,
						"NORMAL":9,
						"TEXCOORD_0":10
					},
					"indices":11,
					"material":2
				},
				{
					"attributes":{
						"POSITION":12,
						"NORMAL":13,
						"TEXCOORD_0":14
					},
					"indices":15,
					"material":3
				}
			]
		}
	],
	"accessors":[
		{
			"bufferView":0,
			"componentType":5126,
			"count":432,
			"max":[
				0.44999998807907104,
				0.79749995470047,
				0.2750000059604645
			],
			"min":[
				-0.44999998807907104,
				0.2824999988079071,
				-0.2750000059604645
			],
			"type":"VEC3"
		},
		{
			"bufferView":1,
			"componentType":5126,
			"count":432,
			"type":"VEC3"
		},
		{
			"bufferView":2,
			"componentType":5126,
			"count":432,
			"type":"VEC2"
		},
		{
			"bufferView":3,
			"componentType":5123,
			"count":648,
			"type":"SCALAR"
		},
		{
			"bufferView":4,
			"componentType":5126,
			"count":1728,
			"max":[
				0.44999998807907104,
				0.8330000042915344,
				0.2750000059604645
			],
			"min":[
				-0.44999998807907104,
				0.30300000309944153,
				-0.2750000059604645
			],
			"type":"VEC3"
		},
		{
			"bufferView":5,
			"componentType":5126,
			"count":1728,
			"type":"VEC3"
		},
		{
			"bufferView":6,
			"componentType":5126,
			"count":1728,
			"type":"VEC2"
		},
		{
			"bufferView":7,
			"componentType":5123,
			"count":2592,
			"type":"SCALAR"
		},
		{
			"bufferView":8,
			"componentType":5126,
			"count":432,
			"max":[
				0.4950000047683716,
				1.0886166095733643,
				0.30799999833106995
			],
			"min":[
				-0.4950000047683716,
				0.03999999165534973,
				-0.2590000033378601
			],
			"type":"VEC3"
		},
		{
			"bufferView":9,
			"componentType":5126,
			"count":432,
			"type":"VEC3"
		},
		{
			"bufferView":10,
			"componentType":5126,
			"count":432,
			"type":"VEC2"
		},
		{
			"bufferView":11,
			"componentType":5123,
			"count":756,
			"type":"SCALAR"
		},
		{
			"bufferView":12,
			"componentType":5126,
			"count":1928,
			"max":[
				0.48399999737739563,
				0.26899999380111694,
				0.34204021096229553
			],
			"min":[
				-0.48399999737739563,
				0.004999998956918716,
				-0.26999998092651367
			],
			"type":"VEC3"
		},
		{
			"bufferView":13,
			"componentType":5126,
			"count":1928,
			"type":"VEC3"
		},
		{
			"bufferView":14,
			"componentType":5126,
			"count":1928,
			"type":"VEC2"
		},
		{
			"bufferView":15,
			"componentType":5123,
			"count":2892,
			"type":"SCALAR"
		}
	],
	"bufferViews":[
		{
			"buffer":0,
			"byteLength":5184,
			"byteOffset":0,
			"target":34962
		},
		{
			"buffer":0,
			"byteLength":5184,
			"byteOffset":5184,
			"target":34962
		},
		{
			"buffer":0,
			"byteLength":3456,
			"byteOffset":10368,
			"target":34962
		},
		{
			"buffer":0,
			"byteLength":1296,
			"byteOffset":13824,
			"target":34963
		},
		{
			"buffer":0,
			"byteLength":20736,
			"byteOffset":15120,
			"target":34962
		},
		{
			"buffer":0,
			"byteLength":20736,
			"byteOffset":35856,
			"target":34962
		},
		{
			"buffer":0,
			"byteLength":13824,
			"byteOffset":56592,
			"target":34962
		},
		{
			"buffer":0,
			"byteLength":5184,
			"byteOffset":70416,
			"target":34963
		},
		{
			"buffer":0,
			"byteLength":5184,
			"byteOffset":75600,
			"target":34962
		},
		{
			"buffer":0,
			"byteLength":5184,
			"byteOffset":80784,
			"target":34962
		},
		{
			"buffer":0,
			"byteLength":3456,
			"byteOffset":85968,
			"target":34962
		},
		{
			"buffer":0,
			"byteLength":1512,
			"byteOffset":89424,
			"target":34963
		},
		{
			"buffer":0,
			"byteLength":23136,
			"byteOffset":90936,
			"target":34962
		},
		{
			"buffer":0,
			"byteLength":23136,
			"byteOffset":114072,
			"target":34962
		},
		{
			"buffer":0,
			"byteLength":15424,
			"byteOffset":137208,
			"target":34962
		},
		{
			"buffer":0,
			"byteLength":5784,
			"byteOffset":152632,
			"target":34963
		}
	],
	"buffers":[
		{
			"byteLength":158416,
			"uri":"model.bin"
		}
	]
}
