{
	"asset":{
		"generator":"Khronos glTF Blender I/O v4.2.83",
		"version":"2.0"
	},
	"scene":0,
	"scenes":[
		{
			"name":"Scene",
			"nodes":[
				0
			]
		}
	],
	"nodes":[
		{
			"mesh":0,
			"name":"wardrobe"
		}
	],
	"materials":[
		{
			"doubleSided":true,
			"name":"oakwood",
			"pbrMetallicRoughness":{
				"baseColorFactor":[
					0.3199999928474426,
					0.2199999988079071,
					0.12999999523162842,
					1
				],
				"metallicFactor":0,
				"roughnessFactor":0.800000011920929
			}
		},
		{
			"doubleSided":true,
			"name":"darkwood",
			"pbrMetallicRoughness":{
				"baseColorFactor":[
					0.1599999964237213,
					0.10000000149011612,
					0.07000000029802322,
					1
				],
				"metallicFactor":0,
				"roughnessFactor":0.699999988079071
			}
		},
		{
			"doubleSided":true,
			"name":"iron",
			"pbrMetallicRoughness":{
				"baseColorFactor":[
					0.10999999940395355,
					0.10999999940395355,
					0.11999999731779099,
					1
				],
				"metallicFactor":0.8500000238418579,
				"roughnessFactor":0.44999998807907104
			}
		}
	],
	"meshes":[
		{
			"name":"Cube",
			"primitives":[
				{
					"attributes":{
						"POSITION":0,
						"NORMAL":1,
						"TEXCOORD_0":2
					},
					"indices":3,
					"material":0
				},
				{
					"attributes":{
						"POSITION":4,
						"NORMAL":5,
						"TEXCOORD_0":6
					},
					"indices":7,
					"material":1
				},
				{
					"attributes":{
						"POSITION":8,
						"NORMAL":9,
						"TEXCOORD_0":10
					},
					"indices":11,
					"material":2
				}
			]
		}
	],
	"accessors":[
		{
			"bufferView":0,
			"componentType":5126,
			"count":1960,
			"max":[
				0.699999988079071,
				2.1599998474121094,
				0.3499999940395355
			],
			"min":[
				-0.699999988079071,
				-0.004999998956918716,
				-0.3499999940395355
			],
			"type":"VEC3"
		},
		{
			"bufferView":1,
			"componentType":5126,
			"count":1960,
			"type":"VEC3"
		},
		{
			"bufferView":2,
			"componentType":5126,
			"count":1960,
			"type":"VEC2"
		},
		{
			"bufferView":3,
			"componentType":5123,
			"count":2820,
			"type":"SCALAR"
		},
		{
			"bufferView":4,
			"componentType":5126,
			"count":864,
			"max":[
				0.5600000023841858,
				1.899999976158142,
				0.3374999761581421
			],
			"min":[
				-0.5600000023841858,
				0.24000000953674316,
				0.3125
			],
			"type":"VEC3"
		},
		{
			"bufferView":5,
			"componentType":5126,
			"count":864,
			"type":"VEC3"
		},
		{
			"bufferView":6,
			"componentType":5126,
			"count":864,
			"type":"VEC2"
		},
		{
			"bufferView":7,
			"componentType":5123,
			"count":1296,
			"type":"SCALAR"
		},
		{
			"bufferView":8,
			"componentType":5126,
			"count":96,
			"max":[
				0.08799999952316284,
				1.0180000066757202,
				0.3400000035762787
			],
			"min":[
				-0.08799999952316284,
				0.9819999933242798,
				0.320000022649765
			],
			"type":"VEC3"
		},
		{
			"bufferView":9,
			"componentType":5126,
			"count":96,
			"type":"VEC3"
		},
		{
			"bufferView":10,
			"componentType":5126,
			"count":96,
			"type":"VEC2"
		},
		{
			"bufferView":11,
			"componentType":5123,
			"count":168,
			"type":"SCALAR"
		}
	],
	"bufferViews":[
		{
			"buffer":0,
			"byteLength":23520,
			"byteOffset":0,
			"target":34962
		},
		{
			"buffer":0,
			"byteLength":23520,
			"byteOffset":23520,
			"target":34962
		},
		{
			"buffer":0,
			"byteLength":15680,
			"byteOffset":47040,
			"target":34962
		},
		{
			"buffer":0,
			"byteLength":5640,
			"byteOffset":62720,
			"target":34963
		},
		{
			"buffer":0,
			"byteLength":10368,
			"byteOffset":68360,
			"target":34962
		},
		{
			"buffer":0,
			"byteLength":10368,
			"byteOffset":78728,
			"target":34962
		},
		{
			"buffer":0,
			"byteLength":6912,
			"byteOffset":89096,
			"target":34962
		},
		{
			"buffer":0,
			"byteLength":2592,
			"byteOffset":96008,
			"target":34963
		},
		{
			"buffer":0,
			"byteLength":1152,
			"byteOffset":98600,
			"target":34962
		},
		{
			"buffer":0,
			"byteLength":1152,
			"byteOffset":99752,
			"target":34962
		},
		{
			"buffer":0,
			"byteLength":768,
			"byteOffset":100904,
			"target":34962
		},
		{
			"buffer":0,
			"byteLength":336,
			"byteOffset":101672,
			"target":34963
		}
	],
	"buffers":[
		{
			"byteLength":102008,
			"uri":"model.bin"
		}
	]
}
