{
	"asset":{
		"generator":"Khronos glTF Blender I/O v4.0.44",
		"version":"2.0"
	},
	"scene":0,
	"scenes":[
		{
			"name":"Scene",
			"nodes":[
				0
			]
		}
	],
	"nodes":[
		{
			"mesh":0,
			"name":"pegRail"
		}
	],
	"materials":[
		{
			"doubleSided":true,
			"name":"oakwood",
			"pbrMetallicRoughness":{
				"baseColorFactor":[
					0.3199999928474426,
					0.2199999988079071,
					0.12999999523162842,
					1
				],
				"metallicFactor":0,
				"roughnessFactor":0.800000011920929
			}
		},
		{
			"doubleSided":true,
			"name":"wornleather",
			"pbrMetallicRoughness":{
				"baseColorFactor":[
					0.2800000011920929,
					0.18000000715255737,
					0.10999999940395355,
					1
				],
				"metallicFactor":0,
				"roughnessFactor":0.8500000238418579
			}
		},
		{
			"doubleSided":true,
			"name":"iron",
			"pbrMetallicRoughness":{
				"baseColorFactor":[
					0.10999999940395355,
					0.10999999940395355,
					0.11999999731779099,
					1
				],
				"metallicFactor":0.8500000238418579,
				"roughnessFactor":0.44999998807907104
			}
		},
		{
			"doubleSided":true,
			"name":"bookcloth",
			"pbrMetallicRoughness":{
				"baseColorFactor":[
					0.20000000298023224,
					0.23999999463558197,
					0.20000000298023224,
					1
				],
				"metallicFactor":0,
				"roughnessFactor":0.8999999761581421
			}
		}
	],
	"meshes":[
		{
			"name":"Cube",
			"primitives":[
				{
					"attributes":{
						"POSITION":0,
						"NORMAL":1,
						"TEXCOORD_0":2
					},
					"indices":3,
					"material":0
				},
				{
					"attributes":{
						"POSITION":4,
						"NORMAL":5,
						"TEXCOORD_0":6
					},
					"indices":7,
					"material":1
				},
				{
					"attributes":{
						"POSITION":8,
						"NORMAL":9,
						"TEXCOORD_0":10
					},
					"indices":11,
					"material":2
				},
				{
					"attributes":{
						"POSITION":12,
						"NORMAL":13,
						"TEXCOORD_0":14
					},
					"indices":15,
					"material":3
				}
			]
		}
	],
	"accessors":[
		{
			"bufferView":0,
			"componentType":5126,
			"count":216,
			"max":[
				0.5,
				0.07999999821186066,
				0.019999999552965164
			],
			"min":[
				-0.5,
				-0.07999999821186066,
				-0.019999999552965164
			],
			"type":"VEC3"
		},
		{
			"bufferView":1,
			"componentType":5126,
			"count":216,
			"type":"VEC3"
		},
		{
			"bufferView":2,
			"componentType":5126,
			"count":216,
			"type":"VEC2"
		},
		{
			"bufferView":3,
			"componentType":5123,
			"count":324,
			"type":"SCALAR"
		},
		{
			"bufferView":4,
			"componentType":5126,
			"count":432,
			"max":[
				0.5099999904632568,
				0.10500000417232513,
				0.12000000476837158
			],
			"min":[
				-0.5099999904632568,
				-0.09999999403953552,
				-0.019999999552965164
			],
			"type":"VEC3"
		},
		{
			"bufferView":5,
			"componentType":5126,
			"count":432,
			"type":"VEC3"
		},
		{
			"bufferView":6,
			"componentType":5126,
			"count":432,
			"type":"VEC2"
		},
		{
			"bufferView":7,
			"componentType":5123,
			"count":648,
			"type":"SCALAR"
		},
		{
			"bufferView":8,
			"componentType":5126,
			"count":1120,
			"max":[
				0.39899998903274536,
				-0.0010000001639127731,
				0.1340000033378601
			],
			"min":[
				-0.39899998903274536,
				-0.038999997079372406,
				-0.009999997913837433
			],
			"type":"VEC3"
		},
		{
			"bufferView":9,
			"componentType":5126,
			"count":1120,
			"type":"VEC3"
		},
		{
			"bufferView":10,
			"componentType":5126,
			"count":1120,
			"type":"VEC2"
		},
		{
			"bufferView":11,
			"componentType":5123,
			"count":1620,
			"type":"SCALAR"
		},
		{
			"bufferView":12,
			"componentType":5126,
			"count":216,
			"max":[
				0.27590999007225037,
				-0.030000001192092896,
				0.17378172278404236
			],
			"min":[
				-0.026214079931378365,
				-0.6499999761581421,
				0.013973336666822433
			],
			"type":"VEC3"
		},
		{
			"bufferView":13,
			"componentType":5126,
			"count":216,
			"type":"VEC3"
		},
		{
			"bufferView":14,
			"componentType":5126,
			"count":216,
			"type":"VEC2"
		},
		{
			"bufferView":15,
			"componentType":5123,
			"count":324,
			"type":"SCALAR"
		}
	],
	"bufferViews":[
		{
			"buffer":0,
			"byteLength":2592,
			"byteOffset":0,
			"target":34962
		},
		{
			"buffer":0,
			"byteLength":2592,
			"byteOffset":2592,
			"target":34962
		},
		{
			"buffer":0,
			"byteLength":1728,
			"byteOffset":5184,
			"target":34962
		},
		{
			"buffer":0,
			"byteLength":648,
			"byteOffset":6912,
			"target":34963
		},
		{
			"buffer":0,
			"byteLength":5184,
			"byteOffset":7560,
			"target":34962
		},
		{
			"buffer":0,
			"byteLength":5184,
			"byteOffset":12744,
			"target":34962
		},
		{
			"buffer":0,
			"byteLength":3456,
			"byteOffset":17928,
			"target":34962
		},
		{
			"buffer":0,
			"byteLength":1296,
			"byteOffset":21384,
			"target":34963
		},
		{
			"buffer":0,
			"byteLength":13440,
			"byteOffset":22680,
			"target":34962
		},
		{
			"buffer":0,
			"byteLength":13440,
			"byteOffset":36120,
			"target":34962
		},
		{
			"buffer":0,
			"byteLength":8960,
			"byteOffset":49560,
			"target":34962
		},
		{
			"buffer":0,
			"byteLength":3240,
			"byteOffset":58520,
			"target":34963
		},
		{
			"buffer":0,
			"byteLength":2592,
			"byteOffset":61760,
			"target":34962
		},
		{
			"buffer":0,
			"byteLength":2592,
			"byteOffset":64352,
			"target":34962
		},
		{
			"buffer":0,
			"byteLength":1728,
			"byteOffset":66944,
			"target":34962
		},
		{
			"buffer":0,
			"byteLength":648,
			"byteOffset":68672,
			"target":34963
		}
	],
	"buffers":[
		{
			"byteLength":69320,
			"uri":"model.bin"
		}
	]
}
