{
	"asset":{
		"generator":"Khronos glTF Blender I/O v4.2.70",
		"version":"2.0"
	},
	"scene":0,
	"scenes":[
		{
			"name":"Scene",
			"nodes":[
				0
			]
		}
	],
	"nodes":[
		{
			"mesh":0,
			"name":"candelabra",
			"translation":[
				0,
				0.029999999329447746,
				0
			]
		}
	],
	"materials":[
		{
			"doubleSided":true,
			"name":"brass",
			"pbrMetallicRoughness":{
				"baseColorFactor":[
					0.41999998688697815,
					0.30000001192092896,
					0.11999999731779099,
					1
				],
				"metallicFactor":0.8999999761581421,
				"roughnessFactor":0.3499999940395355
			}
		},
		{
			"doubleSided":true,
			"name":"stone",
			"pbrMetallicRoughness":{
				"baseColorFactor":[
					0.41999998688697815,
					0.3799999952316284,
					0.33000001311302185,
					1
				],
				"metallicFactor":0,
				"roughnessFactor":0.8500000238418579
			}
		}
	],
	"meshes":[
		{
			"name":"Cylinder",
			"primitives":[
				{
					"attributes":{
						"POSITION":0,
						"NORMAL":1,
						"TEXCOORD_0":2
					},
					"indices":3,
					"material":0
				},
				{
					"attributes":{
						"POSITION":4,
						"NORMAL":5,
						"TEXCOORD_0":6
					},
					"indices":7,
					"material":1
				}
			]
		}
	],
	"accessors":[
		{
			"bufferView":0,
			"componentType":5126,
			"count":1428,
			"max":[
				0.20668843388557434,
				1.524999976158142,
				0.18356406688690186
			],
			"min":[
				-0.15756922960281372,
				-0.041147440671920776,
				-0.18356406688690186
			],
			"type":"VEC3"
		},
		{
			"bufferView":1,
			"componentType":5126,
			"count":1428,
			"type":"VEC3"
		},
		{
			"bufferView":2,
			"componentType":5126,
			"count":1428,
			"type":"VEC2"
		},
		{
			"bufferView":3,
			"componentType":5123,
			"count":2448,
			"type":"SCALAR"
		},
		{
			"bufferView":4,
			"componentType":5126,
			"count":192,
			"max":[
				0.17299999296665192,
				1.6100000143051147,
				0.15156406164169312
			],
			"min":[
				-0.09299999475479126,
				1.475000023841858,
				-0.15156406164169312
			],
			"type":"VEC3"
		},
		{
			"bufferView":5,
			"componentType":5126,
			"count":192,
			"type":"VEC3"
		},
		{
			"bufferView":6,
			"componentType":5126,
			"count":192,
			"type":"VEC2"
		},
		{
			"bufferView":7,
			"componentType":5123,
			"count":336,
			"type":"SCALAR"
		}
	],
	"bufferViews":[
		{
			"buffer":0,
			"byteLength":17136,
			"byteOffset":0,
			"target":34962
		},
		{
			"buffer":0,
			"byteLength":17136,
			"byteOffset":17136,
			"target":34962
		},
		{
			"buffer":0,
			"byteLength":11424,
			"byteOffset":34272,
			"target":34962
		},
		{
			"buffer":0,
			"byteLength":4896,
			"byteOffset":45696,
			"target":34963
		},
		{
			"buffer":0,
			"byteLength":2304,
			"byteOffset":50592,
			"target":34962
		},
		{
			"buffer":0,
			"byteLength":2304,
			"byteOffset":52896,
			"target":34962
		},
		{
			"buffer":0,
			"byteLength":1536,
			"byteOffset":55200,
			"target":34962
		},
		{
			"buffer":0,
			"byteLength":672,
			"byteOffset":56736,
			"target":34963
		}
	],
	"buffers":[
		{
			"byteLength":57408,
			"uri":"model.bin"
		}
	]
}
