{
	"asset":{
		"generator":"Khronos glTF Blender I/O v4.2.70",
		"version":"2.0"
	},
	"scene":0,
	"scenes":[
		{
			"name":"Scene",
			"nodes":[
				0
			]
		}
	],
	"nodes":[
		{
			"mesh":0,
			"name":"keyRack"
		}
	],
	"materials":[
		{
			"doubleSided":true,
			"name":"oakwood",
			"pbrMetallicRoughness":{
				"baseColorFactor":[
					0.3199999928474426,
					0.2199999988079071,
					0.12999999523162842,
					1
				],
				"metallicFactor":0,
				"roughnessFactor":0.800000011920929
			}
		},
		{
			"doubleSided":true,
			"name":"wornleather",
			"pbrMetallicRoughness":{
				"baseColorFactor":[
					0.2800000011920929,
					0.18000000715255737,
					0.10999999940395355,
					1
				],
				"metallicFactor":0,
				"roughnessFactor":0.8500000238418579
			}
		},
		{
			"doubleSided":true,
			"name":"bookcloth",
			"pbrMetallicRoughness":{
				"baseColorFactor":[
					0.20000000298023224,
					0.23999999463558197,
					0.20000000298023224,
					1
				],
				"metallicFactor":0,
				"roughnessFactor":0.8999999761581421
			}
		},
		{
			"doubleSided":true,
			"name":"iron",
			"pbrMetallicRoughness":{
				"baseColorFactor":[
					0.10999999940395355,
					0.10999999940395355,
					0.11999999731779099,
					1
				],
				"metallicFactor":0.8500000238418579,
				"roughnessFactor":0.44999998807907104
			}
		}
	],
	"meshes":[
		{
			"name":"Cube",
			"primitives":[
				{
					"attributes":{
						"POSITION":0,
						"NORMAL":1,
						"TEXCOORD_0":2
					},
					"indices":3,
					"material":0
				},
				{
					"attributes":{
						"POSITION":4,
						"NORMAL":5,
						"TEXCOORD_0":6
					},
					"indices":7,
					"material":1
				},
				{
					"attributes":{
						"POSITION":8,
						"NORMAL":9,
						"TEXCOORD_0":10
					},
					"indices":11,
					"material":2
				},
				{
					"attributes":{
						"POSITION":12,
						"NORMAL":13,
						"TEXCOORD_0":14
					},
					"indices":15,
					"material":3
				}
			]
		}
	],
	"accessors":[
		{
			"bufferView":0,
			"componentType":5126,
			"count":1080,
			"max":[
				1.2000000476837158,
				1.600000023841858,
				0.10999999940395355
			],
			"min":[
				-1.2000000476837158,
				0,
				-0.10999999940395355
			],
			"type":"VEC3"
		},
		{
			"bufferView":1,
			"componentType":5126,
			"count":1080,
			"type":"VEC3"
		},
		{
			"bufferView":2,
			"componentType":5126,
			"count":1080,
			"type":"VEC2"
		},
		{
			"bufferView":3,
			"componentType":5123,
			"count":1620,
			"type":"SCALAR"
		},
		{
			"bufferView":4,
			"componentType":5126,
			"count":2160,
			"max":[
				1.149999976158142,
				1.5499999523162842,
				0.0949999988079071
			],
			"min":[
				-1.149999976158142,
				0.050000011920928955,
				-0.0949999988079071
			],
			"type":"VEC3"
		},
		{
			"bufferView":5,
			"componentType":5126,
			"count":2160,
			"type":"VEC3"
		},
		{
			"bufferView":6,
			"componentType":5126,
			"count":2160,
			"type":"VEC2"
		},
		{
			"bufferView":7,
			"componentType":5123,
			"count":3240,
			"type":"SCALAR"
		},
		{
			"bufferView":8,
			"componentType":5126,
			"count":2376,
			"max":[
				0.7839375138282776,
				1.3292499780654907,
				-0.01249999925494194
			],
			"min":[
				-1.0664374828338623,
				0.12475000321865082,
				-0.027499999850988388
			],
			"type":"VEC3"
		},
		{
			"bufferView":9,
			"componentType":5126,
			"count":2376,
			"type":"VEC3"
		},
		{
			"bufferView":10,
			"componentType":5126,
			"count":2376,
			"type":"VEC2"
		},
		{
			"bufferView":11,
			"componentType":5123,
			"count":3564,
			"type":"SCALAR"
		},
		{
			"bufferView":12,
			"componentType":5126,
			"count":216,
			"max":[
				1.2300000190734863,
				1.6449999809265137,
				0.125
			],
			"min":[
				-1.2300000190734863,
				1.5950000286102295,
				-0.125
			],
			"type":"VEC3"
		},
		{
			"bufferView":13,
			"componentType":5126,
			"count":216,
			"type":"VEC3"
		},
		{
			"bufferView":14,
			"componentType":5126,
			"count":216,
			"type":"VEC2"
		},
		{
			"bufferView":15,
			"componentType":5123,
			"count":324,
			"type":"SCALAR"
		}
	],
	"bufferViews":[
		{
			"buffer":0,
			"byteLength":12960,
			"byteOffset":0,
			"target":34962
		},
		{
			"buffer":0,
			"byteLength":12960,
			"byteOffset":12960,
			"target":34962
		},
		{
			"buffer":0,
			"byteLength":8640,
			"byteOffset":25920,
			"target":34962
		},
		{
			"buffer":0,
			"byteLength":3240,
			"byteOffset":34560,
			"target":34963
		},
		{
			"buffer":0,
			"byteLength":25920,
			"byteOffset":37800,
			"target":34962
		},
		{
			"buffer":0,
			"byteLength":25920,
			"byteOffset":63720,
			"target":34962
		},
		{
			"buffer":0,
			"byteLength":17280,
			"byteOffset":89640,
			"target":34962
		},
		{
			"buffer":0,
			"byteLength":6480,
			"byteOffset":106920,
			"target":34963
		},
		{
			"buffer":0,
			"byteLength":28512,
			"byteOffset":113400,
			"target":34962
		},
		{
			"buffer":0,
			"byteLength":28512,
			"byteOffset":141912,
			"target":34962
		},
		{
			"buffer":0,
			"byteLength":19008,
			"byteOffset":170424,
			"target":34962
		},
		{
			"buffer":0,
			"byteLength":7128,
			"byteOffset":189432,
			"target":34963
		},
		{
			"buffer":0,
			"byteLength":2592,
			"byteOffset":196560,
			"target":34962
		},
		{
			"buffer":0,
			"byteLength":2592,
			"byteOffset":199152,
			"target":34962
		},
		{
			"buffer":0,
			"byteLength":1728,
			"byteOffset":201744,
			"target":34962
		},
		{
			"buffer":0,
			"byteLength":648,
			"byteOffset":203472,
			"target":34963
		}
	],
	"buffers":[
		{
			"byteLength":204120,
			"uri":"model.bin"
		}
	]
}
