{
	"asset":{
		"generator":"Khronos glTF Blender I/O v4.0.44",
		"version":"2.0"
	},
	"scene":0,
	"scenes":[
		{
			"name":"Scene",
			"nodes":[
				0
			]
		}
	],
	"nodes":[
		{
			"mesh":0,
			"name":"newelPost"
		}
	],
	"materials":[
		{
			"doubleSided":true,
			"name":"darkwood",
			"pbrMetallicRoughness":{
				"baseColorFactor":[
					0.1599999964237213,
					0.10000000149011612,
					0.07000000029802322,
					1
				],
				"metallicFactor":0,
				"roughnessFactor":0.699999988079071
			}
		},
		{
			"doubleSided":true,
			"name":"oakwood",
			"pbrMetallicRoughness":{
				"baseColorFactor":[
					0.3199999928474426,
					0.2199999988079071,
					0.12999999523162842,
					1
				],
				"metallicFactor":0,
				"roughnessFactor":0.800000011920929
			}
		},
		{
			"doubleSided":true,
			"name":"brass",
			"pbrMetallicRoughness":{
				"baseColorFactor":[
					0.41999998688697815,
					0.30000001192092896,
					0.11999999731779099,
					1
				],
				"metallicFactor":0.8999999761581421,
				"roughnessFactor":0.3499999940395355
			}
		}
	],
	"meshes":[
		{
			"name":"Cube",
			"primitives":[
				{
					"attributes":{
						"POSITION":0,
						"NORMAL":1,
						"TEXCOORD_0":2
					},
					"indices":3,
					"material":0
				},
				{
					"attributes":{
						"POSITION":4,
						"NORMAL":5,
						"TEXCOORD_0":6
					},
					"indices":7,
					"material":1
				},
				{
					"attributes":{
						"POSITION":8,
						"NORMAL":9,
						"TEXCOORD_0":10
					},
					"indices":11,
					"material":2
				}
			]
		}
	],
	"accessors":[
		{
			"bufferView":0,
			"componentType":5126,
			"count":432,
			"max":[
				0.10999999940395355,
				0.9750000238418579,
				0.10999999940395355
			],
			"min":[
				-0.10999999940395355,
				0,
				-0.10999999940395355
			],
			"type":"VEC3"
		},
		{
			"bufferView":1,
			"componentType":5126,
			"count":432,
			"type":"VEC3"
		},
		{
			"bufferView":2,
			"componentType":5126,
			"count":432,
			"type":"VEC2"
		},
		{
			"bufferView":3,
			"componentType":5123,
			"count":648,
			"type":"SCALAR"
		},
		{
			"bufferView":4,
			"componentType":5126,
			"count":504,
			"max":[
				0.07500000298023224,
				0.8799999952316284,
				0.07500000298023224
			],
			"min":[
				-0.07500000298023224,
				0.11999999731779099,
				-0.07500000298023224
			],
			"type":"VEC3"
		},
		{
			"bufferView":5,
			"componentType":5126,
			"count":504,
			"type":"VEC3"
		},
		{
			"bufferView":6,
			"componentType":5126,
			"count":504,
			"type":"VEC2"
		},
		{
			"bufferView":7,
			"componentType":5123,
			"count":924,
			"type":"SCALAR"
		},
		{
			"bufferView":8,
			"componentType":5126,
			"count":456,
			"max":[
				0.06999999284744263,
				1.1200000047683716,
				0.06999999284744263
			],
			"min":[
				-0.06999999284744263,
				0.9799999594688416,
				-0.06999999284744263
			],
			"type":"VEC3"
		},
		{
			"bufferView":9,
			"componentType":5126,
			"count":456,
			"type":"VEC3"
		},
		{
			"bufferView":10,
			"componentType":5126,
			"count":456,
			"type":"VEC2"
		},
		{
			"bufferView":11,
			"componentType":5123,
			"count":648,
			"type":"SCALAR"
		}
	],
	"bufferViews":[
		{
			"buffer":0,
			"byteLength":5184,
			"byteOffset":0,
			"target":34962
		},
		{
			"buffer":0,
			"byteLength":5184,
			"byteOffset":5184,
			"target":34962
		},
		{
			"buffer":0,
			"byteLength":3456,
			"byteOffset":10368,
			"target":34962
		},
		{
			"buffer":0,
			"byteLength":1296,
			"byteOffset":13824,
			"target":34963
		},
		{
			"buffer":0,
			"byteLength":6048,
			"byteOffset":15120,
			"target":34962
		},
		{
			"buffer":0,
			"byteLength":6048,
			"byteOffset":21168,
			"target":34962
		},
		{
			"buffer":0,
			"byteLength":4032,
			"byteOffset":27216,
			"target":34962
		},
		{
			"buffer":0,
			"byteLength":1848,
			"byteOffset":31248,
			"target":34963
		},
		{
			"buffer":0,
			"byteLength":5472,
			"byteOffset":33096,
			"target":34962
		},
		{
			"buffer":0,
			"byteLength":5472,
			"byteOffset":38568,
			"target":34962
		},
		{
			"buffer":0,
			"byteLength":3648,
			"byteOffset":44040,
			"target":34962
		},
		{
			"buffer":0,
			"byteLength":1296,
			"byteOffset":47688,
			"target":34963
		}
	],
	"buffers":[
		{
			"byteLength":48984,
			"uri":"model.bin"
		}
	]
}
