{
	"asset":{
		"generator":"Khronos glTF Blender I/O v4.0.44",
		"version":"2.0"
	},
	"scene":0,
	"scenes":[
		{
			"name":"Scene",
			"nodes":[
				0
			]
		}
	],
	"nodes":[
		{
			"mesh":0,
			"name":"printer"
		}
	],
	"materials":[
		{
			"doubleSided":true,
			"name":"iron",
			"pbrMetallicRoughness":{
				"baseColorFactor":[
					0.10999999940395355,
					0.10999999940395355,
					0.11999999731779099,
					1
				],
				"metallicFactor":0.8500000238418579,
				"roughnessFactor":0.44999998807907104
			}
		},
		{
			"doubleSided":true,
			"name":"darkwood",
			"pbrMetallicRoughness":{
				"baseColorFactor":[
					0.1599999964237213,
					0.10000000149011612,
					0.07000000029802322,
					1
				],
				"metallicFactor":0,
				"roughnessFactor":0.699999988079071
			}
		},
		{
			"doubleSided":true,
			"name":"linen",
			"pbrMetallicRoughness":{
				"baseColorFactor":[
					0.7200000286102295,
					0.6600000262260437,
					0.550000011920929,
					1
				],
				"metallicFactor":0,
				"roughnessFactor":0.8999999761581421
			}
		},
		{
			"doubleSided":true,
			"name":"brass",
			"pbrMetallicRoughness":{
				"baseColorFactor":[
					0.41999998688697815,
					0.30000001192092896,
					0.11999999731779099,
					1
				],
				"metallicFactor":0.8999999761581421,
				"roughnessFactor":0.3499999940395355
			}
		}
	],
	"meshes":[
		{
			"name":"Cube",
			"primitives":[
				{
					"attributes":{
						"POSITION":0,
						"NORMAL":1,
						"TEXCOORD_0":2
					},
					"indices":3,
					"material":0
				},
				{
					"attributes":{
						"POSITION":4,
						"NORMAL":5,
						"TEXCOORD_0":6
					},
					"indices":7,
					"material":1
				},
				{
					"attributes":{
						"POSITION":8,
						"NORMAL":9,
						"TEXCOORD_0":10
					},
					"indices":11,
					"material":2
				},
				{
					"attributes":{
						"POSITION":12,
						"NORMAL":13,
						"TEXCOORD_0":14
					},
					"indices":15,
					"material":3
				}
			]
		}
	],
	"accessors":[
		{
			"bufferView":0,
			"componentType":5126,
			"count":216,
			"max":[
				0.23000000417232513,
				0.3100000023841858,
				0.20000000298023224
			],
			"min":[
				-0.23000000417232513,
				0.009999990463256836,
				-0.20000000298023224
			],
			"type":"VEC3"
		},
		{
			"bufferView":1,
			"componentType":5126,
			"count":216,
			"type":"VEC3"
		},
		{
			"bufferView":2,
			"componentType":5126,
			"count":216,
			"type":"VEC2"
		},
		{
			"bufferView":3,
			"componentType":5123,
			"count":324,
			"type":"SCALAR"
		},
		{
			"bufferView":4,
			"componentType":5126,
			"count":648,
			"max":[
				0.20000000298023224,
				0.3499999940395355,
				0.21000000834465027
			],
			"min":[
				-0.20000000298023224,
				0.1850000023841858,
				-0.30000001192092896
			],
			"type":"VEC3"
		},
		{
			"bufferView":5,
			"componentType":5126,
			"count":648,
			"type":"VEC3"
		},
		{
			"bufferView":6,
			"componentType":5126,
			"count":648,
			"type":"VEC2"
		},
		{
			"bufferView":7,
			"componentType":5123,
			"count":972,
			"type":"SCALAR"
		},
		{
			"bufferView":8,
			"componentType":5126,
			"count":216,
			"max":[
				0.15000000596046448,
				0.2916386127471924,
				0.3097127377986908
			],
			"min":[
				-0.15000000596046448,
				0.24289876222610474,
				0.1125074028968811
			],
			"type":"VEC3"
		},
		{
			"bufferView":9,
			"componentType":5126,
			"count":216,
			"type":"VEC3"
		},
		{
			"bufferView":10,
			"componentType":5126,
			"count":216,
			"type":"VEC2"
		},
		{
			"bufferView":11,
			"componentType":5123,
			"count":324,
			"type":"SCALAR"
		},
		{
			"bufferView":12,
			"componentType":5126,
			"count":48,
			"max":[
				0.18199999630451202,
				0.3375000059604645,
				0.1120000034570694
			],
			"min":[
				0.15800000727176666,
				0.3225000202655792,
				0.08799999952316284
			],
			"type":"VEC3"
		},
		{
			"bufferView":13,
			"componentType":5126,
			"count":48,
			"type":"VEC3"
		},
		{
			"bufferView":14,
			"componentType":5126,
			"count":48,
			"type":"VEC2"
		},
		{
			"bufferView":15,
			"componentType":5123,
			"count":84,
			"type":"SCALAR"
		}
	],
	"bufferViews":[
		{
			"buffer":0,
			"byteLength":2592,
			"byteOffset":0,
			"target":34962
		},
		{
			"buffer":0,
			"byteLength":2592,
			"byteOffset":2592,
			"target":34962
		},
		{
			"buffer":0,
			"byteLength":1728,
			"byteOffset":5184,
			"target":34962
		},
		{
			"buffer":0,
			"byteLength":648,
			"byteOffset":6912,
			"target":34963
		},
		{
			"buffer":0,
			"byteLength":7776,
			"byteOffset":7560,
			"target":34962
		},
		{
			"buffer":0,
			"byteLength":7776,
			"byteOffset":15336,
			"target":34962
		},
		{
			"buffer":0,
			"byteLength":5184,
			"byteOffset":23112,
			"target":34962
		},
		{
			"buffer":0,
			"byteLength":1944,
			"byteOffset":28296,
			"target":34963
		},
		{
			"buffer":0,
			"byteLength":2592,
			"byteOffset":30240,
			"target":34962
		},
		{
			"buffer":0,
			"byteLength":2592,
			"byteOffset":32832,
			"target":34962
		},
		{
			"buffer":0,
			"byteLength":1728,
			"byteOffset":35424,
			"target":34962
		},
		{
			"buffer":0,
			"byteLength":648,
			"byteOffset":37152,
			"target":34963
		},
		{
			"buffer":0,
			"byteLength":576,
			"byteOffset":37800,
			"target":34962
		},
		{
			"buffer":0,
			"byteLength":576,
			"byteOffset":38376,
			"target":34962
		},
		{
			"buffer":0,
			"byteLength":384,
			"byteOffset":38952,
			"target":34962
		},
		{
			"buffer":0,
			"byteLength":168,
			"byteOffset":39336,
			"target":34963
		}
	],
	"buffers":[
		{
			"byteLength":39504,
			"uri":"model.bin"
		}
	]
}
