{
	"asset":{
		"generator":"Khronos glTF Blender I/O v4.0.44",
		"version":"2.0"
	},
	"scene":0,
	"scenes":[
		{
			"name":"Scene",
			"nodes":[
				0
			]
		}
	],
	"nodes":[
		{
			"mesh":0,
			"name":"candelabrum",
			"rotation":[
				0.588348388671875,
				0.39223235845565796,
				-0.5883484482765198,
				0.3922322988510132
			],
			"translation":[
				0.11999999731779099,
				0.05000000074505806,
				0
			]
		}
	],
	"materials":[
		{
			"doubleSided":true,
			"name":"brass",
			"pbrMetallicRoughness":{
				"baseColorFactor":[
					0.41999998688697815,
					0.30000001192092896,
					0.11999999731779099,
					1
				],
				"metallicFactor":0.8999999761581421,
				"roughnessFactor":0.3499999940395355
			}
		},
		{
			"doubleSided":true,
			"name":"wax",
			"pbrMetallicRoughness":{
				"baseColorFactor":[
					0.8299999833106995,
					0.7900000214576721,
					0.6600000262260437,
					1
				],
				"metallicFactor":0,
				"roughnessFactor":0.550000011920929
			}
		}
	],
	"meshes":[
		{
			"name":"Cylinder",
			"primitives":[
				{
					"attributes":{
						"POSITION":0,
						"NORMAL":1,
						"TEXCOORD_0":2
					},
					"indices":3,
					"material":0
				},
				{
					"attributes":{
						"POSITION":4,
						"NORMAL":5,
						"TEXCOORD_0":6
					},
					"indices":7,
					"material":1
				}
			]
		}
	],
	"accessors":[
		{
			"bufferView":0,
			"componentType":5126,
			"count":3440,
			"max":[
				0.27325358986854553,
				0.15999996662139893,
				0.16846148669719696
			],
			"min":[
				-0.27325353026390076,
				-0.8998054265975952,
				-1.4273078441619873
			],
			"type":"VEC3"
		},
		{
			"bufferView":1,
			"componentType":5126,
			"count":3440,
			"type":"VEC3"
		},
		{
			"bufferView":2,
			"componentType":5126,
			"count":3440,
			"type":"VEC2"
		},
		{
			"bufferView":3,
			"componentType":5123,
			"count":5376,
			"type":"SCALAR"
		},
		{
			"bufferView":4,
			"componentType":5126,
			"count":240,
			"max":[
				0.2462535947561264,
				-0.44184619188308716,
				-1.238398551940918
			],
			"min":[
				-0.24625353515148163,
				-0.9373823404312134,
				-1.5669233798980713
			],
			"type":"VEC3"
		},
		{
			"bufferView":5,
			"componentType":5126,
			"count":240,
			"type":"VEC3"
		},
		{
			"bufferView":6,
			"componentType":5126,
			"count":240,
			"type":"VEC2"
		},
		{
			"bufferView":7,
			"componentType":5123,
			"count":420,
			"type":"SCALAR"
		}
	],
	"bufferViews":[
		{
			"buffer":0,
			"byteLength":41280,
			"byteOffset":0,
			"target":34962
		},
		{
			"buffer":0,
			"byteLength":41280,
			"byteOffset":41280,
			"target":34962
		},
		{
			"buffer":0,
			"byteLength":27520,
			"byteOffset":82560,
			"target":34962
		},
		{
			"buffer":0,
			"byteLength":10752,
			"byteOffset":110080,
			"target":34963
		},
		{
			"buffer":0,
			"byteLength":2880,
			"byteOffset":120832,
			"target":34962
		},
		{
			"buffer":0,
			"byteLength":2880,
			"byteOffset":123712,
			"target":34962
		},
		{
			"buffer":0,
			"byteLength":1920,
			"byteOffset":126592,
			"target":34962
		},
		{
			"buffer":0,
			"byteLength":840,
			"byteOffset":128512,
			"target":34963
		}
	],
	"buffers":[
		{
			"byteLength":129352,
			"uri":"model.bin"
		}
	]
}
