{
	"asset":{
		"generator":"Khronos glTF Blender I/O v4.0.44",
		"version":"2.0"
	},
	"scene":0,
	"scenes":[
		{
			"name":"Scene",
			"nodes":[
				0
			]
		}
	],
	"nodes":[
		{
			"mesh":0,
			"name":"pierMirror"
		}
	],
	"materials":[
		{
			"doubleSided":true,
			"name":"mirror",
			"pbrMetallicRoughness":{
				"baseColorFactor":[
					0.6000000238418579,
					0.6499999761581421,
					0.699999988079071,
					1
				],
				"roughnessFactor":0.10000000149011612
			}
		},
		{
			"doubleSided":true,
			"name":"brass",
			"pbrMetallicRoughness":{
				"baseColorFactor":[
					0.41999998688697815,
					0.30000001192092896,
					0.11999999731779099,
					1
				],
				"metallicFactor":0.8999999761581421,
				"roughnessFactor":0.3499999940395355
			}
		}
	],
	"meshes":[
		{
			"name":"Cube",
			"primitives":[
				{
					"attributes":{
						"POSITION":0,
						"NORMAL":1,
						"TEXCOORD_0":2
					},
					"indices":3,
					"material":0
				},
				{
					"attributes":{
						"POSITION":4,
						"NORMAL":5,
						"TEXCOORD_0":6
					},
					"indices":7,
					"material":1
				}
			]
		}
	],
	"accessors":[
		{
			"bufferView":0,
			"componentType":5126,
			"count":212,
			"max":[
				0.28999999165534973,
				0.7149999737739563,
				0.03550000116229057
			],
			"min":[
				-0.28999999165534973,
				-0.8349999785423279,
				0.020500000566244125
			],
			"type":"VEC3"
		},
		{
			"bufferView":1,
			"componentType":5126,
			"count":212,
			"type":"VEC3"
		},
		{
			"bufferView":2,
			"componentType":5126,
			"count":212,
			"type":"VEC2"
		},
		{
			"bufferView":3,
			"componentType":5123,
			"count":324,
			"type":"SCALAR"
		},
		{
			"bufferView":4,
			"componentType":5126,
			"count":1616,
			"max":[
				0.3499999940395355,
				1.059999942779541,
				0.15029847621917725
			],
			"min":[
				-0.3499999940395355,
				-0.9150000214576721,
				-0.07029847800731659
			],
			"type":"VEC3"
		},
		{
			"bufferView":5,
			"componentType":5126,
			"count":1616,
			"type":"VEC3"
		},
		{
			"bufferView":6,
			"componentType":5126,
			"count":1616,
			"type":"VEC2"
		},
		{
			"bufferView":7,
			"componentType":5123,
			"count":2400,
			"type":"SCALAR"
		}
	],
	"bufferViews":[
		{
			"buffer":0,
			"byteLength":2544,
			"byteOffset":0,
			"target":34962
		},
		{
			"buffer":0,
			"byteLength":2544,
			"byteOffset":2544,
			"target":34962
		},
		{
			"buffer":0,
			"byteLength":1696,
			"byteOffset":5088,
			"target":34962
		},
		{
			"buffer":0,
			"byteLength":648,
			"byteOffset":6784,
			"target":34963
		},
		{
			"buffer":0,
			"byteLength":19392,
			"byteOffset":7432,
			"target":34962
		},
		{
			"buffer":0,
			"byteLength":19392,
			"byteOffset":26824,
			"target":34962
		},
		{
			"buffer":0,
			"byteLength":12928,
			"byteOffset":46216,
			"target":34962
		},
		{
			"buffer":0,
			"byteLength":4800,
			"byteOffset":59144,
			"target":34963
		}
	],
	"buffers":[
		{
			"byteLength":63944,
			"uri":"model.bin"
		}
	]
}
