{
	"asset":{
		"generator":"Khronos glTF Blender I/O v4.0.44",
		"version":"2.0"
	},
	"scene":0,
	"scenes":[
		{
			"name":"Scene",
			"nodes":[
				0
			]
		}
	],
	"nodes":[
		{
			"mesh":0,
			"name":"exitSign"
		}
	],
	"materials":[
		{
			"doubleSided":true,
			"name":"darkwood",
			"pbrMetallicRoughness":{
				"baseColorFactor":[
					0.1599999964237213,
					0.10000000149011612,
					0.07000000029802322,
					1
				],
				"metallicFactor":0,
				"roughnessFactor":0.699999988079071
			}
		},
		{
			"doubleSided":true,
			"name":"velvet",
			"pbrMetallicRoughness":{
				"baseColorFactor":[
					0.30000001192092896,
					0.07000000029802322,
					0.07999999821186066,
					1
				],
				"metallicFactor":0,
				"roughnessFactor":0.949999988079071
			}
		},
		{
			"doubleSided":true,
			"name":"wax",
			"pbrMetallicRoughness":{
				"baseColorFactor":[
					0.8299999833106995,
					0.7900000214576721,
					0.6600000262260437,
					1
				],
				"metallicFactor":0,
				"roughnessFactor":0.550000011920929
			}
		},
		{
			"doubleSided":true,
			"name":"iron",
			"pbrMetallicRoughness":{
				"baseColorFactor":[
					0.10999999940395355,
					0.10999999940395355,
					0.11999999731779099,
					1
				],
				"metallicFactor":0.8500000238418579,
				"roughnessFactor":0.44999998807907104
			}
		}
	],
	"meshes":[
		{
			"name":"Cube",
			"primitives":[
				{
					"attributes":{
						"POSITION":0,
						"NORMAL":1,
						"TEXCOORD_0":2
					},
					"indices":3,
					"material":0
				},
				{
					"attributes":{
						"POSITION":4,
						"NORMAL":5,
						"TEXCOORD_0":6
					},
					"indices":7,
					"material":1
				},
				{
					"attributes":{
						"POSITION":8,
						"NORMAL":9,
						"TEXCOORD_0":10
					},
					"indices":11,
					"material":2
				},
				{
					"attributes":{
						"POSITION":12,
						"NORMAL":13,
						"TEXCOORD_0":14
					},
					"indices":15,
					"material":3
				}
			]
		}
	],
	"accessors":[
		{
			"bufferView":0,
			"componentType":5126,
			"count":216,
			"max":[
				0.20999999344348907,
				0.10999999940395355,
				0.05999999865889549
			],
			"min":[
				-0.20999999344348907,
				-0.10999999940395355,
				-0.05999999865889549
			],
			"type":"VEC3"
		},
		{
			"bufferView":1,
			"componentType":5126,
			"count":216,
			"type":"VEC3"
		},
		{
			"bufferView":2,
			"componentType":5126,
			"count":216,
			"type":"VEC2"
		},
		{
			"bufferView":3,
			"componentType":5123,
			"count":324,
			"type":"SCALAR"
		},
		{
			"bufferView":4,
			"componentType":5126,
			"count":432,
			"max":[
				0.18000000715255737,
				0.0650000050663948,
				0.07000000029802322
			],
			"min":[
				-0.18000000715255737,
				-0.08500000089406967,
				-0.07000000029802322
			],
			"type":"VEC3"
		},
		{
			"bufferView":5,
			"componentType":5126,
			"count":432,
			"type":"VEC3"
		},
		{
			"bufferView":6,
			"componentType":5126,
			"count":432,
			"type":"VEC2"
		},
		{
			"bufferView":7,
			"componentType":5123,
			"count":648,
			"type":"SCALAR"
		},
		{
			"bufferView":8,
			"componentType":5126,
			"count":1728,
			"max":[
				0.13750000298023224,
				0.03500000387430191,
				0.07499999552965164
			],
			"min":[
				-0.13249999284744263,
				-0.054999999701976776,
				-0.07499999552965164
			],
			"type":"VEC3"
		},
		{
			"bufferView":9,
			"componentType":5126,
			"count":1728,
			"type":"VEC3"
		},
		{
			"bufferView":10,
			"componentType":5126,
			"count":1728,
			"type":"VEC2"
		},
		{
			"bufferView":11,
			"componentType":5123,
			"count":2592,
			"type":"SCALAR"
		},
		{
			"bufferView":12,
			"componentType":5126,
			"count":264,
			"max":[
				0.07999999821186066,
				0.23000000417232513,
				0.05000000074505806
			],
			"min":[
				-0.07999999821186066,
				0.09999999403953552,
				-0.05000000074505806
			],
			"type":"VEC3"
		},
		{
			"bufferView":13,
			"componentType":5126,
			"count":264,
			"type":"VEC3"
		},
		{
			"bufferView":14,
			"componentType":5126,
			"count":264,
			"type":"VEC2"
		},
		{
			"bufferView":15,
			"componentType":5123,
			"count":408,
			"type":"SCALAR"
		}
	],
	"bufferViews":[
		{
			"buffer":0,
			"byteLength":2592,
			"byteOffset":0,
			"target":34962
		},
		{
			"buffer":0,
			"byteLength":2592,
			"byteOffset":2592,
			"target":34962
		},
		{
			"buffer":0,
			"byteLength":1728,
			"byteOffset":5184,
			"target":34962
		},
		{
			"buffer":0,
			"byteLength":648,
			"byteOffset":6912,
			"target":34963
		},
		{
			"buffer":0,
			"byteLength":5184,
			"byteOffset":7560,
			"target":34962
		},
		{
			"buffer":0,
			"byteLength":5184,
			"byteOffset":12744,
			"target":34962
		},
		{
			"buffer":0,
			"byteLength":3456,
			"byteOffset":17928,
			"target":34962
		},
		{
			"buffer":0,
			"byteLength":1296,
			"byteOffset":21384,
			"target":34963
		},
		{
			"buffer":0,
			"byteLength":20736,
			"byteOffset":22680,
			"target":34962
		},
		{
			"buffer":0,
			"byteLength":20736,
			"byteOffset":43416,
			"target":34962
		},
		{
			"buffer":0,
			"byteLength":13824,
			"byteOffset":64152,
			"target":34962
		},
		{
			"buffer":0,
			"byteLength":5184,
			"byteOffset":77976,
			"target":34963
		},
		{
			"buffer":0,
			"byteLength":3168,
			"byteOffset":83160,
			"target":34962
		},
		{
			"buffer":0,
			"byteLength":3168,
			"byteOffset":86328,
			"target":34962
		},
		{
			"buffer":0,
			"byteLength":2112,
			"byteOffset":89496,
			"target":34962
		},
		{
			"buffer":0,
			"byteLength":816,
			"byteOffset":91608,
			"target":34963
		}
	],
	"buffers":[
		{
			"byteLength":92424,
			"uri":"model.bin"
		}
	]
}
