{
	"asset":{
		"generator":"Khronos glTF Blender I/O v4.2.70",
		"version":"2.0"
	},
	"scene":0,
	"scenes":[
		{
			"name":"Scene",
			"nodes":[
				0
			]
		}
	],
	"nodes":[
		{
			"mesh":0,
			"name":"ropeBarrier",
			"translation":[
				-1.2000000476837158,
				0.44999998807907104,
				0
			]
		}
	],
	"materials":[
		{
			"doubleSided":true,
			"name":"brass",
			"pbrMetallicRoughness":{
				"baseColorFactor":[
					0.41999998688697815,
					0.30000001192092896,
					0.11999999731779099,
					1
				],
				"metallicFactor":0.8999999761581421,
				"roughnessFactor":0.3499999940395355
			}
		},
		{
			"doubleSided":true,
			"name":"wornleather",
			"pbrMetallicRoughness":{
				"baseColorFactor":[
					0.2800000011920929,
					0.18000000715255737,
					0.10999999940395355,
					1
				],
				"metallicFactor":0,
				"roughnessFactor":0.8500000238418579
			}
		}
	],
	"meshes":[
		{
			"name":"Cylinder",
			"primitives":[
				{
					"attributes":{
						"POSITION":0,
						"NORMAL":1,
						"TEXCOORD_0":2
					},
					"indices":3,
					"material":0
				},
				{
					"attributes":{
						"POSITION":4,
						"NORMAL":5,
						"TEXCOORD_0":6
					},
					"indices":7,
					"material":1
				}
			]
		}
	],
	"accessors":[
		{
			"bufferView":0,
			"componentType":5126,
			"count":1400,
			"max":[
				2.5575692653656006,
				0.5100000500679016,
				0.1599999964237213
			],
			"min":[
				-0.15756922960281372,
				-0.44999998807907104,
				-0.1599999964237213
			],
			"type":"VEC3"
		},
		{
			"bufferView":1,
			"componentType":5126,
			"count":1400,
			"type":"VEC3"
		},
		{
			"bufferView":2,
			"componentType":5126,
			"count":1400,
			"type":"VEC2"
		},
		{
			"bufferView":3,
			"componentType":5123,
			"count":2280,
			"type":"SCALAR"
		},
		{
			"bufferView":4,
			"componentType":5126,
			"count":576,
			"max":[
				2.408214807510376,
				0.378853440284729,
				0.03000001236796379
			],
			"min":[
				-0.008214600384235382,
				0.10002103447914124,
				-0.03000001236796379
			],
			"type":"VEC3"
		},
		{
			"bufferView":5,
			"componentType":5126,
			"count":576,
			"type":"VEC3"
		},
		{
			"bufferView":6,
			"componentType":5126,
			"count":576,
			"type":"VEC2"
		},
		{
			"bufferView":7,
			"componentType":5123,
			"count":1008,
			"type":"SCALAR"
		}
	],
	"bufferViews":[
		{
			"buffer":0,
			"byteLength":16800,
			"byteOffset":0,
			"target":34962
		},
		{
			"buffer":0,
			"byteLength":16800,
			"byteOffset":16800,
			"target":34962
		},
		{
			"buffer":0,
			"byteLength":11200,
			"byteOffset":33600,
			"target":34962
		},
		{
			"buffer":0,
			"byteLength":4560,
			"byteOffset":44800,
			"target":34963
		},
		{
			"buffer":0,
			"byteLength":6912,
			"byteOffset":49360,
			"target":34962
		},
		{
			"buffer":0,
			"byteLength":6912,
			"byteOffset":56272,
			"target":34962
		},
		{
			"buffer":0,
			"byteLength":4608,
			"byteOffset":63184,
			"target":34962
		},
		{
			"buffer":0,
			"byteLength":2016,
			"byteOffset":67792,
			"target":34963
		}
	],
	"buffers":[
		{
			"byteLength":69808,
			"uri":"model.bin"
		}
	]
}
