{
	"asset":{
		"generator":"Khronos glTF Blender I/O v4.0.44",
		"version":"2.0"
	},
	"scene":0,
	"scenes":[
		{
			"name":"Scene",
			"nodes":[
				0
			]
		}
	],
	"nodes":[
		{
			"mesh":0,
			"name":"grandStair"
		}
	],
	"materials":[
		{
			"doubleSided":true,
			"name":"oakwood",
			"pbrMetallicRoughness":{
				"baseColorFactor":[
					0.3199999928474426,
					0.2199999988079071,
					0.12999999523162842,
					1
				],
				"metallicFactor":0,
				"roughnessFactor":0.800000011920929
			}
		},
		{
			"doubleSided":true,
			"name":"darkwood",
			"pbrMetallicRoughness":{
				"baseColorFactor":[
					0.1599999964237213,
					0.10000000149011612,
					0.07000000029802322,
					1
				],
				"metallicFactor":0,
				"roughnessFactor":0.699999988079071
			}
		},
		{
			"doubleSided":true,
			"name":"velvet",
			"pbrMetallicRoughness":{
				"baseColorFactor":[
					0.30000001192092896,
					0.07000000029802322,
					0.07999999821186066,
					1
				],
				"metallicFactor":0,
				"roughnessFactor":0.949999988079071
			}
		}
	],
	"meshes":[
		{
			"name":"Cube",
			"primitives":[
				{
					"attributes":{
						"POSITION":0,
						"NORMAL":1,
						"TEXCOORD_0":2
					},
					"indices":3,
					"material":0
				},
				{
					"attributes":{
						"POSITION":4,
						"NORMAL":5,
						"TEXCOORD_0":6
					},
					"indices":7,
					"material":1
				},
				{
					"attributes":{
						"POSITION":8,
						"NORMAL":9,
						"TEXCOORD_0":10
					},
					"indices":11,
					"material":2
				}
			]
		}
	],
	"accessors":[
		{
			"bufferView":0,
			"componentType":5126,
			"count":3976,
			"max":[
				0.699999988079071,
				2.6499998569488525,
				2.115000009536743
			],
			"min":[
				-0.9072420597076416,
				0.12000000476837158,
				-2.059999942779541
			],
			"type":"VEC3"
		},
		{
			"bufferView":1,
			"componentType":5126,
			"count":3976,
			"type":"VEC3"
		},
		{
			"bufferView":2,
			"componentType":5126,
			"count":3976,
			"type":"VEC2"
		},
		{
			"bufferView":3,
			"componentType":5123,
			"count":6312,
			"type":"SCALAR"
		},
		{
			"bufferView":4,
			"componentType":5126,
			"count":3924,
			"max":[
				0.8500000238418579,
				2.733992338180542,
				2.1549999713897705
			],
			"min":[
				-0.9399999976158142,
				-0.28058016300201416,
				-2.657613515853882
			],
			"type":"VEC3"
		},
		{
			"bufferView":5,
			"componentType":5126,
			"count":3924,
			"type":"VEC3"
		},
		{
			"bufferView":6,
			"componentType":5126,
			"count":3924,
			"type":"VEC2"
		},
		{
			"bufferView":7,
			"componentType":5123,
			"count":6096,
			"type":"SCALAR"
		},
		{
			"bufferView":8,
			"componentType":5126,
			"count":4320,
			"max":[
				0.33000001311302185,
				1.8109999895095825,
				2.109999895095825
			],
			"min":[
				-0.33000001311302185,
				0.01000000536441803,
				-1.9100000858306885
			],
			"type":"VEC3"
		},
		{
			"bufferView":9,
			"componentType":5126,
			"count":4320,
			"type":"VEC3"
		},
		{
			"bufferView":10,
			"componentType":5126,
			"count":4320,
			"type":"VEC2"
		},
		{
			"bufferView":11,
			"componentType":5123,
			"count":6480,
			"type":"SCALAR"
		}
	],
	"bufferViews":[
		{
			"buffer":0,
			"byteLength":47712,
			"byteOffset":0,
			"target":34962
		},
		{
			"buffer":0,
			"byteLength":47712,
			"byteOffset":47712,
			"target":34962
		},
		{
			"buffer":0,
			"byteLength":31808,
			"byteOffset":95424,
			"target":34962
		},
		{
			"buffer":0,
			"byteLength":12624,
			"byteOffset":127232,
			"target":34963
		},
		{
			"buffer":0,
			"byteLength":47088,
			"byteOffset":139856,
			"target":34962
		},
		{
			"buffer":0,
			"byteLength":47088,
			"byteOffset":186944,
			"target":34962
		},
		{
			"buffer":0,
			"byteLength":31392,
			"byteOffset":234032,
			"target":34962
		},
		{
			"buffer":0,
			"byteLength":12192,
			"byteOffset":265424,
			"target":34963
		},
		{
			"buffer":0,
			"byteLength":51840,
			"byteOffset":277616,
			"target":34962
		},
		{
			"buffer":0,
			"byteLength":51840,
			"byteOffset":329456,
			"target":34962
		},
		{
			"buffer":0,
			"byteLength":34560,
			"byteOffset":381296,
			"target":34962
		},
		{
			"buffer":0,
			"byteLength":12960,
			"byteOffset":415856,
			"target":34963
		}
	],
	"buffers":[
		{
			"byteLength":428816,
			"uri":"model.bin"
		}
	]
}
