{
	"asset":{
		"generator":"Khronos glTF Blender I/O v4.2.83",
		"version":"2.0"
	},
	"scene":0,
	"scenes":[
		{
			"name":"Scene",
			"nodes":[
				0
			]
		}
	],
	"nodes":[
		{
			"mesh":0,
			"name":"boilerDrum",
			"translation":[
				0,
				1,
				0
			]
		}
	],
	"materials":[
		{
			"doubleSided":true,
			"name":"iron",
			"pbrMetallicRoughness":{
				"baseColorFactor":[
					0.10999999940395355,
					0.10999999940395355,
					0.11999999731779099,
					1
				],
				"metallicFactor":0.8500000238418579,
				"roughnessFactor":0.44999998807907104
			}
		},
		{
			"doubleSided":true,
			"name":"stone",
			"pbrMetallicRoughness":{
				"baseColorFactor":[
					0.41999998688697815,
					0.3799999952316284,
					0.33000001311302185,
					1
				],
				"metallicFactor":0,
				"roughnessFactor":0.8500000238418579
			}
		},
		{
			"doubleSided":true,
			"name":"brass",
			"pbrMetallicRoughness":{
				"baseColorFactor":[
					0.550000011920929,
					0.41999998688697815,
					0.18000000715255737,
					1
				],
				"metallicFactor":0.8999999761581421,
				"roughnessFactor":0.4000000059604645
			}
		}
	],
	"meshes":[
		{
			"name":"Cylinder",
			"primitives":[
				{
					"attributes":{
						"POSITION":0,
						"NORMAL":1,
						"TEXCOORD_0":2
					},
					"indices":3,
					"material":0
				},
				{
					"attributes":{
						"POSITION":4,
						"NORMAL":5,
						"TEXCOORD_0":6
					},
					"indices":7,
					"material":1
				},
				{
					"attributes":{
						"POSITION":8,
						"NORMAL":9,
						"TEXCOORD_0":10
					},
					"indices":11,
					"material":2
				}
			]
		}
	],
	"accessors":[
		{
			"bufferView":0,
			"componentType":5126,
			"count":2404,
			"max":[
				0.7799999713897705,
				1.6999999284744263,
				0.7500002384185791
			],
			"min":[
				-0.7799999713897705,
				-0.8500000238418579,
				-0.7500003576278687
			],
			"type":"VEC3"
		},
		{
			"bufferView":1,
			"componentType":5126,
			"count":2404,
			"type":"VEC3"
		},
		{
			"bufferView":2,
			"componentType":5126,
			"count":2404,
			"type":"VEC2"
		},
		{
			"bufferView":3,
			"componentType":5123,
			"count":3924,
			"type":"SCALAR"
		},
		{
			"bufferView":4,
			"componentType":5126,
			"count":120,
			"max":[
				0.8199999928474426,
				-0.7999999523162842,
				0.8199999928474426
			],
			"min":[
				-0.8199999928474426,
				-1,
				-0.8199999928474426
			],
			"type":"VEC3"
		},
		{
			"bufferView":5,
			"componentType":5126,
			"count":120,
			"type":"VEC3"
		},
		{
			"bufferView":6,
			"componentType":5126,
			"count":120,
			"type":"VEC2"
		},
		{
			"bufferView":7,
			"componentType":5123,
			"count":228,
			"type":"SCALAR"
		},
		{
			"bufferView":8,
			"componentType":5126,
			"count":60,
			"max":[
				0.7675528526306152,
				0.5,
				0.05000000074505806
			],
			"min":[
				0.6724472045898438,
				-0.5,
				-0.05000000074505806
			],
			"type":"VEC3"
		},
		{
			"bufferView":9,
			"componentType":5126,
			"count":60,
			"type":"VEC3"
		},
		{
			"bufferView":10,
			"componentType":5126,
			"count":60,
			"type":"VEC2"
		},
		{
			"bufferView":11,
			"componentType":5123,
			"count":108,
			"type":"SCALAR"
		}
	],
	"bufferViews":[
		{
			"buffer":0,
			"byteLength":28848,
			"byteOffset":0,
			"target":34962
		},
		{
			"buffer":0,
			"byteLength":28848,
			"byteOffset":28848,
			"target":34962
		},
		{
			"buffer":0,
			"byteLength":19232,
			"byteOffset":57696,
			"target":34962
		},
		{
			"buffer":0,
			"byteLength":7848,
			"byteOffset":76928,
			"target":34963
		},
		{
			"buffer":0,
			"byteLength":1440,
			"byteOffset":84776,
			"target":34962
		},
		{
			"buffer":0,
			"byteLength":1440,
			"byteOffset":86216,
			"target":34962
		},
		{
			"buffer":0,
			"byteLength":960,
			"byteOffset":87656,
			"target":34962
		},
		{
			"buffer":0,
			"byteLength":456,
			"byteOffset":88616,
			"target":34963
		},
		{
			"buffer":0,
			"byteLength":720,
			"byteOffset":89072,
			"target":34962
		},
		{
			"buffer":0,
			"byteLength":720,
			"byteOffset":89792,
			"target":34962
		},
		{
			"buffer":0,
			"byteLength":480,
			"byteOffset":90512,
			"target":34962
		},
		{
			"buffer":0,
			"byteLength":216,
			"byteOffset":90992,
			"target":34963
		}
	],
	"buffers":[
		{
			"byteLength":91208,
			"uri":"model.bin"
		}
	]
}
