{
	"asset":{
		"generator":"Khronos glTF Blender I/O v4.0.44",
		"version":"2.0"
	},
	"scene":0,
	"scenes":[
		{
			"name":"Scene",
			"nodes":[
				0
			]
		}
	],
	"nodes":[
		{
			"mesh":0,
			"name":"bedBench"
		}
	],
	"materials":[
		{
			"doubleSided":true,
			"name":"bookcloth",
			"pbrMetallicRoughness":{
				"baseColorFactor":[
					0.20000000298023224,
					0.23999999463558197,
					0.20000000298023224,
					1
				],
				"metallicFactor":0,
				"roughnessFactor":0.8999999761581421
			}
		},
		{
			"doubleSided":true,
			"name":"wornleather",
			"pbrMetallicRoughness":{
				"baseColorFactor":[
					0.2800000011920929,
					0.18000000715255737,
					0.10999999940395355,
					1
				],
				"metallicFactor":0,
				"roughnessFactor":0.8500000238418579
			}
		},
		{
			"doubleSided":true,
			"name":"oakwood",
			"pbrMetallicRoughness":{
				"baseColorFactor":[
					0.3199999928474426,
					0.2199999988079071,
					0.12999999523162842,
					1
				],
				"metallicFactor":0,
				"roughnessFactor":0.800000011920929
			}
		}
	],
	"meshes":[
		{
			"name":"Cube",
			"primitives":[
				{
					"attributes":{
						"POSITION":0,
						"NORMAL":1,
						"TEXCOORD_0":2
					},
					"indices":3,
					"material":0
				},
				{
					"attributes":{
						"POSITION":4,
						"NORMAL":5,
						"TEXCOORD_0":6
					},
					"indices":7,
					"material":1
				},
				{
					"attributes":{
						"POSITION":8,
						"NORMAL":9,
						"TEXCOORD_0":10
					},
					"indices":11,
					"material":2
				}
			]
		}
	],
	"accessors":[
		{
			"bufferView":0,
			"componentType":5126,
			"count":216,
			"max":[
				0.6499999761581421,
				0.4699999988079071,
				0.20999999344348907
			],
			"min":[
				-0.6499999761581421,
				0.33000001311302185,
				-0.20999999344348907
			],
			"type":"VEC3"
		},
		{
			"bufferView":1,
			"componentType":5126,
			"count":216,
			"type":"VEC3"
		},
		{
			"bufferView":2,
			"componentType":5126,
			"count":216,
			"type":"VEC2"
		},
		{
			"bufferView":3,
			"componentType":5123,
			"count":324,
			"type":"SCALAR"
		},
		{
			"bufferView":4,
			"componentType":5126,
			"count":1096,
			"max":[
				0.6600000262260437,
				0.4909999966621399,
				0.2199999988079071
			],
			"min":[
				-0.6600000262260437,
				0.3100000023841858,
				-0.2199999988079071
			],
			"type":"VEC3"
		},
		{
			"bufferView":5,
			"componentType":5126,
			"count":1096,
			"type":"VEC3"
		},
		{
			"bufferView":6,
			"componentType":5126,
			"count":1096,
			"type":"VEC2"
		},
		{
			"bufferView":7,
			"componentType":5123,
			"count":1524,
			"type":"SCALAR"
		},
		{
			"bufferView":8,
			"componentType":5126,
			"count":1312,
			"max":[
				0.6323359608650208,
				0.3199999928474426,
				0.1940000057220459
			],
			"min":[
				-0.6323359608650208,
				0,
				-0.1940000057220459
			],
			"type":"VEC3"
		},
		{
			"bufferView":9,
			"componentType":5126,
			"count":1312,
			"type":"VEC3"
		},
		{
			"bufferView":10,
			"componentType":5126,
			"count":1312,
			"type":"VEC2"
		},
		{
			"bufferView":11,
			"componentType":5123,
			"count":1968,
			"type":"SCALAR"
		}
	],
	"bufferViews":[
		{
			"buffer":0,
			"byteLength":2592,
			"byteOffset":0,
			"target":34962
		},
		{
			"buffer":0,
			"byteLength":2592,
			"byteOffset":2592,
			"target":34962
		},
		{
			"buffer":0,
			"byteLength":1728,
			"byteOffset":5184,
			"target":34962
		},
		{
			"buffer":0,
			"byteLength":648,
			"byteOffset":6912,
			"target":34963
		},
		{
			"buffer":0,
			"byteLength":13152,
			"byteOffset":7560,
			"target":34962
		},
		{
			"buffer":0,
			"byteLength":13152,
			"byteOffset":20712,
			"target":34962
		},
		{
			"buffer":0,
			"byteLength":8768,
			"byteOffset":33864,
			"target":34962
		},
		{
			"buffer":0,
			"byteLength":3048,
			"byteOffset":42632,
			"target":34963
		},
		{
			"buffer":0,
			"byteLength":15744,
			"byteOffset":45680,
			"target":34962
		},
		{
			"buffer":0,
			"byteLength":15744,
			"byteOffset":61424,
			"target":34962
		},
		{
			"buffer":0,
			"byteLength":10496,
			"byteOffset":77168,
			"target":34962
		},
		{
			"buffer":0,
			"byteLength":3936,
			"byteOffset":87664,
			"target":34963
		}
	],
	"buffers":[
		{
			"byteLength":91600,
			"uri":"model.bin"
		}
	]
}
