{
	"asset":{
		"generator":"Khronos glTF Blender I/O v4.2.70",
		"version":"2.0"
	},
	"scene":0,
	"scenes":[
		{
			"name":"Scene",
			"nodes":[
				0
			]
		}
	],
	"nodes":[
		{
			"mesh":0,
			"name":"wallNiche"
		}
	],
	"materials":[
		{
			"doubleSided":true,
			"name":"darkwood",
			"pbrMetallicRoughness":{
				"baseColorFactor":[
					0.1599999964237213,
					0.10000000149011612,
					0.07000000029802322,
					1
				],
				"metallicFactor":0,
				"roughnessFactor":0.699999988079071
			}
		},
		{
			"doubleSided":true,
			"name":"stone",
			"pbrMetallicRoughness":{
				"baseColorFactor":[
					0.41999998688697815,
					0.3799999952316284,
					0.33000001311302185,
					1
				],
				"metallicFactor":0,
				"roughnessFactor":0.8500000238418579
			}
		}
	],
	"meshes":[
		{
			"name":"Cube",
			"primitives":[
				{
					"attributes":{
						"POSITION":0,
						"NORMAL":1,
						"TEXCOORD_0":2
					},
					"indices":3,
					"material":0
				},
				{
					"attributes":{
						"POSITION":4,
						"NORMAL":5,
						"TEXCOORD_0":6
					},
					"indices":7,
					"material":1
				}
			]
		}
	],
	"accessors":[
		{
			"bufferView":0,
			"componentType":5126,
			"count":824,
			"max":[
				0.550000011920929,
				2.200000047683716,
				0.12499997019767761
			],
			"min":[
				-0.550000011920929,
				0,
				-0.42500001192092896
			],
			"type":"VEC3"
		},
		{
			"bufferView":1,
			"componentType":5126,
			"count":824,
			"type":"VEC3"
		},
		{
			"bufferView":2,
			"componentType":5126,
			"count":824,
			"type":"VEC2"
		},
		{
			"bufferView":3,
			"componentType":5123,
			"count":1188,
			"type":"SCALAR"
		},
		{
			"bufferView":4,
			"componentType":5126,
			"count":1068,
			"max":[
				0.75,
				2.2899999618530273,
				0.20999999344348907
			],
			"min":[
				-0.75,
				0,
				-0.20999999344348907
			],
			"type":"VEC3"
		},
		{
			"bufferView":5,
			"componentType":5126,
			"count":1068,
			"type":"VEC3"
		},
		{
			"bufferView":6,
			"componentType":5126,
			"count":1068,
			"type":"VEC2"
		},
		{
			"bufferView":7,
			"componentType":5123,
			"count":1692,
			"type":"SCALAR"
		}
	],
	"bufferViews":[
		{
			"buffer":0,
			"byteLength":9888,
			"byteOffset":0,
			"target":34962
		},
		{
			"buffer":0,
			"byteLength":9888,
			"byteOffset":9888,
			"target":34962
		},
		{
			"buffer":0,
			"byteLength":6592,
			"byteOffset":19776,
			"target":34962
		},
		{
			"buffer":0,
			"byteLength":2376,
			"byteOffset":26368,
			"target":34963
		},
		{
			"buffer":0,
			"byteLength":12816,
			"byteOffset":28744,
			"target":34962
		},
		{
			"buffer":0,
			"byteLength":12816,
			"byteOffset":41560,
			"target":34962
		},
		{
			"buffer":0,
			"byteLength":8544,
			"byteOffset":54376,
			"target":34962
		},
		{
			"buffer":0,
			"byteLength":3384,
			"byteOffset":62920,
			"target":34963
		}
	],
	"buffers":[
		{
			"byteLength":66304,
			"uri":"model.bin"
		}
	]
}
