{
	"asset":{
		"generator":"Khronos glTF Blender I/O v4.2.70",
		"version":"2.0"
	},
	"scene":0,
	"scenes":[
		{
			"name":"Scene",
			"nodes":[
				0
			]
		}
	],
	"nodes":[
		{
			"mesh":0,
			"name":"bookCart"
		}
	],
	"materials":[
		{
			"doubleSided":true,
			"name":"oakwood",
			"pbrMetallicRoughness":{
				"baseColorFactor":[
					0.3199999928474426,
					0.2199999988079071,
					0.12999999523162842,
					1
				],
				"metallicFactor":0,
				"roughnessFactor":0.800000011920929
			}
		},
		{
			"doubleSided":true,
			"name":"wornleather",
			"pbrMetallicRoughness":{
				"baseColorFactor":[
					0.2800000011920929,
					0.18000000715255737,
					0.10999999940395355,
					1
				],
				"metallicFactor":0,
				"roughnessFactor":0.8500000238418579
			}
		},
		{
			"doubleSided":true,
			"name":"bookcloth",
			"pbrMetallicRoughness":{
				"baseColorFactor":[
					0.20000000298023224,
					0.23999999463558197,
					0.20000000298023224,
					1
				],
				"metallicFactor":0,
				"roughnessFactor":0.8999999761581421
			}
		},
		{
			"doubleSided":true,
			"name":"iron",
			"pbrMetallicRoughness":{
				"baseColorFactor":[
					0.10999999940395355,
					0.10999999940395355,
					0.11999999731779099,
					1
				],
				"metallicFactor":0.8500000238418579,
				"roughnessFactor":0.44999998807907104
			}
		}
	],
	"meshes":[
		{
			"name":"Cube",
			"primitives":[
				{
					"attributes":{
						"POSITION":0,
						"NORMAL":1,
						"TEXCOORD_0":2
					},
					"indices":3,
					"material":0
				},
				{
					"attributes":{
						"POSITION":4,
						"NORMAL":5,
						"TEXCOORD_0":6
					},
					"indices":7,
					"material":1
				},
				{
					"attributes":{
						"POSITION":8,
						"NORMAL":9,
						"TEXCOORD_0":10
					},
					"indices":11,
					"material":2
				},
				{
					"attributes":{
						"POSITION":12,
						"NORMAL":13,
						"TEXCOORD_0":14
					},
					"indices":15,
					"material":3
				}
			]
		}
	],
	"accessors":[
		{
			"bufferView":0,
			"componentType":5126,
			"count":864,
			"max":[
				0.45000001788139343,
				1,
				0.2757939100265503
			],
			"min":[
				-0.45000001788139343,
				0,
				-0.3474057614803314
			],
			"type":"VEC3"
		},
		{
			"bufferView":1,
			"componentType":5126,
			"count":864,
			"type":"VEC3"
		},
		{
			"bufferView":2,
			"componentType":5126,
			"count":864,
			"type":"VEC2"
		},
		{
			"bufferView":3,
			"componentType":5123,
			"count":1296,
			"type":"SCALAR"
		},
		{
			"bufferView":4,
			"componentType":5126,
			"count":864,
			"max":[
				0.32255324721336365,
				0.9686480164527893,
				0.2034747302532196
			],
			"min":[
				-0.43900713324546814,
				0.3009921610355377,
				-0.2357328236103058
			],
			"type":"VEC3"
		},
		{
			"bufferView":5,
			"componentType":5126,
			"count":864,
			"type":"VEC3"
		},
		{
			"bufferView":6,
			"componentType":5126,
			"count":864,
			"type":"VEC2"
		},
		{
			"bufferView":7,
			"componentType":5123,
			"count":1296,
			"type":"SCALAR"
		},
		{
			"bufferView":8,
			"componentType":5126,
			"count":1728,
			"max":[
				0.31823378801345825,
				1.0402395725250244,
				0.2088456153869629
			],
			"min":[
				-0.2635948359966278,
				0.3365296721458435,
				-0.3001343309879303
			],
			"type":"VEC3"
		},
		{
			"bufferView":9,
			"componentType":5126,
			"count":1728,
			"type":"VEC3"
		},
		{
			"bufferView":10,
			"componentType":5126,
			"count":1728,
			"type":"VEC2"
		},
		{
			"bufferView":11,
			"componentType":5123,
			"count":2592,
			"type":"SCALAR"
		},
		{
			"bufferView":12,
			"componentType":5126,
			"count":396,
			"max":[
				0.437552809715271,
				1.3799999952316284,
				0.3190211355686188
			],
			"min":[
				-0.437552809715271,
				0,
				-0.1850000023841858
			],
			"type":"VEC3"
		},
		{
			"bufferView":13,
			"componentType":5126,
			"count":396,
			"type":"VEC3"
		},
		{
			"bufferView":14,
			"componentType":5126,
			"count":396,
			"type":"VEC2"
		},
		{
			"bufferView":15,
			"componentType":5123,
			"count":708,
			"type":"SCALAR"
		}
	],
	"bufferViews":[
		{
			"buffer":0,
			"byteLength":10368,
			"byteOffset":0,
			"target":34962
		},
		{
			"buffer":0,
			"byteLength":10368,
			"byteOffset":10368,
			"target":34962
		},
		{
			"buffer":0,
			"byteLength":6912,
			"byteOffset":20736,
			"target":34962
		},
		{
			"buffer":0,
			"byteLength":2592,
			"byteOffset":27648,
			"target":34963
		},
		{
			"buffer":0,
			"byteLength":10368,
			"byteOffset":30240,
			"target":34962
		},
		{
			"buffer":0,
			"byteLength":10368,
			"byteOffset":40608,
			"target":34962
		},
		{
			"buffer":0,
			"byteLength":6912,
			"byteOffset":50976,
			"target":34962
		},
		{
			"buffer":0,
			"byteLength":2592,
			"byteOffset":57888,
			"target":34963
		},
		{
			"buffer":0,
			"byteLength":20736,
			"byteOffset":60480,
			"target":34962
		},
		{
			"buffer":0,
			"byteLength":20736,
			"byteOffset":81216,
			"target":34962
		},
		{
			"buffer":0,
			"byteLength":13824,
			"byteOffset":101952,
			"target":34962
		},
		{
			"buffer":0,
			"byteLength":5184,
			"byteOffset":115776,
			"target":34963
		},
		{
			"buffer":0,
			"byteLength":4752,
			"byteOffset":120960,
			"target":34962
		},
		{
			"buffer":0,
			"byteLength":4752,
			"byteOffset":125712,
			"target":34962
		},
		{
			"buffer":0,
			"byteLength":3168,
			"byteOffset":130464,
			"target":34962
		},
		{
			"buffer":0,
			"byteLength":1416,
			"byteOffset":133632,
			"target":34963
		}
	],
	"buffers":[
		{
			"byteLength":135048,
			"uri":"model.bin"
		}
	]
}
