{"asset": {"generator": "Khronos glTF Blender I/O v3.3.32", "version": "2.0"}, "scene": 0, "scenes": [{"name": "Scene", "nodes": [0]}], "nodes": [{"mesh": 0, "name": "sungka_board"}], "materials": [{"doubleSided": true, "name": "sungka_board", "normalTexture": {"index": 0}, "pbrMetallicRoughness": {"baseColorTexture": {"index": 1}, "metallicFactor": 0, "metallicRoughnessTexture": {"index": 2}}}], "meshes": [{"name": "Plane.006", "primitives": [{"attributes": {"POSITION": 0, "NORMAL": 1, "TEXCOORD_0": 2}, "indices": 3, "material": 0}]}], "textures": [{"sampler": 0, "source": 0}, {"sampler": 0, "source": 1}, {"sampler": 0, "source": 2}], "images": [{"mimeType": "image/jpeg", "name": "sungka_board_nor_gl", "uri": "textures/sungka_board_nor_gl_1k.jpg"}, {"mimeType": "image/jpeg", "name": "sungka_board_diff", "uri": "textures/sungka_board_diff_1k.jpg"}, {"mimeType": "image/jpeg", "name": "sungka_board_rough", "uri": "textures/sungka_board_arm_1k.jpg"}], "accessors": [{"bufferView": 0, "componentType": 5126, "count": 3897, "max": [0.09074118733406067, 0.03516770899295807, 0.3011411726474762], "min": [-0.049220889806747437, -5.847029387950897e-05, -0.2994248569011688], "type": "VEC3"}, {"bufferView": 1, "componentType": 5126, "count": 3897, "type": "VEC3"}, {"bufferView": 2, "componentType": 5126, "count": 3897, "type": "VEC2"}, {"bufferView": 3, "componentType": 5123, "count": 21912, "type": "SCALAR"}], "bufferViews": [{"buffer": 0, "byteLength": 46764, "byteOffset": 0, "target": 34962}, {"buffer": 0, "byteLength": 46764, "byteOffset": 46764, "target": 34962}, {"buffer": 0, "byteLength": 31176, "byteOffset": 93528, "target": 34962}, {"buffer": 0, "byteLength": 43824, "byteOffset": 124704, "target": 34963}], "samplers": [{"magFilter": 9729, "minFilter": 9987}], "buffers": [{"byteLength": 168528, "uri": "sungka_board.bin"}]}