{
	"asset":{
		"generator":"Khronos glTF Blender I/O v4.0.44",
		"version":"2.0"
	},
	"scene":0,
	"scenes":[
		{
			"name":"Scene",
			"nodes":[
				0
			]
		}
	],
	"nodes":[
		{
			"mesh":0,
			"name":"votiveStand",
			"rotation":[
				0.04991670697927475,
				0.0024979172740131617,
				0.04991670697927475,
				0.9975020885467529
			],
			"translation":[
				-0.2800000011920929,
				0.49000000953674316,
				0.18000000715255737
			]
		}
	],
	"materials":[
		{
			"doubleSided":true,
			"name":"iron",
			"pbrMetallicRoughness":{
				"baseColorFactor":[
					0.10999999940395355,
					0.10999999940395355,
					0.11999999731779099,
					1
				],
				"metallicFactor":0.8500000238418579,
				"roughnessFactor":0.44999998807907104
			}
		},
		{
			"doubleSided":true,
			"name":"stone",
			"pbrMetallicRoughness":{
				"baseColorFactor":[
					0.41999998688697815,
					0.3799999952316284,
					0.33000001311302185,
					1
				],
				"metallicFactor":0,
				"roughnessFactor":0.8500000238418579
			}
		},
		{
			"doubleSided":true,
			"name":"wax",
			"pbrMetallicRoughness":{
				"baseColorFactor":[
					0.8299999833106995,
					0.7900000214576721,
					0.6600000262260437,
					1
				],
				"metallicFactor":0,
				"roughnessFactor":0.550000011920929
			}
		}
	],
	"meshes":[
		{
			"name":"Cylinder",
			"primitives":[
				{
					"attributes":{
						"POSITION":0,
						"NORMAL":1,
						"TEXCOORD_0":2
					},
					"indices":3,
					"material":0
				},
				{
					"attributes":{
						"POSITION":4,
						"NORMAL":5,
						"TEXCOORD_0":6
					},
					"indices":7,
					"material":1
				},
				{
					"attributes":{
						"POSITION":8,
						"NORMAL":9,
						"TEXCOORD_0":10
					},
					"indices":11,
					"material":2
				}
			]
		}
	],
	"accessors":[
		{
			"bufferView":0,
			"componentType":5126,
			"count":1920,
			"max":[
				0.6736985445022583,
				0.5183616280555725,
				0.27755504846572876
			],
			"min":[
				-0.01600000075995922,
				-0.585798442363739,
				-0.4752039313316345
			],
			"type":"VEC3"
		},
		{
			"bufferView":1,
			"componentType":5126,
			"count":1920,
			"type":"VEC3"
		},
		{
			"bufferView":2,
			"componentType":5126,
			"count":1920,
			"type":"VEC2"
		},
		{
			"bufferView":3,
			"componentType":5123,
			"count":3144,
			"type":"SCALAR"
		},
		{
			"bufferView":4,
			"componentType":5126,
			"count":216,
			"max":[
				0.460696816444397,
				-0.27510058879852295,
				-0.016993366181850433
			],
			"min":[
				0.04159711301326752,
				-0.3609851896762848,
				-0.2809927463531494
			],
			"type":"VEC3"
		},
		{
			"bufferView":5,
			"componentType":5126,
			"count":216,
			"type":"VEC3"
		},
		{
			"bufferView":6,
			"componentType":5126,
			"count":216,
			"type":"VEC2"
		},
		{
			"bufferView":7,
			"componentType":5123,
			"count":324,
			"type":"SCALAR"
		},
		{
			"bufferView":8,
			"componentType":5126,
			"count":864,
			"max":[
				0.5368860363960266,
				0.5395166873931885,
				-0.1726067066192627
			],
			"min":[
				0.09019967168569565,
				0.0639357790350914,
				-0.22964762151241302
			],
			"type":"VEC3"
		},
		{
			"bufferView":9,
			"componentType":5126,
			"count":864,
			"type":"VEC3"
		},
		{
			"bufferView":10,
			"componentType":5126,
			"count":864,
			"type":"VEC2"
		},
		{
			"bufferView":11,
			"componentType":5123,
			"count":1512,
			"type":"SCALAR"
		}
	],
	"bufferViews":[
		{
			"buffer":0,
			"byteLength":23040,
			"byteOffset":0,
			"target":34962
		},
		{
			"buffer":0,
			"byteLength":23040,
			"byteOffset":23040,
			"target":34962
		},
		{
			"buffer":0,
			"byteLength":15360,
			"byteOffset":46080,
			"target":34962
		},
		{
			"buffer":0,
			"byteLength":6288,
			"byteOffset":61440,
			"target":34963
		},
		{
			"buffer":0,
			"byteLength":2592,
			"byteOffset":67728,
			"target":34962
		},
		{
			"buffer":0,
			"byteLength":2592,
			"byteOffset":70320,
			"target":34962
		},
		{
			"buffer":0,
			"byteLength":1728,
			"byteOffset":72912,
			"target":34962
		},
		{
			"buffer":0,
			"byteLength":648,
			"byteOffset":74640,
			"target":34963
		},
		{
			"buffer":0,
			"byteLength":10368,
			"byteOffset":75288,
			"target":34962
		},
		{
			"buffer":0,
			"byteLength":10368,
			"byteOffset":85656,
			"target":34962
		},
		{
			"buffer":0,
			"byteLength":6912,
			"byteOffset":96024,
			"target":34962
		},
		{
			"buffer":0,
			"byteLength":3024,
			"byteOffset":102936,
			"target":34963
		}
	],
	"buffers":[
		{
			"byteLength":105960,
			"uri":"model.bin"
		}
	]
}
