{
	"asset":{
		"generator":"Khronos glTF Blender I/O v4.0.44",
		"version":"2.0"
	},
	"scene":0,
	"scenes":[
		{
			"name":"Scene",
			"nodes":[
				0
			]
		}
	],
	"nodes":[
		{
			"mesh":0,
			"name":"printerRow"
		}
	],
	"materials":[
		{
			"doubleSided":true,
			"name":"wornleather",
			"pbrMetallicRoughness":{
				"baseColorFactor":[
					0.2800000011920929,
					0.18000000715255737,
					0.10999999940395355,
					1
				],
				"metallicFactor":0,
				"roughnessFactor":0.8500000238418579
			}
		},
		{
			"doubleSided":true,
			"name":"darkwood",
			"pbrMetallicRoughness":{
				"baseColorFactor":[
					0.1599999964237213,
					0.10000000149011612,
					0.07000000029802322,
					1
				],
				"metallicFactor":0,
				"roughnessFactor":0.699999988079071
			}
		},
		{
			"doubleSided":true,
			"name":"iron",
			"pbrMetallicRoughness":{
				"baseColorFactor":[
					0.10999999940395355,
					0.10999999940395355,
					0.11999999731779099,
					1
				],
				"metallicFactor":0.8500000238418579,
				"roughnessFactor":0.44999998807907104
			}
		},
		{
			"doubleSided":true,
			"name":"linen",
			"pbrMetallicRoughness":{
				"baseColorFactor":[
					0.7200000286102295,
					0.6600000262260437,
					0.550000011920929,
					1
				],
				"metallicFactor":0,
				"roughnessFactor":0.8999999761581421
			}
		},
		{
			"doubleSided":true,
			"name":"brass",
			"pbrMetallicRoughness":{
				"baseColorFactor":[
					0.41999998688697815,
					0.30000001192092896,
					0.11999999731779099,
					1
				],
				"metallicFactor":0.8999999761581421,
				"roughnessFactor":0.3499999940395355
			}
		}
	],
	"meshes":[
		{
			"name":"Cube",
			"primitives":[
				{
					"attributes":{
						"POSITION":0,
						"NORMAL":1,
						"TEXCOORD_0":2
					},
					"indices":3,
					"material":0
				},
				{
					"attributes":{
						"POSITION":4,
						"NORMAL":5,
						"TEXCOORD_0":6
					},
					"indices":7,
					"material":1
				},
				{
					"attributes":{
						"POSITION":8,
						"NORMAL":9,
						"TEXCOORD_0":10
					},
					"indices":11,
					"material":2
				},
				{
					"attributes":{
						"POSITION":12,
						"NORMAL":13,
						"TEXCOORD_0":14
					},
					"indices":15,
					"material":3
				},
				{
					"attributes":{
						"POSITION":16,
						"NORMAL":17,
						"TEXCOORD_0":18
					},
					"indices":19,
					"material":4
				}
			]
		}
	],
	"accessors":[
		{
			"bufferView":0,
			"componentType":5126,
			"count":216,
			"max":[
				1.2999999523162842,
				0.699999988079071,
				0.2750000059604645
			],
			"min":[
				-1.2999999523162842,
				0,
				-0.2750000059604645
			],
			"type":"VEC3"
		},
		{
			"bufferView":1,
			"componentType":5126,
			"count":216,
			"type":"VEC3"
		},
		{
			"bufferView":2,
			"componentType":5126,
			"count":216,
			"type":"VEC2"
		},
		{
			"bufferView":3,
			"componentType":5123,
			"count":324,
			"type":"SCALAR"
		},
		{
			"bufferView":4,
			"componentType":5126,
			"count":1080,
			"max":[
				1.350000023841858,
				0.8799999952316284,
				0.30000001192092896
			],
			"min":[
				-1.350000023841858,
				0.010000001639127731,
				-0.30000001192092896
			],
			"type":"VEC3"
		},
		{
			"bufferView":5,
			"componentType":5126,
			"count":1080,
			"type":"VEC3"
		},
		{
			"bufferView":6,
			"componentType":5126,
			"count":1080,
			"type":"VEC2"
		},
		{
			"bufferView":7,
			"componentType":5123,
			"count":1620,
			"type":"SCALAR"
		},
		{
			"bufferView":8,
			"componentType":5126,
			"count":648,
			"max":[
				1.1500000953674316,
				1.059999942779541,
				0.22499999403953552
			],
			"min":[
				-1.1500000953674316,
				0.7400000095367432,
				-0.22499999403953552
			],
			"type":"VEC3"
		},
		{
			"bufferView":9,
			"componentType":5126,
			"count":648,
			"type":"VEC3"
		},
		{
			"bufferView":10,
			"componentType":5126,
			"count":648,
			"type":"VEC2"
		},
		{
			"bufferView":11,
			"componentType":5123,
			"count":972,
			"type":"SCALAR"
		},
		{
			"bufferView":12,
			"componentType":5126,
			"count":648,
			"max":[
				1.0099999904632568,
				0.8696026802062988,
				0.2805452346801758
			],
			"min":[
				-1.0099999904632568,
				0.8191261887550354,
				0.0626673698425293
			],
			"type":"VEC3"
		},
		{
			"bufferView":13,
			"componentType":5126,
			"count":648,
			"type":"VEC3"
		},
		{
			"bufferView":14,
			"componentType":5126,
			"count":648,
			"type":"VEC2"
		},
		{
			"bufferView":15,
			"componentType":5123,
			"count":972,
			"type":"SCALAR"
		},
		{
			"bufferView":16,
			"componentType":5126,
			"count":144,
			"max":[
				1.0850000381469727,
				1.0699999332427979,
				0.16500000655651093
			],
			"min":[
				-0.6449999809265137,
				1.0499999523162842,
				0.13500000536441803
			],
			"type":"VEC3"
		},
		{
			"bufferView":17,
			"componentType":5126,
			"count":144,
			"type":"VEC3"
		},
		{
			"bufferView":18,
			"componentType":5126,
			"count":144,
			"type":"VEC2"
		},
		{
			"bufferView":19,
			"componentType":5123,
			"count":252,
			"type":"SCALAR"
		}
	],
	"bufferViews":[
		{
			"buffer":0,
			"byteLength":2592,
			"byteOffset":0,
			"target":34962
		},
		{
			"buffer":0,
			"byteLength":2592,
			"byteOffset":2592,
			"target":34962
		},
		{
			"buffer":0,
			"byteLength":1728,
			"byteOffset":5184,
			"target":34962
		},
		{
			"buffer":0,
			"byteLength":648,
			"byteOffset":6912,
			"target":34963
		},
		{
			"buffer":0,
			"byteLength":12960,
			"byteOffset":7560,
			"target":34962
		},
		{
			"buffer":0,
			"byteLength":12960,
			"byteOffset":20520,
			"target":34962
		},
		{
			"buffer":0,
			"byteLength":8640,
			"byteOffset":33480,
			"target":34962
		},
		{
			"buffer":0,
			"byteLength":3240,
			"byteOffset":42120,
			"target":34963
		},
		{
			"buffer":0,
			"byteLength":7776,
			"byteOffset":45360,
			"target":34962
		},
		{
			"buffer":0,
			"byteLength":7776,
			"byteOffset":53136,
			"target":34962
		},
		{
			"buffer":0,
			"byteLength":5184,
			"byteOffset":60912,
			"target":34962
		},
		{
			"buffer":0,
			"byteLength":1944,
			"byteOffset":66096,
			"target":34963
		},
		{
			"buffer":0,
			"byteLength":7776,
			"byteOffset":68040,
			"target":34962
		},
		{
			"buffer":0,
			"byteLength":7776,
			"byteOffset":75816,
			"target":34962
		},
		{
			"buffer":0,
			"byteLength":5184,
			"byteOffset":83592,
			"target":34962
		},
		{
			"buffer":0,
			"byteLength":1944,
			"byteOffset":88776,
			"target":34963
		},
		{
			"buffer":0,
			"byteLength":1728,
			"byteOffset":90720,
			"target":34962
		},
		{
			"buffer":0,
			"byteLength":1728,
			"byteOffset":92448,
			"target":34962
		},
		{
			"buffer":0,
			"byteLength":1152,
			"byteOffset":94176,
			"target":34962
		},
		{
			"buffer":0,
			"byteLength":504,
			"byteOffset":95328,
			"target":34963
		}
	],
	"buffers":[
		{
			"byteLength":95832,
			"uri":"model.bin"
		}
	]
}
