{
	"asset":{
		"generator":"Khronos glTF Blender I/O v4.0.44",
		"version":"2.0"
	},
	"scene":0,
	"scenes":[
		{
			"name":"Scene",
			"nodes":[
				0
			]
		}
	],
	"nodes":[
		{
			"mesh":0,
			"name":"waterCooler"
		}
	],
	"materials":[
		{
			"doubleSided":true,
			"name":"linen",
			"pbrMetallicRoughness":{
				"baseColorFactor":[
					0.7200000286102295,
					0.6600000262260437,
					0.550000011920929,
					1
				],
				"metallicFactor":0,
				"roughnessFactor":0.8999999761581421
			}
		},
		{
			"doubleSided":true,
			"name":"iron",
			"pbrMetallicRoughness":{
				"baseColorFactor":[
					0.10999999940395355,
					0.10999999940395355,
					0.11999999731779099,
					1
				],
				"metallicFactor":0.8500000238418579,
				"roughnessFactor":0.44999998807907104
			}
		},
		{
			"doubleSided":true,
			"name":"brass",
			"pbrMetallicRoughness":{
				"baseColorFactor":[
					0.41999998688697815,
					0.30000001192092896,
					0.11999999731779099,
					1
				],
				"metallicFactor":0.8999999761581421,
				"roughnessFactor":0.3499999940395355
			}
		},
		{
			"doubleSided":true,
			"name":"wax",
			"pbrMetallicRoughness":{
				"baseColorFactor":[
					0.8299999833106995,
					0.7900000214576721,
					0.6600000262260437,
					1
				],
				"metallicFactor":0,
				"roughnessFactor":0.550000011920929
			}
		},
		{
			"doubleSided":true,
			"name":"darkwood",
			"pbrMetallicRoughness":{
				"baseColorFactor":[
					0.1599999964237213,
					0.10000000149011612,
					0.07000000029802322,
					1
				],
				"metallicFactor":0,
				"roughnessFactor":0.699999988079071
			}
		}
	],
	"meshes":[
		{
			"name":"Cube",
			"primitives":[
				{
					"attributes":{
						"POSITION":0,
						"NORMAL":1,
						"TEXCOORD_0":2
					},
					"indices":3,
					"material":0
				},
				{
					"attributes":{
						"POSITION":4,
						"NORMAL":5,
						"TEXCOORD_0":6
					},
					"indices":7,
					"material":1
				},
				{
					"attributes":{
						"POSITION":8,
						"NORMAL":9,
						"TEXCOORD_0":10
					},
					"indices":11,
					"material":2
				},
				{
					"attributes":{
						"POSITION":12,
						"NORMAL":13,
						"TEXCOORD_0":14
					},
					"indices":15,
					"material":3
				},
				{
					"attributes":{
						"POSITION":16,
						"NORMAL":17,
						"TEXCOORD_0":18
					},
					"indices":19,
					"material":4
				}
			]
		}
	],
	"accessors":[
		{
			"bufferView":0,
			"componentType":5126,
			"count":216,
			"max":[
				0.18000000715255737,
				1,
				0.18000000715255737
			],
			"min":[
				-0.18000000715255737,
				0,
				-0.18000000715255737
			],
			"type":"VEC3"
		},
		{
			"bufferView":1,
			"componentType":5126,
			"count":216,
			"type":"VEC3"
		},
		{
			"bufferView":2,
			"componentType":5126,
			"count":216,
			"type":"VEC2"
		},
		{
			"bufferView":3,
			"componentType":5123,
			"count":324,
			"type":"SCALAR"
		},
		{
			"bufferView":4,
			"componentType":5126,
			"count":392,
			"max":[
				0.11999999731779099,
				0.7799999713897705,
				0.22999998927116394
			],
			"min":[
				-0.11999999731779099,
				0.3699999749660492,
				0.16499999165534973
			],
			"type":"VEC3"
		},
		{
			"bufferView":5,
			"componentType":5126,
			"count":392,
			"type":"VEC3"
		},
		{
			"bufferView":6,
			"componentType":5126,
			"count":392,
			"type":"VEC2"
		},
		{
			"bufferView":7,
			"componentType":5123,
			"count":564,
			"type":"SCALAR"
		},
		{
			"bufferView":8,
			"componentType":5126,
			"count":272,
			"max":[
				0.08500000089406967,
				0.7799999713897705,
				0.24000000953674316
			],
			"min":[
				-0.09000000357627869,
				0.7050000429153442,
				0.1599999964237213
			],
			"type":"VEC3"
		},
		{
			"bufferView":9,
			"componentType":5126,
			"count":272,
			"type":"VEC3"
		},
		{
			"bufferView":10,
			"componentType":5126,
			"count":272,
			"type":"VEC2"
		},
		{
			"bufferView":11,
			"componentType":5123,
			"count":408,
			"type":"SCALAR"
		},
		{
			"bufferView":12,
			"componentType":5126,
			"count":892,
			"max":[
				0.15000000596046448,
				1.4799998998641968,
				0.15000000596046448
			],
			"min":[
				-0.15000000596046448,
				1.0099999904632568,
				-0.15000000596046448
			],
			"type":"VEC3"
		},
		{
			"bufferView":13,
			"componentType":5126,
			"count":892,
			"type":"VEC3"
		},
		{
			"bufferView":14,
			"componentType":5126,
			"count":892,
			"type":"VEC2"
		},
		{
			"bufferView":15,
			"componentType":5123,
			"count":1344,
			"type":"SCALAR"
		},
		{
			"bufferView":16,
			"componentType":5126,
			"count":216,
			"max":[
				0.10999999940395355,
				0.3700000047683716,
				0.2199999988079071
			],
			"min":[
				-0.10999999940395355,
				0.3500000238418579,
				0.1599999964237213
			],
			"type":"VEC3"
		},
		{
			"bufferView":17,
			"componentType":5126,
			"count":216,
			"type":"VEC3"
		},
		{
			"bufferView":18,
			"componentType":5126,
			"count":216,
			"type":"VEC2"
		},
		{
			"bufferView":19,
			"componentType":5123,
			"count":324,
			"type":"SCALAR"
		}
	],
	"bufferViews":[
		{
			"buffer":0,
			"byteLength":2592,
			"byteOffset":0,
			"target":34962
		},
		{
			"buffer":0,
			"byteLength":2592,
			"byteOffset":2592,
			"target":34962
		},
		{
			"buffer":0,
			"byteLength":1728,
			"byteOffset":5184,
			"target":34962
		},
		{
			"buffer":0,
			"byteLength":648,
			"byteOffset":6912,
			"target":34963
		},
		{
			"buffer":0,
			"byteLength":4704,
			"byteOffset":7560,
			"target":34962
		},
		{
			"buffer":0,
			"byteLength":4704,
			"byteOffset":12264,
			"target":34962
		},
		{
			"buffer":0,
			"byteLength":3136,
			"byteOffset":16968,
			"target":34962
		},
		{
			"buffer":0,
			"byteLength":1128,
			"byteOffset":20104,
			"target":34963
		},
		{
			"buffer":0,
			"byteLength":3264,
			"byteOffset":21232,
			"target":34962
		},
		{
			"buffer":0,
			"byteLength":3264,
			"byteOffset":24496,
			"target":34962
		},
		{
			"buffer":0,
			"byteLength":2176,
			"byteOffset":27760,
			"target":34962
		},
		{
			"buffer":0,
			"byteLength":816,
			"byteOffset":29936,
			"target":34963
		},
		{
			"buffer":0,
			"byteLength":10704,
			"byteOffset":30752,
			"target":34962
		},
		{
			"buffer":0,
			"byteLength":10704,
			"byteOffset":41456,
			"target":34962
		},
		{
			"buffer":0,
			"byteLength":7136,
			"byteOffset":52160,
			"target":34962
		},
		{
			"buffer":0,
			"byteLength":2688,
			"byteOffset":59296,
			"target":34963
		},
		{
			"buffer":0,
			"byteLength":2592,
			"byteOffset":61984,
			"target":34962
		},
		{
			"buffer":0,
			"byteLength":2592,
			"byteOffset":64576,
			"target":34962
		},
		{
			"buffer":0,
			"byteLength":1728,
			"byteOffset":67168,
			"target":34962
		},
		{
			"buffer":0,
			"byteLength":648,
			"byteOffset":68896,
			"target":34963
		}
	],
	"buffers":[
		{
			"byteLength":69544,
			"uri":"model.bin"
		}
	]
}
