{
	"asset":{
		"generator":"Khronos glTF Blender I/O v4.0.44",
		"version":"2.0"
	},
	"scene":0,
	"scenes":[
		{
			"name":"Scene",
			"nodes":[
				0
			]
		}
	],
	"nodes":[
		{
			"mesh":0,
			"name":"pilaster"
		}
	],
	"materials":[
		{
			"doubleSided":true,
			"name":"stone",
			"pbrMetallicRoughness":{
				"baseColorFactor":[
					0.41999998688697815,
					0.3799999952316284,
					0.33000001311302185,
					1
				],
				"metallicFactor":0,
				"roughnessFactor":0.8500000238418579
			}
		}
	],
	"meshes":[
		{
			"name":"Cube",
			"primitives":[
				{
					"attributes":{
						"POSITION":0,
						"NORMAL":1,
						"TEXCOORD_0":2
					},
					"indices":3,
					"material":0
				}
			]
		}
	],
	"accessors":[
		{
			"bufferView":0,
			"componentType":5126,
			"count":2160,
			"max":[
				0.23000000417232513,
				1.225000023841858,
				0.15000000596046448
			],
			"min":[
				-0.23000000417232513,
				-1.25,
				0
			],
			"type":"VEC3"
		},
		{
			"bufferView":1,
			"componentType":5126,
			"count":2160,
			"type":"VEC3"
		},
		{
			"bufferView":2,
			"componentType":5126,
			"count":2160,
			"type":"VEC2"
		},
		{
			"bufferView":3,
			"componentType":5123,
			"count":3240,
			"type":"SCALAR"
		}
	],
	"bufferViews":[
		{
			"buffer":0,
			"byteLength":25920,
			"byteOffset":0,
			"target":34962
		},
		{
			"buffer":0,
			"byteLength":25920,
			"byteOffset":25920,
			"target":34962
		},
		{
			"buffer":0,
			"byteLength":17280,
			"byteOffset":51840,
			"target":34962
		},
		{
			"buffer":0,
			"byteLength":6480,
			"byteOffset":69120,
			"target":34963
		}
	],
	"buffers":[
		{
			"byteLength":75600,
			"uri":"model.bin"
		}
	]
}
