{
	"asset":{
		"generator":"Khronos glTF Blender I/O v4.2.70",
		"version":"2.0"
	},
	"scene":0,
	"scenes":[
		{
			"name":"Scene",
			"nodes":[
				0
			]
		}
	],
	"nodes":[
		{
			"mesh":0,
			"name":"boneArch"
		}
	],
	"materials":[
		{
			"doubleSided":true,
			"name":"darkwood",
			"pbrMetallicRoughness":{
				"baseColorFactor":[
					0.1599999964237213,
					0.10000000149011612,
					0.07000000029802322,
					1
				],
				"metallicFactor":0,
				"roughnessFactor":0.699999988079071
			}
		},
		{
			"doubleSided":true,
			"name":"stone",
			"pbrMetallicRoughness":{
				"baseColorFactor":[
					0.41999998688697815,
					0.3799999952316284,
					0.33000001311302185,
					1
				],
				"metallicFactor":0,
				"roughnessFactor":0.8500000238418579
			}
		}
	],
	"meshes":[
		{
			"name":"rib",
			"primitives":[
				{
					"attributes":{
						"POSITION":0,
						"NORMAL":1,
						"TEXCOORD_0":2
					},
					"indices":3,
					"material":0
				},
				{
					"attributes":{
						"POSITION":4,
						"NORMAL":5,
						"TEXCOORD_0":6
					},
					"indices":7,
					"material":1
				}
			]
		}
	],
	"accessors":[
		{
			"bufferView":0,
			"componentType":5126,
			"count":6300,
			"max":[
				1.1596800088882446,
				2.5339999198913574,
				0.30000001192092896
			],
			"min":[
				-1.1596800088882446,
				0,
				-0.30000001192092896
			],
			"type":"VEC3"
		},
		{
			"bufferView":1,
			"componentType":5126,
			"count":6300,
			"type":"VEC3"
		},
		{
			"bufferView":2,
			"componentType":5126,
			"count":6300,
			"type":"VEC2"
		},
		{
			"bufferView":3,
			"componentType":5123,
			"count":10152,
			"type":"SCALAR"
		},
		{
			"bufferView":4,
			"componentType":5126,
			"count":2700,
			"max":[
				0.052308112382888794,
				2.5789999961853027,
				0.3050000071525574
			],
			"min":[
				-0.05230811983346939,
				2.4689998626708984,
				-0.3050000071525574
			],
			"type":"VEC3"
		},
		{
			"bufferView":5,
			"componentType":5126,
			"count":2700,
			"type":"VEC3"
		},
		{
			"bufferView":6,
			"componentType":5126,
			"count":2700,
			"type":"VEC2"
		},
		{
			"bufferView":7,
			"componentType":5123,
			"count":3780,
			"type":"SCALAR"
		}
	],
	"bufferViews":[
		{
			"buffer":0,
			"byteLength":75600,
			"byteOffset":0,
			"target":34962
		},
		{
			"buffer":0,
			"byteLength":75600,
			"byteOffset":75600,
			"target":34962
		},
		{
			"buffer":0,
			"byteLength":50400,
			"byteOffset":151200,
			"target":34962
		},
		{
			"buffer":0,
			"byteLength":20304,
			"byteOffset":201600,
			"target":34963
		},
		{
			"buffer":0,
			"byteLength":32400,
			"byteOffset":221904,
			"target":34962
		},
		{
			"buffer":0,
			"byteLength":32400,
			"byteOffset":254304,
			"target":34962
		},
		{
			"buffer":0,
			"byteLength":21600,
			"byteOffset":286704,
			"target":34962
		},
		{
			"buffer":0,
			"byteLength":7560,
			"byteOffset":308304,
			"target":34963
		}
	],
	"buffers":[
		{
			"byteLength":315864,
			"uri":"model.bin"
		}
	]
}
