{
	"asset":{
		"generator":"Khronos glTF Blender I/O v4.0.44",
		"version":"2.0"
	},
	"scene":0,
	"scenes":[
		{
			"name":"Scene",
			"nodes":[
				0
			]
		}
	],
	"nodes":[
		{
			"mesh":0,
			"name":"curtainRod",
			"rotation":[
				0,
				0,
				-0.7071068286895752,
				0.7071068286895752
			],
			"translation":[
				0,
				2.049999952316284,
				0.09000000357627869
			]
		}
	],
	"materials":[
		{
			"doubleSided":true,
			"name":"brass",
			"pbrMetallicRoughness":{
				"baseColorFactor":[
					0.41999998688697815,
					0.30000001192092896,
					0.11999999731779099,
					1
				],
				"metallicFactor":0.8999999761581421,
				"roughnessFactor":0.3499999940395355
			}
		},
		{
			"doubleSided":true,
			"name":"velvet",
			"pbrMetallicRoughness":{
				"baseColorFactor":[
					0.30000001192092896,
					0.07000000029802322,
					0.07999999821186066,
					1
				],
				"metallicFactor":0,
				"roughnessFactor":0.949999988079071
			}
		}
	],
	"meshes":[
		{
			"name":"Cylinder",
			"primitives":[
				{
					"attributes":{
						"POSITION":0,
						"NORMAL":1,
						"TEXCOORD_0":2
					},
					"indices":3,
					"material":0
				},
				{
					"attributes":{
						"POSITION":4,
						"NORMAL":5,
						"TEXCOORD_0":6
					},
					"indices":7,
					"material":1
				}
			]
		}
	],
	"accessors":[
		{
			"bufferView":0,
			"componentType":5126,
			"count":1956,
			"max":[
				1.0080000162124634,
				1.1661401987075806,
				0.11800000071525574
			],
			"min":[
				-0.059999942779541016,
				-1.1661401987075806,
				-0.12000000476837158
			],
			"type":"VEC3"
		},
		{
			"bufferView":1,
			"componentType":5126,
			"count":1956,
			"type":"VEC3"
		},
		{
			"bufferView":2,
			"componentType":5126,
			"count":1956,
			"type":"VEC2"
		},
		{
			"bufferView":3,
			"componentType":5123,
			"count":2916,
			"type":"SCALAR"
		},
		{
			"bufferView":4,
			"componentType":5126,
			"count":3024,
			"max":[
				1.7300000190734863,
				1.007500171661377,
				0.10155805945396423
			],
			"min":[
				0.009999990463256836,
				-1.0075000524520874,
				-0.026820212602615356
			],
			"type":"VEC3"
		},
		{
			"bufferView":5,
			"componentType":5126,
			"count":3024,
			"type":"VEC3"
		},
		{
			"bufferView":6,
			"componentType":5126,
			"count":3024,
			"type":"VEC2"
		},
		{
			"bufferView":7,
			"componentType":5123,
			"count":4536,
			"type":"SCALAR"
		}
	],
	"bufferViews":[
		{
			"buffer":0,
			"byteLength":23472,
			"byteOffset":0,
			"target":34962
		},
		{
			"buffer":0,
			"byteLength":23472,
			"byteOffset":23472,
			"target":34962
		},
		{
			"buffer":0,
			"byteLength":15648,
			"byteOffset":46944,
			"target":34962
		},
		{
			"buffer":0,
			"byteLength":5832,
			"byteOffset":62592,
			"target":34963
		},
		{
			"buffer":0,
			"byteLength":36288,
			"byteOffset":68424,
			"target":34962
		},
		{
			"buffer":0,
			"byteLength":36288,
			"byteOffset":104712,
			"target":34962
		},
		{
			"buffer":0,
			"byteLength":24192,
			"byteOffset":141000,
			"target":34962
		},
		{
			"buffer":0,
			"byteLength":9072,
			"byteOffset":165192,
			"target":34963
		}
	],
	"buffers":[
		{
			"byteLength":174264,
			"uri":"model.bin"
		}
	]
}
