{
	"asset":{
		"generator":"Khronos glTF Blender I/O v4.0.44",
		"version":"2.0"
	},
	"scene":0,
	"scenes":[
		{
			"name":"Scene",
			"nodes":[
				0
			]
		}
	],
	"nodes":[
		{
			"mesh":0,
			"name":"corniceRun"
		}
	],
	"materials":[
		{
			"doubleSided":true,
			"name":"stone",
			"pbrMetallicRoughness":{
				"baseColorFactor":[
					0.41999998688697815,
					0.3799999952316284,
					0.33000001311302185,
					1
				],
				"metallicFactor":0,
				"roughnessFactor":0.8500000238418579
			}
		}
	],
	"meshes":[
		{
			"name":"Cube",
			"primitives":[
				{
					"attributes":{
						"POSITION":0,
						"NORMAL":1,
						"TEXCOORD_0":2
					},
					"indices":3,
					"material":0
				}
			]
		}
	],
	"accessors":[
		{
			"bufferView":0,
			"componentType":5126,
			"count":5184,
			"max":[
				0.8999999761581421,
				0.11999999731779099,
				0.1550000011920929
			],
			"min":[
				-0.8999999761581421,
				-0.12000000476837158,
				-0.05499999597668648
			],
			"type":"VEC3"
		},
		{
			"bufferView":1,
			"componentType":5126,
			"count":5184,
			"type":"VEC3"
		},
		{
			"bufferView":2,
			"componentType":5126,
			"count":5184,
			"type":"VEC2"
		},
		{
			"bufferView":3,
			"componentType":5123,
			"count":7776,
			"type":"SCALAR"
		}
	],
	"bufferViews":[
		{
			"buffer":0,
			"byteLength":62208,
			"byteOffset":0,
			"target":34962
		},
		{
			"buffer":0,
			"byteLength":62208,
			"byteOffset":62208,
			"target":34962
		},
		{
			"buffer":0,
			"byteLength":41472,
			"byteOffset":124416,
			"target":34962
		},
		{
			"buffer":0,
			"byteLength":15552,
			"byteOffset":165888,
			"target":34963
		}
	],
	"buffers":[
		{
			"byteLength":181440,
			"uri":"model.bin"
		}
	]
}
