{
	"asset":{
		"generator":"Khronos glTF Blender I/O v4.2.70",
		"version":"2.0"
	},
	"scene":0,
	"scenes":[
		{
			"name":"Scene",
			"nodes":[
				0
			]
		}
	],
	"nodes":[
		{
			"mesh":0,
			"name":"pewRow"
		}
	],
	"materials":[
		{
			"doubleSided":true,
			"name":"oakwood",
			"pbrMetallicRoughness":{
				"baseColorFactor":[
					0.3199999928474426,
					0.2199999988079071,
					0.12999999523162842,
					1
				],
				"metallicFactor":0,
				"roughnessFactor":0.800000011920929
			}
		},
		{
			"doubleSided":true,
			"name":"darkwood",
			"pbrMetallicRoughness":{
				"baseColorFactor":[
					0.1599999964237213,
					0.10000000149011612,
					0.07000000029802322,
					1
				],
				"metallicFactor":0,
				"roughnessFactor":0.699999988079071
			}
		},
		{
			"doubleSided":true,
			"name":"wornleather",
			"pbrMetallicRoughness":{
				"baseColorFactor":[
					0.2800000011920929,
					0.18000000715255737,
					0.10999999940395355,
					1
				],
				"metallicFactor":0,
				"roughnessFactor":0.8500000238418579
			}
		}
	],
	"meshes":[
		{
			"name":"Cube",
			"primitives":[
				{
					"attributes":{
						"POSITION":0,
						"NORMAL":1,
						"TEXCOORD_0":2
					},
					"indices":3,
					"material":0
				},
				{
					"attributes":{
						"POSITION":4,
						"NORMAL":5,
						"TEXCOORD_0":6
					},
					"indices":7,
					"material":1
				},
				{
					"attributes":{
						"POSITION":8,
						"NORMAL":9,
						"TEXCOORD_0":10
					},
					"indices":11,
					"material":2
				}
			]
		}
	],
	"accessors":[
		{
			"bufferView":0,
			"componentType":5126,
			"count":432,
			"max":[
				1.2000000476837158,
				1.0499999523162842,
				0.2750000059604645
			],
			"min":[
				-1.2000000476837158,
				0.1899999976158142,
				-0.25
			],
			"type":"VEC3"
		},
		{
			"bufferView":1,
			"componentType":5126,
			"count":432,
			"type":"VEC3"
		},
		{
			"bufferView":2,
			"componentType":5126,
			"count":432,
			"type":"VEC2"
		},
		{
			"bufferView":3,
			"componentType":5123,
			"count":648,
			"type":"SCALAR"
		},
		{
			"bufferView":4,
			"componentType":5126,
			"count":1296,
			"max":[
				1.21999990940094,
				1.0199999809265137,
				0.29500001668930054
			],
			"min":[
				-1.21999990940094,
				0.019999980926513672,
				-0.2549999952316284
			],
			"type":"VEC3"
		},
		{
			"bufferView":5,
			"componentType":5126,
			"count":1296,
			"type":"VEC3"
		},
		{
			"bufferView":6,
			"componentType":5126,
			"count":1296,
			"type":"VEC2"
		},
		{
			"bufferView":7,
			"componentType":5123,
			"count":1944,
			"type":"SCALAR"
		},
		{
			"bufferView":8,
			"componentType":5126,
			"count":648,
			"max":[
				1.2299998998641968,
				1.059999942779541,
				0.42000001668930054
			],
			"min":[
				-1.2299998998641968,
				0.8600000143051147,
				0.20999999344348907
			],
			"type":"VEC3"
		},
		{
			"bufferView":9,
			"componentType":5126,
			"count":648,
			"type":"VEC3"
		},
		{
			"bufferView":10,
			"componentType":5126,
			"count":648,
			"type":"VEC2"
		},
		{
			"bufferView":11,
			"componentType":5123,
			"count":972,
			"type":"SCALAR"
		}
	],
	"bufferViews":[
		{
			"buffer":0,
			"byteLength":5184,
			"byteOffset":0,
			"target":34962
		},
		{
			"buffer":0,
			"byteLength":5184,
			"byteOffset":5184,
			"target":34962
		},
		{
			"buffer":0,
			"byteLength":3456,
			"byteOffset":10368,
			"target":34962
		},
		{
			"buffer":0,
			"byteLength":1296,
			"byteOffset":13824,
			"target":34963
		},
		{
			"buffer":0,
			"byteLength":15552,
			"byteOffset":15120,
			"target":34962
		},
		{
			"buffer":0,
			"byteLength":15552,
			"byteOffset":30672,
			"target":34962
		},
		{
			"buffer":0,
			"byteLength":10368,
			"byteOffset":46224,
			"target":34962
		},
		{
			"buffer":0,
			"byteLength":3888,
			"byteOffset":56592,
			"target":34963
		},
		{
			"buffer":0,
			"byteLength":7776,
			"byteOffset":60480,
			"target":34962
		},
		{
			"buffer":0,
			"byteLength":7776,
			"byteOffset":68256,
			"target":34962
		},
		{
			"buffer":0,
			"byteLength":5184,
			"byteOffset":76032,
			"target":34962
		},
		{
			"buffer":0,
			"byteLength":1944,
			"byteOffset":81216,
			"target":34963
		}
	],
	"buffers":[
		{
			"byteLength":83160,
			"uri":"model.bin"
		}
	]
}
