{
	"asset":{
		"generator":"Khronos glTF Blender I/O v4.0.44",
		"version":"2.0"
	},
	"scene":0,
	"scenes":[
		{
			"name":"Scene",
			"nodes":[
				0
			]
		}
	],
	"nodes":[
		{
			"mesh":0,
			"name":"curtainLong"
		}
	],
	"materials":[
		{
			"doubleSided":true,
			"name":"velvet",
			"pbrMetallicRoughness":{
				"baseColorFactor":[
					0.30000001192092896,
					0.07000000029802322,
					0.07999999821186066,
					1
				],
				"metallicFactor":0,
				"roughnessFactor":0.949999988079071
			}
		},
		{
			"doubleSided":true,
			"name":"wornleather",
			"pbrMetallicRoughness":{
				"baseColorFactor":[
					0.2800000011920929,
					0.18000000715255737,
					0.10999999940395355,
					1
				],
				"metallicFactor":0,
				"roughnessFactor":0.8500000238418579
			}
		},
		{
			"doubleSided":true,
			"name":"brass",
			"pbrMetallicRoughness":{
				"baseColorFactor":[
					0.41999998688697815,
					0.30000001192092896,
					0.11999999731779099,
					1
				],
				"metallicFactor":0.8999999761581421,
				"roughnessFactor":0.3499999940395355
			}
		}
	],
	"meshes":[
		{
			"name":"Cube",
			"primitives":[
				{
					"attributes":{
						"POSITION":0,
						"NORMAL":1,
						"TEXCOORD_0":2
					},
					"indices":3,
					"material":0
				},
				{
					"attributes":{
						"POSITION":4,
						"NORMAL":5,
						"TEXCOORD_0":6
					},
					"indices":7,
					"material":1
				},
				{
					"attributes":{
						"POSITION":8,
						"NORMAL":9,
						"TEXCOORD_0":10
					},
					"indices":11,
					"material":2
				}
			]
		}
	],
	"accessors":[
		{
			"bufferView":0,
			"componentType":5126,
			"count":2592,
			"max":[
				0.8500000238418579,
				2.299999952316284,
				0.13499999046325684
			],
			"min":[
				-0.9183349609375,
				0.010000001639127731,
				0.029999997466802597
			],
			"type":"VEC3"
		},
		{
			"bufferView":1,
			"componentType":5126,
			"count":2592,
			"type":"VEC3"
		},
		{
			"bufferView":2,
			"componentType":5126,
			"count":2592,
			"type":"VEC2"
		},
		{
			"bufferView":3,
			"componentType":5123,
			"count":3888,
			"type":"SCALAR"
		},
		{
			"bufferView":4,
			"componentType":5126,
			"count":216,
			"max":[
				0.8500000238418579,
				2.1500000953674316,
				0.125
			],
			"min":[
				-0.8500000238418579,
				2.119999885559082,
				0.10500000417232513
			],
			"type":"VEC3"
		},
		{
			"bufferView":5,
			"componentType":5126,
			"count":216,
			"type":"VEC3"
		},
		{
			"bufferView":6,
			"componentType":5126,
			"count":216,
			"type":"VEC2"
		},
		{
			"bufferView":7,
			"componentType":5123,
			"count":324,
			"type":"SCALAR"
		},
		{
			"bufferView":8,
			"componentType":5126,
			"count":60,
			"max":[
				0.925000011920929,
				2.3433146476745605,
				0.07400000095367432
			],
			"min":[
				-0.925000011920929,
				2.316685199737549,
				0.04599999636411667
			],
			"type":"VEC3"
		},
		{
			"bufferView":9,
			"componentType":5126,
			"count":60,
			"type":"VEC3"
		},
		{
			"bufferView":10,
			"componentType":5126,
			"count":60,
			"type":"VEC2"
		},
		{
			"bufferView":11,
			"componentType":5123,
			"count":108,
			"type":"SCALAR"
		}
	],
	"bufferViews":[
		{
			"buffer":0,
			"byteLength":31104,
			"byteOffset":0,
			"target":34962
		},
		{
			"buffer":0,
			"byteLength":31104,
			"byteOffset":31104,
			"target":34962
		},
		{
			"buffer":0,
			"byteLength":20736,
			"byteOffset":62208,
			"target":34962
		},
		{
			"buffer":0,
			"byteLength":7776,
			"byteOffset":82944,
			"target":34963
		},
		{
			"buffer":0,
			"byteLength":2592,
			"byteOffset":90720,
			"target":34962
		},
		{
			"buffer":0,
			"byteLength":2592,
			"byteOffset":93312,
			"target":34962
		},
		{
			"buffer":0,
			"byteLength":1728,
			"byteOffset":95904,
			"target":34962
		},
		{
			"buffer":0,
			"byteLength":648,
			"byteOffset":97632,
			"target":34963
		},
		{
			"buffer":0,
			"byteLength":720,
			"byteOffset":98280,
			"target":34962
		},
		{
			"buffer":0,
			"byteLength":720,
			"byteOffset":99000,
			"target":34962
		},
		{
			"buffer":0,
			"byteLength":480,
			"byteOffset":99720,
			"target":34962
		},
		{
			"buffer":0,
			"byteLength":216,
			"byteOffset":100200,
			"target":34963
		}
	],
	"buffers":[
		{
			"byteLength":100416,
			"uri":"model.bin"
		}
	]
}
