{
	"asset":{
		"generator":"Khronos glTF Blender I/O v4.2.70",
		"version":"2.0"
	},
	"scene":0,
	"scenes":[
		{
			"name":"Scene",
			"nodes":[
				0
			]
		}
	],
	"nodes":[
		{
			"mesh":0,
			"name":"sculleryRack"
		}
	],
	"materials":[
		{
			"doubleSided":true,
			"name":"oakwood",
			"pbrMetallicRoughness":{
				"baseColorFactor":[
					0.3199999928474426,
					0.2199999988079071,
					0.12999999523162842,
					1
				],
				"metallicFactor":0,
				"roughnessFactor":0.800000011920929
			}
		},
		{
			"doubleSided":true,
			"name":"iron",
			"pbrMetallicRoughness":{
				"baseColorFactor":[
					0.10999999940395355,
					0.10999999940395355,
					0.11999999731779099,
					1
				],
				"metallicFactor":0.8500000238418579,
				"roughnessFactor":0.44999998807907104
			}
		},
		{
			"doubleSided":true,
			"name":"stone",
			"pbrMetallicRoughness":{
				"baseColorFactor":[
					0.41999998688697815,
					0.3799999952316284,
					0.33000001311302185,
					1
				],
				"metallicFactor":0,
				"roughnessFactor":0.8500000238418579
			}
		},
		{
			"doubleSided":true,
			"name":"brass",
			"pbrMetallicRoughness":{
				"baseColorFactor":[
					0.41999998688697815,
					0.30000001192092896,
					0.11999999731779099,
					1
				],
				"metallicFactor":0.8999999761581421,
				"roughnessFactor":0.3499999940395355
			}
		}
	],
	"meshes":[
		{
			"name":"Cube",
			"primitives":[
				{
					"attributes":{
						"POSITION":0,
						"NORMAL":1,
						"TEXCOORD_0":2
					},
					"indices":3,
					"material":0
				},
				{
					"attributes":{
						"POSITION":4,
						"NORMAL":5,
						"TEXCOORD_0":6
					},
					"indices":7,
					"material":1
				},
				{
					"attributes":{
						"POSITION":8,
						"NORMAL":9,
						"TEXCOORD_0":10
					},
					"indices":11,
					"material":2
				},
				{
					"attributes":{
						"POSITION":12,
						"NORMAL":13,
						"TEXCOORD_0":14
					},
					"indices":15,
					"material":3
				}
			]
		}
	],
	"accessors":[
		{
			"bufferView":0,
			"componentType":5126,
			"count":3024,
			"max":[
				0.5,
				0.39000001549720764,
				0.10250000655651093
			],
			"min":[
				-0.5,
				-0.39000001549720764,
				-0.10250000655651093
			],
			"type":"VEC3"
		},
		{
			"bufferView":1,
			"componentType":5126,
			"count":3024,
			"type":"VEC3"
		},
		{
			"bufferView":2,
			"componentType":5126,
			"count":3024,
			"type":"VEC2"
		},
		{
			"bufferView":3,
			"componentType":5123,
			"count":4536,
			"type":"SCALAR"
		},
		{
			"bufferView":4,
			"componentType":5126,
			"count":216,
			"max":[
				0.29519614577293396,
				0.20000000298023224,
				0.10599999874830246
			],
			"min":[
				-0.365196168422699,
				-0.019999995827674866,
				0.09400000423192978
			],
			"type":"VEC3"
		},
		{
			"bufferView":5,
			"componentType":5126,
			"count":216,
			"type":"VEC3"
		},
		{
			"bufferView":6,
			"componentType":5126,
			"count":216,
			"type":"VEC2"
		},
		{
			"bufferView":7,
			"componentType":5123,
			"count":360,
			"type":"SCALAR"
		},
		{
			"bufferView":8,
			"componentType":5126,
			"count":288,
			"max":[
				0.3499999940395355,
				0.1899999976158142,
				0.056000005453825
			],
			"min":[
				-0.3499999940395355,
				0.009999997913837433,
				0.04399999603629112
			],
			"type":"VEC3"
		},
		{
			"bufferView":9,
			"componentType":5126,
			"count":288,
			"type":"VEC3"
		},
		{
			"bufferView":10,
			"componentType":5126,
			"count":288,
			"type":"VEC2"
		},
		{
			"bufferView":11,
			"componentType":5123,
			"count":540,
			"type":"SCALAR"
		},
		{
			"bufferView":12,
			"componentType":5126,
			"count":48,
			"max":[
				0.44999998807907104,
				-0.4309999644756317,
				0.10899999737739563
			],
			"min":[
				-0.44999998807907104,
				-0.4490000307559967,
				0.09100000560283661
			],
			"type":"VEC3"
		},
		{
			"bufferView":13,
			"componentType":5126,
			"count":48,
			"type":"VEC3"
		},
		{
			"bufferView":14,
			"componentType":5126,
			"count":48,
			"type":"VEC2"
		},
		{
			"bufferView":15,
			"componentType":5123,
			"count":84,
			"type":"SCALAR"
		}
	],
	"bufferViews":[
		{
			"buffer":0,
			"byteLength":36288,
			"byteOffset":0,
			"target":34962
		},
		{
			"buffer":0,
			"byteLength":36288,
			"byteOffset":36288,
			"target":34962
		},
		{
			"buffer":0,
			"byteLength":24192,
			"byteOffset":72576,
			"target":34962
		},
		{
			"buffer":0,
			"byteLength":9072,
			"byteOffset":96768,
			"target":34963
		},
		{
			"buffer":0,
			"byteLength":2592,
			"byteOffset":105840,
			"target":34962
		},
		{
			"buffer":0,
			"byteLength":2592,
			"byteOffset":108432,
			"target":34962
		},
		{
			"buffer":0,
			"byteLength":1728,
			"byteOffset":111024,
			"target":34962
		},
		{
			"buffer":0,
			"byteLength":720,
			"byteOffset":112752,
			"target":34963
		},
		{
			"buffer":0,
			"byteLength":3456,
			"byteOffset":113472,
			"target":34962
		},
		{
			"buffer":0,
			"byteLength":3456,
			"byteOffset":116928,
			"target":34962
		},
		{
			"buffer":0,
			"byteLength":2304,
			"byteOffset":120384,
			"target":34962
		},
		{
			"buffer":0,
			"byteLength":1080,
			"byteOffset":122688,
			"target":34963
		},
		{
			"buffer":0,
			"byteLength":576,
			"byteOffset":123768,
			"target":34962
		},
		{
			"buffer":0,
			"byteLength":576,
			"byteOffset":124344,
			"target":34962
		},
		{
			"buffer":0,
			"byteLength":384,
			"byteOffset":124920,
			"target":34962
		},
		{
			"buffer":0,
			"byteLength":168,
			"byteOffset":125304,
			"target":34963
		}
	],
	"buffers":[
		{
			"byteLength":125472,
			"uri":"model.bin"
		}
	]
}
