{
	"asset":{
		"generator":"Khronos glTF Blender I/O v4.0.44",
		"version":"2.0"
	},
	"scene":0,
	"scenes":[
		{
			"name":"Scene",
			"nodes":[
				0
			]
		}
	],
	"nodes":[
		{
			"mesh":0,
			"name":"settee"
		}
	],
	"materials":[
		{
			"doubleSided":true,
			"name":"darkwood",
			"pbrMetallicRoughness":{
				"baseColorFactor":[
					0.1599999964237213,
					0.10000000149011612,
					0.07000000029802322,
					1
				],
				"metallicFactor":0,
				"roughnessFactor":0.699999988079071
			}
		},
		{
			"doubleSided":true,
			"name":"velvet",
			"pbrMetallicRoughness":{
				"baseColorFactor":[
					0.30000001192092896,
					0.07000000029802322,
					0.07999999821186066,
					1
				],
				"metallicFactor":0,
				"roughnessFactor":0.949999988079071
			}
		}
	],
	"meshes":[
		{
			"name":"Cube",
			"primitives":[
				{
					"attributes":{
						"POSITION":0,
						"NORMAL":1,
						"TEXCOORD_0":2
					},
					"indices":3,
					"material":0
				},
				{
					"attributes":{
						"POSITION":4,
						"NORMAL":5,
						"TEXCOORD_0":6
					},
					"indices":7,
					"material":1
				}
			]
		}
	],
	"accessors":[
		{
			"bufferView":0,
			"componentType":5126,
			"count":2160,
			"max":[
				0.7250000238418579,
				0.9100000262260437,
				0.33000001311302185
			],
			"min":[
				-0.7250000238418579,
				-0.020000001415610313,
				-0.39500001072883606
			],
			"type":"VEC3"
		},
		{
			"bufferView":1,
			"componentType":5126,
			"count":2160,
			"type":"VEC3"
		},
		{
			"bufferView":2,
			"componentType":5126,
			"count":2160,
			"type":"VEC2"
		},
		{
			"bufferView":3,
			"componentType":5123,
			"count":3192,
			"type":"SCALAR"
		},
		{
			"bufferView":4,
			"componentType":5126,
			"count":1032,
			"max":[
				0.8324928283691406,
				0.9381990432739258,
				0.3400000035762787
			],
			"min":[
				-0.8324928283691406,
				0.38999998569488525,
				-0.45004820823669434
			],
			"type":"VEC3"
		},
		{
			"bufferView":5,
			"componentType":5126,
			"count":1032,
			"type":"VEC3"
		},
		{
			"bufferView":6,
			"componentType":5126,
			"count":1032,
			"type":"VEC2"
		},
		{
			"bufferView":7,
			"componentType":5123,
			"count":1608,
			"type":"SCALAR"
		}
	],
	"bufferViews":[
		{
			"buffer":0,
			"byteLength":25920,
			"byteOffset":0,
			"target":34962
		},
		{
			"buffer":0,
			"byteLength":25920,
			"byteOffset":25920,
			"target":34962
		},
		{
			"buffer":0,
			"byteLength":17280,
			"byteOffset":51840,
			"target":34962
		},
		{
			"buffer":0,
			"byteLength":6384,
			"byteOffset":69120,
			"target":34963
		},
		{
			"buffer":0,
			"byteLength":12384,
			"byteOffset":75504,
			"target":34962
		},
		{
			"buffer":0,
			"byteLength":12384,
			"byteOffset":87888,
			"target":34962
		},
		{
			"buffer":0,
			"byteLength":8256,
			"byteOffset":100272,
			"target":34962
		},
		{
			"buffer":0,
			"byteLength":3216,
			"byteOffset":108528,
			"target":34963
		}
	],
	"buffers":[
		{
			"byteLength":111744,
			"uri":"model.bin"
		}
	]
}
