{
	"asset":{
		"generator":"Khronos glTF Blender I/O v4.0.44",
		"version":"2.0"
	},
	"scene":0,
	"scenes":[
		{
			"name":"Scene",
			"nodes":[
				0
			]
		}
	],
	"nodes":[
		{
			"mesh":0,
			"name":"writingDesk"
		}
	],
	"materials":[
		{
			"doubleSided":true,
			"name":"oakwood",
			"pbrMetallicRoughness":{
				"baseColorFactor":[
					0.3199999928474426,
					0.2199999988079071,
					0.12999999523162842,
					1
				],
				"metallicFactor":0,
				"roughnessFactor":0.800000011920929
			}
		},
		{
			"doubleSided":true,
			"name":"bookcloth",
			"pbrMetallicRoughness":{
				"baseColorFactor":[
					0.20000000298023224,
					0.23999999463558197,
					0.20000000298023224,
					1
				],
				"metallicFactor":0,
				"roughnessFactor":0.8999999761581421
			}
		},
		{
			"doubleSided":true,
			"name":"darkwood",
			"pbrMetallicRoughness":{
				"baseColorFactor":[
					0.1599999964237213,
					0.10000000149011612,
					0.07000000029802322,
					1
				],
				"metallicFactor":0,
				"roughnessFactor":0.699999988079071
			}
		},
		{
			"doubleSided":true,
			"name":"brass",
			"pbrMetallicRoughness":{
				"baseColorFactor":[
					0.41999998688697815,
					0.30000001192092896,
					0.11999999731779099,
					1
				],
				"metallicFactor":0.8999999761581421,
				"roughnessFactor":0.3499999940395355
			}
		}
	],
	"meshes":[
		{
			"name":"Cube",
			"primitives":[
				{
					"attributes":{
						"POSITION":0,
						"NORMAL":1,
						"TEXCOORD_0":2
					},
					"indices":3,
					"material":0
				},
				{
					"attributes":{
						"POSITION":4,
						"NORMAL":5,
						"TEXCOORD_0":6
					},
					"indices":7,
					"material":1
				},
				{
					"attributes":{
						"POSITION":8,
						"NORMAL":9,
						"TEXCOORD_0":10
					},
					"indices":11,
					"material":2
				},
				{
					"attributes":{
						"POSITION":12,
						"NORMAL":13,
						"TEXCOORD_0":14
					},
					"indices":15,
					"material":3
				}
			]
		}
	],
	"accessors":[
		{
			"bufferView":0,
			"componentType":5126,
			"count":864,
			"max":[
				0.75,
				0.7799999713897705,
				0.4000000059604645
			],
			"min":[
				-0.75,
				0,
				-0.4000000059604645
			],
			"type":"VEC3"
		},
		{
			"bufferView":1,
			"componentType":5126,
			"count":864,
			"type":"VEC3"
		},
		{
			"bufferView":2,
			"componentType":5126,
			"count":864,
			"type":"VEC2"
		},
		{
			"bufferView":3,
			"componentType":5123,
			"count":1296,
			"type":"SCALAR"
		},
		{
			"bufferView":4,
			"componentType":5126,
			"count":194,
			"max":[
				0.6000000238418579,
				0.7904999852180481,
				0.2800000011920929
			],
			"min":[
				-0.6000000238418579,
				0.7754999995231628,
				-0.2800000011920929
			],
			"type":"VEC3"
		},
		{
			"bufferView":5,
			"componentType":5126,
			"count":194,
			"type":"VEC3"
		},
		{
			"bufferView":6,
			"componentType":5126,
			"count":194,
			"type":"VEC2"
		},
		{
			"bufferView":7,
			"componentType":5123,
			"count":324,
			"type":"SCALAR"
		},
		{
			"bufferView":8,
			"componentType":5126,
			"count":1512,
			"max":[
				0.6899999976158142,
				0.8199999928474426,
				0.3699999749660492
			],
			"min":[
				-0.6899999976158142,
				0.125,
				0.12000000476837158
			],
			"type":"VEC3"
		},
		{
			"bufferView":9,
			"componentType":5126,
			"count":1512,
			"type":"VEC3"
		},
		{
			"bufferView":10,
			"componentType":5126,
			"count":1512,
			"type":"VEC2"
		},
		{
			"bufferView":11,
			"componentType":5123,
			"count":2268,
			"type":"SCALAR"
		},
		{
			"bufferView":12,
			"componentType":5126,
			"count":408,
			"max":[
				0.5239999890327454,
				0.8649999499320984,
				0.3999999761581421
			],
			"min":[
				-0.5239999890327454,
				0.1860000044107437,
				0.1550000011920929
			],
			"type":"VEC3"
		},
		{
			"bufferView":13,
			"componentType":5126,
			"count":408,
			"type":"VEC3"
		},
		{
			"bufferView":14,
			"componentType":5126,
			"count":408,
			"type":"VEC2"
		},
		{
			"bufferView":15,
			"componentType":5123,
			"count":720,
			"type":"SCALAR"
		}
	],
	"bufferViews":[
		{
			"buffer":0,
			"byteLength":10368,
			"byteOffset":0,
			"target":34962
		},
		{
			"buffer":0,
			"byteLength":10368,
			"byteOffset":10368,
			"target":34962
		},
		{
			"buffer":0,
			"byteLength":6912,
			"byteOffset":20736,
			"target":34962
		},
		{
			"buffer":0,
			"byteLength":2592,
			"byteOffset":27648,
			"target":34963
		},
		{
			"buffer":0,
			"byteLength":2328,
			"byteOffset":30240,
			"target":34962
		},
		{
			"buffer":0,
			"byteLength":2328,
			"byteOffset":32568,
			"target":34962
		},
		{
			"buffer":0,
			"byteLength":1552,
			"byteOffset":34896,
			"target":34962
		},
		{
			"buffer":0,
			"byteLength":648,
			"byteOffset":36448,
			"target":34963
		},
		{
			"buffer":0,
			"byteLength":18144,
			"byteOffset":37096,
			"target":34962
		},
		{
			"buffer":0,
			"byteLength":18144,
			"byteOffset":55240,
			"target":34962
		},
		{
			"buffer":0,
			"byteLength":12096,
			"byteOffset":73384,
			"target":34962
		},
		{
			"buffer":0,
			"byteLength":4536,
			"byteOffset":85480,
			"target":34963
		},
		{
			"buffer":0,
			"byteLength":4896,
			"byteOffset":90016,
			"target":34962
		},
		{
			"buffer":0,
			"byteLength":4896,
			"byteOffset":94912,
			"target":34962
		},
		{
			"buffer":0,
			"byteLength":3264,
			"byteOffset":99808,
			"target":34962
		},
		{
			"buffer":0,
			"byteLength":1440,
			"byteOffset":103072,
			"target":34963
		}
	],
	"buffers":[
		{
			"byteLength":104512,
			"uri":"model.bin"
		}
	]
}
