{
	"asset":{
		"generator":"Khronos glTF Blender I/O v4.2.70",
		"version":"2.0"
	},
	"scene":0,
	"scenes":[
		{
			"name":"Scene",
			"nodes":[
				0
			]
		}
	],
	"nodes":[
		{
			"mesh":0,
			"name":"dumbwaiter"
		}
	],
	"materials":[
		{
			"doubleSided":true,
			"name":"darkwood",
			"pbrMetallicRoughness":{
				"baseColorFactor":[
					0.1599999964237213,
					0.10000000149011612,
					0.07000000029802322,
					1
				],
				"metallicFactor":0,
				"roughnessFactor":0.699999988079071
			}
		},
		{
			"doubleSided":true,
			"name":"oakwood",
			"pbrMetallicRoughness":{
				"baseColorFactor":[
					0.3199999928474426,
					0.2199999988079071,
					0.12999999523162842,
					1
				],
				"metallicFactor":0,
				"roughnessFactor":0.800000011920929
			}
		},
		{
			"doubleSided":true,
			"name":"iron",
			"pbrMetallicRoughness":{
				"baseColorFactor":[
					0.10999999940395355,
					0.10999999940395355,
					0.11999999731779099,
					1
				],
				"metallicFactor":0.8500000238418579,
				"roughnessFactor":0.44999998807907104
			}
		},
		{
			"doubleSided":true,
			"name":"wornleather",
			"pbrMetallicRoughness":{
				"baseColorFactor":[
					0.2800000011920929,
					0.18000000715255737,
					0.10999999940395355,
					1
				],
				"metallicFactor":0,
				"roughnessFactor":0.8500000238418579
			}
		}
	],
	"meshes":[
		{
			"name":"Cube",
			"primitives":[
				{
					"attributes":{
						"POSITION":0,
						"NORMAL":1,
						"TEXCOORD_0":2
					},
					"indices":3,
					"material":0
				},
				{
					"attributes":{
						"POSITION":4,
						"NORMAL":5,
						"TEXCOORD_0":6
					},
					"indices":7,
					"material":1
				},
				{
					"attributes":{
						"POSITION":8,
						"NORMAL":9,
						"TEXCOORD_0":10
					},
					"indices":11,
					"material":2
				},
				{
					"attributes":{
						"POSITION":12,
						"NORMAL":13,
						"TEXCOORD_0":14
					},
					"indices":15,
					"material":3
				}
			]
		}
	],
	"accessors":[
		{
			"bufferView":0,
			"componentType":5126,
			"count":216,
			"max":[
				0.44999998807907104,
				1.7999999523162842,
				-0.20499999821186066
			],
			"min":[
				-0.44999998807907104,
				0,
				-0.2549999952316284
			],
			"type":"VEC3"
		},
		{
			"bufferView":1,
			"componentType":5126,
			"count":216,
			"type":"VEC3"
		},
		{
			"bufferView":2,
			"componentType":5126,
			"count":216,
			"type":"VEC2"
		},
		{
			"bufferView":3,
			"componentType":5123,
			"count":324,
			"type":"SCALAR"
		},
		{
			"bufferView":4,
			"componentType":5126,
			"count":864,
			"max":[
				0.550000011920929,
				1.7999999523162842,
				0.25
			],
			"min":[
				-0.550000011920929,
				0,
				-0.25
			],
			"type":"VEC3"
		},
		{
			"bufferView":5,
			"componentType":5126,
			"count":864,
			"type":"VEC3"
		},
		{
			"bufferView":6,
			"componentType":5126,
			"count":864,
			"type":"VEC2"
		},
		{
			"bufferView":7,
			"componentType":5123,
			"count":1296,
			"type":"SCALAR"
		},
		{
			"bufferView":8,
			"componentType":5126,
			"count":708,
			"max":[
				0.4000000059604645,
				1.75,
				0.009999960660934448
			],
			"min":[
				-0.4000000059604645,
				0.7670000195503235,
				-0.36500000953674316
			],
			"type":"VEC3"
		},
		{
			"bufferView":9,
			"componentType":5126,
			"count":708,
			"type":"VEC3"
		},
		{
			"bufferView":10,
			"componentType":5126,
			"count":708,
			"type":"VEC2"
		},
		{
			"bufferView":11,
			"componentType":5123,
			"count":1044,
			"type":"SCALAR"
		},
		{
			"bufferView":12,
			"componentType":5126,
			"count":36,
			"max":[
				0.23539230227470398,
				1.7000000476837158,
				-0.1380000114440918
			],
			"min":[
				0.21460768580436707,
				0.09999996423721313,
				-0.16200000047683716
			],
			"type":"VEC3"
		},
		{
			"bufferView":13,
			"componentType":5126,
			"count":36,
			"type":"VEC3"
		},
		{
			"bufferView":14,
			"componentType":5126,
			"count":36,
			"type":"VEC2"
		},
		{
			"bufferView":15,
			"componentType":5123,
			"count":60,
			"type":"SCALAR"
		}
	],
	"bufferViews":[
		{
			"buffer":0,
			"byteLength":2592,
			"byteOffset":0,
			"target":34962
		},
		{
			"buffer":0,
			"byteLength":2592,
			"byteOffset":2592,
			"target":34962
		},
		{
			"buffer":0,
			"byteLength":1728,
			"byteOffset":5184,
			"target":34962
		},
		{
			"buffer":0,
			"byteLength":648,
			"byteOffset":6912,
			"target":34963
		},
		{
			"buffer":0,
			"byteLength":10368,
			"byteOffset":7560,
			"target":34962
		},
		{
			"buffer":0,
			"byteLength":10368,
			"byteOffset":17928,
			"target":34962
		},
		{
			"buffer":0,
			"byteLength":6912,
			"byteOffset":28296,
			"target":34962
		},
		{
			"buffer":0,
			"byteLength":2592,
			"byteOffset":35208,
			"target":34963
		},
		{
			"buffer":0,
			"byteLength":8496,
			"byteOffset":37800,
			"target":34962
		},
		{
			"buffer":0,
			"byteLength":8496,
			"byteOffset":46296,
			"target":34962
		},
		{
			"buffer":0,
			"byteLength":5664,
			"byteOffset":54792,
			"target":34962
		},
		{
			"buffer":0,
			"byteLength":2088,
			"byteOffset":60456,
			"target":34963
		},
		{
			"buffer":0,
			"byteLength":432,
			"byteOffset":62544,
			"target":34962
		},
		{
			"buffer":0,
			"byteLength":432,
			"byteOffset":62976,
			"target":34962
		},
		{
			"buffer":0,
			"byteLength":288,
			"byteOffset":63408,
			"target":34962
		},
		{
			"buffer":0,
			"byteLength":120,
			"byteOffset":63696,
			"target":34963
		}
	],
	"buffers":[
		{
			"byteLength":63816,
			"uri":"model.bin"
		}
	]
}
