{"asset": {"generator": "Khronos glTF Blender I/O v5.1.20", "version": "2.0"}, "extensionsUsed": ["KHR_materials_specular"], "scene": 0, "scenes": [{"name": "Scene", "nodes": [0]}], "nodes": [{"mesh": 0, "name": "propane_torch_02"}], "materials": [{"doubleSided": true, "extensions": {"KHR_materials_specular": {"specularColorFactor": [0.20000000298023224, 0.20000000298023224, 0.20000000298023224]}}, "name": "propane_torch_02", "normalTexture": {"index": 0}, "pbrMetallicRoughness": {"baseColorTexture": {"index": 1}, "metallicRoughnessTexture": {"index": 2}}}], "meshes": [{"name": "Circle", "primitives": [{"attributes": {"POSITION": 0, "NORMAL": 1, "TEXCOORD_0": 2}, "indices": 3, "material": 0}]}], "textures": [{"sampler": 0, "source": 0}, {"sampler": 0, "source": 1}, {"sampler": 0, "source": 2}], "images": [{"mimeType": "image/jpeg", "name": "propane_torch_02_nor_gl", "uri": "textures/propane_torch_02_nor_gl_1k.jpg"}, {"mimeType": "image/jpeg", "name": "propane_torch_02_diff", "uri": "textures/propane_torch_02_diff_1k.jpg"}, {"mimeType": "image/jpeg", "name": "propane_torch_02_metal-propane_torch_02_rough", "uri": "textures/propane_torch_02_arm_1k.jpg"}], "accessors": [{"bufferView": 0, "componentType": 5126, "count": 2730, "max": [0.03386659920215607, 0.3998526930809021, 0.03386659920215607], "min": [-0.03853636234998703, 9.313225746154785e-10, -0.03386659175157547], "type": "VEC3"}, {"bufferView": 1, "componentType": 5126, "count": 2730, "type": "VEC3"}, {"bufferView": 2, "componentType": 5126, "count": 2730, "type": "VEC2"}, {"bufferView": 3, "componentType": 5123, "count": 8880, "type": "SCALAR"}], "bufferViews": [{"buffer": 0, "byteLength": 32760, "byteOffset": 0, "target": 34962}, {"buffer": 0, "byteLength": 32760, "byteOffset": 32760, "target": 34962}, {"buffer": 0, "byteLength": 21840, "byteOffset": 65520, "target": 34962}, {"buffer": 0, "byteLength": 17760, "byteOffset": 87360, "target": 34963}], "samplers": [{"magFilter": 9729, "minFilter": 9987}], "buffers": [{"byteLength": 105120, "uri": "propane_torch_02.bin"}]}