{
	"asset":{
		"generator":"Khronos glTF Blender I/O v4.0.44",
		"version":"2.0"
	},
	"scene":0,
	"scenes":[
		{
			"name":"Scene",
			"nodes":[
				0
			]
		}
	],
	"nodes":[
		{
			"mesh":0,
			"name":"headboard",
			"translation":[
				-0.800000011920929,
				0.7749999761581421,
				0
			]
		}
	],
	"materials":[
		{
			"doubleSided":true,
			"name":"darkwood",
			"pbrMetallicRoughness":{
				"baseColorFactor":[
					0.1599999964237213,
					0.10000000149011612,
					0.07000000029802322,
					1
				],
				"metallicFactor":0,
				"roughnessFactor":0.699999988079071
			}
		},
		{
			"doubleSided":true,
			"name":"brass",
			"pbrMetallicRoughness":{
				"baseColorFactor":[
					0.41999998688697815,
					0.30000001192092896,
					0.11999999731779099,
					1
				],
				"metallicFactor":0.8999999761581421,
				"roughnessFactor":0.3499999940395355
			}
		},
		{
			"doubleSided":true,
			"name":"wornleather",
			"pbrMetallicRoughness":{
				"baseColorFactor":[
					0.2800000011920929,
					0.18000000715255737,
					0.10999999940395355,
					1
				],
				"metallicFactor":0,
				"roughnessFactor":0.8500000238418579
			}
		}
	],
	"meshes":[
		{
			"name":"Cylinder",
			"primitives":[
				{
					"attributes":{
						"POSITION":0,
						"NORMAL":1,
						"TEXCOORD_0":2
					},
					"indices":3,
					"material":0
				},
				{
					"attributes":{
						"POSITION":4,
						"NORMAL":5,
						"TEXCOORD_0":6
					},
					"indices":7,
					"material":1
				},
				{
					"attributes":{
						"POSITION":8,
						"NORMAL":9,
						"TEXCOORD_0":10
					},
					"indices":11,
					"material":2
				}
			]
		}
	],
	"accessors":[
		{
			"bufferView":0,
			"componentType":5126,
			"count":984,
			"max":[
				1.642797589302063,
				0.8164520263671875,
				0.07000000029802322
			],
			"min":[
				-0.042797546833753586,
				-0.7749999761581421,
				-0.07000000029802322
			],
			"type":"VEC3"
		},
		{
			"bufferView":1,
			"componentType":5126,
			"count":984,
			"type":"VEC3"
		},
		{
			"bufferView":2,
			"componentType":5126,
			"count":984,
			"type":"VEC2"
		},
		{
			"bufferView":3,
			"componentType":5123,
			"count":1512,
			"type":"SCALAR"
		},
		{
			"bufferView":4,
			"componentType":5126,
			"count":2008,
			"max":[
				1.6523081064224243,
				0.8500000834465027,
				0.07599999755620956
			],
			"min":[
				-0.05230811983346939,
				-0.2489999532699585,
				-0.05500000715255737
			],
			"type":"VEC3"
		},
		{
			"bufferView":5,
			"componentType":5126,
			"count":2008,
			"type":"VEC3"
		},
		{
			"bufferView":6,
			"componentType":5126,
			"count":2008,
			"type":"VEC2"
		},
		{
			"bufferView":7,
			"componentType":5123,
			"count":2760,
			"type":"SCALAR"
		},
		{
			"bufferView":8,
			"componentType":5126,
			"count":216,
			"max":[
				1.559999942779541,
				0.5440000295639038,
				0.054999999701976776
			],
			"min":[
				0.04000002145767212,
				-0.5859999656677246,
				-0.04500000178813934
			],
			"type":"VEC3"
		},
		{
			"bufferView":9,
			"componentType":5126,
			"count":216,
			"type":"VEC3"
		},
		{
			"bufferView":10,
			"componentType":5126,
			"count":216,
			"type":"VEC2"
		},
		{
			"bufferView":11,
			"componentType":5123,
			"count":324,
			"type":"SCALAR"
		}
	],
	"bufferViews":[
		{
			"buffer":0,
			"byteLength":11808,
			"byteOffset":0,
			"target":34962
		},
		{
			"buffer":0,
			"byteLength":11808,
			"byteOffset":11808,
			"target":34962
		},
		{
			"buffer":0,
			"byteLength":7872,
			"byteOffset":23616,
			"target":34962
		},
		{
			"buffer":0,
			"byteLength":3024,
			"byteOffset":31488,
			"target":34963
		},
		{
			"buffer":0,
			"byteLength":24096,
			"byteOffset":34512,
			"target":34962
		},
		{
			"buffer":0,
			"byteLength":24096,
			"byteOffset":58608,
			"target":34962
		},
		{
			"buffer":0,
			"byteLength":16064,
			"byteOffset":82704,
			"target":34962
		},
		{
			"buffer":0,
			"byteLength":5520,
			"byteOffset":98768,
			"target":34963
		},
		{
			"buffer":0,
			"byteLength":2592,
			"byteOffset":104288,
			"target":34962
		},
		{
			"buffer":0,
			"byteLength":2592,
			"byteOffset":106880,
			"target":34962
		},
		{
			"buffer":0,
			"byteLength":1728,
			"byteOffset":109472,
			"target":34962
		},
		{
			"buffer":0,
			"byteLength":648,
			"byteOffset":111200,
			"target":34963
		}
	],
	"buffers":[
		{
			"byteLength":111848,
			"uri":"model.bin"
		}
	]
}
