{
	"asset":{
		"generator":"Khronos glTF Blender I/O v4.2.70",
		"version":"2.0"
	},
	"scene":0,
	"scenes":[
		{
			"name":"Scene",
			"nodes":[
				0
			]
		}
	],
	"nodes":[
		{
			"mesh":0,
			"name":"umbrellaStand",
			"translation":[
				0,
				0.029999999329447746,
				0
			]
		}
	],
	"materials":[
		{
			"doubleSided":true,
			"name":"iron",
			"pbrMetallicRoughness":{
				"baseColorFactor":[
					0.10999999940395355,
					0.10999999940395355,
					0.11999999731779099,
					1
				],
				"metallicFactor":0.8500000238418579,
				"roughnessFactor":0.44999998807907104
			}
		},
		{
			"doubleSided":true,
			"name":"wornleather",
			"pbrMetallicRoughness":{
				"baseColorFactor":[
					0.2800000011920929,
					0.18000000715255737,
					0.10999999940395355,
					1
				],
				"metallicFactor":0,
				"roughnessFactor":0.8500000238418579
			}
		},
		{
			"doubleSided":true,
			"name":"oakwood",
			"pbrMetallicRoughness":{
				"baseColorFactor":[
					0.3199999928474426,
					0.2199999988079071,
					0.12999999523162842,
					1
				],
				"metallicFactor":0,
				"roughnessFactor":0.800000011920929
			}
		},
		{
			"doubleSided":true,
			"name":"bookcloth",
			"pbrMetallicRoughness":{
				"baseColorFactor":[
					0.20000000298023224,
					0.23999999463558197,
					0.20000000298023224,
					1
				],
				"metallicFactor":0,
				"roughnessFactor":0.8999999761581421
			}
		}
	],
	"meshes":[
		{
			"name":"Cylinder",
			"primitives":[
				{
					"attributes":{
						"POSITION":0,
						"NORMAL":1,
						"TEXCOORD_0":2
					},
					"indices":3,
					"material":0
				},
				{
					"attributes":{
						"POSITION":4,
						"NORMAL":5,
						"TEXCOORD_0":6
					},
					"indices":7,
					"material":1
				},
				{
					"attributes":{
						"POSITION":8,
						"NORMAL":9,
						"TEXCOORD_0":10
					},
					"indices":11,
					"material":2
				},
				{
					"attributes":{
						"POSITION":12,
						"NORMAL":13,
						"TEXCOORD_0":14
					},
					"indices":15,
					"material":3
				}
			]
		}
	],
	"accessors":[
		{
			"bufferView":0,
			"componentType":5126,
			"count":468,
			"max":[
				0.15892820060253143,
				0.3999999761581421,
				0.1599999964237213
			],
			"min":[
				-0.15892820060253143,
				-0.02500000037252903,
				-0.1599999964237213
			],
			"type":"VEC3"
		},
		{
			"bufferView":1,
			"componentType":5126,
			"count":468,
			"type":"VEC3"
		},
		{
			"bufferView":2,
			"componentType":5126,
			"count":468,
			"type":"VEC2"
		},
		{
			"bufferView":3,
			"componentType":5123,
			"count":804,
			"type":"SCALAR"
		},
		{
			"bufferView":4,
			"componentType":5126,
			"count":1536,
			"max":[
				0.164000004529953,
				0.39899998903274536,
				0.164000004529953
			],
			"min":[
				-0.164000004529953,
				0.020999999716877937,
				-0.164000004529953
			],
			"type":"VEC3"
		},
		{
			"bufferView":5,
			"componentType":5126,
			"count":1536,
			"type":"VEC3"
		},
		{
			"bufferView":6,
			"componentType":5126,
			"count":1536,
			"type":"VEC2"
		},
		{
			"bufferView":7,
			"componentType":5123,
			"count":2304,
			"type":"SCALAR"
		},
		{
			"bufferView":8,
			"componentType":5126,
			"count":48,
			"max":[
				0.06199999898672104,
				0.6693994998931885,
				0.02788008376955986
			],
			"min":[
				0.03800000250339508,
				-0.049399495124816895,
				-0.06788007915019989
			],
			"type":"VEC3"
		},
		{
			"bufferView":9,
			"componentType":5126,
			"count":48,
			"type":"VEC3"
		},
		{
			"bufferView":10,
			"componentType":5126,
			"count":48,
			"type":"VEC2"
		},
		{
			"bufferView":11,
			"componentType":5123,
			"count":84,
			"type":"SCALAR"
		},
		{
			"bufferView":12,
			"componentType":5126,
			"count":60,
			"max":[
				0.007154922932386398,
				0.5717006921768188,
				0.04500000178813934
			],
			"min":[
				-0.10715492069721222,
				-0.03170064091682434,
				-0.02500000037252903
			],
			"type":"VEC3"
		},
		{
			"bufferView":13,
			"componentType":5126,
			"count":60,
			"type":"VEC3"
		},
		{
			"bufferView":14,
			"componentType":5126,
			"count":60,
			"type":"VEC2"
		},
		{
			"bufferView":15,
			"componentType":5123,
			"count":108,
			"type":"SCALAR"
		}
	],
	"bufferViews":[
		{
			"buffer":0,
			"byteLength":5616,
			"byteOffset":0,
			"target":34962
		},
		{
			"buffer":0,
			"byteLength":5616,
			"byteOffset":5616,
			"target":34962
		},
		{
			"buffer":0,
			"byteLength":3744,
			"byteOffset":11232,
			"target":34962
		},
		{
			"buffer":0,
			"byteLength":1608,
			"byteOffset":14976,
			"target":34963
		},
		{
			"buffer":0,
			"byteLength":18432,
			"byteOffset":16584,
			"target":34962
		},
		{
			"buffer":0,
			"byteLength":18432,
			"byteOffset":35016,
			"target":34962
		},
		{
			"buffer":0,
			"byteLength":12288,
			"byteOffset":53448,
			"target":34962
		},
		{
			"buffer":0,
			"byteLength":4608,
			"byteOffset":65736,
			"target":34963
		},
		{
			"buffer":0,
			"byteLength":576,
			"byteOffset":70344,
			"target":34962
		},
		{
			"buffer":0,
			"byteLength":576,
			"byteOffset":70920,
			"target":34962
		},
		{
			"buffer":0,
			"byteLength":384,
			"byteOffset":71496,
			"target":34962
		},
		{
			"buffer":0,
			"byteLength":168,
			"byteOffset":71880,
			"target":34963
		},
		{
			"buffer":0,
			"byteLength":720,
			"byteOffset":72048,
			"target":34962
		},
		{
			"buffer":0,
			"byteLength":720,
			"byteOffset":72768,
			"target":34962
		},
		{
			"buffer":0,
			"byteLength":480,
			"byteOffset":73488,
			"target":34962
		},
		{
			"buffer":0,
			"byteLength":216,
			"byteOffset":73968,
			"target":34963
		}
	],
	"buffers":[
		{
			"byteLength":74184,
			"uri":"model.bin"
		}
	]
}
