{
	"asset":{
		"generator":"Khronos glTF Blender I/O v4.2.70",
		"version":"2.0"
	},
	"scene":0,
	"scenes":[
		{
			"name":"Scene",
			"nodes":[
				0
			]
		}
	],
	"nodes":[
		{
			"mesh":0,
			"name":"apothecaryCabinet"
		}
	],
	"materials":[
		{
			"doubleSided":true,
			"name":"darkwood",
			"pbrMetallicRoughness":{
				"baseColorFactor":[
					0.1599999964237213,
					0.10000000149011612,
					0.07000000029802322,
					1
				],
				"metallicFactor":0,
				"roughnessFactor":0.699999988079071
			}
		},
		{
			"doubleSided":true,
			"name":"wornleather",
			"pbrMetallicRoughness":{
				"baseColorFactor":[
					0.2800000011920929,
					0.18000000715255737,
					0.10999999940395355,
					1
				],
				"metallicFactor":0,
				"roughnessFactor":0.8500000238418579
			}
		},
		{
			"doubleSided":true,
			"name":"oakwood",
			"pbrMetallicRoughness":{
				"baseColorFactor":[
					0.3199999928474426,
					0.2199999988079071,
					0.12999999523162842,
					1
				],
				"metallicFactor":0,
				"roughnessFactor":0.800000011920929
			}
		},
		{
			"doubleSided":true,
			"name":"brass",
			"pbrMetallicRoughness":{
				"baseColorFactor":[
					0.41999998688697815,
					0.30000001192092896,
					0.11999999731779099,
					1
				],
				"metallicFactor":0.8999999761581421,
				"roughnessFactor":0.3499999940395355
			}
		}
	],
	"meshes":[
		{
			"name":"Cube",
			"primitives":[
				{
					"attributes":{
						"POSITION":0,
						"NORMAL":1,
						"TEXCOORD_0":2
					},
					"indices":3,
					"material":0
				},
				{
					"attributes":{
						"POSITION":4,
						"NORMAL":5,
						"TEXCOORD_0":6
					},
					"indices":7,
					"material":1
				},
				{
					"attributes":{
						"POSITION":8,
						"NORMAL":9,
						"TEXCOORD_0":10
					},
					"indices":11,
					"material":2
				},
				{
					"attributes":{
						"POSITION":12,
						"NORMAL":13,
						"TEXCOORD_0":14
					},
					"indices":15,
					"material":3
				}
			]
		}
	],
	"accessors":[
		{
			"bufferView":0,
			"componentType":5126,
			"count":864,
			"max":[
				0.7200000286102295,
				1.149999976158142,
				0.27000001072883606
			],
			"min":[
				-0.7200000286102295,
				0,
				-0.27000001072883606
			],
			"type":"VEC3"
		},
		{
			"bufferView":1,
			"componentType":5126,
			"count":864,
			"type":"VEC3"
		},
		{
			"bufferView":2,
			"componentType":5126,
			"count":864,
			"type":"VEC2"
		},
		{
			"bufferView":3,
			"componentType":5123,
			"count":1296,
			"type":"SCALAR"
		},
		{
			"bufferView":4,
			"componentType":5126,
			"count":216,
			"max":[
				0.6600000262260437,
				1.1100000143051147,
				-0.2150000035762787
			],
			"min":[
				-0.6600000262260437,
				0.039999961853027344,
				-0.24500000476837158
			],
			"type":"VEC3"
		},
		{
			"bufferView":5,
			"componentType":5126,
			"count":216,
			"type":"VEC3"
		},
		{
			"bufferView":6,
			"componentType":5126,
			"count":216,
			"type":"VEC2"
		},
		{
			"bufferView":7,
			"componentType":5123,
			"count":324,
			"type":"SCALAR"
		},
		{
			"bufferView":8,
			"componentType":5126,
			"count":4320,
			"max":[
				0.6205000281333923,
				1.0199999809265137,
				0.2549999952316284
			],
			"min":[
				-0.6205000281333923,
				0.12999999523162842,
				0.2150000035762787
			],
			"type":"VEC3"
		},
		{
			"bufferView":9,
			"componentType":5126,
			"count":4320,
			"type":"VEC3"
		},
		{
			"bufferView":10,
			"componentType":5126,
			"count":4320,
			"type":"VEC2"
		},
		{
			"bufferView":11,
			"componentType":5123,
			"count":6480,
			"type":"SCALAR"
		},
		{
			"bufferView":12,
			"componentType":5126,
			"count":10720,
			"max":[
				0.5379999876022339,
				0.9512500166893005,
				0.2709999978542328
			],
			"min":[
				-0.5379999876022339,
				0.19141407310962677,
				0.2529999911785126
			],
			"type":"VEC3"
		},
		{
			"bufferView":13,
			"componentType":5126,
			"count":10720,
			"type":"VEC3"
		},
		{
			"bufferView":14,
			"componentType":5126,
			"count":10720,
			"type":"VEC2"
		},
		{
			"bufferView":15,
			"componentType":5123,
			"count":16080,
			"type":"SCALAR"
		}
	],
	"bufferViews":[
		{
			"buffer":0,
			"byteLength":10368,
			"byteOffset":0,
			"target":34962
		},
		{
			"buffer":0,
			"byteLength":10368,
			"byteOffset":10368,
			"target":34962
		},
		{
			"buffer":0,
			"byteLength":6912,
			"byteOffset":20736,
			"target":34962
		},
		{
			"buffer":0,
			"byteLength":2592,
			"byteOffset":27648,
			"target":34963
		},
		{
			"buffer":0,
			"byteLength":2592,
			"byteOffset":30240,
			"target":34962
		},
		{
			"buffer":0,
			"byteLength":2592,
			"byteOffset":32832,
			"target":34962
		},
		{
			"buffer":0,
			"byteLength":1728,
			"byteOffset":35424,
			"target":34962
		},
		{
			"buffer":0,
			"byteLength":648,
			"byteOffset":37152,
			"target":34963
		},
		{
			"buffer":0,
			"byteLength":51840,
			"byteOffset":37800,
			"target":34962
		},
		{
			"buffer":0,
			"byteLength":51840,
			"byteOffset":89640,
			"target":34962
		},
		{
			"buffer":0,
			"byteLength":34560,
			"byteOffset":141480,
			"target":34962
		},
		{
			"buffer":0,
			"byteLength":12960,
			"byteOffset":176040,
			"target":34963
		},
		{
			"buffer":0,
			"byteLength":128640,
			"byteOffset":189000,
			"target":34962
		},
		{
			"buffer":0,
			"byteLength":128640,
			"byteOffset":317640,
			"target":34962
		},
		{
			"buffer":0,
			"byteLength":85760,
			"byteOffset":446280,
			"target":34962
		},
		{
			"buffer":0,
			"byteLength":32160,
			"byteOffset":532040,
			"target":34963
		}
	],
	"buffers":[
		{
			"byteLength":564200,
			"uri":"model.bin"
		}
	]
}
