{
	"asset":{
		"generator":"Khronos glTF Blender I/O v4.2.83",
		"version":"2.0"
	},
	"scene":0,
	"scenes":[
		{
			"name":"Scene",
			"nodes":[
				0
			]
		}
	],
	"nodes":[
		{
			"mesh":0,
			"name":"archway"
		}
	],
	"materials":[
		{
			"doubleSided":true,
			"name":"stone",
			"pbrMetallicRoughness":{
				"baseColorFactor":[
					0.41999998688697815,
					0.3799999952316284,
					0.33000001311302185,
					1
				],
				"metallicFactor":0,
				"roughnessFactor":0.8500000238418579
			}
		},
		{
			"doubleSided":true,
			"name":"darkwood",
			"pbrMetallicRoughness":{
				"baseColorFactor":[
					0.1599999964237213,
					0.10000000149011612,
					0.07000000029802322,
					1
				],
				"metallicFactor":0,
				"roughnessFactor":0.699999988079071
			}
		}
	],
	"meshes":[
		{
			"name":"Cube",
			"primitives":[
				{
					"attributes":{
						"POSITION":0,
						"NORMAL":1,
						"TEXCOORD_0":2
					},
					"indices":3,
					"material":0
				},
				{
					"attributes":{
						"POSITION":4,
						"NORMAL":5,
						"TEXCOORD_0":6
					},
					"indices":7,
					"material":1
				}
			]
		}
	],
	"accessors":[
		{
			"bufferView":0,
			"componentType":5126,
			"count":1524,
			"max":[
				1.4199999570846558,
				3.419999837875366,
				0.20999999344348907
			],
			"min":[
				-1.4199999570846558,
				0,
				-0.20999999344348907
			],
			"type":"VEC3"
		},
		{
			"bufferView":1,
			"componentType":5126,
			"count":1524,
			"type":"VEC3"
		},
		{
			"bufferView":2,
			"componentType":5126,
			"count":1524,
			"type":"VEC2"
		},
		{
			"bufferView":3,
			"componentType":5123,
			"count":2472,
			"type":"SCALAR"
		},
		{
			"bufferView":4,
			"componentType":5126,
			"count":984,
			"max":[
				1.253000020980835,
				3.388000011444092,
				0.2199999988079071
			],
			"min":[
				-1.253000020980835,
				0.13600003719329834,
				-0.2199999988079071
			],
			"type":"VEC3"
		},
		{
			"bufferView":5,
			"componentType":5126,
			"count":984,
			"type":"VEC3"
		},
		{
			"bufferView":6,
			"componentType":5126,
			"count":984,
			"type":"VEC2"
		},
		{
			"bufferView":7,
			"componentType":5123,
			"count":1668,
			"type":"SCALAR"
		}
	],
	"bufferViews":[
		{
			"buffer":0,
			"byteLength":18288,
			"byteOffset":0,
			"target":34962
		},
		{
			"buffer":0,
			"byteLength":18288,
			"byteOffset":18288,
			"target":34962
		},
		{
			"buffer":0,
			"byteLength":12192,
			"byteOffset":36576,
			"target":34962
		},
		{
			"buffer":0,
			"byteLength":4944,
			"byteOffset":48768,
			"target":34963
		},
		{
			"buffer":0,
			"byteLength":11808,
			"byteOffset":53712,
			"target":34962
		},
		{
			"buffer":0,
			"byteLength":11808,
			"byteOffset":65520,
			"target":34962
		},
		{
			"buffer":0,
			"byteLength":7872,
			"byteOffset":77328,
			"target":34962
		},
		{
			"buffer":0,
			"byteLength":3336,
			"byteOffset":85200,
			"target":34963
		}
	],
	"buffers":[
		{
			"byteLength":88536,
			"uri":"model.bin"
		}
	]
}
