{
	"asset":{
		"generator":"Khronos glTF Blender I/O v4.2.70",
		"version":"2.0"
	},
	"scene":0,
	"scenes":[
		{
			"name":"Scene",
			"nodes":[
				0
			]
		}
	],
	"nodes":[
		{
			"mesh":0,
			"name":"hangingCable",
			"rotation":[
				0.6116955280303955,
				0.35472309589385986,
				-0.6116957068443298,
				0.3547230362892151
			],
			"translation":[
				-1.40625,
				-0.053649839013814926,
				-0.019999999552965164
			]
		}
	],
	"materials":[
		{
			"doubleSided":true,
			"name":"wornleather",
			"pbrMetallicRoughness":{
				"baseColorFactor":[
					0.2800000011920929,
					0.18000000715255737,
					0.10999999940395355,
					1
				],
				"metallicFactor":0,
				"roughnessFactor":0.8500000238418579
			}
		},
		{
			"doubleSided":true,
			"name":"iron",
			"pbrMetallicRoughness":{
				"baseColorFactor":[
					0.10999999940395355,
					0.10999999940395355,
					0.11999999731779099,
					1
				],
				"metallicFactor":0.8500000238418579,
				"roughnessFactor":0.44999998807907104
			}
		}
	],
	"meshes":[
		{
			"name":"Cylinder",
			"primitives":[
				{
					"attributes":{
						"POSITION":0,
						"NORMAL":1,
						"TEXCOORD_0":2
					},
					"indices":3,
					"material":0
				},
				{
					"attributes":{
						"POSITION":4,
						"NORMAL":5,
						"TEXCOORD_0":6
					},
					"indices":7,
					"material":1
				}
			]
		}
	],
	"accessors":[
		{
			"bufferView":0,
			"componentType":5126,
			"count":1152,
			"max":[
				0.06125834211707115,
				2.5130183696746826,
				0.038602691143751144
			],
			"min":[
				-0.017320968210697174,
				-0.1088247299194336,
				-1.5001903772354126
			],
			"type":"VEC3"
		},
		{
			"bufferView":1,
			"componentType":5126,
			"count":1152,
			"type":"VEC3"
		},
		{
			"bufferView":2,
			"componentType":5126,
			"count":1152,
			"type":"VEC2"
		},
		{
			"bufferView":3,
			"componentType":5123,
			"count":1920,
			"type":"SCALAR"
		},
		{
			"bufferView":4,
			"componentType":5126,
			"count":1200,
			"max":[
				0.10000000894069672,
				2.5868966579437256,
				0.12082159519195557
			],
			"min":[
				-0.02000047080218792,
				-0.17927026748657227,
				-1.576162576675415
			],
			"type":"VEC3"
		},
		{
			"bufferView":5,
			"componentType":5126,
			"count":1200,
			"type":"VEC3"
		},
		{
			"bufferView":6,
			"componentType":5126,
			"count":1200,
			"type":"VEC2"
		},
		{
			"bufferView":7,
			"componentType":5123,
			"count":1800,
			"type":"SCALAR"
		}
	],
	"bufferViews":[
		{
			"buffer":0,
			"byteLength":13824,
			"byteOffset":0,
			"target":34962
		},
		{
			"buffer":0,
			"byteLength":13824,
			"byteOffset":13824,
			"target":34962
		},
		{
			"buffer":0,
			"byteLength":9216,
			"byteOffset":27648,
			"target":34962
		},
		{
			"buffer":0,
			"byteLength":3840,
			"byteOffset":36864,
			"target":34963
		},
		{
			"buffer":0,
			"byteLength":14400,
			"byteOffset":40704,
			"target":34962
		},
		{
			"buffer":0,
			"byteLength":14400,
			"byteOffset":55104,
			"target":34962
		},
		{
			"buffer":0,
			"byteLength":9600,
			"byteOffset":69504,
			"target":34962
		},
		{
			"buffer":0,
			"byteLength":3600,
			"byteOffset":79104,
			"target":34963
		}
	],
	"buffers":[
		{
			"byteLength":82704,
			"uri":"model.bin"
		}
	]
}
