{
	"asset":{
		"generator":"Khronos glTF Blender I/O v4.0.44",
		"version":"2.0"
	},
	"scene":0,
	"scenes":[
		{
			"name":"Scene",
			"nodes":[
				0
			]
		}
	],
	"nodes":[
		{
			"mesh":0,
			"name":"manglePress",
			"rotation":[
				0.04991670697927475,
				0.0024979172740131617,
				0.04991670697927475,
				0.9975020885467529
			],
			"translation":[
				-0.4050000011920929,
				0.5550000071525574,
				0.20499999821186066
			]
		}
	],
	"materials":[
		{
			"doubleSided":true,
			"name":"darkwood",
			"pbrMetallicRoughness":{
				"baseColorFactor":[
					0.1599999964237213,
					0.10000000149011612,
					0.07000000029802322,
					1
				],
				"metallicFactor":0,
				"roughnessFactor":0.699999988079071
			}
		},
		{
			"doubleSided":true,
			"name":"oakwood",
			"pbrMetallicRoughness":{
				"baseColorFactor":[
					0.3199999928474426,
					0.2199999988079071,
					0.12999999523162842,
					1
				],
				"metallicFactor":0,
				"roughnessFactor":0.800000011920929
			}
		},
		{
			"doubleSided":true,
			"name":"wornleather",
			"pbrMetallicRoughness":{
				"baseColorFactor":[
					0.2800000011920929,
					0.18000000715255737,
					0.10999999940395355,
					1
				],
				"metallicFactor":0,
				"roughnessFactor":0.8500000238418579
			}
		},
		{
			"doubleSided":true,
			"name":"iron",
			"pbrMetallicRoughness":{
				"baseColorFactor":[
					0.10999999940395355,
					0.10999999940395355,
					0.11999999731779099,
					1
				],
				"metallicFactor":0.8500000238418579,
				"roughnessFactor":0.44999998807907104
			}
		}
	],
	"meshes":[
		{
			"name":"Cylinder",
			"primitives":[
				{
					"attributes":{
						"POSITION":0,
						"NORMAL":1,
						"TEXCOORD_0":2
					},
					"indices":3,
					"material":0
				},
				{
					"attributes":{
						"POSITION":4,
						"NORMAL":5,
						"TEXCOORD_0":6
					},
					"indices":7,
					"material":1
				},
				{
					"attributes":{
						"POSITION":8,
						"NORMAL":9,
						"TEXCOORD_0":10
					},
					"indices":11,
					"material":2
				},
				{
					"attributes":{
						"POSITION":12,
						"NORMAL":13,
						"TEXCOORD_0":14
					},
					"indices":15,
					"material":3
				}
			]
		}
	],
	"accessors":[
		{
			"bufferView":0,
			"componentType":5126,
			"count":672,
			"max":[
				0.9485019445419312,
				0.5550000071525574,
				0.044165004044771194
			],
			"min":[
				-0.03328697755932808,
				-0.6640130281448364,
				-0.5525155067443848
			],
			"type":"VEC3"
		},
		{
			"bufferView":1,
			"componentType":5126,
			"count":672,
			"type":"VEC3"
		},
		{
			"bufferView":2,
			"componentType":5126,
			"count":672,
			"type":"VEC2"
		},
		{
			"bufferView":3,
			"componentType":5123,
			"count":1080,
			"type":"SCALAR"
		},
		{
			"bufferView":4,
			"componentType":5126,
			"count":480,
			"max":[
				0.946841299533844,
				0.6157557964324951,
				-0.0760539248585701
			],
			"min":[
				-0.024775177240371704,
				0.08144664764404297,
				-0.41421929001808167
			],
			"type":"VEC3"
		},
		{
			"bufferView":5,
			"componentType":5126,
			"count":480,
			"type":"VEC3"
		},
		{
			"bufferView":6,
			"componentType":5126,
			"count":480,
			"type":"VEC2"
		},
		{
			"bufferView":7,
			"componentType":5123,
			"count":732,
			"type":"SCALAR"
		},
		{
			"bufferView":8,
			"componentType":5126,
			"count":192,
			"max":[
				0.8429583311080933,
				0.5418664216995239,
				-0.1577339917421341
			],
			"min":[
				0.04885178804397583,
				0.1881694346666336,
				-0.32757246494293213
			],
			"type":"VEC3"
		},
		{
			"bufferView":9,
			"componentType":5126,
			"count":192,
			"type":"VEC3"
		},
		{
			"bufferView":10,
			"componentType":5126,
			"count":192,
			"type":"VEC2"
		},
		{
			"bufferView":11,
			"componentType":5123,
			"count":360,
			"type":"SCALAR"
		},
		{
			"bufferView":12,
			"componentType":5126,
			"count":1104,
			"max":[
				0.954330563545227,
				0.49636131525039673,
				-0.04361974447965622
			],
			"min":[
				-0.05490819364786148,
				0.04309344291687012,
				-0.3948306739330292
			],
			"type":"VEC3"
		},
		{
			"bufferView":13,
			"componentType":5126,
			"count":1104,
			"type":"VEC3"
		},
		{
			"bufferView":14,
			"componentType":5126,
			"count":1104,
			"type":"VEC2"
		},
		{
			"bufferView":15,
			"componentType":5123,
			"count":1716,
			"type":"SCALAR"
		}
	],
	"bufferViews":[
		{
			"buffer":0,
			"byteLength":8064,
			"byteOffset":0,
			"target":34962
		},
		{
			"buffer":0,
			"byteLength":8064,
			"byteOffset":8064,
			"target":34962
		},
		{
			"buffer":0,
			"byteLength":5376,
			"byteOffset":16128,
			"target":34962
		},
		{
			"buffer":0,
			"byteLength":2160,
			"byteOffset":21504,
			"target":34963
		},
		{
			"buffer":0,
			"byteLength":5760,
			"byteOffset":23664,
			"target":34962
		},
		{
			"buffer":0,
			"byteLength":5760,
			"byteOffset":29424,
			"target":34962
		},
		{
			"buffer":0,
			"byteLength":3840,
			"byteOffset":35184,
			"target":34962
		},
		{
			"buffer":0,
			"byteLength":1464,
			"byteOffset":39024,
			"target":34963
		},
		{
			"buffer":0,
			"byteLength":2304,
			"byteOffset":40488,
			"target":34962
		},
		{
			"buffer":0,
			"byteLength":2304,
			"byteOffset":42792,
			"target":34962
		},
		{
			"buffer":0,
			"byteLength":1536,
			"byteOffset":45096,
			"target":34962
		},
		{
			"buffer":0,
			"byteLength":720,
			"byteOffset":46632,
			"target":34963
		},
		{
			"buffer":0,
			"byteLength":13248,
			"byteOffset":47352,
			"target":34962
		},
		{
			"buffer":0,
			"byteLength":13248,
			"byteOffset":60600,
			"target":34962
		},
		{
			"buffer":0,
			"byteLength":8832,
			"byteOffset":73848,
			"target":34962
		},
		{
			"buffer":0,
			"byteLength":3432,
			"byteOffset":82680,
			"target":34963
		}
	],
	"buffers":[
		{
			"byteLength":86112,
			"uri":"model.bin"
		}
	]
}
