{
	"asset":{
		"generator":"Khronos glTF Blender I/O v4.2.70",
		"version":"2.0"
	},
	"scene":0,
	"scenes":[
		{
			"name":"Scene",
			"nodes":[
				0
			]
		}
	],
	"nodes":[
		{
			"mesh":0,
			"name":"platedPie",
			"translation":[
				0,
				0.029999999329447746,
				0
			]
		}
	],
	"materials":[
		{
			"doubleSided":true,
			"name":"iron",
			"pbrMetallicRoughness":{
				"baseColorFactor":[
					0.10999999940395355,
					0.10999999940395355,
					0.11999999731779099,
					1
				],
				"metallicFactor":0.8500000238418579,
				"roughnessFactor":0.44999998807907104
			}
		},
		{
			"doubleSided":true,
			"name":"wornleather",
			"pbrMetallicRoughness":{
				"baseColorFactor":[
					0.2800000011920929,
					0.18000000715255737,
					0.10999999940395355,
					1
				],
				"metallicFactor":0,
				"roughnessFactor":0.8500000238418579
			}
		}
	],
	"meshes":[
		{
			"name":"Cylinder",
			"primitives":[
				{
					"attributes":{
						"POSITION":0,
						"NORMAL":1,
						"TEXCOORD_0":2
					},
					"indices":3,
					"material":0
				},
				{
					"attributes":{
						"POSITION":4,
						"NORMAL":5,
						"TEXCOORD_0":6
					},
					"indices":7,
					"material":1
				}
			]
		}
	],
	"accessors":[
		{
			"bufferView":0,
			"componentType":5126,
			"count":120,
			"max":[
				0.15000000596046448,
				0.029999999329447746,
				0.15000000596046448
			],
			"min":[
				-0.15000000596046448,
				-0.029999999329447746,
				-0.15000000596046448
			],
			"type":"VEC3"
		},
		{
			"bufferView":1,
			"componentType":5126,
			"count":120,
			"type":"VEC3"
		},
		{
			"bufferView":2,
			"componentType":5126,
			"count":120,
			"type":"VEC2"
		},
		{
			"bufferView":3,
			"componentType":5123,
			"count":228,
			"type":"SCALAR"
		},
		{
			"bufferView":4,
			"componentType":5126,
			"count":3280,
			"max":[
				0.1629999876022339,
				0.12099999189376831,
				0.1629999876022339
			],
			"min":[
				-0.1629999876022339,
				-0.03700000047683716,
				-0.1629999876022339
			],
			"type":"VEC3"
		},
		{
			"bufferView":5,
			"componentType":5126,
			"count":3280,
			"type":"VEC3"
		},
		{
			"bufferView":6,
			"componentType":5126,
			"count":3280,
			"type":"VEC2"
		},
		{
			"bufferView":7,
			"componentType":5123,
			"count":4872,
			"type":"SCALAR"
		}
	],
	"bufferViews":[
		{
			"buffer":0,
			"byteLength":1440,
			"byteOffset":0,
			"target":34962
		},
		{
			"buffer":0,
			"byteLength":1440,
			"byteOffset":1440,
			"target":34962
		},
		{
			"buffer":0,
			"byteLength":960,
			"byteOffset":2880,
			"target":34962
		},
		{
			"buffer":0,
			"byteLength":456,
			"byteOffset":3840,
			"target":34963
		},
		{
			"buffer":0,
			"byteLength":39360,
			"byteOffset":4296,
			"target":34962
		},
		{
			"buffer":0,
			"byteLength":39360,
			"byteOffset":43656,
			"target":34962
		},
		{
			"buffer":0,
			"byteLength":26240,
			"byteOffset":83016,
			"target":34962
		},
		{
			"buffer":0,
			"byteLength":9744,
			"byteOffset":109256,
			"target":34963
		}
	],
	"buffers":[
		{
			"byteLength":119000,
			"uri":"model.bin"
		}
	]
}
