{
	"asset":{
		"generator":"Khronos glTF Blender I/O v4.2.83",
		"version":"2.0"
	},
	"scene":0,
	"scenes":[
		{
			"name":"Scene",
			"nodes":[
				0
			]
		}
	],
	"nodes":[
		{
			"mesh":0,
			"name":"pipeRun",
			"rotation":[
				0,
				0,
				-0.7071068286895752,
				0.7071068286895752
			],
			"translation":[
				0,
				2.4000000953674316,
				-0.05999999865889549
			]
		}
	],
	"materials":[
		{
			"doubleSided":true,
			"name":"iron",
			"pbrMetallicRoughness":{
				"baseColorFactor":[
					0.10999999940395355,
					0.10999999940395355,
					0.11999999731779099,
					1
				],
				"metallicFactor":0.8500000238418579,
				"roughnessFactor":0.44999998807907104
			}
		}
	],
	"meshes":[
		{
			"name":"Cylinder",
			"primitives":[
				{
					"attributes":{
						"POSITION":0,
						"NORMAL":1,
						"TEXCOORD_0":2
					},
					"indices":3,
					"material":0
				}
			]
		}
	],
	"accessors":[
		{
			"bufferView":0,
			"componentType":5126,
			"count":3468,
			"max":[
				0.8250001668930054,
				1.5700000524520874,
				0.12000000476837158
			],
			"min":[
				-0.052308108657598495,
				-1.5700000524520874,
				-0.3100000023841858
			],
			"type":"VEC3"
		},
		{
			"bufferView":1,
			"componentType":5126,
			"count":3468,
			"type":"VEC3"
		},
		{
			"bufferView":2,
			"componentType":5126,
			"count":3468,
			"type":"VEC2"
		},
		{
			"bufferView":3,
			"componentType":5123,
			"count":5316,
			"type":"SCALAR"
		}
	],
	"bufferViews":[
		{
			"buffer":0,
			"byteLength":41616,
			"byteOffset":0,
			"target":34962
		},
		{
			"buffer":0,
			"byteLength":41616,
			"byteOffset":41616,
			"target":34962
		},
		{
			"buffer":0,
			"byteLength":27744,
			"byteOffset":83232,
			"target":34962
		},
		{
			"buffer":0,
			"byteLength":10632,
			"byteOffset":110976,
			"target":34963
		}
	],
	"buffers":[
		{
			"byteLength":121608,
			"uri":"model.bin"
		}
	]
}
