{
	"asset":{
		"generator":"Khronos glTF Blender I/O v4.2.70",
		"version":"2.0"
	},
	"scene":0,
	"scenes":[
		{
			"name":"Scene",
			"nodes":[
				0
			]
		}
	],
	"nodes":[
		{
			"mesh":0,
			"name":"curtainSwag",
			"rotation":[
				0,
				0,
				-0.7071068286895752,
				0.7071068286895752
			]
		}
	],
	"materials":[
		{
			"doubleSided":true,
			"name":"brass",
			"pbrMetallicRoughness":{
				"baseColorFactor":[
					0.41999998688697815,
					0.30000001192092896,
					0.11999999731779099,
					1
				],
				"metallicFactor":0.8999999761581421,
				"roughnessFactor":0.3499999940395355
			}
		},
		{
			"doubleSided":true,
			"name":"bookcloth",
			"pbrMetallicRoughness":{
				"baseColorFactor":[
					0.20000000298023224,
					0.23999999463558197,
					0.20000000298023224,
					1
				],
				"metallicFactor":0,
				"roughnessFactor":0.8999999761581421
			}
		},
		{
			"doubleSided":true,
			"name":"darkwood",
			"pbrMetallicRoughness":{
				"baseColorFactor":[
					0.1599999964237213,
					0.10000000149011612,
					0.07000000029802322,
					1
				],
				"metallicFactor":0,
				"roughnessFactor":0.699999988079071
			}
		}
	],
	"meshes":[
		{
			"name":"Cylinder",
			"primitives":[
				{
					"attributes":{
						"POSITION":0,
						"NORMAL":1,
						"TEXCOORD_0":2
					},
					"indices":3,
					"material":0
				},
				{
					"attributes":{
						"POSITION":4,
						"NORMAL":5,
						"TEXCOORD_0":6
					},
					"indices":7,
					"material":1
				},
				{
					"attributes":{
						"POSITION":8,
						"NORMAL":9,
						"TEXCOORD_0":10
					},
					"indices":11,
					"material":2
				}
			]
		}
	],
	"accessors":[
		{
			"bufferView":0,
			"componentType":5126,
			"count":1860,
			"max":[
				0.4620000422000885,
				0.8904338479042053,
				0.04200000315904617
			],
			"min":[
				-0.04500003531575203,
				-0.8904338479042053,
				-0.0949999988079071
			],
			"type":"VEC3"
		},
		{
			"bufferView":1,
			"componentType":5126,
			"count":1860,
			"type":"VEC3"
		},
		{
			"bufferView":2,
			"componentType":5126,
			"count":1860,
			"type":"VEC2"
		},
		{
			"bufferView":3,
			"componentType":5123,
			"count":2748,
			"type":"SCALAR"
		},
		{
			"bufferView":4,
			"componentType":5126,
			"count":3936,
			"max":[
				0.5915116667747498,
				0.7768886685371399,
				0.08119998872280121
			],
			"min":[
				0.02079998143017292,
				-0.7768886089324951,
				-0.02500000223517418
			],
			"type":"VEC3"
		},
		{
			"bufferView":5,
			"componentType":5126,
			"count":3936,
			"type":"VEC3"
		},
		{
			"bufferView":6,
			"componentType":5126,
			"count":3936,
			"type":"VEC2"
		},
		{
			"bufferView":7,
			"componentType":5123,
			"count":5760,
			"type":"SCALAR"
		},
		{
			"bufferView":8,
			"componentType":5126,
			"count":4608,
			"max":[
				0.2529999911785126,
				0.6449999809265137,
				0.09300000965595245
			],
			"min":[
				-0.0130000039935112,
				-0.6549999713897705,
				0.07699999213218689
			],
			"type":"VEC3"
		},
		{
			"bufferView":9,
			"componentType":5126,
			"count":4608,
			"type":"VEC3"
		},
		{
			"bufferView":10,
			"componentType":5126,
			"count":4608,
			"type":"VEC2"
		},
		{
			"bufferView":11,
			"componentType":5123,
			"count":6912,
			"type":"SCALAR"
		}
	],
	"bufferViews":[
		{
			"buffer":0,
			"byteLength":22320,
			"byteOffset":0,
			"target":34962
		},
		{
			"buffer":0,
			"byteLength":22320,
			"byteOffset":22320,
			"target":34962
		},
		{
			"buffer":0,
			"byteLength":14880,
			"byteOffset":44640,
			"target":34962
		},
		{
			"buffer":0,
			"byteLength":5496,
			"byteOffset":59520,
			"target":34963
		},
		{
			"buffer":0,
			"byteLength":47232,
			"byteOffset":65016,
			"target":34962
		},
		{
			"buffer":0,
			"byteLength":47232,
			"byteOffset":112248,
			"target":34962
		},
		{
			"buffer":0,
			"byteLength":31488,
			"byteOffset":159480,
			"target":34962
		},
		{
			"buffer":0,
			"byteLength":11520,
			"byteOffset":190968,
			"target":34963
		},
		{
			"buffer":0,
			"byteLength":55296,
			"byteOffset":202488,
			"target":34962
		},
		{
			"buffer":0,
			"byteLength":55296,
			"byteOffset":257784,
			"target":34962
		},
		{
			"buffer":0,
			"byteLength":36864,
			"byteOffset":313080,
			"target":34962
		},
		{
			"buffer":0,
			"byteLength":13824,
			"byteOffset":349944,
			"target":34963
		}
	],
	"buffers":[
		{
			"byteLength":363768,
			"uri":"model.bin"
		}
	]
}
