{
	"asset":{
		"generator":"Khronos glTF Blender I/O v4.2.83",
		"version":"2.0"
	},
	"scene":0,
	"scenes":[
		{
			"name":"Scene",
			"nodes":[
				0
			]
		}
	],
	"nodes":[
		{
			"mesh":0,
			"name":"stackShelf"
		}
	],
	"materials":[
		{
			"doubleSided":true,
			"name":"iron",
			"pbrMetallicRoughness":{
				"baseColorFactor":[
					0.10999999940395355,
					0.10999999940395355,
					0.11999999731779099,
					1
				],
				"metallicFactor":0.8500000238418579,
				"roughnessFactor":0.44999998807907104
			}
		},
		{
			"doubleSided":true,
			"name":"darkwood",
			"pbrMetallicRoughness":{
				"baseColorFactor":[
					0.1599999964237213,
					0.10000000149011612,
					0.07000000029802322,
					1
				],
				"metallicFactor":0,
				"roughnessFactor":0.699999988079071
			}
		},
		{
			"doubleSided":true,
			"name":"paper",
			"pbrMetallicRoughness":{
				"baseColorFactor":[
					0.75,
					0.6800000071525574,
					0.5,
					1
				],
				"metallicFactor":0,
				"roughnessFactor":0.4000000059604645
			}
		},
		{
			"doubleSided":true,
			"name":"paper.001",
			"pbrMetallicRoughness":{
				"baseColorFactor":[
					0.75,
					0.6800000071525574,
					0.5,
					1
				],
				"metallicFactor":0,
				"roughnessFactor":0.4000000059604645
			}
		},
		{
			"doubleSided":true,
			"name":"paper.002",
			"pbrMetallicRoughness":{
				"baseColorFactor":[
					0.75,
					0.6800000071525574,
					0.5,
					1
				],
				"metallicFactor":0,
				"roughnessFactor":0.4000000059604645
			}
		},
		{
			"doubleSided":true,
			"name":"paper.003",
			"pbrMetallicRoughness":{
				"baseColorFactor":[
					0.75,
					0.6800000071525574,
					0.5,
					1
				],
				"metallicFactor":0,
				"roughnessFactor":0.4000000059604645
			}
		},
		{
			"doubleSided":true,
			"name":"paper.004",
			"pbrMetallicRoughness":{
				"baseColorFactor":[
					0.75,
					0.6800000071525574,
					0.5,
					1
				],
				"metallicFactor":0,
				"roughnessFactor":0.4000000059604645
			}
		},
		{
			"doubleSided":true,
			"name":"paper.005",
			"pbrMetallicRoughness":{
				"baseColorFactor":[
					0.75,
					0.6800000071525574,
					0.5,
					1
				],
				"metallicFactor":0,
				"roughnessFactor":0.4000000059604645
			}
		},
		{
			"doubleSided":true,
			"name":"paper.006",
			"pbrMetallicRoughness":{
				"baseColorFactor":[
					0.75,
					0.6800000071525574,
					0.5,
					1
				],
				"metallicFactor":0,
				"roughnessFactor":0.4000000059604645
			}
		},
		{
			"doubleSided":true,
			"name":"paper.007",
			"pbrMetallicRoughness":{
				"baseColorFactor":[
					0.75,
					0.6800000071525574,
					0.5,
					1
				],
				"metallicFactor":0,
				"roughnessFactor":0.4000000059604645
			}
		},
		{
			"doubleSided":true,
			"name":"paper.008",
			"pbrMetallicRoughness":{
				"baseColorFactor":[
					0.75,
					0.6800000071525574,
					0.5,
					1
				],
				"metallicFactor":0,
				"roughnessFactor":0.4000000059604645
			}
		},
		{
			"doubleSided":true,
			"name":"paper.009",
			"pbrMetallicRoughness":{
				"baseColorFactor":[
					0.75,
					0.6800000071525574,
					0.5,
					1
				],
				"metallicFactor":0,
				"roughnessFactor":0.4000000059604645
			}
		},
		{
			"doubleSided":true,
			"name":"paper.010",
			"pbrMetallicRoughness":{
				"baseColorFactor":[
					0.75,
					0.6800000071525574,
					0.5,
					1
				],
				"metallicFactor":0,
				"roughnessFactor":0.4000000059604645
			}
		},
		{
			"doubleSided":true,
			"name":"paper.011",
			"pbrMetallicRoughness":{
				"baseColorFactor":[
					0.75,
					0.6800000071525574,
					0.5,
					1
				],
				"metallicFactor":0,
				"roughnessFactor":0.4000000059604645
			}
		}
	],
	"meshes":[
		{
			"name":"Cube",
			"primitives":[
				{
					"attributes":{
						"POSITION":0,
						"NORMAL":1,
						"TEXCOORD_0":2
					},
					"indices":3,
					"material":0
				},
				{
					"attributes":{
						"POSITION":4,
						"NORMAL":5,
						"TEXCOORD_0":6
					},
					"indices":7,
					"material":1
				},
				{
					"attributes":{
						"POSITION":8,
						"NORMAL":9,
						"TEXCOORD_0":10
					},
					"indices":11,
					"material":2
				},
				{
					"attributes":{
						"POSITION":12,
						"NORMAL":13,
						"TEXCOORD_0":14
					},
					"indices":11,
					"material":3
				},
				{
					"attributes":{
						"POSITION":15,
						"NORMAL":16,
						"TEXCOORD_0":17
					},
					"indices":11,
					"material":4
				},
				{
					"attributes":{
						"POSITION":18,
						"NORMAL":19,
						"TEXCOORD_0":20
					},
					"indices":11,
					"material":5
				},
				{
					"attributes":{
						"POSITION":21,
						"NORMAL":22,
						"TEXCOORD_0":23
					},
					"indices":11,
					"material":6
				},
				{
					"attributes":{
						"POSITION":24,
						"NORMAL":25,
						"TEXCOORD_0":26
					},
					"indices":11,
					"material":7
				},
				{
					"attributes":{
						"POSITION":27,
						"NORMAL":28,
						"TEXCOORD_0":29
					},
					"indices":11,
					"material":8
				},
				{
					"attributes":{
						"POSITION":30,
						"NORMAL":31,
						"TEXCOORD_0":32
					},
					"indices":11,
					"material":9
				},
				{
					"attributes":{
						"POSITION":33,
						"NORMAL":34,
						"TEXCOORD_0":35
					},
					"indices":11,
					"material":10
				},
				{
					"attributes":{
						"POSITION":36,
						"NORMAL":37,
						"TEXCOORD_0":38
					},
					"indices":11,
					"material":11
				},
				{
					"attributes":{
						"POSITION":39,
						"NORMAL":40,
						"TEXCOORD_0":41
					},
					"indices":11,
					"material":12
				},
				{
					"attributes":{
						"POSITION":42,
						"NORMAL":43,
						"TEXCOORD_0":44
					},
					"indices":11,
					"material":13
				}
			]
		}
	],
	"accessors":[
		{
			"bufferView":0,
			"componentType":5126,
			"count":1512,
			"max":[
				0.800000011920929,
				2.299999952316284,
				0.25
			],
			"min":[
				-0.800000011920929,
				0,
				-0.25
			],
			"type":"VEC3"
		},
		{
			"bufferView":1,
			"componentType":5126,
			"count":1512,
			"type":"VEC3"
		},
		{
			"bufferView":2,
			"componentType":5126,
			"count":1512,
			"type":"VEC2"
		},
		{
			"bufferView":3,
			"componentType":5123,
			"count":2268,
			"type":"SCALAR"
		},
		{
			"bufferView":4,
			"componentType":5126,
			"count":2592,
			"max":[
				0.6800000071525574,
				1.840000033378601,
				0.16750000417232513
			],
			"min":[
				-0.6800000071525574,
				0.1599999964237213,
				-0.20749999582767487
			],
			"type":"VEC3"
		},
		{
			"bufferView":5,
			"componentType":5126,
			"count":2592,
			"type":"VEC3"
		},
		{
			"bufferView":6,
			"componentType":5126,
			"count":2592,
			"type":"VEC2"
		},
		{
			"bufferView":7,
			"componentType":5123,
			"count":3888,
			"type":"SCALAR"
		},
		{
			"bufferView":8,
			"componentType":5126,
			"count":24,
			"max":[
				-0.4000000059604645,
				0.3499999940395355,
				0.19499999284744263
			],
			"min":[
				-0.6000000238418579,
				0.27000001072883606,
				0.1850000023841858
			],
			"type":"VEC3"
		},
		{
			"bufferView":9,
			"componentType":5126,
			"count":24,
			"type":"VEC3"
		},
		{
			"bufferView":10,
			"componentType":5126,
			"count":24,
			"type":"VEC2"
		},
		{
			"bufferView":11,
			"componentType":5123,
			"count":36,
			"type":"SCALAR"
		},
		{
			"bufferView":12,
			"componentType":5126,
			"count":24,
			"max":[
				0.10000000149011612,
				0.3499999940395355,
				0.19499999284744263
			],
			"min":[
				-0.10000000149011612,
				0.27000001072883606,
				0.1850000023841858
			],
			"type":"VEC3"
		},
		{
			"bufferView":13,
			"componentType":5126,
			"count":24,
			"type":"VEC3"
		},
		{
			"bufferView":14,
			"componentType":5126,
			"count":24,
			"type":"VEC2"
		},
		{
			"bufferView":15,
			"componentType":5126,
			"count":24,
			"max":[
				0.6000000238418579,
				0.3499999940395355,
				0.19499999284744263
			],
			"min":[
				0.4000000059604645,
				0.27000001072883606,
				0.1850000023841858
			],
			"type":"VEC3"
		},
		{
			"bufferView":16,
			"componentType":5126,
			"count":24,
			"type":"VEC3"
		},
		{
			"bufferView":17,
			"componentType":5126,
			"count":24,
			"type":"VEC2"
		},
		{
			"bufferView":18,
			"componentType":5126,
			"count":24,
			"max":[
				-0.4000000059604645,
				0.8100000023841858,
				0.19499999284744263
			],
			"min":[
				-0.6000000238418579,
				0.7299999594688416,
				0.1850000023841858
			],
			"type":"VEC3"
		},
		{
			"bufferView":19,
			"componentType":5126,
			"count":24,
			"type":"VEC3"
		},
		{
			"bufferView":20,
			"componentType":5126,
			"count":24,
			"type":"VEC2"
		},
		{
			"bufferView":21,
			"componentType":5126,
			"count":24,
			"max":[
				0.10000000149011612,
				0.8100000023841858,
				0.19499999284744263
			],
			"min":[
				-0.10000000149011612,
				0.7299999594688416,
				0.1850000023841858
			],
			"type":"VEC3"
		},
		{
			"bufferView":22,
			"componentType":5126,
			"count":24,
			"type":"VEC3"
		},
		{
			"bufferView":23,
			"componentType":5126,
			"count":24,
			"type":"VEC2"
		},
		{
			"bufferView":24,
			"componentType":5126,
			"count":24,
			"max":[
				0.6000000238418579,
				0.8100000023841858,
				0.19499999284744263
			],
			"min":[
				0.4000000059604645,
				0.7299999594688416,
				0.1850000023841858
			],
			"type":"VEC3"
		},
		{
			"bufferView":25,
			"componentType":5126,
			"count":24,
			"type":"VEC3"
		},
		{
			"bufferView":26,
			"componentType":5126,
			"count":24,
			"type":"VEC2"
		},
		{
			"bufferView":27,
			"componentType":5126,
			"count":24,
			"max":[
				-0.4000000059604645,
				1.2699999809265137,
				0.19499999284744263
			],
			"min":[
				-0.6000000238418579,
				1.190000057220459,
				0.1850000023841858
			],
			"type":"VEC3"
		},
		{
			"bufferView":28,
			"componentType":5126,
			"count":24,
			"type":"VEC3"
		},
		{
			"bufferView":29,
			"componentType":5126,
			"count":24,
			"type":"VEC2"
		},
		{
			"bufferView":30,
			"componentType":5126,
			"count":24,
			"max":[
				0.10000000149011612,
				1.2699999809265137,
				0.19499999284744263
			],
			"min":[
				-0.10000000149011612,
				1.190000057220459,
				0.1850000023841858
			],
			"type":"VEC3"
		},
		{
			"bufferView":31,
			"componentType":5126,
			"count":24,
			"type":"VEC3"
		},
		{
			"bufferView":32,
			"componentType":5126,
			"count":24,
			"type":"VEC2"
		},
		{
			"bufferView":33,
			"componentType":5126,
			"count":24,
			"max":[
				0.6000000238418579,
				1.2699999809265137,
				0.19499999284744263
			],
			"min":[
				0.4000000059604645,
				1.190000057220459,
				0.1850000023841858
			],
			"type":"VEC3"
		},
		{
			"bufferView":34,
			"componentType":5126,
			"count":24,
			"type":"VEC3"
		},
		{
			"bufferView":35,
			"componentType":5126,
			"count":24,
			"type":"VEC2"
		},
		{
			"bufferView":36,
			"componentType":5126,
			"count":24,
			"max":[
				-0.4000000059604645,
				1.7300000190734863,
				0.19499999284744263
			],
			"min":[
				-0.6000000238418579,
				1.6500000953674316,
				0.1850000023841858
			],
			"type":"VEC3"
		},
		{
			"bufferView":37,
			"componentType":5126,
			"count":24,
			"type":"VEC3"
		},
		{
			"bufferView":38,
			"componentType":5126,
			"count":24,
			"type":"VEC2"
		},
		{
			"bufferView":39,
			"componentType":5126,
			"count":24,
			"max":[
				0.10000000149011612,
				1.7300000190734863,
				0.19499999284744263
			],
			"min":[
				-0.10000000149011612,
				1.6500000953674316,
				0.1850000023841858
			],
			"type":"VEC3"
		},
		{
			"bufferView":40,
			"componentType":5126,
			"count":24,
			"type":"VEC3"
		},
		{
			"bufferView":41,
			"componentType":5126,
			"count":24,
			"type":"VEC2"
		},
		{
			"bufferView":42,
			"componentType":5126,
			"count":24,
			"max":[
				0.6000000238418579,
				1.7300000190734863,
				0.19499999284744263
			],
			"min":[
				0.4000000059604645,
				1.6500000953674316,
				0.1850000023841858
			],
			"type":"VEC3"
		},
		{
			"bufferView":43,
			"componentType":5126,
			"count":24,
			"type":"VEC3"
		},
		{
			"bufferView":44,
			"componentType":5126,
			"count":24,
			"type":"VEC2"
		}
	],
	"bufferViews":[
		{
			"buffer":0,
			"byteLength":18144,
			"byteOffset":0,
			"target":34962
		},
		{
			"buffer":0,
			"byteLength":18144,
			"byteOffset":18144,
			"target":34962
		},
		{
			"buffer":0,
			"byteLength":12096,
			"byteOffset":36288,
			"target":34962
		},
		{
			"buffer":0,
			"byteLength":4536,
			"byteOffset":48384,
			"target":34963
		},
		{
			"buffer":0,
			"byteLength":31104,
			"byteOffset":52920,
			"target":34962
		},
		{
			"buffer":0,
			"byteLength":31104,
			"byteOffset":84024,
			"target":34962
		},
		{
			"buffer":0,
			"byteLength":20736,
			"byteOffset":115128,
			"target":34962
		},
		{
			"buffer":0,
			"byteLength":7776,
			"byteOffset":135864,
			"target":34963
		},
		{
			"buffer":0,
			"byteLength":288,
			"byteOffset":143640,
			"target":34962
		},
		{
			"buffer":0,
			"byteLength":288,
			"byteOffset":143928,
			"target":34962
		},
		{
			"buffer":0,
			"byteLength":192,
			"byteOffset":144216,
			"target":34962
		},
		{
			"buffer":0,
			"byteLength":72,
			"byteOffset":144408,
			"target":34963
		},
		{
			"buffer":0,
			"byteLength":288,
			"byteOffset":144480,
			"target":34962
		},
		{
			"buffer":0,
			"byteLength":288,
			"byteOffset":144768,
			"target":34962
		},
		{
			"buffer":0,
			"byteLength":192,
			"byteOffset":145056,
			"target":34962
		},
		{
			"buffer":0,
			"byteLength":288,
			"byteOffset":145248,
			"target":34962
		},
		{
			"buffer":0,
			"byteLength":288,
			"byteOffset":145536,
			"target":34962
		},
		{
			"buffer":0,
			"byteLength":192,
			"byteOffset":145824,
			"target":34962
		},
		{
			"buffer":0,
			"byteLength":288,
			"byteOffset":146016,
			"target":34962
		},
		{
			"buffer":0,
			"byteLength":288,
			"byteOffset":146304,
			"target":34962
		},
		{
			"buffer":0,
			"byteLength":192,
			"byteOffset":146592,
			"target":34962
		},
		{
			"buffer":0,
			"byteLength":288,
			"byteOffset":146784,
			"target":34962
		},
		{
			"buffer":0,
			"byteLength":288,
			"byteOffset":147072,
			"target":34962
		},
		{
			"buffer":0,
			"byteLength":192,
			"byteOffset":147360,
			"target":34962
		},
		{
			"buffer":0,
			"byteLength":288,
			"byteOffset":147552,
			"target":34962
		},
		{
			"buffer":0,
			"byteLength":288,
			"byteOffset":147840,
			"target":34962
		},
		{
			"buffer":0,
			"byteLength":192,
			"byteOffset":148128,
			"target":34962
		},
		{
			"buffer":0,
			"byteLength":288,
			"byteOffset":148320,
			"target":34962
		},
		{
			"buffer":0,
			"byteLength":288,
			"byteOffset":148608,
			"target":34962
		},
		{
			"buffer":0,
			"byteLength":192,
			"byteOffset":148896,
			"target":34962
		},
		{
			"buffer":0,
			"byteLength":288,
			"byteOffset":149088,
			"target":34962
		},
		{
			"buffer":0,
			"byteLength":288,
			"byteOffset":149376,
			"target":34962
		},
		{
			"buffer":0,
			"byteLength":192,
			"byteOffset":149664,
			"target":34962
		},
		{
			"buffer":0,
			"byteLength":288,
			"byteOffset":149856,
			"target":34962
		},
		{
			"buffer":0,
			"byteLength":288,
			"byteOffset":150144,
			"target":34962
		},
		{
			"buffer":0,
			"byteLength":192,
			"byteOffset":150432,
			"target":34962
		},
		{
			"buffer":0,
			"byteLength":288,
			"byteOffset":150624,
			"target":34962
		},
		{
			"buffer":0,
			"byteLength":288,
			"byteOffset":150912,
			"target":34962
		},
		{
			"buffer":0,
			"byteLength":192,
			"byteOffset":151200,
			"target":34962
		},
		{
			"buffer":0,
			"byteLength":288,
			"byteOffset":151392,
			"target":34962
		},
		{
			"buffer":0,
			"byteLength":288,
			"byteOffset":151680,
			"target":34962
		},
		{
			"buffer":0,
			"byteLength":192,
			"byteOffset":151968,
			"target":34962
		},
		{
			"buffer":0,
			"byteLength":288,
			"byteOffset":152160,
			"target":34962
		},
		{
			"buffer":0,
			"byteLength":288,
			"byteOffset":152448,
			"target":34962
		},
		{
			"buffer":0,
			"byteLength":192,
			"byteOffset":152736,
			"target":34962
		}
	],
	"buffers":[
		{
			"byteLength":152928,
			"uri":"model.bin"
		}
	]
}
