{
	"asset":{
		"generator":"Khronos glTF Blender I/O v4.0.44",
		"version":"2.0"
	},
	"scene":0,
	"scenes":[
		{
			"name":"Scene",
			"nodes":[
				0
			]
		}
	],
	"nodes":[
		{
			"mesh":0,
			"name":"keyCabinet"
		}
	],
	"materials":[
		{
			"doubleSided":true,
			"name":"iron",
			"pbrMetallicRoughness":{
				"baseColorFactor":[
					0.10999999940395355,
					0.10999999940395355,
					0.11999999731779099,
					1
				],
				"metallicFactor":0.8500000238418579,
				"roughnessFactor":0.44999998807907104
			}
		},
		{
			"doubleSided":true,
			"name":"darkwood",
			"pbrMetallicRoughness":{
				"baseColorFactor":[
					0.1599999964237213,
					0.10000000149011612,
					0.07000000029802322,
					1
				],
				"metallicFactor":0,
				"roughnessFactor":0.699999988079071
			}
		},
		{
			"doubleSided":true,
			"name":"brass",
			"pbrMetallicRoughness":{
				"baseColorFactor":[
					0.41999998688697815,
					0.30000001192092896,
					0.11999999731779099,
					1
				],
				"metallicFactor":0.8999999761581421,
				"roughnessFactor":0.3499999940395355
			}
		}
	],
	"meshes":[
		{
			"name":"Cube",
			"primitives":[
				{
					"attributes":{
						"POSITION":0,
						"NORMAL":1,
						"TEXCOORD_0":2
					},
					"indices":3,
					"material":0
				},
				{
					"attributes":{
						"POSITION":4,
						"NORMAL":5,
						"TEXCOORD_0":6
					},
					"indices":7,
					"material":1
				},
				{
					"attributes":{
						"POSITION":8,
						"NORMAL":9,
						"TEXCOORD_0":10
					},
					"indices":11,
					"material":2
				}
			]
		}
	],
	"accessors":[
		{
			"bufferView":0,
			"componentType":5126,
			"count":432,
			"max":[
				0.25,
				0.3499999940395355,
				0.24221205711364746
			],
			"min":[
				-0.4079713225364685,
				-0.3499999940395355,
				-0.11999999731779099
			],
			"type":"VEC3"
		},
		{
			"bufferView":1,
			"componentType":5126,
			"count":432,
			"type":"VEC3"
		},
		{
			"bufferView":2,
			"componentType":5126,
			"count":432,
			"type":"VEC2"
		},
		{
			"bufferView":3,
			"componentType":5123,
			"count":648,
			"type":"SCALAR"
		},
		{
			"bufferView":4,
			"componentType":5126,
			"count":216,
			"max":[
				0.2199999988079071,
				0.3199999928474426,
				0.014999999664723873
			],
			"min":[
				-0.2199999988079071,
				-0.3199999928474426,
				-0.004999999888241291
			],
			"type":"VEC3"
		},
		{
			"bufferView":5,
			"componentType":5126,
			"count":216,
			"type":"VEC3"
		},
		{
			"bufferView":6,
			"componentType":5126,
			"count":216,
			"type":"VEC2"
		},
		{
			"bufferView":7,
			"componentType":5123,
			"count":324,
			"type":"SCALAR"
		},
		{
			"bufferView":8,
			"componentType":5126,
			"count":5880,
			"max":[
				0.20000000298023224,
				0.20600000023841858,
				0.05900000035762787
			],
			"min":[
				-0.20000000298023224,
				-0.25,
				0.009999999776482582
			],
			"type":"VEC3"
		},
		{
			"bufferView":9,
			"componentType":5126,
			"count":5880,
			"type":"VEC3"
		},
		{
			"bufferView":10,
			"componentType":5126,
			"count":5880,
			"type":"VEC2"
		},
		{
			"bufferView":11,
			"componentType":5123,
			"count":8892,
			"type":"SCALAR"
		}
	],
	"bufferViews":[
		{
			"buffer":0,
			"byteLength":5184,
			"byteOffset":0,
			"target":34962
		},
		{
			"buffer":0,
			"byteLength":5184,
			"byteOffset":5184,
			"target":34962
		},
		{
			"buffer":0,
			"byteLength":3456,
			"byteOffset":10368,
			"target":34962
		},
		{
			"buffer":0,
			"byteLength":1296,
			"byteOffset":13824,
			"target":34963
		},
		{
			"buffer":0,
			"byteLength":2592,
			"byteOffset":15120,
			"target":34962
		},
		{
			"buffer":0,
			"byteLength":2592,
			"byteOffset":17712,
			"target":34962
		},
		{
			"buffer":0,
			"byteLength":1728,
			"byteOffset":20304,
			"target":34962
		},
		{
			"buffer":0,
			"byteLength":648,
			"byteOffset":22032,
			"target":34963
		},
		{
			"buffer":0,
			"byteLength":70560,
			"byteOffset":22680,
			"target":34962
		},
		{
			"buffer":0,
			"byteLength":70560,
			"byteOffset":93240,
			"target":34962
		},
		{
			"buffer":0,
			"byteLength":47040,
			"byteOffset":163800,
			"target":34962
		},
		{
			"buffer":0,
			"byteLength":17784,
			"byteOffset":210840,
			"target":34963
		}
	],
	"buffers":[
		{
			"byteLength":228624,
			"uri":"model.bin"
		}
	]
}
