{
	"asset":{
		"generator":"Khronos glTF Blender I/O v4.2.70",
		"version":"2.0"
	},
	"scene":0,
	"scenes":[
		{
			"name":"Scene",
			"nodes":[
				0
			]
		}
	],
	"nodes":[
		{
			"mesh":0,
			"name":"mailCart",
			"translation":[
				-0.5,
				0.4749999940395355,
				0.25
			]
		}
	],
	"materials":[
		{
			"doubleSided":true,
			"name":"wornleather",
			"pbrMetallicRoughness":{
				"baseColorFactor":[
					0.2800000011920929,
					0.18000000715255737,
					0.10999999940395355,
					1
				],
				"metallicFactor":0,
				"roughnessFactor":0.8500000238418579
			}
		},
		{
			"doubleSided":true,
			"name":"bookcloth",
			"pbrMetallicRoughness":{
				"baseColorFactor":[
					0.20000000298023224,
					0.23999999463558197,
					0.20000000298023224,
					1
				],
				"metallicFactor":0,
				"roughnessFactor":0.8999999761581421
			}
		},
		{
			"doubleSided":true,
			"name":"iron",
			"pbrMetallicRoughness":{
				"baseColorFactor":[
					0.10999999940395355,
					0.10999999940395355,
					0.11999999731779099,
					1
				],
				"metallicFactor":0.8500000238418579,
				"roughnessFactor":0.44999998807907104
			}
		}
	],
	"meshes":[
		{
			"name":"Cylinder",
			"primitives":[
				{
					"attributes":{
						"POSITION":0,
						"NORMAL":1,
						"TEXCOORD_0":2
					},
					"indices":3,
					"material":0
				},
				{
					"attributes":{
						"POSITION":4,
						"NORMAL":5,
						"TEXCOORD_0":6
					},
					"indices":7,
					"material":1
				},
				{
					"attributes":{
						"POSITION":8,
						"NORMAL":9,
						"TEXCOORD_0":10
					},
					"indices":11,
					"material":2
				}
			]
		}
	],
	"accessors":[
		{
			"bufferView":0,
			"componentType":5126,
			"count":1920,
			"max":[
				1.0160000324249268,
				0.375,
				0.01600000075995922
			],
			"min":[
				-0.01600000075995922,
				-0.375,
				-0.515999972820282
			],
			"type":"VEC3"
		},
		{
			"bufferView":1,
			"componentType":5126,
			"count":1920,
			"type":"VEC3"
		},
		{
			"bufferView":2,
			"componentType":5126,
			"count":1920,
			"type":"VEC2"
		},
		{
			"bufferView":3,
			"componentType":5123,
			"count":2928,
			"type":"SCALAR"
		},
		{
			"bufferView":4,
			"componentType":5126,
			"count":216,
			"max":[
				0.9600000381469727,
				0.19500002264976501,
				-0.040000006556510925
			],
			"min":[
				0.03999999165534973,
				-0.35499998927116394,
				-0.4599999785423279
			],
			"type":"VEC3"
		},
		{
			"bufferView":5,
			"componentType":5126,
			"count":216,
			"type":"VEC3"
		},
		{
			"bufferView":6,
			"componentType":5126,
			"count":216,
			"type":"VEC2"
		},
		{
			"bufferView":7,
			"componentType":5123,
			"count":324,
			"type":"SCALAR"
		},
		{
			"bufferView":8,
			"componentType":5126,
			"count":2416,
			"max":[
				1.0523080825805664,
				0.47700002789497375,
				0.05500000715255737
			],
			"min":[
				-0.05230811983346939,
				-0.4749999940395355,
				-0.5550000071525574
			],
			"type":"VEC3"
		},
		{
			"bufferView":9,
			"componentType":5126,
			"count":2416,
			"type":"VEC3"
		},
		{
			"bufferView":10,
			"componentType":5126,
			"count":2416,
			"type":"VEC2"
		},
		{
			"bufferView":11,
			"componentType":5123,
			"count":3504,
			"type":"SCALAR"
		}
	],
	"bufferViews":[
		{
			"buffer":0,
			"byteLength":23040,
			"byteOffset":0,
			"target":34962
		},
		{
			"buffer":0,
			"byteLength":23040,
			"byteOffset":23040,
			"target":34962
		},
		{
			"buffer":0,
			"byteLength":15360,
			"byteOffset":46080,
			"target":34962
		},
		{
			"buffer":0,
			"byteLength":5856,
			"byteOffset":61440,
			"target":34963
		},
		{
			"buffer":0,
			"byteLength":2592,
			"byteOffset":67296,
			"target":34962
		},
		{
			"buffer":0,
			"byteLength":2592,
			"byteOffset":69888,
			"target":34962
		},
		{
			"buffer":0,
			"byteLength":1728,
			"byteOffset":72480,
			"target":34962
		},
		{
			"buffer":0,
			"byteLength":648,
			"byteOffset":74208,
			"target":34963
		},
		{
			"buffer":0,
			"byteLength":28992,
			"byteOffset":74856,
			"target":34962
		},
		{
			"buffer":0,
			"byteLength":28992,
			"byteOffset":103848,
			"target":34962
		},
		{
			"buffer":0,
			"byteLength":19328,
			"byteOffset":132840,
			"target":34962
		},
		{
			"buffer":0,
			"byteLength":7008,
			"byteOffset":152168,
			"target":34963
		}
	],
	"buffers":[
		{
			"byteLength":159176,
			"uri":"model.bin"
		}
	]
}
