{
	"asset":{
		"generator":"Khronos glTF Blender I/O v4.2.70",
		"version":"2.0"
	},
	"scene":0,
	"scenes":[
		{
			"name":"Scene",
			"nodes":[
				0
			]
		}
	],
	"nodes":[
		{
			"mesh":0,
			"name":"platedRoast",
			"translation":[
				0,
				0.014999999664723873,
				0
			]
		}
	],
	"materials":[
		{
			"doubleSided":true,
			"name":"darkwood",
			"pbrMetallicRoughness":{
				"baseColorFactor":[
					0.1599999964237213,
					0.10000000149011612,
					0.07000000029802322,
					1
				],
				"metallicFactor":0,
				"roughnessFactor":0.699999988079071
			}
		},
		{
			"doubleSided":true,
			"name":"wornleather",
			"pbrMetallicRoughness":{
				"baseColorFactor":[
					0.2800000011920929,
					0.18000000715255737,
					0.10999999940395355,
					1
				],
				"metallicFactor":0,
				"roughnessFactor":0.8500000238418579
			}
		},
		{
			"doubleSided":true,
			"name":"bookcloth",
			"pbrMetallicRoughness":{
				"baseColorFactor":[
					0.20000000298023224,
					0.23999999463558197,
					0.20000000298023224,
					1
				],
				"metallicFactor":0,
				"roughnessFactor":0.8999999761581421
			}
		},
		{
			"doubleSided":true,
			"name":"brass",
			"pbrMetallicRoughness":{
				"baseColorFactor":[
					0.41999998688697815,
					0.30000001192092896,
					0.11999999731779099,
					1
				],
				"metallicFactor":0.8999999761581421,
				"roughnessFactor":0.3499999940395355
			}
		}
	],
	"meshes":[
		{
			"name":"Cylinder",
			"primitives":[
				{
					"attributes":{
						"POSITION":0,
						"NORMAL":1,
						"TEXCOORD_0":2
					},
					"indices":3,
					"material":0
				},
				{
					"attributes":{
						"POSITION":4,
						"NORMAL":5,
						"TEXCOORD_0":6
					},
					"indices":7,
					"material":1
				},
				{
					"attributes":{
						"POSITION":8,
						"NORMAL":9,
						"TEXCOORD_0":10
					},
					"indices":11,
					"material":2
				},
				{
					"attributes":{
						"POSITION":12,
						"NORMAL":13,
						"TEXCOORD_0":14
					},
					"indices":15,
					"material":3
				}
			]
		}
	],
	"accessors":[
		{
			"bufferView":0,
			"componentType":5126,
			"count":144,
			"max":[
				0.27000001072883606,
				0.014999999664723873,
				0.27000001072883606
			],
			"min":[
				-0.27000001072883606,
				-0.014999999664723873,
				-0.27000001072883606
			],
			"type":"VEC3"
		},
		{
			"bufferView":1,
			"componentType":5126,
			"count":144,
			"type":"VEC3"
		},
		{
			"bufferView":2,
			"componentType":5126,
			"count":144,
			"type":"VEC2"
		},
		{
			"bufferView":3,
			"componentType":5123,
			"count":276,
			"type":"SCALAR"
		},
		{
			"bufferView":4,
			"componentType":5126,
			"count":600,
			"max":[
				0.24661841988563538,
				0.24249999225139618,
				0.1444999873638153
			],
			"min":[
				-0.24661841988563538,
				-0.012500002048909664,
				-0.1444999724626541
			],
			"type":"VEC3"
		},
		{
			"bufferView":5,
			"componentType":5126,
			"count":600,
			"type":"VEC3"
		},
		{
			"bufferView":6,
			"componentType":5126,
			"count":600,
			"type":"VEC2"
		},
		{
			"bufferView":7,
			"componentType":5123,
			"count":888,
			"type":"SCALAR"
		},
		{
			"bufferView":8,
			"componentType":5126,
			"count":1080,
			"max":[
				0.14922134578227997,
				0.03999999910593033,
				-0.09626677632331848
			],
			"min":[
				-0.14922134578227997,
				0.009999998845160007,
				-0.19500000774860382
			],
			"type":"VEC3"
		},
		{
			"bufferView":9,
			"componentType":5126,
			"count":1080,
			"type":"VEC3"
		},
		{
			"bufferView":10,
			"componentType":5126,
			"count":1080,
			"type":"VEC2"
		},
		{
			"bufferView":11,
			"componentType":5123,
			"count":1620,
			"type":"SCALAR"
		},
		{
			"bufferView":12,
			"componentType":5126,
			"count":768,
			"max":[
				0.2619999945163727,
				0.026999998837709427,
				0.2619999945163727
			],
			"min":[
				-0.2619999945163727,
				0.0029999995604157448,
				-0.2619999945163727
			],
			"type":"VEC3"
		},
		{
			"bufferView":13,
			"componentType":5126,
			"count":768,
			"type":"VEC3"
		},
		{
			"bufferView":14,
			"componentType":5126,
			"count":768,
			"type":"VEC2"
		},
		{
			"bufferView":15,
			"componentType":5123,
			"count":1152,
			"type":"SCALAR"
		}
	],
	"bufferViews":[
		{
			"buffer":0,
			"byteLength":1728,
			"byteOffset":0,
			"target":34962
		},
		{
			"buffer":0,
			"byteLength":1728,
			"byteOffset":1728,
			"target":34962
		},
		{
			"buffer":0,
			"byteLength":1152,
			"byteOffset":3456,
			"target":34962
		},
		{
			"buffer":0,
			"byteLength":552,
			"byteOffset":4608,
			"target":34963
		},
		{
			"buffer":0,
			"byteLength":7200,
			"byteOffset":5160,
			"target":34962
		},
		{
			"buffer":0,
			"byteLength":7200,
			"byteOffset":12360,
			"target":34962
		},
		{
			"buffer":0,
			"byteLength":4800,
			"byteOffset":19560,
			"target":34962
		},
		{
			"buffer":0,
			"byteLength":1776,
			"byteOffset":24360,
			"target":34963
		},
		{
			"buffer":0,
			"byteLength":12960,
			"byteOffset":26136,
			"target":34962
		},
		{
			"buffer":0,
			"byteLength":12960,
			"byteOffset":39096,
			"target":34962
		},
		{
			"buffer":0,
			"byteLength":8640,
			"byteOffset":52056,
			"target":34962
		},
		{
			"buffer":0,
			"byteLength":3240,
			"byteOffset":60696,
			"target":34963
		},
		{
			"buffer":0,
			"byteLength":9216,
			"byteOffset":63936,
			"target":34962
		},
		{
			"buffer":0,
			"byteLength":9216,
			"byteOffset":73152,
			"target":34962
		},
		{
			"buffer":0,
			"byteLength":6144,
			"byteOffset":82368,
			"target":34962
		},
		{
			"buffer":0,
			"byteLength":2304,
			"byteOffset":88512,
			"target":34963
		}
	],
	"buffers":[
		{
			"byteLength":90816,
			"uri":"model.bin"
		}
	]
}
