{
	"asset":{
		"generator":"Khronos glTF Blender I/O v4.2.83",
		"version":"2.0"
	},
	"scene":0,
	"scenes":[
		{
			"name":"Scene",
			"nodes":[
				0
			]
		}
	],
	"nodes":[
		{
			"mesh":0,
			"name":"breakerPanel"
		}
	],
	"materials":[
		{
			"doubleSided":true,
			"name":"iron",
			"pbrMetallicRoughness":{
				"baseColorFactor":[
					0.10999999940395355,
					0.10999999940395355,
					0.11999999731779099,
					1
				],
				"metallicFactor":0.8500000238418579,
				"roughnessFactor":0.44999998807907104
			}
		},
		{
			"doubleSided":true,
			"name":"darkwood",
			"pbrMetallicRoughness":{
				"baseColorFactor":[
					0.1599999964237213,
					0.10000000149011612,
					0.07000000029802322,
					1
				],
				"metallicFactor":0,
				"roughnessFactor":0.699999988079071
			}
		}
	],
	"meshes":[
		{
			"name":"Cube",
			"primitives":[
				{
					"attributes":{
						"POSITION":0,
						"NORMAL":1,
						"TEXCOORD_0":2
					},
					"indices":3,
					"material":0
				},
				{
					"attributes":{
						"POSITION":4,
						"NORMAL":5,
						"TEXCOORD_0":6
					},
					"indices":7,
					"material":1
				}
			]
		}
	],
	"accessors":[
		{
			"bufferView":0,
			"componentType":5126,
			"count":432,
			"max":[
				0.6887017488479614,
				1.399999976158142,
				0.09000000357627869
			],
			"min":[
				-0.44999998807907104,
				0,
				-0.3469206690788269
			],
			"type":"VEC3"
		},
		{
			"bufferView":1,
			"componentType":5126,
			"count":432,
			"type":"VEC3"
		},
		{
			"bufferView":2,
			"componentType":5126,
			"count":432,
			"type":"VEC2"
		},
		{
			"bufferView":3,
			"componentType":5123,
			"count":648,
			"type":"SCALAR"
		},
		{
			"bufferView":4,
			"componentType":5126,
			"count":2736,
			"max":[
				0.320000022649765,
				0.9399999976158142,
				0.12999999523162842
			],
			"min":[
				-0.3100000023841858,
				-0.800000011920929,
				-0.019999999552965164
			],
			"type":"VEC3"
		},
		{
			"bufferView":5,
			"componentType":5126,
			"count":2736,
			"type":"VEC3"
		},
		{
			"bufferView":6,
			"componentType":5126,
			"count":2736,
			"type":"VEC2"
		},
		{
			"bufferView":7,
			"componentType":5123,
			"count":4140,
			"type":"SCALAR"
		}
	],
	"bufferViews":[
		{
			"buffer":0,
			"byteLength":5184,
			"byteOffset":0,
			"target":34962
		},
		{
			"buffer":0,
			"byteLength":5184,
			"byteOffset":5184,
			"target":34962
		},
		{
			"buffer":0,
			"byteLength":3456,
			"byteOffset":10368,
			"target":34962
		},
		{
			"buffer":0,
			"byteLength":1296,
			"byteOffset":13824,
			"target":34963
		},
		{
			"buffer":0,
			"byteLength":32832,
			"byteOffset":15120,
			"target":34962
		},
		{
			"buffer":0,
			"byteLength":32832,
			"byteOffset":47952,
			"target":34962
		},
		{
			"buffer":0,
			"byteLength":21888,
			"byteOffset":80784,
			"target":34962
		},
		{
			"buffer":0,
			"byteLength":8280,
			"byteOffset":102672,
			"target":34963
		}
	],
	"buffers":[
		{
			"byteLength":110952,
			"uri":"model.bin"
		}
	]
}
