{
	"asset":{
		"generator":"Khronos glTF Blender I/O v4.0.44",
		"version":"2.0"
	},
	"scene":0,
	"scenes":[
		{
			"name":"Scene",
			"nodes":[
				0
			]
		}
	],
	"nodes":[
		{
			"mesh":0,
			"name":"grandfatherClock"
		}
	],
	"materials":[
		{
			"doubleSided":true,
			"name":"darkwood",
			"pbrMetallicRoughness":{
				"baseColorFactor":[
					0.1599999964237213,
					0.10000000149011612,
					0.07000000029802322,
					1
				],
				"metallicFactor":0,
				"roughnessFactor":0.699999988079071
			}
		},
		{
			"doubleSided":true,
			"name":"oakwood",
			"pbrMetallicRoughness":{
				"baseColorFactor":[
					0.3199999928474426,
					0.2199999988079071,
					0.12999999523162842,
					1
				],
				"metallicFactor":0,
				"roughnessFactor":0.800000011920929
			}
		},
		{
			"doubleSided":true,
			"name":"brass",
			"pbrMetallicRoughness":{
				"baseColorFactor":[
					0.41999998688697815,
					0.30000001192092896,
					0.11999999731779099,
					1
				],
				"metallicFactor":0.8999999761581421,
				"roughnessFactor":0.3499999940395355
			}
		},
		{
			"doubleSided":true,
			"name":"wax",
			"pbrMetallicRoughness":{
				"baseColorFactor":[
					0.8299999833106995,
					0.7900000214576721,
					0.6600000262260437,
					1
				],
				"metallicFactor":0,
				"roughnessFactor":0.550000011920929
			}
		},
		{
			"doubleSided":true,
			"name":"iron",
			"pbrMetallicRoughness":{
				"baseColorFactor":[
					0.10999999940395355,
					0.10999999940395355,
					0.11999999731779099,
					1
				],
				"metallicFactor":0.8500000238418579,
				"roughnessFactor":0.44999998807907104
			}
		}
	],
	"meshes":[
		{
			"name":"Cube",
			"primitives":[
				{
					"attributes":{
						"POSITION":0,
						"NORMAL":1,
						"TEXCOORD_0":2
					},
					"indices":3,
					"material":0
				},
				{
					"attributes":{
						"POSITION":4,
						"NORMAL":5,
						"TEXCOORD_0":6
					},
					"indices":7,
					"material":1
				},
				{
					"attributes":{
						"POSITION":8,
						"NORMAL":9,
						"TEXCOORD_0":10
					},
					"indices":11,
					"material":2
				},
				{
					"attributes":{
						"POSITION":12,
						"NORMAL":13,
						"TEXCOORD_0":14
					},
					"indices":15,
					"material":3
				},
				{
					"attributes":{
						"POSITION":16,
						"NORMAL":17,
						"TEXCOORD_0":18
					},
					"indices":19,
					"material":4
				}
			]
		}
	],
	"accessors":[
		{
			"bufferView":0,
			"componentType":5126,
			"count":648,
			"max":[
				0.3199999928474426,
				1.5549999475479126,
				0.2199999988079071
			],
			"min":[
				-0.3199999928474426,
				0,
				-0.19999998807907104
			],
			"type":"VEC3"
		},
		{
			"bufferView":1,
			"componentType":5126,
			"count":648,
			"type":"VEC3"
		},
		{
			"bufferView":2,
			"componentType":5126,
			"count":648,
			"type":"VEC2"
		},
		{
			"bufferView":3,
			"componentType":5123,
			"count":972,
			"type":"SCALAR"
		},
		{
			"bufferView":4,
			"componentType":5126,
			"count":1632,
			"max":[
				0.28999999165534973,
				2.259999990463257,
				0.18000002205371857
			],
			"min":[
				-0.28999999165534973,
				0.14000000059604645,
				-0.18000002205371857
			],
			"type":"VEC3"
		},
		{
			"bufferView":5,
			"componentType":5126,
			"count":1632,
			"type":"VEC3"
		},
		{
			"bufferView":6,
			"componentType":5126,
			"count":1632,
			"type":"VEC2"
		},
		{
			"bufferView":7,
			"componentType":5123,
			"count":2496,
			"type":"SCALAR"
		},
		{
			"bufferView":8,
			"componentType":5126,
			"count":1200,
			"max":[
				0.23999999463558197,
				2.3299999237060547,
				0.1600000113248825
			],
			"min":[
				-0.23999999463558197,
				0.4780000150203705,
				-0.019999999552965164
			],
			"type":"VEC3"
		},
		{
			"bufferView":9,
			"componentType":5126,
			"count":1200,
			"type":"VEC3"
		},
		{
			"bufferView":10,
			"componentType":5126,
			"count":1200,
			"type":"VEC2"
		},
		{
			"bufferView":11,
			"componentType":5123,
			"count":1788,
			"type":"SCALAR"
		},
		{
			"bufferView":12,
			"componentType":5126,
			"count":120,
			"max":[
				0.11999999731779099,
				1.840000033378601,
				0.17000000178813934
			],
			"min":[
				-0.11999999731779099,
				1.600000023841858,
				0.14999999105930328
			],
			"type":"VEC3"
		},
		{
			"bufferView":13,
			"componentType":5126,
			"count":120,
			"type":"VEC3"
		},
		{
			"bufferView":14,
			"componentType":5126,
			"count":120,
			"type":"VEC2"
		},
		{
			"bufferView":15,
			"componentType":5123,
			"count":228,
			"type":"SCALAR"
		},
		{
			"bufferView":16,
			"componentType":5126,
			"count":432,
			"max":[
				0.8615615367889404,
				1.7799999713897705,
				0.17500001192092896
			],
			"min":[
				-0.004999999888241291,
				1.5022532939910889,
				0.16899999976158142
			],
			"type":"VEC3"
		},
		{
			"bufferView":17,
			"componentType":5126,
			"count":432,
			"type":"VEC3"
		},
		{
			"bufferView":18,
			"componentType":5126,
			"count":432,
			"type":"VEC2"
		},
		{
			"bufferView":19,
			"componentType":5123,
			"count":648,
			"type":"SCALAR"
		}
	],
	"bufferViews":[
		{
			"buffer":0,
			"byteLength":7776,
			"byteOffset":0,
			"target":34962
		},
		{
			"buffer":0,
			"byteLength":7776,
			"byteOffset":7776,
			"target":34962
		},
		{
			"buffer":0,
			"byteLength":5184,
			"byteOffset":15552,
			"target":34962
		},
		{
			"buffer":0,
			"byteLength":1944,
			"byteOffset":20736,
			"target":34963
		},
		{
			"buffer":0,
			"byteLength":19584,
			"byteOffset":22680,
			"target":34962
		},
		{
			"buffer":0,
			"byteLength":19584,
			"byteOffset":42264,
			"target":34962
		},
		{
			"buffer":0,
			"byteLength":13056,
			"byteOffset":61848,
			"target":34962
		},
		{
			"buffer":0,
			"byteLength":4992,
			"byteOffset":74904,
			"target":34963
		},
		{
			"buffer":0,
			"byteLength":14400,
			"byteOffset":79896,
			"target":34962
		},
		{
			"buffer":0,
			"byteLength":14400,
			"byteOffset":94296,
			"target":34962
		},
		{
			"buffer":0,
			"byteLength":9600,
			"byteOffset":108696,
			"target":34962
		},
		{
			"buffer":0,
			"byteLength":3576,
			"byteOffset":118296,
			"target":34963
		},
		{
			"buffer":0,
			"byteLength":1440,
			"byteOffset":121872,
			"target":34962
		},
		{
			"buffer":0,
			"byteLength":1440,
			"byteOffset":123312,
			"target":34962
		},
		{
			"buffer":0,
			"byteLength":960,
			"byteOffset":124752,
			"target":34962
		},
		{
			"buffer":0,
			"byteLength":456,
			"byteOffset":125712,
			"target":34963
		},
		{
			"buffer":0,
			"byteLength":5184,
			"byteOffset":126168,
			"target":34962
		},
		{
			"buffer":0,
			"byteLength":5184,
			"byteOffset":131352,
			"target":34962
		},
		{
			"buffer":0,
			"byteLength":3456,
			"byteOffset":136536,
			"target":34962
		},
		{
			"buffer":0,
			"byteLength":1296,
			"byteOffset":139992,
			"target":34963
		}
	],
	"buffers":[
		{
			"byteLength":141288,
			"uri":"model.bin"
		}
	]
}
