{
	"asset":{
		"generator":"Khronos glTF Blender I/O v4.0.44",
		"version":"2.0"
	},
	"scene":0,
	"scenes":[
		{
			"name":"Scene",
			"nodes":[
				0
			]
		}
	],
	"nodes":[
		{
			"mesh":0,
			"name":"basinSink",
			"translation":[
				0,
				0.03999999910593033,
				-0.03999999910593033
			]
		}
	],
	"materials":[
		{
			"doubleSided":true,
			"name":"stone",
			"pbrMetallicRoughness":{
				"baseColorFactor":[
					0.41999998688697815,
					0.3799999952316284,
					0.33000001311302185,
					1
				],
				"metallicFactor":0,
				"roughnessFactor":0.8500000238418579
			}
		},
		{
			"doubleSided":true,
			"name":"wornleather",
			"pbrMetallicRoughness":{
				"baseColorFactor":[
					0.2800000011920929,
					0.18000000715255737,
					0.10999999940395355,
					1
				],
				"metallicFactor":0,
				"roughnessFactor":0.8500000238418579
			}
		},
		{
			"doubleSided":true,
			"name":"brass",
			"pbrMetallicRoughness":{
				"baseColorFactor":[
					0.41999998688697815,
					0.30000001192092896,
					0.11999999731779099,
					1
				],
				"metallicFactor":0.8999999761581421,
				"roughnessFactor":0.3499999940395355
			}
		}
	],
	"meshes":[
		{
			"name":"Cylinder",
			"primitives":[
				{
					"attributes":{
						"POSITION":0,
						"NORMAL":1,
						"TEXCOORD_0":2
					},
					"indices":3,
					"material":0
				},
				{
					"attributes":{
						"POSITION":4,
						"NORMAL":5,
						"TEXCOORD_0":6
					},
					"indices":7,
					"material":1
				},
				{
					"attributes":{
						"POSITION":8,
						"NORMAL":9,
						"TEXCOORD_0":10
					},
					"indices":11,
					"material":2
				}
			]
		}
	],
	"accessors":[
		{
			"bufferView":0,
			"componentType":5126,
			"count":1944,
			"max":[
				0.2827000021934509,
				1.0840001106262207,
				0.296999990940094
			],
			"min":[
				-0.2827000021934509,
				-0.03500000014901161,
				-0.21700000762939453
			],
			"type":"VEC3"
		},
		{
			"bufferView":1,
			"componentType":5126,
			"count":1944,
			"type":"VEC3"
		},
		{
			"bufferView":2,
			"componentType":5126,
			"count":1944,
			"type":"VEC2"
		},
		{
			"bufferView":3,
			"componentType":5123,
			"count":2916,
			"type":"SCALAR"
		},
		{
			"bufferView":4,
			"componentType":5126,
			"count":216,
			"max":[
				0.2849999964237213,
				1.1089999675750732,
				-0.13999998569488525
			],
			"min":[
				-0.2849999964237213,
				1.0789999961853027,
				-0.1899999976158142
			],
			"type":"VEC3"
		},
		{
			"bufferView":5,
			"componentType":5126,
			"count":216,
			"type":"VEC3"
		},
		{
			"bufferView":6,
			"componentType":5126,
			"count":216,
			"type":"VEC2"
		},
		{
			"bufferView":7,
			"componentType":5123,
			"count":324,
			"type":"SCALAR"
		},
		{
			"bufferView":8,
			"componentType":5126,
			"count":832,
			"max":[
				0.15600000321865082,
				0.9185000061988831,
				0.009999997913837433
			],
			"min":[
				-0.15600000321865082,
				0.8029999732971191,
				-0.11923803389072418
			],
			"type":"VEC3"
		},
		{
			"bufferView":9,
			"componentType":5126,
			"count":832,
			"type":"VEC3"
		},
		{
			"bufferView":10,
			"componentType":5126,
			"count":832,
			"type":"VEC2"
		},
		{
			"bufferView":11,
			"componentType":5123,
			"count":1296,
			"type":"SCALAR"
		}
	],
	"bufferViews":[
		{
			"buffer":0,
			"byteLength":23328,
			"byteOffset":0,
			"target":34962
		},
		{
			"buffer":0,
			"byteLength":23328,
			"byteOffset":23328,
			"target":34962
		},
		{
			"buffer":0,
			"byteLength":15552,
			"byteOffset":46656,
			"target":34962
		},
		{
			"buffer":0,
			"byteLength":5832,
			"byteOffset":62208,
			"target":34963
		},
		{
			"buffer":0,
			"byteLength":2592,
			"byteOffset":68040,
			"target":34962
		},
		{
			"buffer":0,
			"byteLength":2592,
			"byteOffset":70632,
			"target":34962
		},
		{
			"buffer":0,
			"byteLength":1728,
			"byteOffset":73224,
			"target":34962
		},
		{
			"buffer":0,
			"byteLength":648,
			"byteOffset":74952,
			"target":34963
		},
		{
			"buffer":0,
			"byteLength":9984,
			"byteOffset":75600,
			"target":34962
		},
		{
			"buffer":0,
			"byteLength":9984,
			"byteOffset":85584,
			"target":34962
		},
		{
			"buffer":0,
			"byteLength":6656,
			"byteOffset":95568,
			"target":34962
		},
		{
			"buffer":0,
			"byteLength":2592,
			"byteOffset":102224,
			"target":34963
		}
	],
	"buffers":[
		{
			"byteLength":104816,
			"uri":"model.bin"
		}
	]
}
