{
	"asset":{
		"generator":"Khronos glTF Blender I/O v4.0.44",
		"version":"2.0"
	},
	"scene":0,
	"scenes":[
		{
			"name":"Scene",
			"nodes":[
				0
			]
		}
	],
	"nodes":[
		{
			"mesh":0,
			"name":"counter"
		}
	],
	"materials":[
		{
			"doubleSided":true,
			"name":"oakwood",
			"pbrMetallicRoughness":{
				"baseColorFactor":[
					0.3199999928474426,
					0.2199999988079071,
					0.12999999523162842,
					1
				],
				"metallicFactor":0,
				"roughnessFactor":0.800000011920929
			}
		},
		{
			"doubleSided":true,
			"name":"darkwood",
			"pbrMetallicRoughness":{
				"baseColorFactor":[
					0.1599999964237213,
					0.10000000149011612,
					0.07000000029802322,
					1
				],
				"metallicFactor":0,
				"roughnessFactor":0.699999988079071
			}
		},
		{
			"doubleSided":true,
			"name":"wornleather",
			"pbrMetallicRoughness":{
				"baseColorFactor":[
					0.2800000011920929,
					0.18000000715255737,
					0.10999999940395355,
					1
				],
				"metallicFactor":0,
				"roughnessFactor":0.8500000238418579
			}
		}
	],
	"meshes":[
		{
			"name":"Cube",
			"primitives":[
				{
					"attributes":{
						"POSITION":0,
						"NORMAL":1,
						"TEXCOORD_0":2
					},
					"indices":3,
					"material":0
				},
				{
					"attributes":{
						"POSITION":4,
						"NORMAL":5,
						"TEXCOORD_0":6
					},
					"indices":7,
					"material":1
				},
				{
					"attributes":{
						"POSITION":8,
						"NORMAL":9,
						"TEXCOORD_0":10
					},
					"indices":11,
					"material":2
				}
			]
		}
	],
	"accessors":[
		{
			"bufferView":0,
			"componentType":5126,
			"count":216,
			"max":[
				1.2999999523162842,
				1.100000023841858,
				0.28999999165534973
			],
			"min":[
				-1.2999999523162842,
				0,
				-0.33000001311302185
			],
			"type":"VEC3"
		},
		{
			"bufferView":1,
			"componentType":5126,
			"count":216,
			"type":"VEC3"
		},
		{
			"bufferView":2,
			"componentType":5126,
			"count":216,
			"type":"VEC2"
		},
		{
			"bufferView":3,
			"componentType":5123,
			"count":324,
			"type":"SCALAR"
		},
		{
			"bufferView":4,
			"componentType":5126,
			"count":432,
			"max":[
				1.3799999952316284,
				1.149999976158142,
				0.4399999976158142
			],
			"min":[
				-1.3799999952316284,
				0.009999997913837433,
				-0.3999999761581421
			],
			"type":"VEC3"
		},
		{
			"bufferView":5,
			"componentType":5126,
			"count":432,
			"type":"VEC3"
		},
		{
			"bufferView":6,
			"componentType":5126,
			"count":432,
			"type":"VEC2"
		},
		{
			"bufferView":7,
			"componentType":5123,
			"count":648,
			"type":"SCALAR"
		},
		{
			"bufferView":8,
			"componentType":5126,
			"count":1080,
			"max":[
				1.25,
				1.0700000524520874,
				0.38499999046325684
			],
			"min":[
				-1.25,
				0.1899999976158142,
				-0.32500001788139343
			],
			"type":"VEC3"
		},
		{
			"bufferView":9,
			"componentType":5126,
			"count":1080,
			"type":"VEC3"
		},
		{
			"bufferView":10,
			"componentType":5126,
			"count":1080,
			"type":"VEC2"
		},
		{
			"bufferView":11,
			"componentType":5123,
			"count":1620,
			"type":"SCALAR"
		}
	],
	"bufferViews":[
		{
			"buffer":0,
			"byteLength":2592,
			"byteOffset":0,
			"target":34962
		},
		{
			"buffer":0,
			"byteLength":2592,
			"byteOffset":2592,
			"target":34962
		},
		{
			"buffer":0,
			"byteLength":1728,
			"byteOffset":5184,
			"target":34962
		},
		{
			"buffer":0,
			"byteLength":648,
			"byteOffset":6912,
			"target":34963
		},
		{
			"buffer":0,
			"byteLength":5184,
			"byteOffset":7560,
			"target":34962
		},
		{
			"buffer":0,
			"byteLength":5184,
			"byteOffset":12744,
			"target":34962
		},
		{
			"buffer":0,
			"byteLength":3456,
			"byteOffset":17928,
			"target":34962
		},
		{
			"buffer":0,
			"byteLength":1296,
			"byteOffset":21384,
			"target":34963
		},
		{
			"buffer":0,
			"byteLength":12960,
			"byteOffset":22680,
			"target":34962
		},
		{
			"buffer":0,
			"byteLength":12960,
			"byteOffset":35640,
			"target":34962
		},
		{
			"buffer":0,
			"byteLength":8640,
			"byteOffset":48600,
			"target":34962
		},
		{
			"buffer":0,
			"byteLength":3240,
			"byteOffset":57240,
			"target":34963
		}
	],
	"buffers":[
		{
			"byteLength":60480,
			"uri":"model.bin"
		}
	]
}
