{
	"asset":{
		"generator":"Khronos glTF Blender I/O v4.0.44",
		"version":"2.0"
	},
	"scene":0,
	"scenes":[
		{
			"name":"Scene",
			"nodes":[
				0
			]
		}
	],
	"nodes":[
		{
			"mesh":0,
			"name":"dressingScreen",
			"rotation":[
				0,
				-0.20845992863178253,
				0,
				0.9780309200286865
			],
			"translation":[
				0,
				0,
				0.2589278817176819
			]
		}
	],
	"materials":[
		{
			"doubleSided":true,
			"name":"darkwood",
			"pbrMetallicRoughness":{
				"baseColorFactor":[
					0.1599999964237213,
					0.10000000149011612,
					0.07000000029802322,
					1
				],
				"metallicFactor":0,
				"roughnessFactor":0.699999988079071
			}
		},
		{
			"doubleSided":true,
			"name":"linen",
			"pbrMetallicRoughness":{
				"baseColorFactor":[
					0.7200000286102295,
					0.6600000262260437,
					0.550000011920929,
					1
				],
				"metallicFactor":0,
				"roughnessFactor":0.8999999761581421
			}
		},
		{
			"doubleSided":true,
			"name":"oakwood",
			"pbrMetallicRoughness":{
				"baseColorFactor":[
					0.3199999928474426,
					0.2199999988079071,
					0.12999999523162842,
					1
				],
				"metallicFactor":0,
				"roughnessFactor":0.800000011920929
			}
		}
	],
	"meshes":[
		{
			"name":"Cube",
			"primitives":[
				{
					"attributes":{
						"POSITION":0,
						"NORMAL":1,
						"TEXCOORD_0":2
					},
					"indices":3,
					"material":0
				},
				{
					"attributes":{
						"POSITION":4,
						"NORMAL":5,
						"TEXCOORD_0":6
					},
					"indices":7,
					"material":1
				},
				{
					"attributes":{
						"POSITION":8,
						"NORMAL":9,
						"TEXCOORD_0":10
					},
					"indices":11,
					"material":2
				}
			]
		}
	],
	"accessors":[
		{
			"bufferView":0,
			"componentType":5126,
			"count":1080,
			"max":[
				0.8145840167999268,
				1.899999976158142,
				0.282004177570343
			],
			"min":[
				-1.025745153427124,
				0,
				-0.7548525929450989
			],
			"type":"VEC3"
		},
		{
			"bufferView":1,
			"componentType":5126,
			"count":1080,
			"type":"VEC3"
		},
		{
			"bufferView":2,
			"componentType":5126,
			"count":1080,
			"type":"VEC2"
		},
		{
			"bufferView":3,
			"componentType":5123,
			"count":1620,
			"type":"SCALAR"
		},
		{
			"bufferView":4,
			"componentType":5126,
			"count":622,
			"max":[
				0.5873404741287231,
				1.809999942779541,
				0.010000026784837246
			],
			"min":[
				-0.8750001192092896,
				0.0899999737739563,
				-0.6541014909744263
			],
			"type":"VEC3"
		},
		{
			"bufferView":5,
			"componentType":5126,
			"count":622,
			"type":"VEC3"
		},
		{
			"bufferView":6,
			"componentType":5126,
			"count":622,
			"type":"VEC2"
		},
		{
			"bufferView":7,
			"componentType":5123,
			"count":972,
			"type":"SCALAR"
		},
		{
			"bufferView":8,
			"componentType":5126,
			"count":1296,
			"max":[
				0.6489558219909668,
				1.899999976158142,
				0.030000030994415283
			],
			"min":[
				-0.9450001120567322,
				0,
				-0.7195757627487183
			],
			"type":"VEC3"
		},
		{
			"bufferView":9,
			"componentType":5126,
			"count":1296,
			"type":"VEC3"
		},
		{
			"bufferView":10,
			"componentType":5126,
			"count":1296,
			"type":"VEC2"
		},
		{
			"bufferView":11,
			"componentType":5123,
			"count":1944,
			"type":"SCALAR"
		}
	],
	"bufferViews":[
		{
			"buffer":0,
			"byteLength":12960,
			"byteOffset":0,
			"target":34962
		},
		{
			"buffer":0,
			"byteLength":12960,
			"byteOffset":12960,
			"target":34962
		},
		{
			"buffer":0,
			"byteLength":8640,
			"byteOffset":25920,
			"target":34962
		},
		{
			"buffer":0,
			"byteLength":3240,
			"byteOffset":34560,
			"target":34963
		},
		{
			"buffer":0,
			"byteLength":7464,
			"byteOffset":37800,
			"target":34962
		},
		{
			"buffer":0,
			"byteLength":7464,
			"byteOffset":45264,
			"target":34962
		},
		{
			"buffer":0,
			"byteLength":4976,
			"byteOffset":52728,
			"target":34962
		},
		{
			"buffer":0,
			"byteLength":1944,
			"byteOffset":57704,
			"target":34963
		},
		{
			"buffer":0,
			"byteLength":15552,
			"byteOffset":59648,
			"target":34962
		},
		{
			"buffer":0,
			"byteLength":15552,
			"byteOffset":75200,
			"target":34962
		},
		{
			"buffer":0,
			"byteLength":10368,
			"byteOffset":90752,
			"target":34962
		},
		{
			"buffer":0,
			"byteLength":3888,
			"byteOffset":101120,
			"target":34963
		}
	],
	"buffers":[
		{
			"byteLength":105008,
			"uri":"model.bin"
		}
	]
}
