{
	"asset":{
		"generator":"Khronos glTF Blender I/O v4.2.83",
		"version":"2.0"
	},
	"scene":0,
	"scenes":[
		{
			"name":"Scene",
			"nodes":[
				0
			]
		}
	],
	"nodes":[
		{
			"mesh":0,
			"name":"scissorgate"
		}
	],
	"materials":[
		{
			"doubleSided":true,
			"name":"iron",
			"pbrMetallicRoughness":{
				"baseColorFactor":[
					0.10999999940395355,
					0.10999999940395355,
					0.11999999731779099,
					1
				],
				"metallicFactor":0.8500000238418579,
				"roughnessFactor":0.44999998807907104
			}
		}
	],
	"meshes":[
		{
			"name":"Cube",
			"primitives":[
				{
					"attributes":{
						"POSITION":0,
						"NORMAL":1,
						"TEXCOORD_0":2
					},
					"indices":3,
					"material":0
				}
			]
		}
	],
	"accessors":[
		{
			"bufferView":0,
			"componentType":5126,
			"count":3888,
			"max":[
				1.3848496675491333,
				2.200000047683716,
				0.03999999910593033
			],
			"min":[
				-1.3848496675491333,
				-0.12090819329023361,
				-0.03999999910593033
			],
			"type":"VEC3"
		},
		{
			"bufferView":1,
			"componentType":5126,
			"count":3888,
			"type":"VEC3"
		},
		{
			"bufferView":2,
			"componentType":5126,
			"count":3888,
			"type":"VEC2"
		},
		{
			"bufferView":3,
			"componentType":5123,
			"count":5832,
			"type":"SCALAR"
		}
	],
	"bufferViews":[
		{
			"buffer":0,
			"byteLength":46656,
			"byteOffset":0,
			"target":34962
		},
		{
			"buffer":0,
			"byteLength":46656,
			"byteOffset":46656,
			"target":34962
		},
		{
			"buffer":0,
			"byteLength":31104,
			"byteOffset":93312,
			"target":34962
		},
		{
			"buffer":0,
			"byteLength":11664,
			"byteOffset":124416,
			"target":34963
		}
	],
	"buffers":[
		{
			"byteLength":136080,
			"uri":"model.bin"
		}
	]
}
