{
	"asset":{
		"generator":"Khronos glTF Blender I/O v4.2.70",
		"version":"2.0"
	},
	"scene":0,
	"scenes":[
		{
			"name":"Scene",
			"nodes":[
				0
			]
		}
	],
	"nodes":[
		{
			"mesh":0,
			"name":"transomWindow"
		}
	],
	"materials":[
		{
			"doubleSided":true,
			"name":"stone",
			"pbrMetallicRoughness":{
				"baseColorFactor":[
					0.41999998688697815,
					0.3799999952316284,
					0.33000001311302185,
					1
				],
				"metallicFactor":0,
				"roughnessFactor":0.8500000238418579
			}
		},
		{
			"doubleSided":true,
			"name":"darkwood",
			"pbrMetallicRoughness":{
				"baseColorFactor":[
					0.1599999964237213,
					0.10000000149011612,
					0.07000000029802322,
					1
				],
				"metallicFactor":0,
				"roughnessFactor":0.699999988079071
			}
		},
		{
			"doubleSided":true,
			"name":"iron",
			"pbrMetallicRoughness":{
				"baseColorFactor":[
					0.10999999940395355,
					0.10999999940395355,
					0.11999999731779099,
					1
				],
				"metallicFactor":0.8500000238418579,
				"roughnessFactor":0.44999998807907104
			}
		}
	],
	"meshes":[
		{
			"name":"Cube",
			"primitives":[
				{
					"attributes":{
						"POSITION":0,
						"NORMAL":1,
						"TEXCOORD_0":2
					},
					"indices":3,
					"material":0
				},
				{
					"attributes":{
						"POSITION":4,
						"NORMAL":5,
						"TEXCOORD_0":6
					},
					"indices":7,
					"material":1
				},
				{
					"attributes":{
						"POSITION":8,
						"NORMAL":9,
						"TEXCOORD_0":10
					},
					"indices":11,
					"material":2
				}
			]
		}
	],
	"accessors":[
		{
			"bufferView":0,
			"componentType":5126,
			"count":852,
			"max":[
				0.699999988079071,
				1.2899999618530273,
				0.07000000029802322
			],
			"min":[
				-0.699999988079071,
				0,
				-0.07000000029802322
			],
			"type":"VEC3"
		},
		{
			"bufferView":1,
			"componentType":5126,
			"count":852,
			"type":"VEC3"
		},
		{
			"bufferView":2,
			"componentType":5126,
			"count":852,
			"type":"VEC2"
		},
		{
			"bufferView":3,
			"componentType":5123,
			"count":1368,
			"type":"SCALAR"
		},
		{
			"bufferView":4,
			"componentType":5126,
			"count":216,
			"max":[
				0.6200000047683716,
				0.5900000333786011,
				-0.02500000037252903
			],
			"min":[
				-0.6200000047683716,
				0.03999999165534973,
				-0.04500000178813934
			],
			"type":"VEC3"
		},
		{
			"bufferView":5,
			"componentType":5126,
			"count":216,
			"type":"VEC3"
		},
		{
			"bufferView":6,
			"componentType":5126,
			"count":216,
			"type":"VEC2"
		},
		{
			"bufferView":7,
			"componentType":5123,
			"count":324,
			"type":"SCALAR"
		},
		{
			"bufferView":8,
			"componentType":5126,
			"count":1140,
			"max":[
				0.5434447526931763,
				0.5679999589920044,
				0.06000000238418579
			],
			"min":[
				-0.5434447526931763,
				0.00788888055831194,
				-0.03999999910593033
			],
			"type":"VEC3"
		},
		{
			"bufferView":9,
			"componentType":5126,
			"count":1140,
			"type":"VEC3"
		},
		{
			"bufferView":10,
			"componentType":5126,
			"count":1140,
			"type":"VEC2"
		},
		{
			"bufferView":11,
			"componentType":5123,
			"count":1728,
			"type":"SCALAR"
		}
	],
	"bufferViews":[
		{
			"buffer":0,
			"byteLength":10224,
			"byteOffset":0,
			"target":34962
		},
		{
			"buffer":0,
			"byteLength":10224,
			"byteOffset":10224,
			"target":34962
		},
		{
			"buffer":0,
			"byteLength":6816,
			"byteOffset":20448,
			"target":34962
		},
		{
			"buffer":0,
			"byteLength":2736,
			"byteOffset":27264,
			"target":34963
		},
		{
			"buffer":0,
			"byteLength":2592,
			"byteOffset":30000,
			"target":34962
		},
		{
			"buffer":0,
			"byteLength":2592,
			"byteOffset":32592,
			"target":34962
		},
		{
			"buffer":0,
			"byteLength":1728,
			"byteOffset":35184,
			"target":34962
		},
		{
			"buffer":0,
			"byteLength":648,
			"byteOffset":36912,
			"target":34963
		},
		{
			"buffer":0,
			"byteLength":13680,
			"byteOffset":37560,
			"target":34962
		},
		{
			"buffer":0,
			"byteLength":13680,
			"byteOffset":51240,
			"target":34962
		},
		{
			"buffer":0,
			"byteLength":9120,
			"byteOffset":64920,
			"target":34962
		},
		{
			"buffer":0,
			"byteLength":3456,
			"byteOffset":74040,
			"target":34963
		}
	],
	"buffers":[
		{
			"byteLength":77496,
			"uri":"model.bin"
		}
	]
}
