{
	"asset":{
		"generator":"Khronos glTF Blender I/O v4.0.44",
		"version":"2.0"
	},
	"scene":0,
	"scenes":[
		{
			"name":"Scene",
			"nodes":[
				0
			]
		}
	],
	"nodes":[
		{
			"mesh":0,
			"name":"traceryWindow"
		}
	],
	"materials":[
		{
			"doubleSided":true,
			"name":"darkwood",
			"pbrMetallicRoughness":{
				"baseColorFactor":[
					0.1599999964237213,
					0.10000000149011612,
					0.07000000029802322,
					1
				],
				"metallicFactor":0,
				"roughnessFactor":0.699999988079071
			}
		},
		{
			"doubleSided":true,
			"name":"stone",
			"pbrMetallicRoughness":{
				"baseColorFactor":[
					0.41999998688697815,
					0.3799999952316284,
					0.33000001311302185,
					1
				],
				"metallicFactor":0,
				"roughnessFactor":0.8500000238418579
			}
		}
	],
	"meshes":[
		{
			"name":"Cube",
			"primitives":[
				{
					"attributes":{
						"POSITION":0,
						"NORMAL":1,
						"TEXCOORD_0":2
					},
					"indices":3,
					"material":0
				},
				{
					"attributes":{
						"POSITION":4,
						"NORMAL":5,
						"TEXCOORD_0":6
					},
					"indices":7,
					"material":1
				}
			]
		}
	],
	"accessors":[
		{
			"bufferView":0,
			"componentType":5126,
			"count":24,
			"max":[
				0.6200000047683716,
				2.5,
				0.03500000014901161
			],
			"min":[
				-0.6200000047683716,
				0.20000004768371582,
				0.004999999888241291
			],
			"type":"VEC3"
		},
		{
			"bufferView":1,
			"componentType":5126,
			"count":24,
			"type":"VEC3"
		},
		{
			"bufferView":2,
			"componentType":5126,
			"count":24,
			"type":"VEC2"
		},
		{
			"bufferView":3,
			"componentType":5123,
			"count":36,
			"type":"SCALAR"
		},
		{
			"bufferView":4,
			"componentType":5126,
			"count":3600,
			"max":[
				0.800000011920929,
				2.5,
				0.21000000834465027
			],
			"min":[
				-0.800000011920929,
				0,
				-0.009999999776482582
			],
			"type":"VEC3"
		},
		{
			"bufferView":5,
			"componentType":5126,
			"count":3600,
			"type":"VEC3"
		},
		{
			"bufferView":6,
			"componentType":5126,
			"count":3600,
			"type":"VEC2"
		},
		{
			"bufferView":7,
			"componentType":5123,
			"count":5556,
			"type":"SCALAR"
		}
	],
	"bufferViews":[
		{
			"buffer":0,
			"byteLength":288,
			"byteOffset":0,
			"target":34962
		},
		{
			"buffer":0,
			"byteLength":288,
			"byteOffset":288,
			"target":34962
		},
		{
			"buffer":0,
			"byteLength":192,
			"byteOffset":576,
			"target":34962
		},
		{
			"buffer":0,
			"byteLength":72,
			"byteOffset":768,
			"target":34963
		},
		{
			"buffer":0,
			"byteLength":43200,
			"byteOffset":840,
			"target":34962
		},
		{
			"buffer":0,
			"byteLength":43200,
			"byteOffset":44040,
			"target":34962
		},
		{
			"buffer":0,
			"byteLength":28800,
			"byteOffset":87240,
			"target":34962
		},
		{
			"buffer":0,
			"byteLength":11112,
			"byteOffset":116040,
			"target":34963
		}
	],
	"buffers":[
		{
			"byteLength":127152,
			"uri":"model.bin"
		}
	]
}
