{
	"asset":{
		"generator":"Khronos glTF Blender I/O v4.0.44",
		"version":"2.0"
	},
	"scene":0,
	"scenes":[
		{
			"name":"Scene",
			"nodes":[
				0
			]
		}
	],
	"nodes":[
		{
			"mesh":0,
			"name":"choppingBlock"
		}
	],
	"materials":[
		{
			"doubleSided":true,
			"name":"oakwood",
			"pbrMetallicRoughness":{
				"baseColorFactor":[
					0.3199999928474426,
					0.2199999988079071,
					0.12999999523162842,
					1
				],
				"metallicFactor":0,
				"roughnessFactor":0.800000011920929
			}
		},
		{
			"doubleSided":true,
			"name":"wornleather",
			"pbrMetallicRoughness":{
				"baseColorFactor":[
					0.2800000011920929,
					0.18000000715255737,
					0.10999999940395355,
					1
				],
				"metallicFactor":0,
				"roughnessFactor":0.8500000238418579
			}
		},
		{
			"doubleSided":true,
			"name":"darkwood",
			"pbrMetallicRoughness":{
				"baseColorFactor":[
					0.1599999964237213,
					0.10000000149011612,
					0.07000000029802322,
					1
				],
				"metallicFactor":0,
				"roughnessFactor":0.699999988079071
			}
		},
		{
			"doubleSided":true,
			"name":"iron",
			"pbrMetallicRoughness":{
				"baseColorFactor":[
					0.10999999940395355,
					0.10999999940395355,
					0.11999999731779099,
					1
				],
				"metallicFactor":0.8500000238418579,
				"roughnessFactor":0.44999998807907104
			}
		}
	],
	"meshes":[
		{
			"name":"Cube",
			"primitives":[
				{
					"attributes":{
						"POSITION":0,
						"NORMAL":1,
						"TEXCOORD_0":2
					},
					"indices":3,
					"material":0
				},
				{
					"attributes":{
						"POSITION":4,
						"NORMAL":5,
						"TEXCOORD_0":6
					},
					"indices":7,
					"material":1
				},
				{
					"attributes":{
						"POSITION":8,
						"NORMAL":9,
						"TEXCOORD_0":10
					},
					"indices":11,
					"material":2
				},
				{
					"attributes":{
						"POSITION":12,
						"NORMAL":13,
						"TEXCOORD_0":14
					},
					"indices":15,
					"material":3
				}
			]
		}
	],
	"accessors":[
		{
			"bufferView":0,
			"componentType":5126,
			"count":216,
			"max":[
				0.4749999940395355,
				0.8500000238418579,
				0.3100000023841858
			],
			"min":[
				-0.4749999940395355,
				0.6699999570846558,
				-0.3100000023841858
			],
			"type":"VEC3"
		},
		{
			"bufferView":1,
			"componentType":5126,
			"count":216,
			"type":"VEC3"
		},
		{
			"bufferView":2,
			"componentType":5126,
			"count":216,
			"type":"VEC2"
		},
		{
			"bufferView":3,
			"componentType":5123,
			"count":324,
			"type":"SCALAR"
		},
		{
			"bufferView":4,
			"componentType":5126,
			"count":432,
			"max":[
				0.48249998688697815,
				1.0799999237060547,
				0.3174999952316284
			],
			"min":[
				-0.48249998688697815,
				0.6600000262260437,
				-0.3174999952316284
			],
			"type":"VEC3"
		},
		{
			"bufferView":5,
			"componentType":5126,
			"count":432,
			"type":"VEC3"
		},
		{
			"bufferView":6,
			"componentType":5126,
			"count":432,
			"type":"VEC2"
		},
		{
			"bufferView":7,
			"componentType":5123,
			"count":648,
			"type":"SCALAR"
		},
		{
			"bufferView":8,
			"componentType":5126,
			"count":1104,
			"max":[
				0.45113423466682434,
				0.7027512788772583,
				0.2883206605911255
			],
			"min":[
				-0.45113423466682434,
				0.027248740196228027,
				-0.2883206605911255
			],
			"type":"VEC3"
		},
		{
			"bufferView":9,
			"componentType":5126,
			"count":1104,
			"type":"VEC3"
		},
		{
			"bufferView":10,
			"componentType":5126,
			"count":1104,
			"type":"VEC2"
		},
		{
			"bufferView":11,
			"componentType":5123,
			"count":1728,
			"type":"SCALAR"
		},
		{
			"bufferView":12,
			"componentType":5126,
			"count":216,
			"max":[
				-0.31319767236709595,
				1,
				0.19721680879592896
			],
			"min":[
				-0.3577623963356018,
				0.8500000238418579,
				0.10463178157806396
			],
			"type":"VEC3"
		},
		{
			"bufferView":13,
			"componentType":5126,
			"count":216,
			"type":"VEC3"
		},
		{
			"bufferView":14,
			"componentType":5126,
			"count":216,
			"type":"VEC2"
		},
		{
			"bufferView":15,
			"componentType":5123,
			"count":324,
			"type":"SCALAR"
		}
	],
	"bufferViews":[
		{
			"buffer":0,
			"byteLength":2592,
			"byteOffset":0,
			"target":34962
		},
		{
			"buffer":0,
			"byteLength":2592,
			"byteOffset":2592,
			"target":34962
		},
		{
			"buffer":0,
			"byteLength":1728,
			"byteOffset":5184,
			"target":34962
		},
		{
			"buffer":0,
			"byteLength":648,
			"byteOffset":6912,
			"target":34963
		},
		{
			"buffer":0,
			"byteLength":5184,
			"byteOffset":7560,
			"target":34962
		},
		{
			"buffer":0,
			"byteLength":5184,
			"byteOffset":12744,
			"target":34962
		},
		{
			"buffer":0,
			"byteLength":3456,
			"byteOffset":17928,
			"target":34962
		},
		{
			"buffer":0,
			"byteLength":1296,
			"byteOffset":21384,
			"target":34963
		},
		{
			"buffer":0,
			"byteLength":13248,
			"byteOffset":22680,
			"target":34962
		},
		{
			"buffer":0,
			"byteLength":13248,
			"byteOffset":35928,
			"target":34962
		},
		{
			"buffer":0,
			"byteLength":8832,
			"byteOffset":49176,
			"target":34962
		},
		{
			"buffer":0,
			"byteLength":3456,
			"byteOffset":58008,
			"target":34963
		},
		{
			"buffer":0,
			"byteLength":2592,
			"byteOffset":61464,
			"target":34962
		},
		{
			"buffer":0,
			"byteLength":2592,
			"byteOffset":64056,
			"target":34962
		},
		{
			"buffer":0,
			"byteLength":1728,
			"byteOffset":66648,
			"target":34962
		},
		{
			"buffer":0,
			"byteLength":648,
			"byteOffset":68376,
			"target":34963
		}
	],
	"buffers":[
		{
			"byteLength":69024,
			"uri":"model.bin"
		}
	]
}
