{
	"asset":{
		"generator":"Khronos glTF Blender I/O v4.0.44",
		"version":"2.0"
	},
	"scene":0,
	"scenes":[
		{
			"name":"Scene",
			"nodes":[
				0
			]
		}
	],
	"nodes":[
		{
			"mesh":0,
			"name":"roseWindow",
			"rotation":[
				0.7071068286895752,
				0,
				0,
				0.7071068286895752
			],
			"translation":[
				0,
				0,
				0.05999999865889549
			]
		}
	],
	"materials":[
		{
			"doubleSided":true,
			"name":"stone",
			"pbrMetallicRoughness":{
				"baseColorFactor":[
					0.41999998688697815,
					0.3799999952316284,
					0.33000001311302185,
					1
				],
				"metallicFactor":0,
				"roughnessFactor":0.8500000238418579
			}
		},
		{
			"doubleSided":true,
			"name":"darkwood",
			"pbrMetallicRoughness":{
				"baseColorFactor":[
					0.1599999964237213,
					0.10000000149011612,
					0.07000000029802322,
					1
				],
				"metallicFactor":0,
				"roughnessFactor":0.699999988079071
			}
		}
	],
	"meshes":[
		{
			"name":"Torus",
			"primitives":[
				{
					"attributes":{
						"POSITION":0,
						"NORMAL":1,
						"TEXCOORD_0":2
					},
					"indices":3,
					"material":0
				},
				{
					"attributes":{
						"POSITION":4,
						"NORMAL":5,
						"TEXCOORD_0":6
					},
					"indices":7,
					"material":1
				}
			]
		}
	],
	"accessors":[
		{
			"bufferView":0,
			"componentType":5126,
			"count":3220,
			"max":[
				0.8499999642372131,
				0.07000000029802322,
				0.8499999642372131
			],
			"min":[
				-0.8499999642372131,
				-0.07000000029802322,
				-0.8499999642372131
			],
			"type":"VEC3"
		},
		{
			"bufferView":1,
			"componentType":5126,
			"count":3220,
			"type":"VEC3"
		},
		{
			"bufferView":2,
			"componentType":5126,
			"count":3220,
			"type":"VEC2"
		},
		{
			"bufferView":3,
			"componentType":5123,
			"count":4884,
			"type":"SCALAR"
		},
		{
			"bufferView":4,
			"componentType":5126,
			"count":192,
			"max":[
				0.7200000286102295,
				-0.049999915063381195,
				0.7200000286102295
			],
			"min":[
				-0.7200000286102295,
				-0.07000008225440979,
				-0.7200000286102295
			],
			"type":"VEC3"
		},
		{
			"bufferView":5,
			"componentType":5126,
			"count":192,
			"type":"VEC3"
		},
		{
			"bufferView":6,
			"componentType":5126,
			"count":192,
			"type":"VEC2"
		},
		{
			"bufferView":7,
			"componentType":5123,
			"count":372,
			"type":"SCALAR"
		}
	],
	"bufferViews":[
		{
			"buffer":0,
			"byteLength":38640,
			"byteOffset":0,
			"target":34962
		},
		{
			"buffer":0,
			"byteLength":38640,
			"byteOffset":38640,
			"target":34962
		},
		{
			"buffer":0,
			"byteLength":25760,
			"byteOffset":77280,
			"target":34962
		},
		{
			"buffer":0,
			"byteLength":9768,
			"byteOffset":103040,
			"target":34963
		},
		{
			"buffer":0,
			"byteLength":2304,
			"byteOffset":112808,
			"target":34962
		},
		{
			"buffer":0,
			"byteLength":2304,
			"byteOffset":115112,
			"target":34962
		},
		{
			"buffer":0,
			"byteLength":1536,
			"byteOffset":117416,
			"target":34962
		},
		{
			"buffer":0,
			"byteLength":744,
			"byteOffset":118952,
			"target":34963
		}
	],
	"buffers":[
		{
			"byteLength":119696,
			"uri":"model.bin"
		}
	]
}
