{
	"asset":{
		"generator":"Khronos glTF Blender I/O v4.2.70",
		"version":"2.0"
	},
	"scene":0,
	"scenes":[
		{
			"name":"Scene",
			"nodes":[
				0
			]
		}
	],
	"nodes":[
		{
			"mesh":0,
			"name":"libraryLadder",
			"rotation":[
				-0.08715573698282242,
				0,
				0,
				0.9961947798728943
			]
		}
	],
	"materials":[
		{
			"doubleSided":true,
			"name":"oakwood",
			"pbrMetallicRoughness":{
				"baseColorFactor":[
					0.3199999928474426,
					0.2199999988079071,
					0.12999999523162842,
					1
				],
				"metallicFactor":0,
				"roughnessFactor":0.800000011920929
			}
		},
		{
			"doubleSided":true,
			"name":"iron",
			"pbrMetallicRoughness":{
				"baseColorFactor":[
					0.10999999940395355,
					0.10999999940395355,
					0.11999999731779099,
					1
				],
				"metallicFactor":0.8500000238418579,
				"roughnessFactor":0.44999998807907104
			}
		}
	],
	"meshes":[
		{
			"name":"Cube",
			"primitives":[
				{
					"attributes":{
						"POSITION":0,
						"NORMAL":1,
						"TEXCOORD_0":2
					},
					"indices":3,
					"material":0
				},
				{
					"attributes":{
						"POSITION":4,
						"NORMAL":5,
						"TEXCOORD_0":6
					},
					"indices":7,
					"material":1
				}
			]
		}
	],
	"accessors":[
		{
			"bufferView":0,
			"componentType":5126,
			"count":768,
			"max":[
				0.24500000476837158,
				2.5,
				0.019999999552965164
			],
			"min":[
				-0.24500000476837158,
				-2.0861624927537292e-10,
				-0.02000003680586815
			],
			"type":"VEC3"
		},
		{
			"bufferView":1,
			"componentType":5126,
			"count":768,
			"type":"VEC3"
		},
		{
			"bufferView":2,
			"componentType":5126,
			"count":768,
			"type":"VEC2"
		},
		{
			"bufferView":3,
			"componentType":5123,
			"count":1236,
			"type":"SCALAR"
		},
		{
			"bufferView":4,
			"componentType":5126,
			"count":1536,
			"max":[
				0.2979999780654907,
				2.5677599906921387,
				0.18304675817489624
			],
			"min":[
				-0.2979999780654907,
				-0.015990063548088074,
				-0.06813260167837143
			],
			"type":"VEC3"
		},
		{
			"bufferView":5,
			"componentType":5126,
			"count":1536,
			"type":"VEC3"
		},
		{
			"bufferView":6,
			"componentType":5126,
			"count":1536,
			"type":"VEC2"
		},
		{
			"bufferView":7,
			"componentType":5123,
			"count":2304,
			"type":"SCALAR"
		}
	],
	"bufferViews":[
		{
			"buffer":0,
			"byteLength":9216,
			"byteOffset":0,
			"target":34962
		},
		{
			"buffer":0,
			"byteLength":9216,
			"byteOffset":9216,
			"target":34962
		},
		{
			"buffer":0,
			"byteLength":6144,
			"byteOffset":18432,
			"target":34962
		},
		{
			"buffer":0,
			"byteLength":2472,
			"byteOffset":24576,
			"target":34963
		},
		{
			"buffer":0,
			"byteLength":18432,
			"byteOffset":27048,
			"target":34962
		},
		{
			"buffer":0,
			"byteLength":18432,
			"byteOffset":45480,
			"target":34962
		},
		{
			"buffer":0,
			"byteLength":12288,
			"byteOffset":63912,
			"target":34962
		},
		{
			"buffer":0,
			"byteLength":4608,
			"byteOffset":76200,
			"target":34963
		}
	],
	"buffers":[
		{
			"byteLength":80808,
			"uri":"model.bin"
		}
	]
}
