{
	"asset":{
		"generator":"Khronos glTF Blender I/O v4.2.70",
		"version":"2.0"
	},
	"scene":0,
	"scenes":[
		{
			"name":"Scene",
			"nodes":[
				0
			]
		}
	],
	"nodes":[
		{
			"mesh":0,
			"name":"washStand",
			"translation":[
				-0.375,
				0.4300000071525574,
				0.18000000715255737
			]
		}
	],
	"materials":[
		{
			"doubleSided":true,
			"name":"oakwood",
			"pbrMetallicRoughness":{
				"baseColorFactor":[
					0.3199999928474426,
					0.2199999988079071,
					0.12999999523162842,
					1
				],
				"metallicFactor":0,
				"roughnessFactor":0.800000011920929
			}
		},
		{
			"doubleSided":true,
			"name":"wornleather",
			"pbrMetallicRoughness":{
				"baseColorFactor":[
					0.2800000011920929,
					0.18000000715255737,
					0.10999999940395355,
					1
				],
				"metallicFactor":0,
				"roughnessFactor":0.8500000238418579
			}
		},
		{
			"doubleSided":true,
			"name":"stone",
			"pbrMetallicRoughness":{
				"baseColorFactor":[
					0.41999998688697815,
					0.3799999952316284,
					0.33000001311302185,
					1
				],
				"metallicFactor":0,
				"roughnessFactor":0.8500000238418579
			}
		}
	],
	"meshes":[
		{
			"name":"Cylinder",
			"primitives":[
				{
					"attributes":{
						"POSITION":0,
						"NORMAL":1,
						"TEXCOORD_0":2
					},
					"indices":3,
					"material":0
				},
				{
					"attributes":{
						"POSITION":4,
						"NORMAL":5,
						"TEXCOORD_0":6
					},
					"indices":7,
					"material":1
				},
				{
					"attributes":{
						"POSITION":8,
						"NORMAL":9,
						"TEXCOORD_0":10
					},
					"indices":11,
					"material":2
				}
			]
		}
	],
	"accessors":[
		{
			"bufferView":0,
			"componentType":5126,
			"count":456,
			"max":[
				0.7766295671463013,
				0.4300000071525574,
				0.02800000086426735
			],
			"min":[
				-0.026629583910107613,
				-0.4300000071525574,
				-0.3880000114440918
			],
			"type":"VEC3"
		},
		{
			"bufferView":1,
			"componentType":5126,
			"count":456,
			"type":"VEC3"
		},
		{
			"bufferView":2,
			"componentType":5126,
			"count":456,
			"type":"VEC2"
		},
		{
			"bufferView":3,
			"componentType":5123,
			"count":756,
			"type":"SCALAR"
		},
		{
			"bufferView":4,
			"componentType":5126,
			"count":348,
			"max":[
				0.7400000095367432,
				0.6850000619888306,
				-0.01000000536441803
			],
			"min":[
				0.009999990463256836,
				-0.26749998331069946,
				-0.3500000238418579
			],
			"type":"VEC3"
		},
		{
			"bufferView":5,
			"componentType":5126,
			"count":348,
			"type":"VEC3"
		},
		{
			"bufferView":6,
			"componentType":5126,
			"count":348,
			"type":"VEC2"
		},
		{
			"bufferView":7,
			"componentType":5123,
			"count":564,
			"type":"SCALAR"
		},
		{
			"bufferView":8,
			"componentType":5126,
			"count":1884,
			"max":[
				0.800000011920929,
				0.8700000643730164,
				0.04999999701976776
			],
			"min":[
				-0.050000011920928955,
				0.3700000047683716,
				-0.4100000262260437
			],
			"type":"VEC3"
		},
		{
			"bufferView":9,
			"componentType":5126,
			"count":1884,
			"type":"VEC3"
		},
		{
			"bufferView":10,
			"componentType":5126,
			"count":1884,
			"type":"VEC2"
		},
		{
			"bufferView":11,
			"componentType":5123,
			"count":2772,
			"type":"SCALAR"
		}
	],
	"bufferViews":[
		{
			"buffer":0,
			"byteLength":5472,
			"byteOffset":0,
			"target":34962
		},
		{
			"buffer":0,
			"byteLength":5472,
			"byteOffset":5472,
			"target":34962
		},
		{
			"buffer":0,
			"byteLength":3648,
			"byteOffset":10944,
			"target":34962
		},
		{
			"buffer":0,
			"byteLength":1512,
			"byteOffset":14592,
			"target":34963
		},
		{
			"buffer":0,
			"byteLength":4176,
			"byteOffset":16104,
			"target":34962
		},
		{
			"buffer":0,
			"byteLength":4176,
			"byteOffset":20280,
			"target":34962
		},
		{
			"buffer":0,
			"byteLength":2784,
			"byteOffset":24456,
			"target":34962
		},
		{
			"buffer":0,
			"byteLength":1128,
			"byteOffset":27240,
			"target":34963
		},
		{
			"buffer":0,
			"byteLength":22608,
			"byteOffset":28368,
			"target":34962
		},
		{
			"buffer":0,
			"byteLength":22608,
			"byteOffset":50976,
			"target":34962
		},
		{
			"buffer":0,
			"byteLength":15072,
			"byteOffset":73584,
			"target":34962
		},
		{
			"buffer":0,
			"byteLength":5544,
			"byteOffset":88656,
			"target":34963
		}
	],
	"buffers":[
		{
			"byteLength":94200,
			"uri":"model.bin"
		}
	]
}
