{
	"asset":{
		"generator":"Khronos glTF Blender I/O v4.2.70",
		"version":"2.0"
	},
	"scene":0,
	"scenes":[
		{
			"name":"Scene",
			"nodes":[
				0
			]
		}
	],
	"nodes":[
		{
			"mesh":0,
			"name":"doorPlaque"
		}
	],
	"materials":[
		{
			"doubleSided":true,
			"name":"iron",
			"pbrMetallicRoughness":{
				"baseColorFactor":[
					0.10999999940395355,
					0.10999999940395355,
					0.11999999731779099,
					1
				],
				"metallicFactor":0.8500000238418579,
				"roughnessFactor":0.44999998807907104
			}
		},
		{
			"doubleSided":true,
			"name":"wornleather",
			"pbrMetallicRoughness":{
				"baseColorFactor":[
					0.2800000011920929,
					0.18000000715255737,
					0.10999999940395355,
					1
				],
				"metallicFactor":0,
				"roughnessFactor":0.8500000238418579
			}
		}
	],
	"meshes":[
		{
			"name":"Cube",
			"primitives":[
				{
					"attributes":{
						"POSITION":0,
						"NORMAL":1,
						"TEXCOORD_0":2
					},
					"indices":3,
					"material":0
				},
				{
					"attributes":{
						"POSITION":4,
						"NORMAL":5,
						"TEXCOORD_0":6
					},
					"indices":7,
					"material":1
				}
			]
		}
	],
	"accessors":[
		{
			"bufferView":0,
			"componentType":5126,
			"count":216,
			"max":[
				0.17000000178813934,
				0.10000000149011612,
				0.014000000432133675
			],
			"min":[
				-0.17000000178813934,
				-0.10000000149011612,
				-0.014000000432133675
			],
			"type":"VEC3"
		},
		{
			"bufferView":1,
			"componentType":5126,
			"count":216,
			"type":"VEC3"
		},
		{
			"bufferView":2,
			"componentType":5126,
			"count":216,
			"type":"VEC2"
		},
		{
			"bufferView":3,
			"componentType":5123,
			"count":324,
			"type":"SCALAR"
		},
		{
			"bufferView":4,
			"componentType":5126,
			"count":1080,
			"max":[
				0.15000000596046448,
				0.09300000220537186,
				0.020999999716877937
			],
			"min":[
				-0.15000000596046448,
				-0.09300000220537186,
				-0.014000000432133675
			],
			"type":"VEC3"
		},
		{
			"bufferView":5,
			"componentType":5126,
			"count":1080,
			"type":"VEC3"
		},
		{
			"bufferView":6,
			"componentType":5126,
			"count":1080,
			"type":"VEC2"
		},
		{
			"bufferView":7,
			"componentType":5123,
			"count":1620,
			"type":"SCALAR"
		}
	],
	"bufferViews":[
		{
			"buffer":0,
			"byteLength":2592,
			"byteOffset":0,
			"target":34962
		},
		{
			"buffer":0,
			"byteLength":2592,
			"byteOffset":2592,
			"target":34962
		},
		{
			"buffer":0,
			"byteLength":1728,
			"byteOffset":5184,
			"target":34962
		},
		{
			"buffer":0,
			"byteLength":648,
			"byteOffset":6912,
			"target":34963
		},
		{
			"buffer":0,
			"byteLength":12960,
			"byteOffset":7560,
			"target":34962
		},
		{
			"buffer":0,
			"byteLength":12960,
			"byteOffset":20520,
			"target":34962
		},
		{
			"buffer":0,
			"byteLength":8640,
			"byteOffset":33480,
			"target":34962
		},
		{
			"buffer":0,
			"byteLength":3240,
			"byteOffset":42120,
			"target":34963
		}
	],
	"buffers":[
		{
			"byteLength":45360,
			"uri":"model.bin"
		}
	]
}
