{
	"asset":{
		"generator":"Khronos glTF Blender I/O v4.2.70",
		"version":"2.0"
	},
	"scene":0,
	"scenes":[
		{
			"name":"Scene",
			"nodes":[
				0
			]
		}
	],
	"nodes":[
		{
			"mesh":0,
			"name":"displayCase"
		}
	],
	"materials":[
		{
			"doubleSided":true,
			"name":"darkwood",
			"pbrMetallicRoughness":{
				"baseColorFactor":[
					0.1599999964237213,
					0.10000000149011612,
					0.07000000029802322,
					1
				],
				"metallicFactor":0,
				"roughnessFactor":0.699999988079071
			}
		},
		{
			"doubleSided":true,
			"name":"oakwood",
			"pbrMetallicRoughness":{
				"baseColorFactor":[
					0.3199999928474426,
					0.2199999988079071,
					0.12999999523162842,
					1
				],
				"metallicFactor":0,
				"roughnessFactor":0.800000011920929
			}
		},
		{
			"doubleSided":true,
			"name":"brass",
			"pbrMetallicRoughness":{
				"baseColorFactor":[
					0.41999998688697815,
					0.30000001192092896,
					0.11999999731779099,
					1
				],
				"metallicFactor":0.8999999761581421,
				"roughnessFactor":0.3499999940395355
			}
		},
		{
			"alphaMode":"BLEND",
			"doubleSided":true,
			"name":"glass",
			"pbrMetallicRoughness":{
				"baseColorFactor":[
					0.800000011920929,
					0.8500000238418579,
					0.8999999761581421,
					0.1599999964237213
				],
				"metallicFactor":0,
				"roughnessFactor":0.07999999821186066
			}
		}
	],
	"meshes":[
		{
			"name":"Cube",
			"primitives":[
				{
					"attributes":{
						"POSITION":0,
						"NORMAL":1,
						"TEXCOORD_0":2
					},
					"indices":3,
					"material":0
				},
				{
					"attributes":{
						"POSITION":4,
						"NORMAL":5,
						"TEXCOORD_0":6
					},
					"indices":3,
					"material":1
				},
				{
					"attributes":{
						"POSITION":7,
						"NORMAL":8,
						"TEXCOORD_0":9
					},
					"indices":10,
					"material":2
				},
				{
					"attributes":{
						"POSITION":11,
						"NORMAL":12,
						"TEXCOORD_0":13
					},
					"indices":14,
					"material":3
				}
			]
		}
	],
	"accessors":[
		{
			"bufferView":0,
			"componentType":5126,
			"count":216,
			"max":[
				0.4000000059604645,
				0.699999988079071,
				0.4000000059604645
			],
			"min":[
				-0.4000000059604645,
				0,
				-0.4000000059604645
			],
			"type":"VEC3"
		},
		{
			"bufferView":1,
			"componentType":5126,
			"count":216,
			"type":"VEC3"
		},
		{
			"bufferView":2,
			"componentType":5126,
			"count":216,
			"type":"VEC2"
		},
		{
			"bufferView":3,
			"componentType":5123,
			"count":324,
			"type":"SCALAR"
		},
		{
			"bufferView":4,
			"componentType":5126,
			"count":216,
			"max":[
				0.41999998688697815,
				0.7450000047683716,
				0.41999998688697815
			],
			"min":[
				-0.41999998688697815,
				0.6950000524520874,
				-0.41999998688697815
			],
			"type":"VEC3"
		},
		{
			"bufferView":5,
			"componentType":5126,
			"count":216,
			"type":"VEC3"
		},
		{
			"bufferView":6,
			"componentType":5126,
			"count":216,
			"type":"VEC2"
		},
		{
			"bufferView":7,
			"componentType":5126,
			"count":668,
			"max":[
				0.1080000028014183,
				1.149999976158142,
				0.10999999940395355
			],
			"min":[
				-0.1080000028014183,
				0.7699999809265137,
				-0.10999999940395355
			],
			"type":"VEC3"
		},
		{
			"bufferView":8,
			"componentType":5126,
			"count":668,
			"type":"VEC3"
		},
		{
			"bufferView":9,
			"componentType":5126,
			"count":668,
			"type":"VEC2"
		},
		{
			"bufferView":10,
			"componentType":5123,
			"count":1056,
			"type":"SCALAR"
		},
		{
			"bufferView":11,
			"componentType":5126,
			"count":216,
			"max":[
				0.3499999940395355,
				1.309999942779541,
				0.3499999940395355
			],
			"min":[
				-0.3499999940395355,
				0.6899999976158142,
				-0.3499999940395355
			],
			"type":"VEC3"
		},
		{
			"bufferView":12,
			"componentType":5126,
			"count":216,
			"type":"VEC3"
		},
		{
			"bufferView":13,
			"componentType":5126,
			"count":216,
			"type":"VEC2"
		},
		{
			"bufferView":14,
			"componentType":5123,
			"count":324,
			"type":"SCALAR"
		}
	],
	"bufferViews":[
		{
			"buffer":0,
			"byteLength":2592,
			"byteOffset":0,
			"target":34962
		},
		{
			"buffer":0,
			"byteLength":2592,
			"byteOffset":2592,
			"target":34962
		},
		{
			"buffer":0,
			"byteLength":1728,
			"byteOffset":5184,
			"target":34962
		},
		{
			"buffer":0,
			"byteLength":648,
			"byteOffset":6912,
			"target":34963
		},
		{
			"buffer":0,
			"byteLength":2592,
			"byteOffset":7560,
			"target":34962
		},
		{
			"buffer":0,
			"byteLength":2592,
			"byteOffset":10152,
			"target":34962
		},
		{
			"buffer":0,
			"byteLength":1728,
			"byteOffset":12744,
			"target":34962
		},
		{
			"buffer":0,
			"byteLength":8016,
			"byteOffset":14472,
			"target":34962
		},
		{
			"buffer":0,
			"byteLength":8016,
			"byteOffset":22488,
			"target":34962
		},
		{
			"buffer":0,
			"byteLength":5344,
			"byteOffset":30504,
			"target":34962
		},
		{
			"buffer":0,
			"byteLength":2112,
			"byteOffset":35848,
			"target":34963
		},
		{
			"buffer":0,
			"byteLength":2592,
			"byteOffset":37960,
			"target":34962
		},
		{
			"buffer":0,
			"byteLength":2592,
			"byteOffset":40552,
			"target":34962
		},
		{
			"buffer":0,
			"byteLength":1728,
			"byteOffset":43144,
			"target":34962
		},
		{
			"buffer":0,
			"byteLength":648,
			"byteOffset":44872,
			"target":34963
		}
	],
	"buffers":[
		{
			"byteLength":45520,
			"uri":"model.bin"
		}
	]
}
