{
	"asset":{
		"generator":"Khronos glTF Blender I/O v4.0.44",
		"version":"2.0"
	},
	"scene":0,
	"scenes":[
		{
			"name":"Scene",
			"nodes":[
				0
			]
		}
	],
	"nodes":[
		{
			"mesh":0,
			"name":"stoveRange"
		}
	],
	"materials":[
		{
			"doubleSided":true,
			"name":"iron",
			"pbrMetallicRoughness":{
				"baseColorFactor":[
					0.10999999940395355,
					0.10999999940395355,
					0.11999999731779099,
					1
				],
				"metallicFactor":0.8500000238418579,
				"roughnessFactor":0.44999998807907104
			}
		},
		{
			"doubleSided":true,
			"name":"darkwood",
			"pbrMetallicRoughness":{
				"baseColorFactor":[
					0.1599999964237213,
					0.10000000149011612,
					0.07000000029802322,
					1
				],
				"metallicFactor":0,
				"roughnessFactor":0.699999988079071
			}
		},
		{
			"doubleSided":true,
			"name":"brass",
			"pbrMetallicRoughness":{
				"baseColorFactor":[
					0.41999998688697815,
					0.30000001192092896,
					0.11999999731779099,
					1
				],
				"metallicFactor":0.8999999761581421,
				"roughnessFactor":0.3499999940395355
			}
		}
	],
	"meshes":[
		{
			"name":"Cube",
			"primitives":[
				{
					"attributes":{
						"POSITION":0,
						"NORMAL":1,
						"TEXCOORD_0":2
					},
					"indices":3,
					"material":0
				},
				{
					"attributes":{
						"POSITION":4,
						"NORMAL":5,
						"TEXCOORD_0":6
					},
					"indices":7,
					"material":1
				},
				{
					"attributes":{
						"POSITION":8,
						"NORMAL":9,
						"TEXCOORD_0":10
					},
					"indices":11,
					"material":2
				}
			]
		}
	],
	"accessors":[
		{
			"bufferView":0,
			"componentType":5126,
			"count":4324,
			"max":[
				0.5849999785423279,
				1.600000023841858,
				0.3799999952316284
			],
			"min":[
				-0.5849999785423279,
				0.0037499964237213135,
				-0.3969913721084595
			],
			"type":"VEC3"
		},
		{
			"bufferView":1,
			"componentType":5126,
			"count":4324,
			"type":"VEC3"
		},
		{
			"bufferView":2,
			"componentType":5126,
			"count":4324,
			"type":"VEC2"
		},
		{
			"bufferView":3,
			"componentType":5123,
			"count":6396,
			"type":"SCALAR"
		},
		{
			"bufferView":4,
			"componentType":5126,
			"count":216,
			"max":[
				0.25,
				0.6699999570846558,
				0.39499998092651367
			],
			"min":[
				-0.25,
				0.28999999165534973,
				0.375
			],
			"type":"VEC3"
		},
		{
			"bufferView":5,
			"componentType":5126,
			"count":216,
			"type":"VEC3"
		},
		{
			"bufferView":6,
			"componentType":5126,
			"count":216,
			"type":"VEC2"
		},
		{
			"bufferView":7,
			"componentType":5123,
			"count":324,
			"type":"SCALAR"
		},
		{
			"bufferView":8,
			"componentType":5126,
			"count":168,
			"max":[
				0.5,
				0.793999969959259,
				0.42500001192092896
			],
			"min":[
				-0.5,
				0.4449999928474426,
				0.36500000953674316
			],
			"type":"VEC3"
		},
		{
			"bufferView":9,
			"componentType":5126,
			"count":168,
			"type":"VEC3"
		},
		{
			"bufferView":10,
			"componentType":5126,
			"count":168,
			"type":"VEC2"
		},
		{
			"bufferView":11,
			"componentType":5123,
			"count":300,
			"type":"SCALAR"
		}
	],
	"bufferViews":[
		{
			"buffer":0,
			"byteLength":51888,
			"byteOffset":0,
			"target":34962
		},
		{
			"buffer":0,
			"byteLength":51888,
			"byteOffset":51888,
			"target":34962
		},
		{
			"buffer":0,
			"byteLength":34592,
			"byteOffset":103776,
			"target":34962
		},
		{
			"buffer":0,
			"byteLength":12792,
			"byteOffset":138368,
			"target":34963
		},
		{
			"buffer":0,
			"byteLength":2592,
			"byteOffset":151160,
			"target":34962
		},
		{
			"buffer":0,
			"byteLength":2592,
			"byteOffset":153752,
			"target":34962
		},
		{
			"buffer":0,
			"byteLength":1728,
			"byteOffset":156344,
			"target":34962
		},
		{
			"buffer":0,
			"byteLength":648,
			"byteOffset":158072,
			"target":34963
		},
		{
			"buffer":0,
			"byteLength":2016,
			"byteOffset":158720,
			"target":34962
		},
		{
			"buffer":0,
			"byteLength":2016,
			"byteOffset":160736,
			"target":34962
		},
		{
			"buffer":0,
			"byteLength":1344,
			"byteOffset":162752,
			"target":34962
		},
		{
			"buffer":0,
			"byteLength":600,
			"byteOffset":164096,
			"target":34963
		}
	],
	"buffers":[
		{
			"byteLength":164696,
			"uri":"model.bin"
		}
	]
}
