{
	"asset":{
		"generator":"Khronos glTF Blender I/O v4.0.44",
		"version":"2.0"
	},
	"scene":0,
	"scenes":[
		{
			"name":"Scene",
			"nodes":[
				0
			]
		}
	],
	"nodes":[
		{
			"mesh":0,
			"name":"linenHamper",
			"rotation":[
				0.019994666799902916,
				0.00039994664257392287,
				0.019994666799902916,
				0.9996000528335571
			]
		}
	],
	"materials":[
		{
			"doubleSided":true,
			"name":"oakwood",
			"pbrMetallicRoughness":{
				"baseColorFactor":[
					0.3199999928474426,
					0.2199999988079071,
					0.12999999523162842,
					1
				],
				"metallicFactor":0,
				"roughnessFactor":0.800000011920929
			}
		},
		{
			"doubleSided":true,
			"name":"bookcloth",
			"pbrMetallicRoughness":{
				"baseColorFactor":[
					0.20000000298023224,
					0.23999999463558197,
					0.20000000298023224,
					1
				],
				"metallicFactor":0,
				"roughnessFactor":0.8999999761581421
			}
		},
		{
			"doubleSided":true,
			"name":"stone",
			"pbrMetallicRoughness":{
				"baseColorFactor":[
					0.41999998688697815,
					0.3799999952316284,
					0.33000001311302185,
					1
				],
				"metallicFactor":0,
				"roughnessFactor":0.8500000238418579
			}
		},
		{
			"doubleSided":true,
			"name":"wornleather",
			"pbrMetallicRoughness":{
				"baseColorFactor":[
					0.2800000011920929,
					0.18000000715255737,
					0.10999999940395355,
					1
				],
				"metallicFactor":0,
				"roughnessFactor":0.8500000238418579
			}
		}
	],
	"meshes":[
		{
			"name":"Cube",
			"primitives":[
				{
					"attributes":{
						"POSITION":0,
						"NORMAL":1,
						"TEXCOORD_0":2
					},
					"indices":3,
					"material":0
				},
				{
					"attributes":{
						"POSITION":4,
						"NORMAL":5,
						"TEXCOORD_0":6
					},
					"indices":7,
					"material":1
				},
				{
					"attributes":{
						"POSITION":8,
						"NORMAL":9,
						"TEXCOORD_0":10
					},
					"indices":7,
					"material":2
				},
				{
					"attributes":{
						"POSITION":11,
						"NORMAL":12,
						"TEXCOORD_0":13
					},
					"indices":7,
					"material":3
				}
			]
		}
	],
	"accessors":[
		{
			"bufferView":0,
			"componentType":5126,
			"count":2592,
			"max":[
				0.34551382064819336,
				0.7200000286102295,
				0.27113136649131775
			],
			"min":[
				-0.295641154050827,
				-0.0436616986989975,
				-0.3213713765144348
			],
			"type":"VEC3"
		},
		{
			"bufferView":1,
			"componentType":5126,
			"count":2592,
			"type":"VEC3"
		},
		{
			"bufferView":2,
			"componentType":5126,
			"count":2592,
			"type":"VEC2"
		},
		{
			"bufferView":3,
			"componentType":5123,
			"count":3888,
			"type":"SCALAR"
		},
		{
			"bufferView":4,
			"componentType":5126,
			"count":216,
			"max":[
				0.27679014205932617,
				0.6511679887771606,
				0.22328713536262512
			],
			"min":[
				-0.24799783527851105,
				0.06768061220645905,
				-0.25205641984939575
			],
			"type":"VEC3"
		},
		{
			"bufferView":5,
			"componentType":5126,
			"count":216,
			"type":"VEC3"
		},
		{
			"bufferView":6,
			"componentType":5126,
			"count":216,
			"type":"VEC2"
		},
		{
			"bufferView":7,
			"componentType":5123,
			"count":324,
			"type":"SCALAR"
		},
		{
			"bufferView":8,
			"componentType":5126,
			"count":216,
			"max":[
				0.09433963149785995,
				0.7494988441467285,
				0.11442316323518753
			],
			"min":[
				-0.1590583771467209,
				0.632289469242096,
				-0.18974019587039948
			],
			"type":"VEC3"
		},
		{
			"bufferView":9,
			"componentType":5126,
			"count":216,
			"type":"VEC3"
		},
		{
			"bufferView":10,
			"componentType":5126,
			"count":216,
			"type":"VEC2"
		},
		{
			"bufferView":11,
			"componentType":5126,
			"count":216,
			"max":[
				0.22263820469379425,
				0.8029501438140869,
				0.1239180713891983
			],
			"min":[
				0.018001601099967957,
				0.7098261713981628,
				-0.1244133859872818
			],
			"type":"VEC3"
		},
		{
			"bufferView":12,
			"componentType":5126,
			"count":216,
			"type":"VEC3"
		},
		{
			"bufferView":13,
			"componentType":5126,
			"count":216,
			"type":"VEC2"
		}
	],
	"bufferViews":[
		{
			"buffer":0,
			"byteLength":31104,
			"byteOffset":0,
			"target":34962
		},
		{
			"buffer":0,
			"byteLength":31104,
			"byteOffset":31104,
			"target":34962
		},
		{
			"buffer":0,
			"byteLength":20736,
			"byteOffset":62208,
			"target":34962
		},
		{
			"buffer":0,
			"byteLength":7776,
			"byteOffset":82944,
			"target":34963
		},
		{
			"buffer":0,
			"byteLength":2592,
			"byteOffset":90720,
			"target":34962
		},
		{
			"buffer":0,
			"byteLength":2592,
			"byteOffset":93312,
			"target":34962
		},
		{
			"buffer":0,
			"byteLength":1728,
			"byteOffset":95904,
			"target":34962
		},
		{
			"buffer":0,
			"byteLength":648,
			"byteOffset":97632,
			"target":34963
		},
		{
			"buffer":0,
			"byteLength":2592,
			"byteOffset":98280,
			"target":34962
		},
		{
			"buffer":0,
			"byteLength":2592,
			"byteOffset":100872,
			"target":34962
		},
		{
			"buffer":0,
			"byteLength":1728,
			"byteOffset":103464,
			"target":34962
		},
		{
			"buffer":0,
			"byteLength":2592,
			"byteOffset":105192,
			"target":34962
		},
		{
			"buffer":0,
			"byteLength":2592,
			"byteOffset":107784,
			"target":34962
		},
		{
			"buffer":0,
			"byteLength":1728,
			"byteOffset":110376,
			"target":34962
		}
	],
	"buffers":[
		{
			"byteLength":112104,
			"uri":"model.bin"
		}
	]
}
