{
	"asset":{
		"generator":"Khronos glTF Blender I/O v4.0.44",
		"version":"2.0"
	},
	"scene":0,
	"scenes":[
		{
			"name":"Scene",
			"nodes":[
				0
			]
		}
	],
	"nodes":[
		{
			"mesh":0,
			"name":"wallLantern"
		}
	],
	"materials":[
		{
			"doubleSided":true,
			"name":"iron",
			"pbrMetallicRoughness":{
				"baseColorFactor":[
					0.10999999940395355,
					0.10999999940395355,
					0.11999999731779099,
					1
				],
				"metallicFactor":0.8500000238418579,
				"roughnessFactor":0.44999998807907104
			}
		},
		{
			"doubleSided":true,
			"name":"wax",
			"pbrMetallicRoughness":{
				"baseColorFactor":[
					0.8299999833106995,
					0.7900000214576721,
					0.6600000262260437,
					1
				],
				"metallicFactor":0,
				"roughnessFactor":0.550000011920929
			}
		},
		{
			"doubleSided":true,
			"name":"brass",
			"pbrMetallicRoughness":{
				"baseColorFactor":[
					0.41999998688697815,
					0.30000001192092896,
					0.11999999731779099,
					1
				],
				"metallicFactor":0.8999999761581421,
				"roughnessFactor":0.3499999940395355
			}
		}
	],
	"meshes":[
		{
			"name":"Cube",
			"primitives":[
				{
					"attributes":{
						"POSITION":0,
						"NORMAL":1,
						"TEXCOORD_0":2
					},
					"indices":3,
					"material":0
				},
				{
					"attributes":{
						"POSITION":4,
						"NORMAL":5,
						"TEXCOORD_0":6
					},
					"indices":7,
					"material":1
				},
				{
					"attributes":{
						"POSITION":8,
						"NORMAL":9,
						"TEXCOORD_0":10
					},
					"indices":11,
					"material":2
				}
			]
		}
	],
	"accessors":[
		{
			"bufferView":0,
			"componentType":5126,
			"count":1196,
			"max":[
				0.07000000029802322,
				0.23999999463558197,
				0.28999999165534973
			],
			"min":[
				-0.07000000029802322,
				-0.14499999582767487,
				-0.009999997913837433
			],
			"type":"VEC3"
		},
		{
			"bufferView":1,
			"componentType":5126,
			"count":1196,
			"type":"VEC3"
		},
		{
			"bufferView":2,
			"componentType":5126,
			"count":1196,
			"type":"VEC2"
		},
		{
			"bufferView":3,
			"componentType":5123,
			"count":1836,
			"type":"SCALAR"
		},
		{
			"bufferView":4,
			"componentType":5126,
			"count":48,
			"max":[
				0.019999999552965164,
				-0.055000003427267075,
				0.23999999463558197
			],
			"min":[
				-0.019999999552965164,
				-0.125,
				0.20000000298023224
			],
			"type":"VEC3"
		},
		{
			"bufferView":5,
			"componentType":5126,
			"count":48,
			"type":"VEC3"
		},
		{
			"bufferView":6,
			"componentType":5126,
			"count":48,
			"type":"VEC2"
		},
		{
			"bufferView":7,
			"componentType":5123,
			"count":84,
			"type":"SCALAR"
		},
		{
			"bufferView":8,
			"componentType":5126,
			"count":36,
			"max":[
				0.0069282036274671555,
				-0.030000001192092896,
				0.2280000001192093
			],
			"min":[
				-0.0069282036274671555,
				-0.06000000238418579,
				0.21199999749660492
			],
			"type":"VEC3"
		},
		{
			"bufferView":9,
			"componentType":5126,
			"count":36,
			"type":"VEC3"
		},
		{
			"bufferView":10,
			"componentType":5126,
			"count":36,
			"type":"VEC2"
		},
		{
			"bufferView":11,
			"componentType":5123,
			"count":60,
			"type":"SCALAR"
		}
	],
	"bufferViews":[
		{
			"buffer":0,
			"byteLength":14352,
			"byteOffset":0,
			"target":34962
		},
		{
			"buffer":0,
			"byteLength":14352,
			"byteOffset":14352,
			"target":34962
		},
		{
			"buffer":0,
			"byteLength":9568,
			"byteOffset":28704,
			"target":34962
		},
		{
			"buffer":0,
			"byteLength":3672,
			"byteOffset":38272,
			"target":34963
		},
		{
			"buffer":0,
			"byteLength":576,
			"byteOffset":41944,
			"target":34962
		},
		{
			"buffer":0,
			"byteLength":576,
			"byteOffset":42520,
			"target":34962
		},
		{
			"buffer":0,
			"byteLength":384,
			"byteOffset":43096,
			"target":34962
		},
		{
			"buffer":0,
			"byteLength":168,
			"byteOffset":43480,
			"target":34963
		},
		{
			"buffer":0,
			"byteLength":432,
			"byteOffset":43648,
			"target":34962
		},
		{
			"buffer":0,
			"byteLength":432,
			"byteOffset":44080,
			"target":34962
		},
		{
			"buffer":0,
			"byteLength":288,
			"byteOffset":44512,
			"target":34962
		},
		{
			"buffer":0,
			"byteLength":120,
			"byteOffset":44800,
			"target":34963
		}
	],
	"buffers":[
		{
			"byteLength":44920,
			"uri":"model.bin"
		}
	]
}
