{
	"asset":{
		"generator":"Khronos glTF Blender I/O v4.0.44",
		"version":"2.0"
	},
	"scene":0,
	"scenes":[
		{
			"name":"Scene",
			"nodes":[
				0
			]
		}
	],
	"nodes":[
		{
			"mesh":0,
			"name":"radiatorTall"
		}
	],
	"materials":[
		{
			"doubleSided":true,
			"name":"iron",
			"pbrMetallicRoughness":{
				"baseColorFactor":[
					0.10999999940395355,
					0.10999999940395355,
					0.11999999731779099,
					1
				],
				"metallicFactor":0.8500000238418579,
				"roughnessFactor":0.44999998807907104
			}
		},
		{
			"doubleSided":true,
			"name":"brass",
			"pbrMetallicRoughness":{
				"baseColorFactor":[
					0.41999998688697815,
					0.30000001192092896,
					0.11999999731779099,
					1
				],
				"metallicFactor":0.8999999761581421,
				"roughnessFactor":0.3499999940395355
			}
		}
	],
	"meshes":[
		{
			"name":"Cube",
			"primitives":[
				{
					"attributes":{
						"POSITION":0,
						"NORMAL":1,
						"TEXCOORD_0":2
					},
					"indices":3,
					"material":0
				},
				{
					"attributes":{
						"POSITION":4,
						"NORMAL":5,
						"TEXCOORD_0":6
					},
					"indices":7,
					"material":1
				}
			]
		}
	],
	"accessors":[
		{
			"bufferView":0,
			"componentType":5126,
			"count":1836,
			"max":[
				0.41099998354911804,
				0.9329999685287476,
				0.11999999731779099
			],
			"min":[
				-0.33000001311302185,
				0,
				-0.11999999731779099
			],
			"type":"VEC3"
		},
		{
			"bufferView":1,
			"componentType":5126,
			"count":1836,
			"type":"VEC3"
		},
		{
			"bufferView":2,
			"componentType":5126,
			"count":1836,
			"type":"VEC2"
		},
		{
			"bufferView":3,
			"componentType":5123,
			"count":2904,
			"type":"SCALAR"
		},
		{
			"bufferView":4,
			"componentType":5126,
			"count":48,
			"max":[
				-0.34200000762939453,
				0.9490000009536743,
				0.00800000037997961
			],
			"min":[
				-0.3579999804496765,
				0.8990000486373901,
				-0.00800000037997961
			],
			"type":"VEC3"
		},
		{
			"bufferView":5,
			"componentType":5126,
			"count":48,
			"type":"VEC3"
		},
		{
			"bufferView":6,
			"componentType":5126,
			"count":48,
			"type":"VEC2"
		},
		{
			"bufferView":7,
			"componentType":5123,
			"count":84,
			"type":"SCALAR"
		}
	],
	"bufferViews":[
		{
			"buffer":0,
			"byteLength":22032,
			"byteOffset":0,
			"target":34962
		},
		{
			"buffer":0,
			"byteLength":22032,
			"byteOffset":22032,
			"target":34962
		},
		{
			"buffer":0,
			"byteLength":14688,
			"byteOffset":44064,
			"target":34962
		},
		{
			"buffer":0,
			"byteLength":5808,
			"byteOffset":58752,
			"target":34963
		},
		{
			"buffer":0,
			"byteLength":576,
			"byteOffset":64560,
			"target":34962
		},
		{
			"buffer":0,
			"byteLength":576,
			"byteOffset":65136,
			"target":34962
		},
		{
			"buffer":0,
			"byteLength":384,
			"byteOffset":65712,
			"target":34962
		},
		{
			"buffer":0,
			"byteLength":168,
			"byteOffset":66096,
			"target":34963
		}
	],
	"buffers":[
		{
			"byteLength":66264,
			"uri":"model.bin"
		}
	]
}
