{"asset": {"generator": "Khronos glTF Blender I/O v4.1.63", "version": "2.0"}, "scene": 0, "scenes": [{"name": "Scene", "nodes": [0, 1]}], "nodes": [{"mesh": 0, "name": "dry_quiver_leaf_b", "translation": [0, 0.008695343509316444, 0.0028984472155570984]}, {"mesh": 1, "name": "dry_quiver_leaf_a", "translation": [-0.24636808037757874, 0.013526087626814842, -0.019322983920574188]}], "materials": [{"doubleSided": true, "name": "dry_quiver_leaf", "normalTexture": {"index": 0}, "pbrMetallicRoughness": {"baseColorTexture": {"index": 1}, "metallicFactor": 0, "metallicRoughnessTexture": {"index": 2}}}], "meshes": [{"name": "dry_barbed_finger_02_high_remesh", "primitives": [{"attributes": {"POSITION": 0, "NORMAL": 1, "TEXCOORD_0": 2}, "indices": 3, "material": 0}]}, {"name": "dry_barbed_finger_01_high_remesh", "primitives": [{"attributes": {"POSITION": 4, "NORMAL": 5, "TEXCOORD_0": 6}, "indices": 7, "material": 0}]}], "textures": [{"sampler": 0, "source": 0}, {"sampler": 0, "source": 1}, {"sampler": 0, "source": 2}], "images": [{"mimeType": "image/jpeg", "name": "dry_quiver_leaf_nor_gl", "uri": "textures/dry_quiver_leaf_nor_gl_1k.jpg"}, {"mimeType": "image/jpeg", "name": "dry_quiver_leaf_diff", "uri": "textures/dry_quiver_leaf_diff_1k.jpg"}, {"mimeType": "image/jpeg", "name": "dry_quiver_leaf_rough", "uri": "textures/dry_quiver_leaf_arm_1k.jpg"}], "accessors": [{"bufferView": 0, "componentType": 5126, "count": 28561, "max": [0.07350599020719528, 0.19268189370632172, 0.07323572784662247], "min": [-0.05708564817905426, -0.2057059407234192, -0.07663924247026443], "type": "VEC3"}, {"bufferView": 1, "componentType": 5126, "count": 28561, "type": "VEC3"}, {"bufferView": 2, "componentType": 5126, "count": 28561, "type": "VEC2"}, {"bufferView": 3, "componentType": 5123, "count": 159060, "type": "SCALAR"}, {"bufferView": 4, "componentType": 5126, "count": 14054, "max": [0.06389234215021133, 0.1871795654296875, 0.10022291541099548], "min": [-0.07682818919420242, -0.23714306950569153, -0.09157492965459824], "type": "VEC3"}, {"bufferView": 5, "componentType": 5126, "count": 14054, "type": "VEC3"}, {"bufferView": 6, "componentType": 5126, "count": 14054, "type": "VEC2"}, {"bufferView": 7, "componentType": 5123, "count": 77100, "type": "SCALAR"}], "bufferViews": [{"buffer": 0, "byteLength": 342732, "byteOffset": 0, "target": 34962}, {"buffer": 0, "byteLength": 342732, "byteOffset": 342732, "target": 34962}, {"buffer": 0, "byteLength": 228488, "byteOffset": 685464, "target": 34962}, {"buffer": 0, "byteLength": 318120, "byteOffset": 913952, "target": 34963}, {"buffer": 0, "byteLength": 168648, "byteOffset": 1232072, "target": 34962}, {"buffer": 0, "byteLength": 168648, "byteOffset": 1400720, "target": 34962}, {"buffer": 0, "byteLength": 112432, "byteOffset": 1569368, "target": 34962}, {"buffer": 0, "byteLength": 154200, "byteOffset": 1681800, "target": 34963}], "samplers": [{"magFilter": 9729, "minFilter": 9987}], "buffers": [{"byteLength": 1836000, "uri": "dry_quiver_leaf.bin"}]}