{
	"asset":{
		"generator":"Khronos glTF Blender I/O v4.2.70",
		"version":"2.0"
	},
	"scene":0,
	"scenes":[
		{
			"name":"Scene",
			"nodes":[
				0
			]
		}
	],
	"nodes":[
		{
			"mesh":0,
			"name":"radiatorFin"
		}
	],
	"materials":[
		{
			"doubleSided":true,
			"name":"iron",
			"pbrMetallicRoughness":{
				"baseColorFactor":[
					0.10999999940395355,
					0.10999999940395355,
					0.11999999731779099,
					1
				],
				"metallicFactor":0.8500000238418579,
				"roughnessFactor":0.44999998807907104
			}
		}
	],
	"meshes":[
		{
			"name":"Cube",
			"primitives":[
				{
					"attributes":{
						"POSITION":0,
						"NORMAL":1,
						"TEXCOORD_0":2
					},
					"indices":3,
					"material":0
				}
			]
		}
	],
	"accessors":[
		{
			"bufferView":0,
			"componentType":5126,
			"count":1804,
			"max":[
				0.546999990940094,
				0.5680000185966492,
				0.10000000149011612
			],
			"min":[
				-0.46000000834465027,
				0,
				-0.10000000149011612
			],
			"type":"VEC3"
		},
		{
			"bufferView":1,
			"componentType":5126,
			"count":1804,
			"type":"VEC3"
		},
		{
			"bufferView":2,
			"componentType":5126,
			"count":1804,
			"type":"VEC2"
		},
		{
			"bufferView":3,
			"componentType":5123,
			"count":2832,
			"type":"SCALAR"
		}
	],
	"bufferViews":[
		{
			"buffer":0,
			"byteLength":21648,
			"byteOffset":0,
			"target":34962
		},
		{
			"buffer":0,
			"byteLength":21648,
			"byteOffset":21648,
			"target":34962
		},
		{
			"buffer":0,
			"byteLength":14432,
			"byteOffset":43296,
			"target":34962
		},
		{
			"buffer":0,
			"byteLength":5664,
			"byteOffset":57728,
			"target":34963
		}
	],
	"buffers":[
		{
			"byteLength":63392,
			"uri":"model.bin"
		}
	]
}
