{
	"asset":{
		"generator":"Khronos glTF Blender I/O v4.2.70",
		"version":"2.0"
	},
	"scene":0,
	"scenes":[
		{
			"name":"Scene",
			"nodes":[
				0
			]
		}
	],
	"nodes":[
		{
			"mesh":0,
			"name":"kitchenRange",
			"translation":[
				-0.6200000047683716,
				0.07000000029802322,
				0.2800000011920929
			]
		}
	],
	"materials":[
		{
			"doubleSided":true,
			"name":"iron",
			"pbrMetallicRoughness":{
				"baseColorFactor":[
					0.10999999940395355,
					0.10999999940395355,
					0.11999999731779099,
					1
				],
				"metallicFactor":0.8500000238418579,
				"roughnessFactor":0.44999998807907104
			}
		},
		{
			"doubleSided":true,
			"name":"darkwood",
			"pbrMetallicRoughness":{
				"baseColorFactor":[
					0.1599999964237213,
					0.10000000149011612,
					0.07000000029802322,
					1
				],
				"metallicFactor":0,
				"roughnessFactor":0.699999988079071
			}
		},
		{
			"doubleSided":true,
			"name":"brass",
			"pbrMetallicRoughness":{
				"baseColorFactor":[
					0.41999998688697815,
					0.30000001192092896,
					0.11999999731779099,
					1
				],
				"metallicFactor":0.8999999761581421,
				"roughnessFactor":0.3499999940395355
			}
		}
	],
	"meshes":[
		{
			"name":"Cylinder",
			"primitives":[
				{
					"attributes":{
						"POSITION":0,
						"NORMAL":1,
						"TEXCOORD_0":2
					},
					"indices":3,
					"material":0
				},
				{
					"attributes":{
						"POSITION":4,
						"NORMAL":5,
						"TEXCOORD_0":6
					},
					"indices":7,
					"material":1
				},
				{
					"attributes":{
						"POSITION":8,
						"NORMAL":9,
						"TEXCOORD_0":10
					},
					"indices":11,
					"material":2
				}
			]
		}
	],
	"accessors":[
		{
			"bufferView":0,
			"componentType":5126,
			"count":1704,
			"max":[
				1.5099999904632568,
				2.3299999237060547,
				0.15900000929832458
			],
			"min":[
				-0.0899999737739563,
				-0.07000000029802322,
				-0.6499999761581421
			],
			"type":"VEC3"
		},
		{
			"bufferView":1,
			"componentType":5126,
			"count":1704,
			"type":"VEC3"
		},
		{
			"bufferView":2,
			"componentType":5126,
			"count":1704,
			"type":"VEC2"
		},
		{
			"bufferView":3,
			"componentType":5123,
			"count":2688,
			"type":"SCALAR"
		},
		{
			"bufferView":4,
			"componentType":5126,
			"count":1776,
			"max":[
				1.2699999809265137,
				0.9589999914169312,
				0.11200001835823059
			],
			"min":[
				-0.029999971389770508,
				0.03999999910593033,
				-0.5900000333786011
			],
			"type":"VEC3"
		},
		{
			"bufferView":5,
			"componentType":5126,
			"count":1776,
			"type":"VEC3"
		},
		{
			"bufferView":6,
			"componentType":5126,
			"count":1776,
			"type":"VEC2"
		},
		{
			"bufferView":7,
			"componentType":5123,
			"count":2736,
			"type":"SCALAR"
		},
		{
			"bufferView":8,
			"componentType":5126,
			"count":144,
			"max":[
				0.8703923225402832,
				0.6020000576972961,
				0.11500000208616257
			],
			"min":[
				0.36960768699645996,
				0.578000009059906,
				0.0650000050663948
			],
			"type":"VEC3"
		},
		{
			"bufferView":9,
			"componentType":5126,
			"count":144,
			"type":"VEC3"
		},
		{
			"bufferView":10,
			"componentType":5126,
			"count":144,
			"type":"VEC2"
		},
		{
			"bufferView":11,
			"componentType":5123,
			"count":240,
			"type":"SCALAR"
		}
	],
	"bufferViews":[
		{
			"buffer":0,
			"byteLength":20448,
			"byteOffset":0,
			"target":34962
		},
		{
			"buffer":0,
			"byteLength":20448,
			"byteOffset":20448,
			"target":34962
		},
		{
			"buffer":0,
			"byteLength":13632,
			"byteOffset":40896,
			"target":34962
		},
		{
			"buffer":0,
			"byteLength":5376,
			"byteOffset":54528,
			"target":34963
		},
		{
			"buffer":0,
			"byteLength":21312,
			"byteOffset":59904,
			"target":34962
		},
		{
			"buffer":0,
			"byteLength":21312,
			"byteOffset":81216,
			"target":34962
		},
		{
			"buffer":0,
			"byteLength":14208,
			"byteOffset":102528,
			"target":34962
		},
		{
			"buffer":0,
			"byteLength":5472,
			"byteOffset":116736,
			"target":34963
		},
		{
			"buffer":0,
			"byteLength":1728,
			"byteOffset":122208,
			"target":34962
		},
		{
			"buffer":0,
			"byteLength":1728,
			"byteOffset":123936,
			"target":34962
		},
		{
			"buffer":0,
			"byteLength":1152,
			"byteOffset":125664,
			"target":34962
		},
		{
			"buffer":0,
			"byteLength":480,
			"byteOffset":126816,
			"target":34963
		}
	],
	"buffers":[
		{
			"byteLength":127296,
			"uri":"model.bin"
		}
	]
}
