{
	"asset":{
		"generator":"Khronos glTF Blender I/O v4.2.83",
		"version":"2.0"
	},
	"scene":0,
	"scenes":[
		{
			"name":"Scene",
			"nodes":[
				0
			]
		}
	],
	"nodes":[
		{
			"mesh":0,
			"name":"hatch"
		}
	],
	"materials":[
		{
			"doubleSided":true,
			"name":"iron",
			"pbrMetallicRoughness":{
				"baseColorFactor":[
					0.10999999940395355,
					0.10999999940395355,
					0.11999999731779099,
					1
				],
				"metallicFactor":0.8500000238418579,
				"roughnessFactor":0.44999998807907104
			}
		},
		{
			"doubleSided":true,
			"name":"darkwood",
			"pbrMetallicRoughness":{
				"baseColorFactor":[
					0.1599999964237213,
					0.10000000149011612,
					0.07000000029802322,
					1
				],
				"metallicFactor":0,
				"roughnessFactor":0.699999988079071
			}
		}
	],
	"meshes":[
		{
			"name":"Cube",
			"primitives":[
				{
					"attributes":{
						"POSITION":0,
						"NORMAL":1,
						"TEXCOORD_0":2
					},
					"indices":3,
					"material":0
				},
				{
					"attributes":{
						"POSITION":4,
						"NORMAL":5,
						"TEXCOORD_0":6
					},
					"indices":7,
					"material":1
				}
			]
		}
	],
	"accessors":[
		{
			"bufferView":0,
			"componentType":5126,
			"count":5108,
			"max":[
				0.5799999833106995,
				1.899999976158142,
				0.25
			],
			"min":[
				-0.550000011920929,
				0,
				-0.07999999821186066
			],
			"type":"VEC3"
		},
		{
			"bufferView":1,
			"componentType":5126,
			"count":5108,
			"type":"VEC3"
		},
		{
			"bufferView":2,
			"componentType":5126,
			"count":5108,
			"type":"VEC2"
		},
		{
			"bufferView":3,
			"componentType":5123,
			"count":7392,
			"type":"SCALAR"
		},
		{
			"bufferView":4,
			"componentType":5126,
			"count":216,
			"max":[
				0.47999998927116394,
				1.8299999237060547,
				0.054999999701976776
			],
			"min":[
				-0.47999998927116394,
				0.06999999284744263,
				0.004999998956918716
			],
			"type":"VEC3"
		},
		{
			"bufferView":5,
			"componentType":5126,
			"count":216,
			"type":"VEC3"
		},
		{
			"bufferView":6,
			"componentType":5126,
			"count":216,
			"type":"VEC2"
		},
		{
			"bufferView":7,
			"componentType":5123,
			"count":324,
			"type":"SCALAR"
		}
	],
	"bufferViews":[
		{
			"buffer":0,
			"byteLength":61296,
			"byteOffset":0,
			"target":34962
		},
		{
			"buffer":0,
			"byteLength":61296,
			"byteOffset":61296,
			"target":34962
		},
		{
			"buffer":0,
			"byteLength":40864,
			"byteOffset":122592,
			"target":34962
		},
		{
			"buffer":0,
			"byteLength":14784,
			"byteOffset":163456,
			"target":34963
		},
		{
			"buffer":0,
			"byteLength":2592,
			"byteOffset":178240,
			"target":34962
		},
		{
			"buffer":0,
			"byteLength":2592,
			"byteOffset":180832,
			"target":34962
		},
		{
			"buffer":0,
			"byteLength":1728,
			"byteOffset":183424,
			"target":34962
		},
		{
			"buffer":0,
			"byteLength":648,
			"byteOffset":185152,
			"target":34963
		}
	],
	"buffers":[
		{
			"byteLength":185800,
			"uri":"model.bin"
		}
	]
}
