{
	"asset":{
		"generator":"Khronos glTF Blender I/O v4.2.70",
		"version":"2.0"
	},
	"scene":0,
	"scenes":[
		{
			"name":"Scene",
			"nodes":[
				0
			]
		}
	],
	"nodes":[
		{
			"mesh":0,
			"name":"wineRack"
		}
	],
	"materials":[
		{
			"doubleSided":true,
			"name":"darkwood",
			"pbrMetallicRoughness":{
				"baseColorFactor":[
					0.1599999964237213,
					0.10000000149011612,
					0.07000000029802322,
					1
				],
				"metallicFactor":0,
				"roughnessFactor":0.699999988079071
			}
		},
		{
			"doubleSided":true,
			"name":"oakwood",
			"pbrMetallicRoughness":{
				"baseColorFactor":[
					0.3199999928474426,
					0.2199999988079071,
					0.12999999523162842,
					1
				],
				"metallicFactor":0,
				"roughnessFactor":0.800000011920929
			}
		},
		{
			"doubleSided":true,
			"name":"bookcloth",
			"pbrMetallicRoughness":{
				"baseColorFactor":[
					0.20000000298023224,
					0.23999999463558197,
					0.20000000298023224,
					1
				],
				"metallicFactor":0,
				"roughnessFactor":0.8999999761581421
			}
		}
	],
	"meshes":[
		{
			"name":"Cube",
			"primitives":[
				{
					"attributes":{
						"POSITION":0,
						"NORMAL":1,
						"TEXCOORD_0":2
					},
					"indices":3,
					"material":0
				},
				{
					"attributes":{
						"POSITION":4,
						"NORMAL":5,
						"TEXCOORD_0":6
					},
					"indices":7,
					"material":1
				},
				{
					"attributes":{
						"POSITION":8,
						"NORMAL":9,
						"TEXCOORD_0":10
					},
					"indices":11,
					"material":2
				}
			]
		}
	],
	"accessors":[
		{
			"bufferView":0,
			"componentType":5126,
			"count":1272,
			"max":[
				0.4000000059604645,
				0.45500001311302185,
				0.2111966907978058
			],
			"min":[
				-0.4000000059604645,
				-0.45500001311302185,
				-0.11385360360145569
			],
			"type":"VEC3"
		},
		{
			"bufferView":1,
			"componentType":5126,
			"count":1272,
			"type":"VEC3"
		},
		{
			"bufferView":2,
			"componentType":5126,
			"count":1272,
			"type":"VEC2"
		},
		{
			"bufferView":3,
			"componentType":5123,
			"count":2016,
			"type":"SCALAR"
		},
		{
			"bufferView":4,
			"componentType":5126,
			"count":432,
			"max":[
				0.40530362725257874,
				0.23456619679927826,
				0.019999999552965164
			],
			"min":[
				-0.40530362725257874,
				-0.23456619679927826,
				-0.019999999552965164
			],
			"type":"VEC3"
		},
		{
			"bufferView":5,
			"componentType":5126,
			"count":432,
			"type":"VEC3"
		},
		{
			"bufferView":6,
			"componentType":5126,
			"count":432,
			"type":"VEC2"
		},
		{
			"bufferView":7,
			"componentType":5123,
			"count":648,
			"type":"SCALAR"
		},
		{
			"bufferView":8,
			"componentType":5126,
			"count":240,
			"max":[
				0.3080422878265381,
				0.27527493238449097,
				0.15385359525680542
			],
			"min":[
				-0.3080422878265381,
				-0.23527494072914124,
				-0.11385360360145569
			],
			"type":"VEC3"
		},
		{
			"bufferView":9,
			"componentType":5126,
			"count":240,
			"type":"VEC3"
		},
		{
			"bufferView":10,
			"componentType":5126,
			"count":240,
			"type":"VEC2"
		},
		{
			"bufferView":11,
			"componentType":5123,
			"count":432,
			"type":"SCALAR"
		}
	],
	"bufferViews":[
		{
			"buffer":0,
			"byteLength":15264,
			"byteOffset":0,
			"target":34962
		},
		{
			"buffer":0,
			"byteLength":15264,
			"byteOffset":15264,
			"target":34962
		},
		{
			"buffer":0,
			"byteLength":10176,
			"byteOffset":30528,
			"target":34962
		},
		{
			"buffer":0,
			"byteLength":4032,
			"byteOffset":40704,
			"target":34963
		},
		{
			"buffer":0,
			"byteLength":5184,
			"byteOffset":44736,
			"target":34962
		},
		{
			"buffer":0,
			"byteLength":5184,
			"byteOffset":49920,
			"target":34962
		},
		{
			"buffer":0,
			"byteLength":3456,
			"byteOffset":55104,
			"target":34962
		},
		{
			"buffer":0,
			"byteLength":1296,
			"byteOffset":58560,
			"target":34963
		},
		{
			"buffer":0,
			"byteLength":2880,
			"byteOffset":59856,
			"target":34962
		},
		{
			"buffer":0,
			"byteLength":2880,
			"byteOffset":62736,
			"target":34962
		},
		{
			"buffer":0,
			"byteLength":1920,
			"byteOffset":65616,
			"target":34962
		},
		{
			"buffer":0,
			"byteLength":864,
			"byteOffset":67536,
			"target":34963
		}
	],
	"buffers":[
		{
			"byteLength":68400,
			"uri":"model.bin"
		}
	]
}
