{
	"asset":{
		"generator":"Khronos glTF Blender I/O v4.2.70",
		"version":"2.0"
	},
	"scene":0,
	"scenes":[
		{
			"name":"Scene",
			"nodes":[
				0
			]
		}
	],
	"nodes":[
		{
			"mesh":0,
			"name":"stackedLinen"
		}
	],
	"materials":[
		{
			"doubleSided":true,
			"name":"oakwood",
			"pbrMetallicRoughness":{
				"baseColorFactor":[
					0.3199999928474426,
					0.2199999988079071,
					0.12999999523162842,
					1
				],
				"metallicFactor":0,
				"roughnessFactor":0.800000011920929
			}
		},
		{
			"doubleSided":true,
			"name":"wornleather",
			"pbrMetallicRoughness":{
				"baseColorFactor":[
					0.2800000011920929,
					0.18000000715255737,
					0.10999999940395355,
					1
				],
				"metallicFactor":0,
				"roughnessFactor":0.8500000238418579
			}
		},
		{
			"doubleSided":true,
			"name":"bookcloth",
			"pbrMetallicRoughness":{
				"baseColorFactor":[
					0.20000000298023224,
					0.23999999463558197,
					0.20000000298023224,
					1
				],
				"metallicFactor":0,
				"roughnessFactor":0.8999999761581421
			}
		},
		{
			"doubleSided":true,
			"name":"stone",
			"pbrMetallicRoughness":{
				"baseColorFactor":[
					0.41999998688697815,
					0.3799999952316284,
					0.33000001311302185,
					1
				],
				"metallicFactor":0,
				"roughnessFactor":0.8500000238418579
			}
		}
	],
	"meshes":[
		{
			"name":"Cube",
			"primitives":[
				{
					"attributes":{
						"POSITION":0,
						"NORMAL":1,
						"TEXCOORD_0":2
					},
					"indices":3,
					"material":0
				},
				{
					"attributes":{
						"POSITION":4,
						"NORMAL":5,
						"TEXCOORD_0":6
					},
					"indices":7,
					"material":1
				},
				{
					"attributes":{
						"POSITION":8,
						"NORMAL":9,
						"TEXCOORD_0":10
					},
					"indices":11,
					"material":2
				},
				{
					"attributes":{
						"POSITION":12,
						"NORMAL":13,
						"TEXCOORD_0":14
					},
					"indices":15,
					"material":3
				}
			]
		}
	],
	"accessors":[
		{
			"bufferView":0,
			"componentType":5126,
			"count":1296,
			"max":[
				0.5449999570846558,
				1.7999999523162842,
				0.25
			],
			"min":[
				-0.5449999570846558,
				0,
				-0.25
			],
			"type":"VEC3"
		},
		{
			"bufferView":1,
			"componentType":5126,
			"count":1296,
			"type":"VEC3"
		},
		{
			"bufferView":2,
			"componentType":5126,
			"count":1296,
			"type":"VEC2"
		},
		{
			"bufferView":3,
			"componentType":5123,
			"count":1944,
			"type":"SCALAR"
		},
		{
			"bufferView":4,
			"componentType":5126,
			"count":216,
			"max":[
				0.5199999809265137,
				1.7699999809265137,
				-0.2150000035762787
			],
			"min":[
				-0.5199999809265137,
				0.029999971389770508,
				-0.24500000476837158
			],
			"type":"VEC3"
		},
		{
			"bufferView":5,
			"componentType":5126,
			"count":216,
			"type":"VEC3"
		},
		{
			"bufferView":6,
			"componentType":5126,
			"count":216,
			"type":"VEC2"
		},
		{
			"bufferView":7,
			"componentType":5123,
			"count":324,
			"type":"SCALAR"
		},
		{
			"bufferView":8,
			"componentType":5126,
			"count":2808,
			"max":[
				0.48982763290405273,
				1.4975000619888306,
				0.20832479000091553
			],
			"min":[
				-0.47669655084609985,
				0.057499997317790985,
				-0.20856304466724396
			],
			"type":"VEC3"
		},
		{
			"bufferView":9,
			"componentType":5126,
			"count":2808,
			"type":"VEC3"
		},
		{
			"bufferView":10,
			"componentType":5126,
			"count":2808,
			"type":"VEC2"
		},
		{
			"bufferView":11,
			"componentType":5123,
			"count":4212,
			"type":"SCALAR"
		},
		{
			"bufferView":12,
			"componentType":5126,
			"count":1944,
			"max":[
				0.48921436071395874,
				1.5724999904632568,
				0.20032227039337158
			],
			"min":[
				-0.4893999695777893,
				0.13249999284744263,
				-0.20389239490032196
			],
			"type":"VEC3"
		},
		{
			"bufferView":13,
			"componentType":5126,
			"count":1944,
			"type":"VEC3"
		},
		{
			"bufferView":14,
			"componentType":5126,
			"count":1944,
			"type":"VEC2"
		},
		{
			"bufferView":15,
			"componentType":5123,
			"count":2916,
			"type":"SCALAR"
		}
	],
	"bufferViews":[
		{
			"buffer":0,
			"byteLength":15552,
			"byteOffset":0,
			"target":34962
		},
		{
			"buffer":0,
			"byteLength":15552,
			"byteOffset":15552,
			"target":34962
		},
		{
			"buffer":0,
			"byteLength":10368,
			"byteOffset":31104,
			"target":34962
		},
		{
			"buffer":0,
			"byteLength":3888,
			"byteOffset":41472,
			"target":34963
		},
		{
			"buffer":0,
			"byteLength":2592,
			"byteOffset":45360,
			"target":34962
		},
		{
			"buffer":0,
			"byteLength":2592,
			"byteOffset":47952,
			"target":34962
		},
		{
			"buffer":0,
			"byteLength":1728,
			"byteOffset":50544,
			"target":34962
		},
		{
			"buffer":0,
			"byteLength":648,
			"byteOffset":52272,
			"target":34963
		},
		{
			"buffer":0,
			"byteLength":33696,
			"byteOffset":52920,
			"target":34962
		},
		{
			"buffer":0,
			"byteLength":33696,
			"byteOffset":86616,
			"target":34962
		},
		{
			"buffer":0,
			"byteLength":22464,
			"byteOffset":120312,
			"target":34962
		},
		{
			"buffer":0,
			"byteLength":8424,
			"byteOffset":142776,
			"target":34963
		},
		{
			"buffer":0,
			"byteLength":23328,
			"byteOffset":151200,
			"target":34962
		},
		{
			"buffer":0,
			"byteLength":23328,
			"byteOffset":174528,
			"target":34962
		},
		{
			"buffer":0,
			"byteLength":15552,
			"byteOffset":197856,
			"target":34962
		},
		{
			"buffer":0,
			"byteLength":5832,
			"byteOffset":213408,
			"target":34963
		}
	],
	"buffers":[
		{
			"byteLength":219240,
			"uri":"model.bin"
		}
	]
}
