{
	"asset":{
		"generator":"Khronos glTF Blender I/O v4.0.44",
		"version":"2.0"
	},
	"scene":0,
	"scenes":[
		{
			"name":"Scene",
			"nodes":[
				0
			]
		}
	],
	"nodes":[
		{
			"mesh":0,
			"name":"copperSet",
			"translation":[
				0,
				0.10999999940395355,
				0
			]
		}
	],
	"materials":[
		{
			"doubleSided":true,
			"name":"brass",
			"pbrMetallicRoughness":{
				"baseColorFactor":[
					0.41999998688697815,
					0.30000001192092896,
					0.11999999731779099,
					1
				],
				"metallicFactor":0.8999999761581421,
				"roughnessFactor":0.3499999940395355
			}
		},
		{
			"doubleSided":true,
			"name":"iron",
			"pbrMetallicRoughness":{
				"baseColorFactor":[
					0.10999999940395355,
					0.10999999940395355,
					0.11999999731779099,
					1
				],
				"metallicFactor":0.8500000238418579,
				"roughnessFactor":0.44999998807907104
			}
		}
	],
	"meshes":[
		{
			"name":"Cylinder",
			"primitives":[
				{
					"attributes":{
						"POSITION":0,
						"NORMAL":1,
						"TEXCOORD_0":2
					},
					"indices":3,
					"material":0
				},
				{
					"attributes":{
						"POSITION":4,
						"NORMAL":5,
						"TEXCOORD_0":6
					},
					"indices":7,
					"material":1
				}
			]
		}
	],
	"accessors":[
		{
			"bufferView":0,
			"componentType":5126,
			"count":1876,
			"max":[
				0.3019565939903259,
				0.25099998712539673,
				0.3295900821685791
			],
			"min":[
				-0.13300000131130219,
				-0.10000000149011612,
				-0.14000000059604645
			],
			"type":"VEC3"
		},
		{
			"bufferView":1,
			"componentType":5126,
			"count":1876,
			"type":"VEC3"
		},
		{
			"bufferView":2,
			"componentType":5126,
			"count":1876,
			"type":"VEC2"
		},
		{
			"bufferView":3,
			"componentType":5123,
			"count":2940,
			"type":"SCALAR"
		},
		{
			"bufferView":4,
			"componentType":5126,
			"count":176,
			"max":[
				0.01799999736249447,
				0.17800000309944153,
				0.01799999736249447
			],
			"min":[
				-0.01799999736249447,
				0.1420000195503235,
				-0.01799999736249447
			],
			"type":"VEC3"
		},
		{
			"bufferView":5,
			"componentType":5126,
			"count":176,
			"type":"VEC3"
		},
		{
			"bufferView":6,
			"componentType":5126,
			"count":176,
			"type":"VEC2"
		},
		{
			"bufferView":7,
			"componentType":5123,
			"count":240,
			"type":"SCALAR"
		}
	],
	"bufferViews":[
		{
			"buffer":0,
			"byteLength":22512,
			"byteOffset":0,
			"target":34962
		},
		{
			"buffer":0,
			"byteLength":22512,
			"byteOffset":22512,
			"target":34962
		},
		{
			"buffer":0,
			"byteLength":15008,
			"byteOffset":45024,
			"target":34962
		},
		{
			"buffer":0,
			"byteLength":5880,
			"byteOffset":60032,
			"target":34963
		},
		{
			"buffer":0,
			"byteLength":2112,
			"byteOffset":65912,
			"target":34962
		},
		{
			"buffer":0,
			"byteLength":2112,
			"byteOffset":68024,
			"target":34962
		},
		{
			"buffer":0,
			"byteLength":1408,
			"byteOffset":70136,
			"target":34962
		},
		{
			"buffer":0,
			"byteLength":480,
			"byteOffset":71544,
			"target":34963
		}
	],
	"buffers":[
		{
			"byteLength":72024,
			"uri":"model.bin"
		}
	]
}
