{"asset": {"generator": "Khronos glTF Blender I/O v5.1.20", "version": "2.0"}, "scene": 0, "scenes": [{"name": "Scene", "nodes": [0]}], "nodes": [{"mesh": 0, "name": "propane_torch"}], "materials": [{"doubleSided": true, "name": "propane_torch", "normalTexture": {"index": 0}, "pbrMetallicRoughness": {"baseColorTexture": {"index": 1}, "metallicRoughnessTexture": {"index": 2}}}], "meshes": [{"name": "Cylinder.011", "primitives": [{"attributes": {"POSITION": 0, "NORMAL": 1, "TEXCOORD_0": 2}, "indices": 3, "material": 0}]}], "textures": [{"sampler": 0, "source": 0}, {"sampler": 0, "source": 1}, {"sampler": 0, "source": 2}], "images": [{"mimeType": "image/jpeg", "name": "propane_torch_nor_gl", "uri": "textures/propane_torch_nor_gl_1k.jpg"}, {"mimeType": "image/jpeg", "name": "propane_torch_diff", "uri": "textures/propane_torch_diff_1k.jpg"}, {"mimeType": "image/jpeg", "name": "propane_torch_metal-propane_torch_rough", "uri": "textures/propane_torch_arm_1k.jpg"}], "accessors": [{"bufferView": 0, "componentType": 5126, "count": 3260, "max": [0.02895456738770008, 0.32804858684539795, 0.02895457111299038], "min": [-0.03907039016485214, -9.849667549133301e-05, -0.02895456552505493], "type": "VEC3"}, {"bufferView": 1, "componentType": 5126, "count": 3260, "type": "VEC3"}, {"bufferView": 2, "componentType": 5126, "count": 3260, "type": "VEC2"}, {"bufferView": 3, "componentType": 5123, "count": 14544, "type": "SCALAR"}], "bufferViews": [{"buffer": 0, "byteLength": 39120, "byteOffset": 0, "target": 34962}, {"buffer": 0, "byteLength": 39120, "byteOffset": 39120, "target": 34962}, {"buffer": 0, "byteLength": 26080, "byteOffset": 78240, "target": 34962}, {"buffer": 0, "byteLength": 29088, "byteOffset": 104320, "target": 34963}], "samplers": [{"magFilter": 9729, "minFilter": 9987}], "buffers": [{"byteLength": 133408, "uri": "propane_torch.bin"}]}