{
	"asset":{
		"generator":"Khronos glTF Blender I/O v4.2.70",
		"version":"2.0"
	},
	"scene":0,
	"scenes":[
		{
			"name":"Scene",
			"nodes":[
				0
			]
		}
	],
	"nodes":[
		{
			"mesh":0,
			"name":"ceilingRose",
			"translation":[
				0,
				-0.009999999776482582,
				0
			]
		}
	],
	"materials":[
		{
			"doubleSided":true,
			"name":"stone",
			"pbrMetallicRoughness":{
				"baseColorFactor":[
					0.41999998688697815,
					0.3799999952316284,
					0.33000001311302185,
					1
				],
				"metallicFactor":0,
				"roughnessFactor":0.8500000238418579
			}
		},
		{
			"doubleSided":true,
			"name":"darkwood",
			"pbrMetallicRoughness":{
				"baseColorFactor":[
					0.1599999964237213,
					0.10000000149011612,
					0.07000000029802322,
					1
				],
				"metallicFactor":0,
				"roughnessFactor":0.699999988079071
			}
		},
		{
			"doubleSided":true,
			"name":"brass",
			"pbrMetallicRoughness":{
				"baseColorFactor":[
					0.41999998688697815,
					0.30000001192092896,
					0.11999999731779099,
					1
				],
				"metallicFactor":0.8999999761581421,
				"roughnessFactor":0.3499999940395355
			}
		}
	],
	"meshes":[
		{
			"name":"Cylinder",
			"primitives":[
				{
					"attributes":{
						"POSITION":0,
						"NORMAL":1,
						"TEXCOORD_0":2
					},
					"indices":3,
					"material":0
				},
				{
					"attributes":{
						"POSITION":4,
						"NORMAL":5,
						"TEXCOORD_0":6
					},
					"indices":7,
					"material":1
				},
				{
					"attributes":{
						"POSITION":8,
						"NORMAL":9,
						"TEXCOORD_0":10
					},
					"indices":11,
					"material":2
				}
			]
		}
	],
	"accessors":[
		{
			"bufferView":0,
			"componentType":5126,
			"count":4576,
			"max":[
				0.550000011920929,
				0.02500000037252903,
				0.550000011920929
			],
			"min":[
				-0.550000011920929,
				-0.0650000050663948,
				-0.550000011920929
			],
			"type":"VEC3"
		},
		{
			"bufferView":1,
			"componentType":5126,
			"count":4576,
			"type":"VEC3"
		},
		{
			"bufferView":2,
			"componentType":5126,
			"count":4576,
			"type":"VEC2"
		},
		{
			"bufferView":3,
			"componentType":5123,
			"count":6948,
			"type":"SCALAR"
		},
		{
			"bufferView":4,
			"componentType":5126,
			"count":96,
			"max":[
				0.09000000357627869,
				-0.030000004917383194,
				0.09000000357627869
			],
			"min":[
				-0.09000000357627869,
				-0.15000000596046448,
				-0.09000000357627869
			],
			"type":"VEC3"
		},
		{
			"bufferView":5,
			"componentType":5126,
			"count":96,
			"type":"VEC3"
		},
		{
			"bufferView":6,
			"componentType":5126,
			"count":96,
			"type":"VEC2"
		},
		{
			"bufferView":7,
			"componentType":5123,
			"count":180,
			"type":"SCALAR"
		},
		{
			"bufferView":8,
			"componentType":5126,
			"count":264,
			"max":[
				0.06999999284744263,
				-0.10000000149011612,
				0.06999999284744263
			],
			"min":[
				-0.06999999284744263,
				-0.24000000953674316,
				-0.06999999284744263
			],
			"type":"VEC3"
		},
		{
			"bufferView":9,
			"componentType":5126,
			"count":264,
			"type":"VEC3"
		},
		{
			"bufferView":10,
			"componentType":5126,
			"count":264,
			"type":"VEC2"
		},
		{
			"bufferView":11,
			"componentType":5123,
			"count":360,
			"type":"SCALAR"
		}
	],
	"bufferViews":[
		{
			"buffer":0,
			"byteLength":54912,
			"byteOffset":0,
			"target":34962
		},
		{
			"buffer":0,
			"byteLength":54912,
			"byteOffset":54912,
			"target":34962
		},
		{
			"buffer":0,
			"byteLength":36608,
			"byteOffset":109824,
			"target":34962
		},
		{
			"buffer":0,
			"byteLength":13896,
			"byteOffset":146432,
			"target":34963
		},
		{
			"buffer":0,
			"byteLength":1152,
			"byteOffset":160328,
			"target":34962
		},
		{
			"buffer":0,
			"byteLength":1152,
			"byteOffset":161480,
			"target":34962
		},
		{
			"buffer":0,
			"byteLength":768,
			"byteOffset":162632,
			"target":34962
		},
		{
			"buffer":0,
			"byteLength":360,
			"byteOffset":163400,
			"target":34963
		},
		{
			"buffer":0,
			"byteLength":3168,
			"byteOffset":163760,
			"target":34962
		},
		{
			"buffer":0,
			"byteLength":3168,
			"byteOffset":166928,
			"target":34962
		},
		{
			"buffer":0,
			"byteLength":2112,
			"byteOffset":170096,
			"target":34962
		},
		{
			"buffer":0,
			"byteLength":720,
			"byteOffset":172208,
			"target":34963
		}
	],
	"buffers":[
		{
			"byteLength":172928,
			"uri":"model.bin"
		}
	]
}
