{
	"asset":{
		"generator":"Khronos glTF Blender I/O v4.0.44",
		"version":"2.0"
	},
	"scene":0,
	"scenes":[
		{
			"name":"Scene",
			"nodes":[
				0
			]
		}
	],
	"nodes":[
		{
			"mesh":0,
			"name":"bellCart"
		}
	],
	"materials":[
		{
			"doubleSided":true,
			"name":"wornleather",
			"pbrMetallicRoughness":{
				"baseColorFactor":[
					0.2800000011920929,
					0.18000000715255737,
					0.10999999940395355,
					1
				],
				"metallicFactor":0,
				"roughnessFactor":0.8500000238418579
			}
		},
		{
			"doubleSided":true,
			"name":"bookcloth",
			"pbrMetallicRoughness":{
				"baseColorFactor":[
					0.20000000298023224,
					0.23999999463558197,
					0.20000000298023224,
					1
				],
				"metallicFactor":0,
				"roughnessFactor":0.8999999761581421
			}
		},
		{
			"doubleSided":true,
			"name":"brass",
			"pbrMetallicRoughness":{
				"baseColorFactor":[
					0.41999998688697815,
					0.30000001192092896,
					0.11999999731779099,
					1
				],
				"metallicFactor":0.8999999761581421,
				"roughnessFactor":0.3499999940395355
			}
		},
		{
			"doubleSided":true,
			"name":"iron",
			"pbrMetallicRoughness":{
				"baseColorFactor":[
					0.10999999940395355,
					0.10999999940395355,
					0.11999999731779099,
					1
				],
				"metallicFactor":0.8500000238418579,
				"roughnessFactor":0.44999998807907104
			}
		}
	],
	"meshes":[
		{
			"name":"Cube",
			"primitives":[
				{
					"attributes":{
						"POSITION":0,
						"NORMAL":1,
						"TEXCOORD_0":2
					},
					"indices":3,
					"material":0
				},
				{
					"attributes":{
						"POSITION":4,
						"NORMAL":5,
						"TEXCOORD_0":6
					},
					"indices":3,
					"material":1
				},
				{
					"attributes":{
						"POSITION":7,
						"NORMAL":8,
						"TEXCOORD_0":9
					},
					"indices":10,
					"material":2
				},
				{
					"attributes":{
						"POSITION":11,
						"NORMAL":12,
						"TEXCOORD_0":13
					},
					"indices":14,
					"material":3
				}
			]
		}
	],
	"accessors":[
		{
			"bufferView":0,
			"componentType":5126,
			"count":216,
			"max":[
				0.550000011920929,
				0.1850000023841858,
				0.3100000023841858
			],
			"min":[
				-0.550000011920929,
				0.0949999988079071,
				-0.3100000023841858
			],
			"type":"VEC3"
		},
		{
			"bufferView":1,
			"componentType":5126,
			"count":216,
			"type":"VEC3"
		},
		{
			"bufferView":2,
			"componentType":5126,
			"count":216,
			"type":"VEC2"
		},
		{
			"bufferView":3,
			"componentType":5123,
			"count":324,
			"type":"SCALAR"
		},
		{
			"bufferView":4,
			"componentType":5126,
			"count":216,
			"max":[
				0.49000000953674316,
				0.19749999046325684,
				0.25
			],
			"min":[
				-0.49000000953674316,
				0.18250000476837158,
				-0.25
			],
			"type":"VEC3"
		},
		{
			"bufferView":5,
			"componentType":5126,
			"count":216,
			"type":"VEC3"
		},
		{
			"bufferView":6,
			"componentType":5126,
			"count":216,
			"type":"VEC2"
		},
		{
			"bufferView":7,
			"componentType":5126,
			"count":1092,
			"max":[
				0.550000011920929,
				2.1600000858306885,
				0.3024999797344208
			],
			"min":[
				-0.550000011920929,
				0.0650000050663948,
				-0.4039999842643738
			],
			"type":"VEC3"
		},
		{
			"bufferView":8,
			"componentType":5126,
			"count":1092,
			"type":"VEC3"
		},
		{
			"bufferView":9,
			"componentType":5126,
			"count":1092,
			"type":"VEC2"
		},
		{
			"bufferView":10,
			"componentType":5123,
			"count":1860,
			"type":"SCALAR"
		},
		{
			"bufferView":11,
			"componentType":5126,
			"count":288,
			"max":[
				0.5299999713897705,
				0.0949999988079071,
				0.2549999952316284
			],
			"min":[
				-0.5299999713897705,
				-0.004999998956918716,
				-0.2549999952316284
			],
			"type":"VEC3"
		},
		{
			"bufferView":12,
			"componentType":5126,
			"count":288,
			"type":"VEC3"
		},
		{
			"bufferView":13,
			"componentType":5126,
			"count":288,
			"type":"VEC2"
		},
		{
			"bufferView":14,
			"componentType":5123,
			"count":528,
			"type":"SCALAR"
		}
	],
	"bufferViews":[
		{
			"buffer":0,
			"byteLength":2592,
			"byteOffset":0,
			"target":34962
		},
		{
			"buffer":0,
			"byteLength":2592,
			"byteOffset":2592,
			"target":34962
		},
		{
			"buffer":0,
			"byteLength":1728,
			"byteOffset":5184,
			"target":34962
		},
		{
			"buffer":0,
			"byteLength":648,
			"byteOffset":6912,
			"target":34963
		},
		{
			"buffer":0,
			"byteLength":2592,
			"byteOffset":7560,
			"target":34962
		},
		{
			"buffer":0,
			"byteLength":2592,
			"byteOffset":10152,
			"target":34962
		},
		{
			"buffer":0,
			"byteLength":1728,
			"byteOffset":12744,
			"target":34962
		},
		{
			"buffer":0,
			"byteLength":13104,
			"byteOffset":14472,
			"target":34962
		},
		{
			"buffer":0,
			"byteLength":13104,
			"byteOffset":27576,
			"target":34962
		},
		{
			"buffer":0,
			"byteLength":8736,
			"byteOffset":40680,
			"target":34962
		},
		{
			"buffer":0,
			"byteLength":3720,
			"byteOffset":49416,
			"target":34963
		},
		{
			"buffer":0,
			"byteLength":3456,
			"byteOffset":53136,
			"target":34962
		},
		{
			"buffer":0,
			"byteLength":3456,
			"byteOffset":56592,
			"target":34962
		},
		{
			"buffer":0,
			"byteLength":2304,
			"byteOffset":60048,
			"target":34962
		},
		{
			"buffer":0,
			"byteLength":1056,
			"byteOffset":62352,
			"target":34963
		}
	],
	"buffers":[
		{
			"byteLength":63408,
			"uri":"model.bin"
		}
	]
}
